<svg width="537" height="582" viewBox="0 0 537 582" fill="none" xmlns="http://www.w3.org/2000/svg">
<rect x="25.7202" y="147.205" width="392.545" height="392.545" transform="rotate(-22.0244 25.7202 147.205)" fill="#FFBF75"/>
<circle cx="95.8182" cy="402.37" r="95.8182" fill="#FF9A6F"/>
<path fill-rule="evenodd" clip-rule="evenodd" d="M437.363 527.552L437.355 527.552L437.331 527.552L437.29 527.553L437.234 527.555L437.161 527.558L437.072 527.563L436.967 527.57L436.846 527.579L436.709 527.591L436.557 527.605L436.389 527.623L436.205 527.644L436.006 527.669L435.791 527.699L435.562 527.732L435.317 527.77L435.058 527.814L434.784 527.862L434.495 527.916L434.193 527.976L433.876 528.042L433.546 528.114L433.202 528.193L432.844 528.278L432.474 528.371L432.091 528.471L431.695 528.578L431.287 528.693L430.867 528.816L430.435 528.948L429.991 529.087L429.537 529.235L429.072 529.392L428.596 529.558L428.11 529.732L427.614 529.916L427.108 530.109L426.594 530.312L426.07 530.524L425.538 530.746L424.998 530.977L424.45 531.219L423.895 531.47L423.333 531.732L422.764 532.003L422.188 532.284L421.607 532.576L421.02 532.878L420.428 533.19L419.831 533.512L419.23 533.845L418.624 534.187L418.015 534.54L417.403 534.903L416.788 535.276L416.17 535.659L415.551 536.052L414.929 536.454L414.306 536.867L413.682 537.289L413.058 537.721L412.434 538.162L411.809 538.613L411.185 539.072L410.562 539.541L409.941 540.018L409.321 540.505L408.703 540.999L408.087 541.502L407.474 542.013L406.864 542.532L406.257 543.059L405.654 543.593L405.056 544.135L404.461 544.683L403.871 545.238L403.287 545.799L402.707 546.367L402.133 546.94L401.565 547.519L401.003 548.104L400.448 548.693L399.899 549.287L399.357 549.886L398.822 550.488L398.295 551.095L397.775 551.704L397.264 552.317L396.76 552.933L396.265 553.551L395.778 554.17L395.299 554.792L394.83 555.415L394.37 556.039L393.918 556.663L393.476 557.288L393.044 557.912L392.621 558.536L392.208 559.159L391.804 559.78L391.41 560.4L391.027 561.018L390.653 561.633L390.289 562.246L389.936 562.855L389.592 563.461L389.259 564.063L388.936 564.66L388.623 565.252L388.321 565.84L388.028 566.421L387.746 566.997L387.474 567.567L387.211 568.13L386.959 568.686L386.717 569.234L386.485 569.775L386.262 570.308L386.049 570.832L385.846 571.347L385.652 571.853L385.468 572.35L385.292 572.837L385.126 573.313L384.968 573.779L384.82 574.235L384.679 574.679L384.547 575.112L384.424 575.533L384.308 575.942L384.2 576.339L384.099 576.723L384.006 577.095L383.92 577.453L383.841 577.798L383.768 578.13L383.702 578.447L383.641 578.751L383.587 579.041L383.538 579.316L383.494 579.576L383.456 579.822L383.422 580.053L383.392 580.269L383.367 580.469L383.346 580.654L383.328 580.823L383.313 580.977L383.301 581.115L383.292 581.237L383.285 581.344L383.28 581.434L383.276 581.508L383.274 581.566L383.273 581.608L383.273 581.633L383.272 581.643L383.272 581.636L383.272 581.613L383.271 581.574L383.269 581.518L383.266 581.447L383.261 581.359L383.255 581.255L383.246 581.136L383.234 581L383.22 580.849L383.202 580.682L383.181 580.499L383.157 580.301L383.128 580.088L383.095 579.86L383.057 579.616L383.014 579.358L382.966 579.086L382.913 578.798L382.853 578.497L382.788 578.181L382.716 577.852L382.638 577.509L382.553 577.153L382.461 576.783L382.362 576.401L382.255 576.006L382.14 575.599L382.018 575.18L381.887 574.749L381.748 574.306L381.601 573.853L381.445 573.388L381.28 572.913L381.106 572.428L380.923 571.933L380.73 571.428L380.529 570.914L380.317 570.392L380.096 569.86L379.865 569.321L379.625 568.774L379.374 568.219L379.114 567.657L378.843 567.088L378.562 566.514L378.272 565.933L377.971 565.346L377.659 564.755L377.338 564.158L377.006 563.557L376.665 562.952L376.313 562.343L375.95 561.731L375.578 561.116L375.196 560.499L374.804 559.879L374.402 559.258L373.99 558.635L373.569 558.011L373.138 557.387L372.698 556.763L372.248 556.138L371.789 555.514L371.321 554.891L370.844 554.269L370.358 553.649L369.864 553.031L369.362 552.415L368.852 551.802L368.333 551.192L367.807 550.585L367.274 549.982L366.733 549.382L366.185 548.788L365.631 548.197L365.07 547.612L364.503 547.032L363.93 546.458L363.351 545.889L362.767 545.327L362.178 544.771L361.584 544.221L360.986 543.679L360.384 543.144L359.778 542.616L359.168 542.096L358.556 541.583L357.941 541.079L357.323 540.583L356.703 540.095L356.082 539.616L355.459 539.146L354.835 538.685L354.211 538.233L353.586 537.791L352.962 537.357L352.338 536.934L351.715 536.519L351.093 536.115L350.473 535.721L349.855 535.336L349.24 534.962L348.627 534.597L348.017 534.243L347.411 533.899L346.809 533.564L346.212 533.241L345.619 532.927L345.031 532.624L344.449 532.33L343.873 532.047L343.302 531.774L342.739 531.511L342.182 531.258L341.633 531.015L341.092 530.782L340.559 530.559L340.034 530.345L339.518 530.141L339.011 529.946L338.514 529.761L338.026 529.585L337.548 529.418L337.081 529.26L336.625 529.11L336.18 528.969L335.746 528.837L335.324 528.712L334.914 528.596L334.516 528.487L334.131 528.386L333.759 528.292L333.399 528.206L333.053 528.126L332.72 528.053L332.402 527.986L332.097 527.925L331.806 527.87L331.53 527.821L331.268 527.777L331.021 527.738L330.789 527.704L330.572 527.674L330.371 527.648L330.185 527.626L330.014 527.608L329.859 527.593L329.719 527.581L329.596 527.571L329.489 527.564L329.397 527.559L329.322 527.556L329.262 527.553L329.219 527.552L329.192 527.552L329.182 527.552L329.187 527.552L329.209 527.551L329.247 527.55L329.301 527.549L329.371 527.546L329.458 527.541L329.56 527.534L329.678 527.526L329.813 527.514L329.963 527.5L330.128 527.483L330.31 527.462L330.506 527.438L330.718 527.41L330.946 527.377L331.188 527.339L331.445 527.297L331.716 527.249L332.003 527.196L332.303 527.137L332.617 527.073L332.946 527.001L333.287 526.924L333.643 526.839L334.011 526.748L334.392 526.649L334.786 526.543L335.192 526.429L335.611 526.307L336.041 526.177L336.482 526.039L336.935 525.892L337.399 525.737L337.873 525.572L338.357 525.399L338.851 525.217L339.355 525.025L339.869 524.824L340.391 524.614L340.921 524.393L341.46 524.163L342.007 523.923L342.561 523.674L343.122 523.414L343.69 523.144L344.265 522.864L344.845 522.574L345.431 522.274L346.022 521.964L346.619 521.643L347.219 521.312L347.824 520.971L348.432 520.62L349.044 520.259L349.659 519.888L350.276 519.506L350.896 519.115L351.517 518.714L352.139 518.303L352.763 517.882L353.387 517.452L354.012 517.012L354.636 516.563L355.26 516.105L355.883 515.638L356.505 515.161L357.126 514.677L357.744 514.183L358.36 513.682L358.974 513.172L359.584 512.654L360.191 512.128L360.795 511.596L361.394 511.055L361.989 510.508L362.58 509.954L363.166 509.394L363.746 508.827L364.321 508.255L364.89 507.676L365.453 507.093L366.009 506.504L366.559 505.911L367.102 505.313L367.638 504.711L368.166 504.105L368.687 503.496L369.2 502.884L369.705 502.269L370.202 501.651L370.69 501.032L371.17 500.41L371.641 499.788L372.103 499.164L372.555 498.54L372.999 497.915L373.433 497.291L373.857 496.667L374.272 496.044L374.677 495.422L375.072 494.802L375.458 494.183L375.833 493.568L376.198 492.955L376.553 492.345L376.899 491.739L377.233 491.136L377.558 490.538L377.872 489.945L378.177 489.357L378.471 488.774L378.755 488.197L379.029 487.627L379.292 487.063L379.546 486.506L379.79 485.956L380.024 485.414L380.248 484.88L380.462 484.354L380.667 483.838L380.862 483.33L381.049 482.832L381.225 482.343L381.393 481.865L381.552 481.397L381.702 480.94L381.844 480.494L381.977 480.06L382.102 479.637L382.219 479.225L382.328 478.827L382.43 478.44L382.524 478.067L382.612 477.706L382.692 477.359L382.766 477.025L382.833 476.705L382.894 476.399L382.95 476.108L382.999 475.83L383.044 475.567L383.083 475.319L383.118 475.086L383.148 474.868L383.174 474.665L383.196 474.478L383.215 474.306L383.23 474.15L383.242 474.009L383.252 473.884L383.259 473.776L383.265 473.683L383.268 473.606L383.271 473.546L383.272 473.501L383.272 473.473L383.272 473.461L383.272 473.465L383.273 473.486L383.274 473.522L383.275 473.575L383.278 473.644L383.283 473.729L383.289 473.83L383.298 473.947L383.309 474.08L383.323 474.229L383.339 474.394L383.36 474.574L383.384 474.769L383.412 474.98L383.445 475.206L383.482 475.447L383.524 475.703L383.571 475.973L383.623 476.258L383.682 476.558L383.746 476.871L383.817 477.198L383.894 477.539L383.978 477.893L384.069 478.26L384.167 478.641L384.273 479.033L384.386 479.439L384.507 479.856L384.636 480.285L384.774 480.726L384.92 481.178L385.075 481.64L385.238 482.114L385.411 482.597L385.592 483.091L385.783 483.594L385.984 484.106L386.193 484.628L386.413 485.158L386.642 485.696L386.881 486.242L387.13 486.796L387.389 487.356L387.658 487.924L387.937 488.498L388.226 489.078L388.526 489.663L388.835 490.254L389.155 490.85L389.485 491.45L389.825 492.055L390.176 492.663L390.536 493.274L390.907 493.889L391.287 494.506L391.678 495.125L392.078 495.746L392.488 496.369L392.908 496.992L393.338 497.617L393.777 498.241L394.225 498.866L394.682 499.49L395.149 500.113L395.624 500.735L396.109 501.355L396.601 501.974L397.102 502.59L397.611 503.204L398.129 503.815L398.653 504.422L399.186 505.026L399.725 505.626L400.272 506.221L400.825 506.812L401.385 507.398L401.951 507.979L402.524 508.554L403.101 509.124L403.685 509.687L404.273 510.244L404.866 510.795L405.463 511.338L406.065 511.875L406.67 512.404L407.279 512.925L407.891 513.439L408.506 513.945L409.123 514.442L409.743 514.931L410.364 515.411L410.987 515.883L411.61 516.345L412.235 516.799L412.859 517.243L413.484 517.678L414.108 518.103L414.731 518.519L415.353 518.924L415.973 519.32L416.591 519.707L417.207 520.083L417.821 520.449L418.431 520.805L419.037 521.151L419.64 521.486L420.238 521.812L420.832 522.127L421.421 522.432L422.004 522.727L422.581 523.012L423.152 523.286L423.717 523.551L424.274 523.805L424.825 524.05L425.367 524.285L425.902 524.51L426.428 524.725L426.945 524.93L427.454 525.126L427.953 525.313L428.442 525.491L428.921 525.659L429.39 525.819L429.848 525.97L430.295 526.112L430.73 526.246L431.154 526.372L431.566 526.489L431.966 526.599L432.353 526.701L432.728 526.796L433.089 526.884L433.438 526.965L433.772 527.039L434.093 527.107L434.401 527.169L434.694 527.225L434.972 527.275L435.236 527.32L435.485 527.359L435.72 527.394L435.939 527.425L436.143 527.451L436.332 527.474L436.505 527.493L436.662 527.508L436.804 527.521L436.93 527.53L437.04 527.538L437.134 527.544L437.212 527.547L437.274 527.55L437.32 527.551L437.349 527.552L437.363 527.552L437.363 527.552Z" fill="#FFDF6F"/>
</svg>
