<svg width="449" height="451" viewBox="0 0 449 451" fill="none" xmlns="http://www.w3.org/2000/svg">
<g filter="url(#filter0_d)">
<path fill-rule="evenodd" clip-rule="evenodd" d="M399.359 209.373L414.355 265.344L416.581 273.668L418.029 279.099L419.125 283.229L420.015 286.601L420.767 289.47L421.42 291.979L421.996 294.215L422.513 296.239L422.98 298.089L423.406 299.798L423.797 301.386L424.157 302.872L424.49 304.268L424.8 305.588L425.088 306.838L425.357 308.027L425.608 309.162L425.842 310.247L426.062 311.288L426.267 312.287L426.459 313.249L426.639 314.176L426.807 315.072L426.965 315.938L427.111 316.776L427.248 317.589L427.375 318.378L427.493 319.145L427.602 319.89L427.702 320.616L427.794 321.323L427.879 322.012L427.955 322.685L428.024 323.342L428.086 323.983L428.14 324.611L428.188 325.224L428.228 325.825L428.262 326.413L428.29 326.989L428.31 327.554L428.325 328.108L428.333 328.651L428.335 329.185L428.331 329.708L428.321 330.223L428.305 330.728L428.284 331.225L428.256 331.713L428.222 332.194L428.183 332.667L428.138 333.132L428.088 333.59L428.031 334.041L427.97 334.485L427.902 334.923L427.829 335.354L427.75 335.779L427.666 336.198L427.577 336.612L427.481 337.019L427.381 337.422L427.274 337.819L427.163 338.21L427.045 338.597L426.922 338.979L426.794 339.356L426.66 339.729L426.52 340.097L426.375 340.461L426.224 340.82L426.067 341.175L425.904 341.527L425.736 341.874L425.562 342.218L425.382 342.558L425.196 342.894L425.004 343.227L424.806 343.556L424.603 343.882L424.393 344.205L424.176 344.525L423.954 344.841L423.725 345.155L423.49 345.466L423.248 345.774L422.999 346.079L422.744 346.382L422.483 346.682L422.214 346.979L421.938 347.275L421.655 347.567L421.365 347.858L421.068 348.147L420.763 348.433L420.45 348.718L420.13 349L419.802 349.281L419.466 349.56L419.121 349.837L418.768 350.113L418.406 350.387L418.035 350.66L417.656 350.932L417.267 351.202L416.868 351.472L416.46 351.74L416.041 352.007L415.612 352.274L415.173 352.54L414.722 352.805L414.26 353.07L413.786 353.335L413.3 353.599L412.802 353.863L412.29 354.128L411.765 354.392L411.226 354.658L410.672 354.923L410.102 355.19L409.517 355.457L408.915 355.725L408.296 355.995L407.659 356.267L407.002 356.54L406.325 356.816L405.626 357.094L404.905 357.375L404.16 357.659L403.39 357.947L402.593 358.239L401.767 358.536L400.91 358.837L400.019 359.145L399.093 359.459L398.128 359.78L397.121 360.109L396.068 360.448L394.964 360.797L393.804 361.158L392.583 361.533L391.291 361.923L389.922 362.331L388.462 362.76L386.901 363.214L385.219 363.696L383.395 364.214L381.399 364.774L379.193 365.389L376.718 366.071L373.891 366.846L370.574 367.749L366.523 368.845L361.233 370.27L353.273 372.408L330.181 378.597L241.387 402.388L232.663 404.721L227.085 406.208L222.877 407.326L219.457 408.229L216.554 408.99L214.02 409.65L211.764 410.232L209.726 410.753L207.863 411.223L206.144 411.652L204.547 412.046L203.054 412.408L201.65 412.744L200.325 413.055L199.069 413.345L197.875 413.615L196.737 413.867L195.648 414.103L194.604 414.324L193.601 414.53L192.637 414.724L191.707 414.904L190.809 415.073L189.94 415.231L189.1 415.379L188.285 415.516L187.494 415.644L186.726 415.763L185.978 415.872L185.251 415.973L184.543 416.066L183.852 416.151L183.178 416.228L182.52 416.298L181.877 416.36L181.249 416.415L180.634 416.463L180.033 416.504L179.444 416.539L178.867 416.567L178.301 416.588L177.746 416.603L177.202 416.612L176.668 416.614L176.143 416.611L175.628 416.601L175.122 416.586L174.625 416.565L174.135 416.537L173.654 416.504L173.181 416.466L172.715 416.421L172.257 416.371L171.805 416.315L171.36 416.254L170.922 416.187L170.49 416.114L170.065 416.036L169.645 415.952L169.231 415.863L168.823 415.768L168.421 415.668L168.023 415.562L167.631 415.451L167.244 415.334L166.861 415.211L166.484 415.083L166.111 414.95L165.743 414.81L165.379 414.666L165.019 414.515L164.663 414.359L164.311 414.197L163.964 414.029L163.62 413.855L163.28 413.676L162.943 413.49L162.61 413.299L162.28 413.102L161.954 412.898L161.631 412.689L161.311 412.473L160.994 412.251L160.68 412.022L160.369 411.788L160.061 411.546L159.755 411.299L159.453 411.044L159.152 410.783L158.854 410.515L158.559 410.239L158.266 409.957L157.975 409.668L157.686 409.371L157.4 409.067L157.115 408.755L156.832 408.435L156.552 408.107L156.272 407.772L155.995 407.428L155.719 407.075L155.445 406.714L155.172 406.344L154.9 405.965L154.629 405.577L154.36 405.179L154.092 404.772L153.824 404.354L153.557 403.926L153.291 403.487L153.026 403.038L152.761 402.576L152.497 402.104L152.232 401.619L151.968 401.121L151.703 400.61L151.439 400.086L151.174 399.548L150.908 398.995L150.642 398.427L150.375 397.844L150.106 397.243L149.836 396.625L149.565 395.989L149.292 395.334L149.016 394.658L148.738 393.962L148.458 393.243L148.174 392.5L147.886 391.732L147.594 390.937L147.298 390.113L146.997 389.258L146.69 388.371L146.377 387.447L146.056 386.486L145.727 385.482L145.39 384.433L145.041 383.333L144.681 382.178L144.308 380.961L143.919 379.676L143.512 378.313L143.085 376.861L142.634 375.308L142.154 373.636L141.639 371.825L141.082 369.844L140.473 367.657L139.796 365.206L139.03 362.411L138.14 359.139L137.062 355.161L135.672 350.001L133.621 342.366L128.558 323.477L103.687 230.654L101.233 221.48L99.7036 215.747L98.5645 211.458L97.6475 207.987L96.8765 205.049L96.2099 202.49L95.6224 200.215L95.0971 198.16L94.6227 196.284L94.1905 194.555L93.7945 192.949L93.4296 191.448L93.0922 190.038L92.779 188.707L92.4876 187.446L92.216 186.248L91.9623 185.105L91.7253 184.012L91.5035 182.965L91.2959 181.959L91.1016 180.991L90.9199 180.059L90.7498 179.158L90.591 178.288L90.4427 177.445L90.3045 176.628L90.176 175.835L90.0567 175.065L89.9463 174.316L89.8445 173.588L89.751 172.878L89.6655 172.186L89.5878 171.51L89.5176 170.851L89.4548 170.207L89.3992 169.578L89.3507 168.962L89.3089 168.359L89.2739 167.769L89.2455 167.191L89.2236 166.625L89.2081 166.069L89.1988 165.524L89.1957 164.989L89.1988 164.464L89.2078 163.948L89.2229 163.441L89.2438 162.943L89.2705 162.453L89.3031 161.971L89.3414 161.497L89.3854 161.031L89.4351 160.572L89.4905 160.12L89.5514 159.675L89.618 159.236L89.6901 158.804L89.7678 158.378L89.851 157.957L89.9398 157.543L90.0341 157.135L90.134 156.731L90.2394 156.334L90.3503 155.941L90.4668 155.554L90.5888 155.171L90.7165 154.793L90.8497 154.42L90.9885 154.051L91.133 153.686L91.2832 153.326L91.439 152.97L91.6006 152.618L91.768 152.27L91.9411 151.926L92.1201 151.586L92.3051 151.249L92.4959 150.915L92.6928 150.585L92.8957 150.259L93.1048 149.936L93.32 149.615L93.5416 149.298L93.7694 148.984L94.0036 148.673L94.2444 148.364L94.4917 148.059L94.7457 147.756L95.0064 147.455L95.274 147.157L95.5486 146.862L95.8303 146.568L96.1192 146.277L96.4154 145.988L96.7191 145.702L97.0304 145.417L97.3495 145.134L97.6764 144.853L98.0115 144.574L98.3548 144.296L98.7065 144.02L99.0668 143.746L99.436 143.472L99.8143 143.201L100.202 142.93L100.599 142.66L101.006 142.392L101.423 142.124L101.85 141.858L102.288 141.592L102.736 141.326L103.197 141.061L103.669 140.797L104.153 140.532L104.649 140.268L105.159 140.004L105.682 139.739L106.219 139.474L106.77 139.209L107.337 138.942L107.92 138.675L108.519 138.407L109.135 138.137L109.77 137.866L110.423 137.593L111.097 137.317L111.792 137.04L112.509 136.759L113.25 136.475L114.017 136.188L114.809 135.897L115.631 135.601L116.483 135.3L117.368 134.994L118.288 134.681L119.247 134.361L120.247 134.033L121.292 133.696L122.388 133.349L123.538 132.99L124.75 132.617L126.029 132.23L127.386 131.825L128.83 131.399L130.374 130.95L132.036 130.472L133.835 129.961L135.801 129.407L137.971 128.803L140.398 128.132L143.162 127.374L146.388 126.495L150.298 125.436L155.335 124.079L162.673 122.107L179.059 117.714L274.091 92.2512L283.773 89.6607L289.672 88.0869L294.046 86.9248L297.569 85.9936L300.542 85.2128L303.128 84.539L305.423 83.9458L307.493 83.4161L309.382 82.9379L311.122 82.5027L312.737 82.1039L314.246 81.7367L315.663 81.3972L317 81.0822L318.266 80.7892L319.469 80.516L320.617 80.261L321.713 80.0227L322.764 79.7997L323.773 79.5911L324.743 79.3957L325.679 79.213L326.582 79.0421L327.454 78.8823L328.299 78.7332L329.118 78.5943L329.913 78.465L330.685 78.345L331.435 78.2339L332.165 78.1314L332.877 78.0372L333.57 77.9511L334.247 77.8728L334.907 77.802L335.552 77.7387L336.183 77.6825L336.8 77.6334L337.403 77.5911L337.994 77.5556L338.573 77.5267L339.141 77.5042L339.697 77.4882L340.243 77.4784L340.779 77.4749L341.305 77.4774L341.822 77.486L342.329 77.5005L342.828 77.521L343.318 77.5473L343.801 77.5794L344.275 77.6173L344.742 77.6608L345.202 77.7101L345.655 77.765L346.1 77.8255L346.54 77.8916L346.972 77.9633L347.399 78.0405L347.82 78.1233L348.234 78.2117L348.643 78.3055L349.047 78.4049L349.445 78.5099L349.838 78.6204L350.226 78.7364L350.609 78.858L350.987 78.9852L351.361 79.118L351.73 79.2564L352.095 79.4004L352.455 79.5501L352.812 79.7055L353.164 79.8666L353.512 80.0335L353.857 80.2062L354.198 80.3848L354.535 80.5692L354.868 80.7596L355.199 80.956L355.526 81.1585L355.849 81.367L356.17 81.5818L356.487 81.8028L356.801 82.0301L357.113 82.2638L357.421 82.5041L357.727 82.7508L358.031 83.0043L358.331 83.2645L358.629 83.5316L358.925 83.8056L359.219 84.0867L359.51 84.375L359.799 84.6707L360.086 84.9738L360.371 85.2844L360.654 85.6029L360.935 85.9292L361.214 86.2636L361.492 86.6062L361.768 86.9573L362.043 87.3169L362.316 87.6854L362.588 88.0629L362.859 88.4497L363.128 88.846L363.397 89.252L363.665 89.6681L363.931 90.0945L364.197 90.5315L364.463 90.9794L364.728 91.4387L364.992 91.9097L365.257 92.3927L365.521 92.8882L365.786 93.3967L366.05 93.9186L366.315 94.4545L366.581 95.0049L366.847 95.5704L367.114 96.1517L367.382 96.7495L367.652 97.3645L367.923 97.9976L368.196 98.6498L368.471 99.3219L368.748 100.015L369.029 100.731L369.312 101.47L369.599 102.234L369.89 103.024L370.185 103.843L370.486 104.693L370.792 105.575L371.104 106.492L371.423 107.448L371.751 108.445L372.087 109.486L372.434 110.578L372.792 111.723L373.163 112.93L373.549 114.204L373.953 115.554L374.376 116.99L374.824 118.526L375.299 120.178L375.808 121.966L376.357 123.917L376.957 126.068L377.622 128.472L378.372 131.206L379.239 134.389L380.281 138.233L381.608 143.153L383.507 150.22L387.429 164.849L399.359 209.373Z" fill="white"/>
</g>
<path fill-rule="evenodd" clip-rule="evenodd" d="M367.358 218.03L378.93 261.222L380.647 267.645L381.765 271.837L382.611 275.024L383.297 277.626L383.878 279.84L384.381 281.776L384.826 283.502L385.225 285.063L385.585 286.491L385.914 287.81L386.216 289.035L386.494 290.182L386.751 291.259L386.99 292.277L387.212 293.242L387.42 294.16L387.613 295.036L387.794 295.873L387.964 296.676L388.122 297.447L388.27 298.19L388.409 298.905L388.539 299.596L388.66 300.265L388.773 300.912L388.879 301.539L388.977 302.148L389.068 302.739L389.152 303.315L389.229 303.875L389.301 304.42L389.366 304.952L389.425 305.471L389.478 305.978L389.525 306.473L389.567 306.957L389.604 307.431L389.635 307.894L389.662 308.348L389.683 308.793L389.699 309.229L389.71 309.656L389.716 310.075L389.718 310.487L389.715 310.891L389.707 311.288L389.695 311.678L389.678 312.061L389.657 312.438L389.631 312.809L389.601 313.174L389.566 313.533L389.527 313.886L389.483 314.234L389.436 314.577L389.384 314.915L389.327 315.248L389.267 315.576L389.202 315.899L389.133 316.218L389.059 316.533L388.981 316.843L388.899 317.15L388.813 317.452L388.723 317.75L388.628 318.045L388.529 318.336L388.425 318.624L388.317 318.908L388.205 319.188L388.088 319.466L387.967 319.74L387.842 320.011L387.712 320.279L387.578 320.544L387.439 320.807L387.296 321.066L387.148 321.323L386.995 321.577L386.838 321.829L386.675 322.078L386.509 322.325L386.337 322.569L386.16 322.811L385.979 323.051L385.792 323.289L385.6 323.524L385.404 323.758L385.202 323.989L384.994 324.219L384.781 324.447L384.563 324.673L384.339 324.897L384.11 325.12L383.875 325.341L383.633 325.56L383.386 325.778L383.133 325.995L382.873 326.21L382.607 326.424L382.335 326.637L382.056 326.849L381.77 327.059L381.477 327.269L381.177 327.478L380.869 327.686L380.554 327.893L380.231 328.099L379.9 328.305L379.561 328.51L379.213 328.715L378.856 328.919L378.491 329.123L378.116 329.327L377.731 329.531L377.336 329.735L376.931 329.939L376.515 330.144L376.087 330.349L375.648 330.555L375.196 330.761L374.732 330.968L374.254 331.176L373.762 331.386L373.255 331.597L372.733 331.81L372.194 332.024L371.638 332.241L371.063 332.461L370.468 332.683L369.853 332.908L369.216 333.137L368.554 333.37L367.867 333.607L367.152 333.849L366.408 334.097L365.631 334.351L364.818 334.612L363.966 334.882L363.071 335.161L362.128 335.45L361.132 335.751L360.075 336.066L358.949 336.397L357.743 336.747L356.446 337.119L355.038 337.519L353.498 337.951L351.796 338.425L349.886 338.952L347.704 339.55L345.144 340.246L342.019 341.092L337.936 342.192L331.793 343.842L313.974 348.618L245.453 366.977L238.721 368.777L234.416 369.925L231.169 370.787L228.53 371.484L226.29 372.072L224.335 372.581L222.594 373.03L221.021 373.432L219.583 373.795L218.256 374.126L217.024 374.43L215.872 374.71L214.789 374.968L213.766 375.209L212.797 375.432L211.876 375.641L210.997 375.835L210.157 376.017L209.351 376.188L208.578 376.347L207.833 376.496L207.115 376.636L206.422 376.766L205.752 376.888L205.104 377.002L204.475 377.108L203.864 377.206L203.272 377.298L202.695 377.383L202.134 377.461L201.587 377.532L201.054 377.598L200.534 377.657L200.026 377.711L199.53 377.759L199.045 377.801L198.571 377.839L198.107 377.87L197.652 377.897L197.207 377.918L196.77 377.935L196.342 377.947L195.922 377.953L195.51 377.955L195.105 377.953L194.708 377.945L194.317 377.933L193.933 377.917L193.556 377.896L193.185 377.87L192.819 377.84L192.46 377.806L192.106 377.767L191.758 377.724L191.414 377.677L191.076 377.625L190.743 377.569L190.415 377.509L190.091 377.444L189.771 377.375L189.456 377.302L189.146 377.225L188.839 377.143L188.536 377.057L188.238 376.967L187.943 376.873L187.651 376.774L187.364 376.671L187.079 376.563L186.798 376.451L186.521 376.335L186.246 376.214L185.975 376.089L185.706 375.96L185.441 375.826L185.179 375.687L184.919 375.544L184.662 375.397L184.407 375.244L184.156 375.087L183.906 374.926L183.659 374.759L183.415 374.588L183.173 374.412L182.933 374.23L182.695 374.044L182.459 373.853L182.225 373.657L181.994 373.455L181.764 373.248L181.536 373.036L181.31 372.818L181.085 372.595L180.862 372.366L180.641 372.131L180.422 371.89L180.203 371.643L179.987 371.391L179.771 371.131L179.557 370.866L179.344 370.594L179.132 370.315L178.922 370.03L178.712 369.738L178.503 369.438L178.295 369.131L178.088 368.816L177.882 368.494L177.676 368.164L177.471 367.825L177.266 367.478L177.062 367.122L176.857 366.757L176.653 366.383L176.45 365.999L176.245 365.605L176.041 365.201L175.837 364.785L175.632 364.359L175.426 363.921L175.22 363.47L175.013 363.007L174.805 362.53L174.595 362.039L174.384 361.533L174.172 361.012L173.957 360.475L173.741 359.92L173.522 359.346L173.3 358.754L173.075 358.14L172.846 357.504L172.614 356.845L172.377 356.16L172.135 355.447L171.888 354.705L171.634 353.931L171.373 353.121L171.104 352.272L170.827 351.381L170.538 350.442L170.238 349.45L169.925 348.398L169.595 347.278L169.246 346.08L168.876 344.79L168.479 343.392L168.049 341.864L167.579 340.175L167.057 338.284L166.466 336.127L165.778 333.603L164.947 330.532L163.874 326.551L162.292 320.659L158.384 306.083L139.192 234.452L137.298 227.373L136.118 222.949L135.239 219.639L134.531 216.96L133.936 214.694L133.422 212.719L132.969 210.963L132.563 209.378L132.197 207.93L131.864 206.595L131.558 205.356L131.276 204.198L131.016 203.11L130.774 202.083L130.549 201.11L130.34 200.185L130.144 199.303L129.961 198.459L129.79 197.651L129.63 196.875L129.48 196.128L129.34 195.409L129.208 194.714L129.086 194.042L128.971 193.392L128.865 192.761L128.766 192.15L128.674 191.555L128.588 190.977L128.51 190.415L128.438 189.867L128.372 189.333L128.312 188.812L128.258 188.303L128.209 187.806L128.166 187.321L128.129 186.846L128.097 186.381L128.07 185.925L128.048 185.479L128.031 185.042L128.019 184.613L128.012 184.192L128.009 183.78L128.012 183.374L128.019 182.976L128.03 182.585L128.046 182.201L128.067 181.823L128.092 181.451L128.122 181.085L128.156 180.725L128.194 180.371L128.237 180.022L128.284 179.679L128.335 179.34L128.391 179.007L128.451 178.678L128.515 178.354L128.583 178.034L128.656 177.719L128.733 177.407L128.815 177.101L128.9 176.798L128.99 176.498L129.084 176.203L129.183 175.912L129.286 175.623L129.393 175.339L129.504 175.058L129.62 174.78L129.74 174.505L129.865 174.233L129.994 173.965L130.128 173.699L130.266 173.436L130.409 173.177L130.556 172.919L130.708 172.665L130.864 172.413L131.026 172.163L131.192 171.916L131.363 171.671L131.539 171.429L131.719 171.189L131.905 170.951L132.096 170.715L132.292 170.481L132.493 170.249L132.7 170.019L132.912 169.791L133.129 169.565L133.352 169.34L133.581 169.117L133.815 168.896L134.055 168.676L134.301 168.458L134.554 168.241L134.812 168.025L135.077 167.811L135.349 167.598L135.627 167.386L135.911 167.176L136.203 166.966L136.502 166.757L136.809 166.549L137.123 166.342L137.444 166.135L137.774 165.93L138.112 165.724L138.458 165.52L138.814 165.315L139.178 165.111L139.551 164.907L139.934 164.703L140.328 164.499L140.731 164.295L141.146 164.09L141.571 163.885L142.009 163.68L142.458 163.474L142.92 163.267L143.396 163.058L143.886 162.849L144.39 162.638L144.91 162.426L145.446 162.212L146 161.995L146.572 161.776L147.163 161.555L147.775 161.33L148.409 161.102L149.066 160.869L149.749 160.633L150.459 160.392L151.199 160.145L151.971 159.891L152.778 159.631L153.623 159.363L154.511 159.086L155.446 158.799L156.433 158.5L157.48 158.187L158.594 157.859L159.786 157.512L161.068 157.144L162.457 156.749L163.974 156.322L165.648 155.855L167.521 155.338L169.654 154.753L172.144 154.075L175.161 153.258L179.048 152.21L184.71 150.688L197.355 147.298L270.69 127.649L278.162 125.65L282.714 124.435L286.089 123.539L288.808 122.82L291.102 122.218L293.097 121.698L294.869 121.24L296.466 120.831L297.924 120.462L299.266 120.126L300.513 119.819L301.677 119.535L302.771 119.273L303.802 119.03L304.779 118.804L305.708 118.593L306.593 118.396L307.439 118.212L308.25 118.04L309.029 117.879L309.778 117.729L310.499 117.588L311.196 117.456L311.87 117.332L312.522 117.217L313.154 117.11L313.767 117.01L314.363 116.918L314.942 116.832L315.505 116.753L316.054 116.68L316.589 116.614L317.111 116.553L317.621 116.499L318.119 116.45L318.605 116.407L319.081 116.369L319.547 116.336L320.003 116.309L320.45 116.286L320.888 116.269L321.318 116.257L321.739 116.249L322.152 116.246L322.558 116.248L322.957 116.255L323.348 116.266L323.733 116.282L324.112 116.302L324.484 116.327L324.85 116.356L325.211 116.39L325.565 116.428L325.915 116.47L326.259 116.517L326.598 116.568L326.932 116.623L327.261 116.683L327.585 116.747L327.905 116.815L328.221 116.887L328.532 116.964L328.84 117.045L329.143 117.13L329.442 117.22L329.738 117.314L330.03 117.412L330.318 117.514L330.603 117.621L330.885 117.732L331.163 117.848L331.438 117.968L331.71 118.092L331.978 118.221L332.244 118.354L332.507 118.492L332.767 118.634L333.025 118.781L333.28 118.933L333.532 119.089L333.782 119.25L334.029 119.416L334.274 119.586L334.516 119.762L334.757 119.942L334.995 120.127L335.231 120.318L335.465 120.513L335.697 120.714L335.927 120.92L336.155 121.132L336.382 121.349L336.606 121.571L336.83 121.799L337.051 122.033L337.271 122.273L337.489 122.519L337.706 122.77L337.922 123.028L338.136 123.293L338.349 123.564L338.561 123.841L338.772 124.126L338.982 124.417L339.191 124.715L339.399 125.021L339.606 125.335L339.813 125.656L340.018 125.985L340.224 126.322L340.429 126.668L340.633 127.022L340.837 127.385L341.041 127.758L341.245 128.141L341.449 128.533L341.654 128.936L341.858 129.349L342.063 129.774L342.268 130.21L342.474 130.659L342.681 131.12L342.889 131.595L343.099 132.083L343.309 132.587L343.522 133.105L343.736 133.64L343.952 134.192L344.171 134.763L344.392 135.352L344.617 135.962L344.845 136.595L345.076 137.25L345.313 137.931L345.554 138.639L345.8 139.376L346.053 140.145L346.312 140.949L346.58 141.791L346.856 142.675L347.142 143.606L347.44 144.589L347.752 145.631L348.079 146.74L348.424 147.925L348.791 149.2L349.183 150.579L349.607 152.085L350.07 153.745L350.583 155.6L351.162 157.71L351.831 160.166L352.635 163.132L353.659 166.929L355.124 172.382L358.151 183.671L367.358 218.03Z" fill="white" stroke="#D5D5D5" stroke-width="0.854154"/>
<path fill-rule="evenodd" clip-rule="evenodd" d="M336.83 226.21L345.147 257.249L346.381 261.865L347.184 264.877L347.792 267.168L348.285 269.038L348.702 270.629L349.064 272.02L349.384 273.26L349.67 274.382L349.929 275.409L350.166 276.356L350.382 277.237L350.582 278.06L350.767 278.835L350.939 279.567L351.099 280.26L351.248 280.92L351.387 281.549L351.517 282.151L351.638 282.728L351.752 283.282L351.859 283.815L351.959 284.33L352.052 284.826L352.139 285.306L352.22 285.771L352.296 286.222L352.367 286.66L352.432 287.085L352.492 287.498L352.548 287.901L352.599 288.293L352.646 288.675L352.688 289.048L352.727 289.412L352.761 289.768L352.791 290.116L352.817 290.456L352.84 290.789L352.859 291.116L352.874 291.435L352.886 291.748L352.894 292.055L352.898 292.357L352.899 292.653L352.897 292.943L352.892 293.228L352.883 293.509L352.871 293.784L352.855 294.055L352.837 294.321L352.815 294.584L352.79 294.842L352.762 295.096L352.731 295.346L352.696 295.592L352.659 295.835L352.619 296.074L352.575 296.31L352.528 296.542L352.479 296.771L352.426 296.997L352.37 297.22L352.311 297.441L352.249 297.658L352.184 297.872L352.116 298.084L352.044 298.293L351.97 298.5L351.893 298.704L351.812 298.906L351.728 299.105L351.641 299.302L351.551 299.497L351.458 299.69L351.361 299.88L351.262 300.069L351.158 300.255L351.052 300.44L350.942 300.622L350.829 300.803L350.713 300.982L350.593 301.16L350.469 301.335L350.343 301.509L350.212 301.681L350.078 301.852L349.94 302.021L349.799 302.189L349.654 302.356L349.505 302.521L349.352 302.684L349.195 302.847L349.034 303.008L348.869 303.168L348.7 303.327L348.527 303.485L348.349 303.641L348.167 303.797L347.981 303.952L347.789 304.106L347.594 304.259L347.393 304.411L347.187 304.562L346.977 304.713L346.761 304.863L346.54 305.012L346.314 305.161L346.082 305.309L345.844 305.457L345.6 305.604L345.35 305.752L345.094 305.898L344.831 306.045L344.562 306.192L344.285 306.338L344.001 306.485L343.71 306.632L343.411 306.779L343.104 306.926L342.788 307.074L342.464 307.222L342.13 307.371L341.786 307.521L341.433 307.671L341.069 307.823L340.693 307.976L340.306 308.13L339.906 308.286L339.493 308.443L339.066 308.603L338.624 308.765L338.166 308.929L337.69 309.097L337.197 309.267L336.683 309.441L336.148 309.619L335.589 309.802L335.005 309.99L334.393 310.184L333.75 310.384L333.072 310.591L332.356 310.808L331.597 311.034L330.788 311.272L329.921 311.524L328.989 311.791L327.977 312.078L326.871 312.389L325.647 312.73L324.275 313.108L322.707 313.538L320.867 314.038L318.621 314.646L315.687 315.437L311.273 316.622L298.467 320.054L249.226 333.248L244.388 334.542L241.295 335.367L238.961 335.986L237.064 336.487L235.455 336.909L234.05 337.275L232.798 337.598L231.668 337.887L230.635 338.148L229.682 338.386L228.796 338.604L227.968 338.805L227.19 338.991L226.455 339.164L225.758 339.324L225.096 339.474L224.465 339.614L223.861 339.745L223.282 339.867L222.726 339.982L222.191 340.089L221.675 340.189L221.177 340.283L220.696 340.37L220.23 340.452L219.778 340.528L219.339 340.599L218.913 340.665L218.499 340.726L218.095 340.782L217.702 340.833L217.319 340.88L216.946 340.923L216.581 340.962L216.224 340.996L215.876 341.027L215.535 341.053L215.201 341.076L214.875 341.095L214.555 341.111L214.241 341.123L213.933 341.131L213.632 341.136L213.335 341.137L213.045 341.135L212.759 341.13L212.478 341.122L212.202 341.11L211.931 341.095L211.664 341.076L211.402 341.055L211.143 341.03L210.889 341.002L210.639 340.971L210.392 340.937L210.149 340.9L209.91 340.86L209.674 340.817L209.441 340.77L209.211 340.721L208.985 340.668L208.762 340.613L208.541 340.554L208.324 340.492L208.109 340.427L207.897 340.359L207.688 340.288L207.481 340.214L207.277 340.137L207.075 340.057L206.875 339.973L206.678 339.886L206.483 339.797L206.29 339.703L206.1 339.607L205.911 339.508L205.724 339.405L205.539 339.299L205.357 339.189L205.176 339.076L204.997 338.96L204.819 338.841L204.643 338.717L204.469 338.591L204.297 338.461L204.126 338.327L203.957 338.189L203.789 338.048L203.622 337.903L203.457 337.755L203.293 337.602L203.131 337.446L202.969 337.285L202.809 337.12L202.65 336.952L202.492 336.779L202.336 336.601L202.18 336.42L202.025 336.234L201.871 336.043L201.718 335.847L201.566 335.647L201.415 335.442L201.264 335.232L201.114 335.017L200.964 334.796L200.816 334.57L200.667 334.338L200.519 334.101L200.372 333.858L200.225 333.608L200.078 333.352L199.931 333.09L199.784 332.821L199.638 332.545L199.491 332.262L199.345 331.972L199.198 331.673L199.05 331.367L198.903 331.052L198.754 330.728L198.606 330.395L198.456 330.052L198.305 329.699L198.154 329.336L198.001 328.962L197.847 328.575L197.691 328.176L197.534 327.764L197.374 327.338L197.213 326.898L197.048 326.441L196.881 325.967L196.711 325.475L196.537 324.963L196.359 324.429L196.177 323.873L195.99 323.291L195.797 322.681L195.597 322.04L195.39 321.366L195.174 320.653L194.949 319.897L194.712 319.092L194.462 318.231L194.195 317.304L193.91 316.299L193.601 315.201L193.263 313.987L192.888 312.629L192.463 311.078L191.969 309.264L191.372 307.058L190.601 304.196L189.464 299.963L186.656 289.487L172.863 238.012L171.502 232.924L170.654 229.745L170.023 227.366L169.514 225.441L169.087 223.813L168.717 222.393L168.391 221.131L168.1 219.992L167.837 218.952L167.597 217.993L167.377 217.102L167.175 216.27L166.988 215.488L166.814 214.75L166.653 214.051L166.502 213.386L166.361 212.752L166.23 212.146L166.107 211.565L165.992 211.008L165.884 210.471L165.783 209.954L165.689 209.454L165.601 208.972L165.519 208.504L165.442 208.051L165.371 207.612L165.305 207.185L165.243 206.769L165.187 206.365L165.135 205.971L165.088 205.588L165.045 205.213L165.006 204.848L164.971 204.491L164.94 204.141L164.913 203.8L164.89 203.466L164.871 203.139L164.855 202.818L164.843 202.504L164.834 202.196L164.829 201.893L164.827 201.597L164.829 201.305L164.834 201.019L164.842 200.738L164.854 200.462L164.869 200.19L164.887 199.923L164.908 199.661L164.932 199.402L164.96 199.147L164.991 198.897L165.024 198.65L165.061 198.406L165.101 198.167L165.144 197.93L165.191 197.697L165.24 197.468L165.292 197.241L165.347 197.017L165.406 196.797L165.467 196.579L165.532 196.364L165.6 196.152L165.67 195.942L165.744 195.735L165.821 195.531L165.901 195.329L165.985 195.129L166.071 194.932L166.161 194.737L166.254 194.544L166.35 194.353L166.449 194.164L166.551 193.977L166.657 193.792L166.766 193.609L166.879 193.428L166.995 193.249L167.114 193.071L167.237 192.895L167.364 192.721L167.493 192.549L167.627 192.377L167.764 192.208L167.905 192.04L168.05 191.873L168.198 191.708L168.35 191.544L168.506 191.381L168.667 191.22L168.831 191.06L168.999 190.901L169.172 190.743L169.349 190.586L169.53 190.43L169.716 190.275L169.906 190.121L170.101 189.968L170.301 189.816L170.506 189.665L170.716 189.514L170.931 189.364L171.151 189.214L171.376 189.065L171.608 188.917L171.845 188.769L172.087 188.622L172.336 188.474L172.591 188.328L172.853 188.181L173.122 188.034L173.397 187.888L173.68 187.741L173.97 187.594L174.267 187.447L174.573 187.3L174.888 187.152L175.211 187.004L175.543 186.855L175.885 186.706L176.237 186.555L176.599 186.404L176.973 186.251L177.358 186.097L177.756 185.942L178.167 185.784L178.592 185.625L179.031 185.464L179.487 185.3L179.959 185.133L180.45 184.963L180.96 184.789L181.492 184.612L182.047 184.43L182.627 184.243L183.234 184.05L183.872 183.851L184.544 183.645L185.253 183.43L186.006 183.205L186.807 182.969L187.663 182.72L188.584 182.455L189.582 182.171L190.672 181.865L191.876 181.529L193.222 181.158L194.754 180.737L196.544 180.25L198.712 179.663L201.505 178.91L205.574 177.816L214.661 175.38L267.362 161.26L272.731 159.823L276.003 158.95L278.428 158.306L280.382 157.789L282.031 157.356L283.465 156.983L284.738 156.654L285.886 156.36L286.933 156.095L287.898 155.853L288.794 155.632L289.63 155.429L290.416 155.24L291.157 155.066L291.86 154.903L292.527 154.752L293.163 154.61L293.771 154.478L294.354 154.354L294.913 154.239L295.452 154.13L295.97 154.029L296.471 153.934L296.955 153.846L297.424 153.763L297.878 153.686L298.318 153.614L298.746 153.548L299.163 153.486L299.568 153.429L299.962 153.377L300.347 153.329L300.722 153.286L301.088 153.247L301.446 153.211L301.796 153.18L302.138 153.153L302.472 153.13L302.8 153.11L303.121 153.094L303.436 153.081L303.745 153.073L304.047 153.067L304.344 153.065L304.636 153.067L304.923 153.071L305.204 153.079L305.481 153.091L305.753 153.105L306.02 153.123L306.283 153.144L306.542 153.168L306.797 153.196L307.048 153.226L307.295 153.26L307.539 153.296L307.779 153.336L308.016 153.379L308.249 153.425L308.479 153.474L308.706 153.526L308.929 153.581L309.15 153.639L309.368 153.7L309.583 153.765L309.796 153.832L310.005 153.903L310.213 153.976L310.417 154.053L310.62 154.133L310.82 154.216L311.017 154.302L311.213 154.392L311.406 154.484L311.597 154.58L311.786 154.679L311.973 154.781L312.158 154.887L312.341 154.996L312.522 155.108L312.702 155.224L312.879 155.343L313.055 155.465L313.23 155.591L313.402 155.721L313.573 155.854L313.743 155.991L313.911 156.132L314.078 156.276L314.243 156.424L314.407 156.576L314.57 156.732L314.732 156.892L314.892 157.056L315.051 157.224L315.209 157.396L315.366 157.573L315.522 157.754L315.677 157.939L315.831 158.129L315.984 158.324L316.136 158.523L316.288 158.728L316.439 158.937L316.589 159.151L316.738 159.371L316.887 159.596L317.036 159.827L317.184 160.063L317.331 160.306L317.478 160.554L317.625 160.809L317.772 161.07L317.919 161.338L318.065 161.613L318.212 161.895L318.359 162.184L318.506 162.481L318.653 162.787L318.8 163.1L318.949 163.423L319.097 163.754L319.247 164.095L319.397 164.446L319.549 164.808L319.701 165.181L319.855 165.565L320.01 165.962L320.168 166.372L320.327 166.795L320.488 167.234L320.652 167.688L320.818 168.159L320.988 168.648L321.161 169.157L321.338 169.687L321.52 170.24L321.706 170.817L321.899 171.423L322.097 172.058L322.303 172.727L322.517 173.433L322.741 174.182L322.976 174.979L323.224 175.831L323.488 176.746L323.77 177.738L324.074 178.82L324.407 180.013L324.776 181.346L325.192 182.862L325.673 184.627L326.25 186.759L326.986 189.487L328.039 193.406L330.214 201.519L336.83 226.21Z" fill="white" stroke="#D5D5D5" stroke-width="0.854154"/>
<path d="M79.651 124.454L66.8289 76.6009M353.155 51.1686L340.333 3.31579M57.6587 91.8802L355.914 11.9629" stroke="#3F3F3F" stroke-width="1.70831"/>
<path d="M140.04 425.731L92.1869 438.553M66.7546 152.227L18.9017 165.049M107.466 447.723L27.5489 149.468" stroke="#3F3F3F" stroke-width="1.70831"/>
<defs>
<filter id="filter0_d" x="76.2292" y="64.5085" width="370.198" height="370.198" filterUnits="userSpaceOnUse" color-interpolation-filters="sRGB">
<feFlood flood-opacity="0" result="BackgroundImageFix"/>
<feColorMatrix in="SourceAlpha" type="matrix" values="0 0 0 0 0 0 0 0 0 0 0 0 0 0 0 0 0 0 127 0"/>
<feOffset dx="2.56246" dy="2.56246"/>
<feGaussianBlur stdDeviation="3.41662"/>
<feColorMatrix type="matrix" values="0 0 0 0 0 0 0 0 0 0 0 0 0 0 0 0 0 0 0.1 0"/>
<feBlend mode="normal" in2="BackgroundImageFix" result="effect1_dropShadow"/>
<feBlend mode="normal" in="SourceGraphic" in2="effect1_dropShadow" result="shape"/>
</filter>
</defs>
</svg>
