<svg width="828" height="860" viewBox="0 0 828 860" fill="none" xmlns="http://www.w3.org/2000/svg">
<path fill-rule="evenodd" clip-rule="evenodd" d="M828 430.001L827.977 432.234L827.908 434.466L827.793 436.697L827.632 438.926L827.426 441.152L827.173 443.376L826.875 445.596L826.531 447.812L826.141 450.024L825.706 452.231L825.225 454.431L824.699 456.626L824.128 458.813L823.512 460.993L822.85 463.165L822.145 465.328L821.394 467.483L820.599 469.627L819.76 471.762L818.877 473.885L817.95 475.997L816.979 478.098L815.966 480.185L814.909 482.26L813.809 484.322L812.666 486.369L811.481 488.402L810.255 490.42L808.986 492.422L807.676 494.408L806.324 496.378L804.932 498.331L803.5 500.266L802.027 502.183L800.514 504.081L798.962 505.961L797.371 507.821L795.741 509.661L794.073 511.48L792.366 513.279L790.622 515.057L788.841 516.813L787.024 518.547L785.17 520.258L783.28 521.946L781.355 523.611L779.394 525.252L777.399 526.869L775.37 528.461L773.308 530.028L771.212 531.57L769.084 533.086L766.924 534.577L764.732 536.041L762.508 537.478L760.255 538.888L757.971 540.271L755.657 541.626L753.315 542.953L750.944 544.252L748.545 545.522L746.119 546.763L743.666 547.975L741.186 549.158L738.681 550.312L736.151 551.435L733.596 552.528L731.017 553.591L728.414 554.624L725.789 555.625L723.142 556.596L720.473 557.536L717.783 558.444L715.072 559.321L712.342 560.166L709.593 560.98L706.825 561.762L704.038 562.511L701.235 563.229L698.415 563.914L695.579 564.567L692.727 565.188L689.86 565.776L686.979 566.332L684.085 566.855L681.178 567.345L678.258 567.803L675.326 568.228L672.384 568.62L669.431 568.98L666.469 569.307L663.497 569.601L660.517 569.863L657.529 570.092L654.533 570.289L651.531 570.453L648.523 570.584L645.51 570.683L642.493 570.75L639.471 570.785L636.446 570.788L633.418 570.759L630.388 570.698L627.356 570.606L624.324 570.482L621.291 570.327L618.258 570.14L615.227 569.923L612.197 569.674L609.17 569.396L606.145 569.087L603.124 568.747L600.107 568.378L597.094 567.979L594.087 567.551L591.085 567.093L588.09 566.607L585.102 566.092L582.122 565.549L579.15 564.977L576.186 564.378L573.232 563.752L570.287 563.098L567.353 562.417L564.43 561.711L561.519 560.978L558.62 560.219L555.733 559.435L552.859 558.626L549.999 557.792L547.153 556.934L544.322 556.052L541.505 555.147L538.705 554.219L535.92 553.268L533.153 552.295L530.402 551.3L527.669 550.284L524.954 549.247L522.257 548.19L519.579 547.112L516.921 546.016L514.282 544.9L511.664 543.765L509.066 542.613L506.489 541.443L503.934 540.256L501.4 539.052L498.889 537.833L496.4 536.598L493.934 535.347L491.491 534.083L489.072 532.804L486.677 531.512L484.306 530.207L481.96 528.889L479.638 527.56L477.342 526.22L475.071 524.869L472.826 523.507L470.607 522.136L468.414 520.756L466.247 519.368L464.108 517.971L461.995 516.568L459.91 515.157L457.852 513.74L455.821 512.318L453.819 510.891L451.844 509.459L449.898 508.024L447.98 506.585L446.09 505.143L444.229 503.7L442.397 502.254L440.593 500.808L438.819 499.362L437.073 497.916L435.357 496.471L433.67 495.027L432.012 493.585L430.384 492.146L428.785 490.71L427.215 489.278L425.675 487.85L424.164 486.428L422.683 485.01L421.232 483.6L419.81 482.195L418.417 480.798L417.053 479.409L415.72 478.029L414.415 476.658L413.139 475.296L411.893 473.944L410.676 472.603L409.488 471.274L408.329 469.956L407.198 468.651L406.096 467.359L405.023 466.08L403.978 464.816L402.961 463.566L401.973 462.332L401.012 461.113L400.079 459.91L399.173 458.724L398.295 457.555L397.443 456.405L396.619 455.272L395.821 454.159L395.05 453.064L394.305 451.99L393.586 450.935L392.892 449.902L392.224 448.89L391.581 447.899L390.962 446.931L390.368 445.985L389.799 445.063L389.253 444.164L388.731 443.289L388.232 442.438L387.756 441.612L387.303 440.811L386.871 440.036L386.462 439.287L386.074 438.565L385.707 437.869L385.361 437.2L385.036 436.559L384.73 435.946L384.444 435.361L384.177 434.804L383.928 434.277L383.698 433.779L383.486 433.31L383.291 432.871L383.114 432.462L382.953 432.084L382.808 431.736L382.679 431.42L382.565 431.134L382.465 430.88L382.381 430.658L382.31 430.468L382.252 430.31L382.207 430.184L382.175 430.091L382.154 430.031L382.145 430.003L382.147 430.009L382.159 430.048L382.181 430.12L382.213 430.227L382.253 430.366L382.302 430.54L382.359 430.747L382.423 430.989L382.494 431.264L382.572 431.574L382.655 431.918L382.744 432.297L382.837 432.709L382.935 433.156L383.036 433.638L383.141 434.154L383.248 434.704L383.357 435.289L383.468 435.908L383.58 436.562L383.693 437.25L383.806 437.972L383.918 438.729L384.029 439.519L384.139 440.344L384.247 441.203L384.352 442.095L384.454 443.021L384.552 443.981L384.646 444.975L384.736 446.002L384.82 447.062L384.899 448.155L384.971 449.281L385.037 450.439L385.095 451.63L385.146 452.854L385.189 454.109L385.222 455.396L385.247 456.715L385.262 458.065L385.267 459.447L385.261 460.859L385.244 462.301L385.215 463.774L385.174 465.277L385.12 466.809L385.054 468.371L384.974 469.962L384.88 471.582L384.772 473.229L384.649 474.905L384.51 476.609L384.356 478.339L384.186 480.097L384 481.881L383.796 483.691L383.575 485.527L383.336 487.388L383.079 489.274L382.804 491.185L382.51 493.119L382.196 495.077L381.863 497.058L381.51 499.062L381.136 501.088L380.742 503.136L380.326 505.204L379.89 507.294L379.431 509.404L378.951 511.533L378.448 513.682L377.923 515.85L377.375 518.036L376.804 520.239L376.209 522.459L375.59 524.697L374.948 526.95L374.281 529.219L373.59 531.502L372.874 533.8L372.133 536.112L371.367 538.437L370.576 540.775L369.76 543.125L368.917 545.486L368.049 547.859L367.155 550.242L366.234 552.634L365.288 555.036L364.314 557.446L363.314 559.864L362.288 562.289L361.234 564.721L360.154 567.16L359.047 569.603L357.912 572.052L356.751 574.505L355.562 576.961L354.346 579.421L353.103 581.883L351.832 584.346L350.534 586.811L349.208 589.276L347.856 591.741L346.476 594.205L345.068 596.668L343.633 599.129L342.171 601.587L340.682 604.041L339.166 606.492L337.623 608.938L336.052 611.379L334.455 613.814L332.831 616.243L331.18 618.664L329.503 621.078L327.8 623.483L326.07 625.88L324.314 628.266L322.532 630.643L320.724 633.008L318.891 635.362L317.032 637.704L315.148 640.033L313.239 642.349L311.305 644.651L309.347 646.939L307.364 649.211L305.357 651.467L303.327 653.708L301.273 655.931L299.196 658.137L297.095 660.324L294.973 662.493L292.827 664.643L290.66 666.773L288.471 668.883L286.261 670.972L284.029 673.039L281.777 675.084L279.504 677.107L277.212 679.107L274.9 681.083L272.568 683.035L270.218 684.962L267.849 686.864L265.462 688.74L263.058 690.591L260.637 692.414L258.198 694.211L255.743 695.979L253.273 697.72L250.787 699.433L248.286 701.116L245.77 702.77L243.241 704.394L240.697 705.987L238.141 707.55L235.572 709.082L232.991 710.582L230.398 712.051L227.795 713.487L225.18 714.89L222.556 716.26L219.922 717.597L217.279 718.9L214.627 720.169L211.968 721.403L209.301 722.603L206.627 723.767L203.947 724.896L201.262 725.989L198.571 727.046L195.875 728.067L193.176 729.052L190.473 729.999L187.767 730.91L185.058 731.783L182.348 732.619L179.637 733.416L176.926 734.176L174.214 734.898L171.503 735.581L168.793 736.226L166.085 736.832L163.38 737.399L160.677 737.928L157.978 738.417L155.284 738.866L152.594 739.277L149.91 739.647L147.231 739.979L144.56 740.27L141.895 740.522L139.239 740.734L136.591 740.906L133.952 741.038L131.323 741.13L128.704 741.183L126.096 741.195L123.5 741.167L120.916 741.1L118.344 740.992L115.786 740.844L113.242 740.657L110.712 740.43L108.197 740.163L105.699 739.856L103.216 739.51L100.751 739.124L98.3028 738.699L95.8729 738.234L93.4617 737.731L91.0697 737.188L88.6976 736.606L86.3459 735.986L84.0152 735.327L81.706 734.63L79.419 733.895L77.1546 733.122L74.9134 732.311L72.696 731.462L70.5029 730.576L68.3346 729.653L66.1917 728.693L64.0748 727.697L61.9842 726.664L59.9206 725.595L57.8845 724.49L55.8763 723.35L53.8966 722.175L51.9458 720.965L50.0245 719.72L48.1331 718.441L46.2721 717.129L44.442 715.783L42.6432 714.403L40.8762 712.991L39.1414 711.546L37.4392 710.07L35.7702 708.561L34.1347 707.022L32.5331 705.451L30.9659 703.85L29.4334 702.219L27.936 700.559L26.4742 698.869L25.0483 697.151L23.6586 695.404L22.3055 693.629L20.9895 691.827L19.7107 689.998L18.4696 688.143L17.2664 686.262L16.1016 684.355L14.9753 682.424L13.8879 680.468L12.8397 678.487L11.8309 676.484L10.8618 674.457L9.93277 672.408L9.0439 670.338L8.19549 668.245L7.38777 666.132L6.62096 663.999L5.89526 661.846L5.21087 659.674L4.56798 657.483L3.96677 655.273L3.4074 653.047L2.89004 650.803L2.41482 648.543L1.98189 646.267L1.59138 643.976L1.24338 641.67L0.938021 639.35L0.675385 637.017L0.455558 634.67L0.278611 632.311L0.144609 629.941L0.0536019 627.559L0.00563039 625.166L0.000724594 622.764L0.0389036 620.352L0.120176 617.931L0.244539 615.502L0.411979 613.065L0.622473 610.621L0.875985 608.171L1.17247 605.715L1.51187 603.253L1.89412 600.787L2.31915 598.317L2.78685 595.843L3.29714 593.367L3.8499 590.888L4.44502 588.407L5.08235 585.925L5.76177 583.443L6.48311 580.96L7.24621 578.478L8.05091 575.998L8.89701 573.519L9.78432 571.042L10.7126 568.569L11.6817 566.099L12.6914 563.633L13.7414 561.171L14.8315 558.715L15.9614 556.265L17.1309 553.821L18.3397 551.383L19.5875 548.953L20.8739 546.531L22.1988 544.118L23.5618 541.713L24.9626 539.318L26.4007 536.934L27.876 534.559L29.388 532.196L30.9364 529.844L32.5208 527.505L34.1408 525.178L35.7961 522.864L37.4862 520.564L39.2107 518.278L40.9693 516.006L42.7615 513.75L44.5869 511.509L46.445 509.283L48.3354 507.074L50.2577 504.882L52.2113 502.708L54.1959 500.551L56.2108 498.412L58.2558 496.291L60.3302 494.189L62.4336 492.107L64.5654 490.045L66.7252 488.002L68.9124 485.98L71.1265 483.979L73.367 481.999L75.6333 480.04L77.925 478.104L80.2413 476.189L82.5819 474.297L84.9461 472.428L87.3334 470.582L89.7432 468.76L92.1749 466.961L94.628 465.186L97.1018 463.436L99.5958 461.71L102.109 460.009L104.642 458.332L107.193 456.682L109.762 455.056L112.347 453.457L114.95 451.883L117.568 450.336L120.202 448.814L122.85 447.319L125.513 445.851L128.189 444.41L130.877 442.996L133.578 441.608L136.291 440.248L139.014 438.915L141.748 437.61L144.491 436.332L147.243 435.082L150.004 433.859L152.772 432.665L155.547 431.498L158.329 430.358L161.117 429.247L163.909 428.164L166.707 427.109L169.508 426.081L172.312 425.082L175.119 424.11L177.927 423.167L180.737 422.251L183.548 421.363L186.359 420.503L189.169 419.67L191.977 418.865L194.784 418.088L197.588 417.338L200.389 416.616L203.187 415.921L205.979 415.252L208.767 414.611L211.549 413.997L214.325 413.409L217.094 412.848L219.855 412.313L222.609 411.804L225.353 411.322L228.089 410.865L230.814 410.433L233.529 410.027L236.232 409.647L238.924 409.29L241.604 408.959L244.271 408.652L246.925 408.369L249.565 408.11L252.19 407.875L254.8 407.662L257.394 407.473L259.973 407.307L262.535 407.162L265.079 407.04L267.606 406.94L270.115 406.86L272.605 406.802L275.075 406.765L277.526 406.748L279.957 406.751L282.367 406.773L284.756 406.814L287.123 406.875L289.469 406.954L291.791 407.05L294.091 407.165L296.367 407.296L298.62 407.444L300.848 407.609L303.052 407.789L305.231 407.985L307.384 408.196L309.511 408.421L311.613 408.661L313.687 408.914L315.735 409.18L317.756 409.459L319.749 409.75L321.714 410.053L323.651 410.367L325.559 410.692L327.438 411.027L329.289 411.372L331.11 411.726L332.901 412.089L334.662 412.46L336.393 412.839L338.094 413.225L339.764 413.617L341.403 414.016L343.011 414.421L344.588 414.83L346.133 415.244L347.647 415.662L349.128 416.084L350.578 416.509L351.996 416.936L353.381 417.365L354.734 417.795L356.054 418.226L357.342 418.658L358.597 419.089L359.819 419.519L361.008 419.948L362.165 420.375L363.288 420.8L364.378 421.222L365.435 421.64L366.459 422.054L367.45 422.463L368.408 422.868L369.333 423.266L370.224 423.658L371.082 424.044L371.908 424.422L372.7 424.793L373.46 425.155L374.186 425.508L374.88 425.852L375.541 426.185L376.17 426.509L376.766 426.821L377.33 427.122L377.861 427.41L378.361 427.687L378.828 427.95L379.264 428.199L379.668 428.435L380.041 428.656L380.383 428.862L380.693 429.053L380.973 429.227L381.222 429.385L381.441 429.526L381.63 429.65L381.789 429.756L381.918 429.843L382.018 429.912L382.089 429.962L382.131 429.992L382.144 430.001L382.13 429.991L382.087 429.959L382.017 429.906L381.92 429.832L381.796 429.735L381.646 429.615L381.469 429.473L381.266 429.307L381.038 429.118L380.785 428.904L380.508 428.667L380.206 428.404L379.88 428.117L379.53 427.803L379.158 427.465L378.762 427.1L378.345 426.708L377.906 426.29L377.445 425.845L376.964 425.373L376.462 424.873L375.94 424.346L375.398 423.79L374.838 423.206L374.258 422.594L373.661 421.953L373.046 421.282L372.414 420.583L371.766 419.854L371.101 419.095L370.42 418.307L369.725 417.489L369.015 416.64L368.29 415.762L367.553 414.852L366.802 413.913L366.038 412.942L365.263 411.941L364.476 410.909L363.679 409.846L362.871 408.751L362.053 407.626L361.226 406.469L360.39 405.281L359.546 404.062L358.695 402.811L357.836 401.529L356.971 400.216L356.1 398.871L355.224 397.494L354.342 396.087L353.457 394.648L352.568 393.177L351.676 391.676L350.781 390.143L349.884 388.579L348.986 386.984L348.087 385.358L347.188 383.701L346.289 382.013L345.391 380.295L344.494 378.546L343.599 376.767L342.707 374.958L341.818 373.119L340.932 371.249L340.051 369.35L339.174 367.422L338.303 365.464L337.438 363.478L336.579 361.462L335.727 359.418L334.882 357.345L334.046 355.245L333.218 353.116L332.399 350.96L331.59 348.777L330.79 346.566L330.002 344.329L329.225 342.066L328.459 339.776L327.706 337.461L326.965 335.121L326.238 332.755L325.524 330.365L324.824 327.95L324.139 325.511L323.47 323.049L322.816 320.564L322.178 318.056L321.556 315.525L320.952 312.973L320.365 310.399L319.796 307.804L319.245 305.189L318.713 302.553L318.201 299.897L317.707 297.223L317.234 294.529L316.782 291.817L316.35 289.088L315.939 286.341L315.551 283.577L315.184 280.797L314.839 278.001L314.517 275.19L314.218 272.364L313.943 269.524L313.691 266.67L313.463 263.803L313.26 260.923L313.082 258.032L312.928 255.129L312.8 252.215L312.697 249.291L312.62 246.357L312.57 243.414L312.545 240.462L312.548 237.502L312.577 234.535L312.633 231.561L312.717 228.582L312.828 225.596L312.966 222.606L313.133 219.611L313.328 216.612L313.551 213.611L313.803 210.607L314.083 207.601L314.392 204.593L314.73 201.586L315.097 198.578L315.493 195.571L315.918 192.565L316.372 189.562L316.856 186.561L317.37 183.563L317.913 180.569L318.485 177.58L319.087 174.596L319.719 171.617L320.381 168.645L321.072 165.681L321.793 162.724L322.544 159.775L323.325 156.836L324.135 153.906L324.975 150.987L325.844 148.078L326.743 145.182L327.671 142.297L328.629 139.426L329.616 136.568L330.633 133.724L331.678 130.895L332.753 128.082L333.856 125.285L334.988 122.504L336.149 119.741L337.338 116.996L338.555 114.269L339.8 111.562L341.074 108.874L342.375 106.207L343.703 103.561L345.059 100.937L346.442 98.3348L347.851 95.7554L349.288 93.1995L350.75 90.6676L352.239 88.1603L353.753 85.6781L355.293 83.2216L356.858 80.7914L358.448 78.3881L360.063 76.0122L361.702 73.6641L363.365 71.3446L365.052 69.0541L366.762 66.7931L368.495 64.5622L370.25 62.3618L372.028 60.1926L373.828 58.0549L375.649 55.9493L377.491 53.8762L379.354 51.8362L381.237 49.8297L383.141 47.8572L385.063 45.9191L387.005 44.0159L388.966 42.148L390.944 40.3158L392.941 38.5199L394.954 36.7605L396.985 35.0381L399.031 33.3531L401.094 31.7059L403.172 30.0969L405.266 28.5264L407.373 26.9948L409.495 25.5025L411.63 24.0497L413.778 22.6369L415.938 21.2644L418.11 19.9324L420.294 18.6414L422.489 17.3915L424.694 16.1831L426.909 15.0164L429.133 13.8917L431.366 12.8093L433.607 11.7695L435.856 10.7723L438.112 9.81821L440.375 8.90728L442.644 8.03974L444.918 7.21581L447.197 6.43566L449.48 5.69947L451.767 5.0074L454.057 4.35961L456.35 3.75624L458.645 3.19742L460.941 2.68328L463.238 2.21392L465.536 1.78944L467.833 1.40994L470.13 1.07548L472.425 0.786149L474.718 0.541987L477.008 0.343045L479.296 0.189357L481.579 0.0809474L483.858 0.0178276L486.133 0L488.401 0.0274553L490.664 0.100173L492.92 0.218123L495.169 0.381263L497.41 0.589541L499.642 0.842891L501.866 1.14124L504.08 1.48451L506.284 1.87259L508.478 2.30538L510.66 2.78276L512.83 3.30462L514.988 3.87079L517.133 4.48115L519.264 5.13552L521.382 5.83374L523.484 6.57562L525.572 7.36098L527.644 8.18961L529.7 9.0613L531.739 9.97583L533.761 10.933L535.765 11.9325L537.751 12.9741L539.717 14.0575L541.665 15.1826L543.592 16.3489L545.5 17.5563L547.386 18.8043L549.251 20.0927L551.094 21.4213L552.915 22.7895L554.714 24.1972L556.488 25.6439L558.24 27.1293L559.966 28.6531L561.669 30.2148L563.346 31.8141L564.998 33.4506L566.624 35.1239L568.224 36.8336L569.796 38.5792L571.342 40.3604L572.86 42.1767L574.35 44.0276L575.812 45.9128L577.245 47.8317L578.649 49.784L580.024 51.7691L581.368 53.7865L582.683 55.8359L583.967 57.9166L585.221 60.0282L586.443 62.1702L587.634 64.3421L588.793 66.5433L589.92 68.7734L591.015 71.0317L592.077 73.3179L593.107 75.6313L594.103 77.9714L595.066 80.3376L595.995 82.7294L596.891 85.1462L597.753 87.5875L598.58 90.0527L599.373 92.5412L600.131 95.0525L600.855 97.5859L601.544 100.141L602.197 102.717L602.816 105.313L603.399 107.929L603.946 110.565L604.458 113.219L604.934 115.891L605.374 118.58L605.779 121.286L606.147 124.008L606.479 126.746L606.775 129.499L607.035 132.266L607.259 135.046L607.446 137.84L607.598 140.646L607.713 143.464L607.792 146.293L607.834 149.133L607.841 151.982L607.811 154.841L607.745 157.709L607.643 160.585L607.505 163.468L607.331 166.358L607.122 169.254L606.877 172.155L606.596 175.062L606.279 177.973L605.928 180.887L605.541 183.805L605.119 186.725L604.662 189.647L604.171 192.57L603.645 195.493L603.084 198.417L602.49 201.34L601.862 204.262L601.2 207.182L600.504 210.1L599.775 213.014L599.014 215.926L598.219 218.832L597.392 221.734L596.533 224.631L595.643 227.522L594.72 230.406L593.767 233.284L592.782 236.153L591.767 239.015L590.721 241.868L589.646 244.711L588.541 247.545L587.406 250.368L586.243 253.181L585.052 255.982L583.832 258.771L582.585 261.547L581.31 264.311L580.009 267.062L578.681 269.798L577.327 272.52L575.947 275.227L574.542 277.919L573.113 280.594L571.659 283.254L570.182 285.897L568.681 288.522L567.157 291.13L565.611 293.72L564.043 296.291L562.454 298.844L560.844 301.377L559.214 303.89L557.563 306.384L555.893 308.857L554.205 311.309L552.498 313.74L550.774 316.149L549.032 318.536L547.274 320.901L545.499 323.244L543.709 325.563L541.904 327.86L540.085 330.133L538.251 332.382L536.405 334.607L534.546 336.807L532.674 338.984L530.791 341.135L528.897 343.261L526.993 345.361L525.079 347.436L523.156 349.486L521.224 351.509L519.284 353.506L517.337 355.476L515.383 357.42L513.423 359.338L511.457 361.228L509.487 363.091L507.512 364.928L505.533 366.736L503.551 368.518L501.567 370.272L499.581 371.998L497.593 373.697L495.605 375.367L493.617 377.01L491.63 378.625L489.643 380.212L487.659 381.771L485.676 383.303L483.697 384.806L481.722 386.281L479.751 387.727L477.784 389.146L475.823 390.537L473.868 391.9L471.92 393.235L469.979 394.543L468.046 395.822L466.121 397.074L464.206 398.298L462.3 399.494L460.404 400.664L458.519 401.805L456.645 402.92L454.784 404.008L452.935 405.068L451.099 406.102L449.277 407.11L447.469 408.091L445.675 409.045L443.898 409.974L442.136 410.877L440.39 411.754L438.661 412.606L436.95 413.432L435.257 414.234L433.583 415.011L431.927 415.763L430.292 416.491L428.676 417.196L427.08 417.876L425.506 418.534L423.954 419.168L422.423 419.78L420.915 420.369L419.43 420.936L417.968 421.481L416.53 422.005L415.116 422.507L413.727 422.989L412.363 423.45L411.025 423.892L409.713 424.313L408.427 424.716L407.168 425.099L405.936 425.464L404.732 425.811L403.555 426.14L402.407 426.452L401.287 426.746L400.197 427.025L399.136 427.287L398.104 427.534L397.102 427.765L396.131 427.982L395.19 428.185L394.28 428.373L393.401 428.549L392.553 428.711L391.737 428.861L390.953 428.999L390.201 429.125L389.481 429.241L388.794 429.345L388.14 429.44L387.519 429.526L386.931 429.602L386.376 429.669L385.855 429.729L385.368 429.781L384.914 429.826L384.495 429.864L384.109 429.897L383.758 429.924L383.441 429.945L383.159 429.963L382.911 429.976L382.697 429.986L382.519 429.993L382.375 429.997L382.265 430L382.191 430.001L382.151 430.001L382.147 430.001L382.177 430.002L382.242 430.003L382.341 430.005L382.476 430.009L382.645 430.015L382.849 430.024L383.087 430.036L383.36 430.052L383.668 430.073L384.01 430.098L384.386 430.129L384.796 430.166L385.24 430.209L385.718 430.259L386.23 430.316L386.776 430.382L387.355 430.456L387.967 430.538L388.612 430.631L389.29 430.733L390.001 430.845L390.744 430.968L391.519 431.103L392.326 431.25L393.165 431.409L394.036 431.58L394.937 431.765L395.87 431.964L396.833 432.177L397.826 432.404L398.85 432.647L399.903 432.905L400.986 433.179L402.097 433.469L403.238 433.776L404.406 434.1L405.603 434.442L406.828 434.802L408.079 435.18L409.358 435.578L410.663 435.994L411.994 436.43L413.351 436.886L414.733 437.362L416.14 437.859L417.571 438.377L419.026 438.916L420.505 439.477L422.007 440.06L423.532 440.665L425.078 441.293L426.647 441.944L428.236 442.618L429.847 443.316L431.477 444.038L433.127 444.784L434.796 445.554L436.484 446.349L438.191 447.168L439.915 448.013L441.655 448.883L443.413 449.779L445.187 450.701L446.976 451.648L448.78 452.622L450.598 453.622L452.43 454.649L454.276 455.702L456.134 456.782L458.004 457.889L459.886 459.024L461.779 460.185L463.682 461.374L465.595 462.591L467.517 463.835L469.448 465.107L471.387 466.406L473.333 467.734L475.287 469.089L477.246 470.473L479.211 471.884L481.181 473.323L483.155 474.79L485.134 476.286L487.115 477.809L489.099 479.36L491.085 480.94L493.072 482.547L495.06 484.182L497.049 485.846L499.036 487.536L501.023 489.255L503.008 491.002L504.99 492.775L506.97 494.577L508.946 496.405L510.918 498.261L512.885 500.144L514.846 502.054L516.802 503.991L518.751 505.954L520.693 507.944L522.627 509.96L524.553 512.002L526.469 514.07L528.376 516.164L530.273 518.283L532.159 520.427L534.034 522.597L535.896 524.79L537.746 527.009L539.583 529.251L541.407 531.518L543.216 533.808L545.01 536.121L546.789 538.457L548.552 540.816L550.298 543.198L552.027 545.601L553.739 548.026L555.432 550.472L557.107 552.939L558.763 555.427L560.399 557.935L562.015 560.463L563.61 563.01L565.184 565.576L566.736 568.161L568.266 570.764L569.773 573.385L571.257 576.023L572.717 578.678L574.153 581.349L575.565 584.037L576.951 586.74L578.312 589.458L579.647 592.19L580.956 594.937L582.238 597.697L583.493 600.47L584.72 603.256L585.92 606.053L587.091 608.863L588.233 611.683L589.346 614.514L590.429 617.355L591.483 620.205L592.507 623.064L593.5 625.932L594.462 628.807L595.393 631.69L596.292 634.579L597.16 637.474L597.996 640.375L598.799 643.28L599.57 646.19L600.308 649.104L601.012 652.021L601.684 654.94L602.321 657.862L602.925 660.784L603.495 663.708L604.03 666.632L604.531 669.555L604.997 672.477L605.429 675.398L605.825 678.316L606.187 681.232L606.513 684.144L606.803 687.052L607.058 689.955L607.278 692.852L607.461 695.744L607.609 698.629L607.721 701.507L607.796 704.376L607.836 707.238L607.84 710.09L607.807 712.933L607.738 715.765L607.633 718.586L607.491 721.395L607.314 724.192L607.1 726.977L606.85 729.747L606.564 732.504L606.242 735.246L605.883 737.972L605.489 740.683L605.058 743.377L604.592 746.054L604.09 748.713L603.552 751.353L602.979 753.975L602.37 756.576L601.727 759.158L601.047 761.719L600.333 764.258L599.584 766.776L598.801 769.27L597.983 771.742L597.131 774.19L596.244 776.614L595.324 779.012L594.37 781.386L593.383 783.733L592.363 786.054L591.309 788.347L590.223 790.613L589.105 792.851L587.955 795.06L586.772 797.24L585.559 799.391L584.314 801.511L583.038 803.6L581.732 805.658L580.395 807.684L579.029 809.678L577.633 811.639L576.208 813.568L574.754 815.462L573.271 817.322L571.761 819.148L570.223 820.939L568.657 822.694L567.065 824.414L565.446 826.097L563.802 827.744L562.131 829.354L560.436 830.926L558.715 832.46L556.971 833.956L555.202 835.413L553.411 836.832L551.596 838.211L549.759 839.55L547.9 840.849L546.019 842.109L544.117 843.327L542.195 844.505L540.253 845.641L538.292 846.736L536.311 847.789L534.312 848.8L532.295 849.769L530.261 850.695L528.209 851.579L526.142 852.419L524.058 853.216L521.959 853.97L519.846 854.68L517.718 855.347L515.577 855.969L513.423 856.548L511.256 857.082L509.077 857.571L506.887 858.016L504.685 858.417L502.474 858.772L500.253 859.083L498.023 859.348L495.784 859.569L493.537 859.745L491.283 859.875L489.022 859.96L486.755 860L484.482 859.995L482.204 859.944L479.922 859.848L477.636 859.707L475.346 859.52L473.054 859.288L470.759 859.011L468.463 858.689L466.166 858.322L463.868 857.91L461.571 857.453L459.274 856.951L456.979 856.404L454.685 855.813L452.394 855.178L450.106 854.498L447.822 853.773L445.542 853.005L443.266 852.193L440.996 851.338L438.732 850.439L436.474 849.496L434.223 848.511L431.98 847.483L429.744 846.412L427.518 845.299L425.3 844.144L423.092 842.947L420.895 841.708L418.708 840.429L416.532 839.108L414.369 837.746L412.217 836.345L410.079 834.903L407.953 833.421L405.842 831.9L403.745 830.341L401.662 828.742L399.595 827.105L397.544 825.431L395.509 823.718L393.491 821.969L391.49 820.183L389.506 818.361L387.541 816.503L385.594 814.609L383.666 812.681L381.757 810.717L379.868 808.72L378 806.689L376.152 804.625L374.325 802.529L372.519 800.4L370.735 798.239L368.974 796.047L367.234 793.824L365.518 791.572L363.825 789.289L362.155 786.978L360.51 784.637L358.888 782.269L357.292 779.873L355.72 777.45L354.173 775.001L352.651 772.526L351.156 770.025L349.686 767.5L348.242 764.951L346.825 762.378L345.435 759.782L344.072 757.163L342.736 754.523L341.428 751.862L340.147 749.18L338.894 746.478L337.669 743.756L336.472 741.016L335.303 738.258L334.163 735.482L333.052 732.689L331.97 729.88L330.916 727.056L329.892 724.216L328.897 721.362L327.931 718.494L326.995 715.613L326.088 712.72L325.21 709.815L324.362 706.898L323.544 703.971L322.755 701.034L321.996 698.088L321.267 695.134L320.568 692.171L319.898 689.201L319.258 686.224L318.647 683.242L318.067 680.254L317.516 677.261L316.994 674.264L316.502 671.264L316.039 668.261L315.606 665.256L315.202 662.249L314.827 659.242L314.482 656.234L314.165 653.227L313.877 650.22L313.617 647.216L313.386 644.213L313.184 641.214L313.009 638.218L312.863 635.226L312.744 632.239L312.653 629.258L312.589 626.282L312.553 623.313L312.543 620.352L312.56 617.398L312.604 614.452L312.673 611.516L312.769 608.589L312.89 605.672L313.037 602.766L313.209 599.871L313.405 596.988L313.626 594.118L313.871 591.26L314.14 588.417L314.433 585.587L314.748 582.771L315.087 579.971L315.448 577.187L315.831 574.418L316.235 571.667L316.661 568.932L317.108 566.216L317.576 563.517L318.063 560.837L318.571 558.176L319.097 555.535L319.643 552.914L320.207 550.313L320.789 547.733L321.389 545.175L322.006 542.639L322.639 540.124L323.289 537.633L323.954 535.164L324.635 532.719L325.331 530.298L326.041 527.901L326.764 525.528L327.501 523.181L328.251 520.859L329.014 518.562L329.788 516.291L330.573 514.047L331.369 511.829L332.176 509.639L332.992 507.475L333.818 505.339L334.652 503.231L335.494 501.15L336.345 499.098L337.202 497.075L338.065 495.08L338.935 493.115L339.81 491.178L340.69 489.271L341.575 487.394L342.463 485.546L343.354 483.729L344.249 481.941L345.145 480.184L346.043 478.458L346.941 476.762L347.841 475.096L348.74 473.462L349.638 471.858L350.535 470.286L351.431 468.744L352.324 467.234L353.214 465.755L354.1 464.308L354.983 462.891L355.86 461.507L356.733 460.153L357.599 458.831L358.46 457.54L359.313 456.281L360.16 455.053L360.998 453.856L361.827 452.691L362.647 451.557L363.458 450.454L364.259 449.383L365.049 448.342L365.827 447.332L366.594 446.353L367.348 445.405L368.09 444.488L368.818 443.601L369.532 442.744L370.231 441.917L370.916 441.121L371.585 440.354L372.238 439.617L372.875 438.91L373.494 438.231L374.096 437.582L374.681 436.962L375.246 436.37L375.793 435.807L376.321 435.271L376.828 434.764L377.315 434.284L377.782 433.832L378.227 433.407L378.65 433.008L379.051 432.636L379.43 432.29L379.786 431.97L380.118 431.675L380.427 431.406L380.712 431.161L380.971 430.941L381.206 430.745L381.416 430.573L381.6 430.424L381.758 430.299L381.889 430.196L381.994 430.115L382.071 430.056L382.121 430.019L382.143 430.002L382.137 430.007L382.103 430.031L382.04 430.075L381.948 430.139L381.827 430.221L381.676 430.322L381.496 430.441L381.285 430.577L381.044 430.731L380.773 430.901L380.471 431.087L380.138 431.289L379.773 431.506L379.378 431.738L378.951 431.983L378.492 432.243L378.001 432.516L377.479 432.801L376.924 433.099L376.336 433.408L375.717 433.728L375.065 434.059L374.38 434.4L373.662 434.751L372.912 435.11L372.128 435.478L371.312 435.855L370.463 436.238L369.58 436.629L368.665 437.026L367.716 437.428L366.734 437.836L365.719 438.249L364.671 438.666L363.59 439.087L362.476 439.511L361.329 439.937L360.148 440.366L358.935 440.796L357.689 441.227L356.41 441.658L355.099 442.09L353.755 442.52L352.379 442.95L350.97 443.377L349.529 443.803L348.056 444.225L346.551 444.644L345.014 445.06L343.446 445.471L341.847 445.876L340.216 446.277L338.555 446.671L336.862 447.059L335.14 447.44L333.387 447.813L331.604 448.178L329.791 448.535L327.948 448.882L326.077 449.22L324.177 449.548L322.248 449.865L320.29 450.171L318.305 450.465L316.292 450.748L314.251 451.017L312.184 451.274L310.09 451.517L307.97 451.747L305.824 451.962L303.652 452.162L301.455 452.346L299.233 452.515L296.987 452.668L294.717 452.804L292.424 452.923L290.108 453.025L287.768 453.108L285.407 453.174L283.024 453.221L280.62 453.248L278.195 453.256L275.749 453.245L273.284 453.213L270.799 453.161L268.296 453.087L265.774 452.993L263.234 452.876L260.677 452.738L258.103 452.578L255.513 452.395L252.907 452.189L250.286 451.96L247.65 451.707L245 451.431L242.337 451.13L239.66 450.806L236.972 450.457L234.271 450.082L231.559 449.683L228.837 449.259L226.104 448.809L223.362 448.333L220.611 447.832L217.852 447.304L215.085 446.75L212.311 446.17L209.53 445.563L206.744 444.929L203.953 444.268L201.157 443.581L198.357 442.865L195.553 442.123L192.747 441.353L189.939 440.556L187.129 439.731L184.319 438.879L181.508 437.998L178.698 437.09L175.889 436.154L173.081 435.19L170.276 434.198L167.474 433.179L164.676 432.131L161.882 431.055L159.093 429.952L156.309 428.82L153.532 427.661L150.762 426.474L147.999 425.259L145.244 424.016L142.499 422.746L139.762 421.448L137.036 420.123L134.321 418.77L131.617 417.39L128.924 415.983L126.245 414.549L123.579 413.089L120.926 411.601L118.289 410.087L115.666 408.547L113.059 406.98L110.469 405.388L107.895 403.769L105.339 402.126L102.802 400.456L100.283 398.762L97.7835 397.043L95.3041 395.299L92.8453 393.531L90.4077 391.739L87.9918 389.923L85.5983 388.083L83.2277 386.22L80.8806 384.335L78.5575 382.426L76.259 380.496L73.9857 378.543L71.7381 376.569L69.5167 374.574L67.322 372.557L65.1547 370.52L63.0151 368.463L60.9039 366.386L58.8215 364.29L56.7684 362.175L54.7452 360.041L52.7523 357.888L50.7901 355.718L48.8592 353.531L46.96 351.327L45.093 349.106L43.2586 346.869L41.4573 344.617L39.6894 342.349L37.9555 340.067L36.2559 337.771L34.5911 335.461L32.9613 333.137L31.3671 330.801L29.8088 328.453L28.2868 326.093L26.8015 323.721L25.3531 321.339L23.942 318.947L22.5687 316.545L21.2333 314.134L19.9363 311.714L18.6779 309.287L17.4584 306.851L16.2781 304.409L15.1373 301.96L14.0363 299.505L12.9752 297.045L11.9545 294.581L10.9742 292.112L10.0347 289.639L9.13615 287.163L8.27873 284.685L7.46267 282.205L6.68815 279.723L5.95534 277.241L5.26442 274.758L4.61553 272.276L4.00883 269.795L3.44445 267.316L2.9225 264.838L2.44311 262.364L2.00638 259.892L1.6124 257.425L1.26124 254.962L0.952986 252.505L0.687688 250.053L0.465398 247.607L0.286153 245.168L0.14998 242.737L0.0568948 240.314L0.00690329 237.899L0 235.494L0.0361687 233.099L0.115382 230.714L0.237604 228.34L0.402783 225.978L0.610863 223.628L0.861772 221.291L1.15543 218.967L1.49175 216.657L1.87062 214.362L2.29194 212.082L2.75557 209.818L3.2614 207.569L3.80927 205.338L4.39902 203.124L5.0305 200.928L5.70353 198.751L6.41793 196.592L7.17349 194.454L7.97002 192.335L8.8073 190.237L9.68509 188.16L10.6032 186.105L11.5613 184.072L12.5592 182.063L13.5967 180.076L14.6733 178.113L15.789 176.175L16.9433 174.261L18.136 172.373L19.3667 170.51L20.6352 168.674L21.9411 166.865L23.284 165.083L24.6637 163.328L26.0797 161.602L27.5318 159.905L29.0194 158.236L30.5423 156.597L32.1001 154.988L33.6923 153.409L35.3185 151.861L36.9784 150.344L38.6715 148.858L40.3974 147.405L42.1556 145.984L43.9458 144.595L45.7674 143.24L47.6199 141.918L49.503 140.63L51.4162 139.376L53.3589 138.156L55.3308 136.971L57.3312 135.822L59.3597 134.707L61.4158 133.629L63.499 132.586L65.6088 131.579L67.7447 130.609L69.906 129.676L72.0924 128.78L74.3032 127.921L76.5379 127.1L78.796 126.316L81.0769 125.57L83.3801 124.863L85.7049 124.194L88.0509 123.563L90.4175 122.971L92.804 122.417L95.21 121.903L97.6349 121.428L100.078 120.992L102.539 120.595L105.017 120.238L107.511 119.92L110.021 119.643L112.547 119.404L115.087 119.206L117.641 119.048L120.209 118.929L122.79 118.85L125.383 118.812L127.988 118.813L130.604 118.854L133.23 118.935L135.867 119.057L138.512 119.218L141.166 119.419L143.829 119.66L146.498 119.94L149.175 120.261L151.858 120.621L154.546 121.02L157.239 121.459L159.937 121.938L162.639 122.455L165.343 123.011L168.051 123.607L170.76 124.241L173.471 124.914L176.182 125.625L178.894 126.375L181.605 127.162L184.316 127.987L187.024 128.85L189.731 129.75L192.435 130.688L195.136 131.662L197.832 132.673L200.524 133.72L203.212 134.804L205.893 135.923L208.569 137.078L211.238 138.268L213.899 139.492L216.553 140.752L219.198 142.046L221.835 143.373L224.462 144.734L227.079 146.128L229.686 147.555L232.281 149.015L234.866 150.507L237.438 152.03L239.998 153.584L242.545 155.169L245.078 156.785L247.598 158.431L250.103 160.106L252.593 161.811L255.068 163.544L257.527 165.305L259.97 167.094L262.396 168.91L264.805 170.753L267.197 172.622L269.57 174.517L271.926 176.438L274.262 178.383L276.58 180.352L278.878 182.346L281.156 184.362L283.414 186.401L285.651 188.463L287.867 190.545L290.062 192.649L292.235 194.774L294.387 196.918L296.516 199.082L298.622 201.265L300.706 203.466L302.766 205.684L304.803 207.92L306.816 210.172L308.806 212.44L310.771 214.723L312.711 217.021L314.627 219.333L316.518 221.659L318.384 223.998L320.224 226.348L322.039 228.711L323.828 231.084L325.591 233.468L327.328 235.862L329.039 238.265L330.723 240.676L332.381 243.096L334.013 245.522L335.617 247.956L337.195 250.395L338.746 252.84L340.269 255.289L341.766 257.743L343.235 260.2L344.678 262.66L346.092 265.123L347.48 267.586L348.84 270.051L350.173 272.516L351.479 274.981L352.757 277.445L354.008 279.908L355.231 282.368L356.428 284.825L357.597 287.279L358.738 289.729L359.853 292.174L360.941 294.614L362.002 297.048L363.036 299.475L364.043 301.895L365.023 304.308L365.977 306.712L366.905 309.107L367.806 311.492L368.682 313.867L369.531 316.232L370.355 318.585L371.153 320.926L371.926 323.255L372.673 325.57L373.396 327.872L374.094 330.16L374.767 332.433L375.416 334.69L376.042 336.932L376.643 339.157L377.221 341.365L377.775 343.556L378.307 345.728L378.815 347.882L379.302 350.017L379.766 352.133L380.209 354.228L380.63 356.302L381.03 358.356L381.409 360.388L381.768 362.398L382.107 364.385L382.426 366.349L382.725 368.29L383.006 370.207L383.268 372.1L383.511 373.968L383.737 375.811L383.945 377.628L384.137 379.42L384.311 381.185L384.47 382.923L384.612 384.634L384.74 386.317L384.852 387.973L384.95 389.6L385.033 391.199L385.104 392.768L385.16 394.309L385.205 395.82L385.237 397.301L385.257 398.752L385.266 400.172L385.264 401.562L385.252 402.921L385.23 404.248L385.199 405.544L385.159 406.808L385.11 408.04L385.054 409.24L384.99 410.408L384.919 411.543L384.842 412.645L384.759 413.714L384.671 414.75L384.578 415.753L384.481 416.722L384.38 417.657L384.276 418.559L384.169 419.427L384.06 420.261L383.949 421.061L383.837 421.827L383.724 422.559L383.611 423.256L383.499 423.919L383.388 424.548L383.278 425.142L383.17 425.702L383.064 426.227L382.962 426.718L382.863 427.175L382.769 427.597L382.679 427.985L382.594 428.338L382.515 428.657L382.442 428.942L382.376 429.193L382.317 429.41L382.266 429.593L382.223 429.742L382.189 429.857L382.164 429.938L382.149 429.987L382.144 430.001L382.15 429.983L382.168 429.932L382.197 429.848L382.238 429.731L382.292 429.582L382.36 429.4L382.441 429.187L382.536 428.941L382.646 428.665L382.771 428.357L382.911 428.017L383.068 427.648L383.241 427.247L383.431 426.816L383.638 426.356L383.863 425.866L384.107 425.346L384.368 424.798L384.649 424.22L384.95 423.615L385.27 422.981L385.61 422.32L385.971 421.632L386.354 420.917L386.757 420.175L387.182 419.407L387.63 418.613L388.099 417.794L388.592 416.95L389.108 416.082L389.647 415.189L390.21 414.273L390.797 413.334L391.409 412.371L392.045 411.387L392.706 410.381L393.393 409.353L394.105 408.304L394.843 407.235L395.607 406.146L396.398 405.038L397.215 403.911L398.059 402.765L398.929 401.601L399.828 400.42L400.753 399.222L401.706 398.007L402.687 396.777L403.696 395.531L404.734 394.271L405.799 392.996L406.893 391.707L408.016 390.406L409.167 389.091L410.348 387.765L411.557 386.427L412.795 385.079L414.062 383.72L415.359 382.351L416.685 380.973L418.04 379.586L419.425 378.191L420.839 376.789L422.282 375.38L423.756 373.964L425.258 372.543L426.79 371.117L428.352 369.686L429.943 368.251L431.563 366.813L433.213 365.372L434.892 363.928L436.6 362.483L438.337 361.037L440.104 359.591L441.899 358.145L443.724 356.699L445.577 355.255L447.459 353.813L449.369 352.374L451.308 350.937L453.275 349.504L455.27 348.076L457.292 346.652L459.343 345.234L461.421 343.821L463.526 342.416L465.658 341.017L467.817 339.627L470.003 338.244L472.215 336.871L474.453 335.507L476.717 334.153L479.006 332.809L481.321 331.477L483.66 330.156L486.025 328.848L488.413 327.552L490.826 326.27L493.262 325.001L495.722 323.747L498.204 322.507L500.71 321.283L503.237 320.075L505.787 318.884L508.358 317.709L510.95 316.552L513.563 315.412L516.196 314.292L518.849 313.189L521.521 312.107L524.213 311.044L526.923 310.001L529.651 308.979L532.397 307.979L535.16 307L537.94 306.043L540.736 305.108L543.548 304.197L546.375 303.308L549.217 302.444L552.074 301.603L554.944 300.788L557.827 299.997L560.723 299.231L563.631 298.491L566.551 297.777L569.482 297.089L572.424 296.428L575.375 295.794L578.336 295.187L581.306 294.608L584.285 294.057L587.271 293.534L590.264 293.04L593.263 292.575L596.269 292.138L599.28 291.731L602.296 291.354L605.317 291.006L608.34 290.689L611.367 290.402L614.396 290.145L617.427 289.919L620.459 289.724L623.492 289.561L626.525 289.428L629.557 289.327L632.587 289.257L635.616 289.22L638.642 289.214L641.665 289.24L644.684 289.298L647.698 289.388L650.707 289.511L653.711 289.666L656.708 289.854L659.698 290.074L662.681 290.327L665.655 290.612L668.62 290.93L671.576 291.281L674.521 291.664L677.455 292.08L680.378 292.529L683.289 293.011L686.187 293.525L689.072 294.071L691.942 294.651L694.798 295.262L697.639 295.907L700.464 296.583L703.272 297.292L706.063 298.033L708.836 298.806L711.59 299.611L714.326 300.447L717.042 301.315L719.738 302.215L722.412 303.146L725.066 304.109L727.697 305.102L730.306 306.126L732.891 307.18L735.453 308.265L737.99 309.381L740.502 310.526L742.989 311.7L745.449 312.905L747.883 314.138L750.289 315.4L752.668 316.691L755.018 318.011L757.34 319.358L759.632 320.733L761.894 322.136L764.125 323.566L766.326 325.022L768.495 326.505L770.632 328.015L772.737 329.55L774.808 331.11L776.847 332.696L778.851 334.306L780.821 335.94L782.756 337.598L784.655 339.28L786.519 340.985L788.347 342.713L790.138 344.463L791.892 346.234L793.609 348.027L795.287 349.841L796.928 351.676L798.53 353.531L800.093 355.405L801.616 357.298L803.1 359.21L804.544 361.14L805.947 363.088L807.309 365.053L808.631 367.035L809.911 369.033L811.149 371.046L812.346 373.075L813.5 375.119L814.611 377.176L815.68 379.248L816.706 381.332L817.688 383.429L818.627 385.538L819.522 387.658L820.374 389.79L821.181 391.931L821.943 394.083L822.661 396.244L823.335 398.414L823.963 400.592L824.547 402.777L825.085 404.97L825.578 407.169L826.026 409.374L826.428 411.584L826.785 413.799L827.096 416.018L827.361 418.241L827.58 420.467L827.754 422.695L827.881 424.926L827.963 427.157L827.998 429.39L828 430.001Z" fill="url(#paint0_linear)"/>
<defs>
<linearGradient id="paint0_linear" x1="0" y1="430" x2="828" y2="430" gradientUnits="userSpaceOnUse">
<stop stop-color="#D4FC79"/>
<stop offset="1" stop-color="#96E6A1"/>
</linearGradient>
</defs>
</svg>
