<svg width="2651" height="2592" viewBox="0 0 2651 2592" fill="none" xmlns="http://www.w3.org/2000/svg">
<g clip-path="url(#clip0)">
<path d="M1553.52 2054.06H145.34V2591.68H1553.52V2054.06Z" fill="#56FF3A"/>
<path d="M2651 285.492L2529.02 496.83H2442.63L2543.11 322.94H2407.4H1701.83V248.044H2407.4H2543.11L2442.63 74.1534H2529.02L2651 285.492Z" fill="black"/>
<path d="M485.706 7.41504H597.308V546.513H485.706V188.35L269.918 546.143H158.688V7.41504H269.918V365.949L485.706 7.41504Z" fill="black"/>
<path d="M1118.98 546.513H1007.75V315.524H791.221V546.513H679.99V7.41504H791.221V225.798H1007.75V7.41504H1118.98V546.513Z" fill="black"/>
<path d="M1626.19 366.69C1622.11 424.53 1600.61 470.506 1561.68 503.504C1523.12 536.873 1472.32 553.558 1409.29 553.558C1340.33 553.558 1285.83 530.2 1246.15 483.853C1206.85 437.137 1186.83 373.364 1186.83 292.166V259.538C1186.83 207.63 1196.1 162.026 1214.27 122.724C1232.43 83.4227 1258.39 53.0196 1292.5 31.8858C1326.61 10.7519 1365.91 -0.000366211 1410.77 -0.000366211C1473.06 -0.000366211 1523.12 16.6842 1560.94 50.0535C1599.13 83.4227 1621 130.14 1626.93 190.204H1515.7C1513.11 155.352 1503.1 130.14 1486.41 114.567C1469.73 98.6243 1444.51 90.8381 1410.4 90.8381C1373.33 90.8381 1345.52 104.186 1326.98 130.881C1308.81 157.206 1299.17 198.361 1298.8 253.977V294.761C1298.8 352.972 1307.7 395.61 1325.13 422.306C1342.92 449.372 1370.73 462.72 1408.92 462.72C1443.4 462.72 1468.61 454.934 1485.67 439.361C1502.73 423.418 1512.37 399.318 1514.96 366.32H1626.19V366.69Z" fill="black"/>
<path d="M598.049 778.985H433.057V1227.99H321.826V778.985H159.059V688.888H598.049V778.985Z" fill="black"/>
<path d="M1005.15 688.888H1116.75V1227.99H1005.15V870.194L789.366 1227.99H678.135V688.888H789.366V1047.42L1005.15 688.888Z" fill="black"/>
<path d="M1633.98 778.985H1468.99V1227.99H1357.76V778.985H1194.99V688.888H1633.98V778.985Z" fill="black"/>
<path d="M1916.5 943.606L2014.76 688.888H2134.52L1946.17 1133.44L1930.96 1162.73C1903.16 1211.3 1860.52 1235.77 1803.05 1235.77L1764.12 1234.29L1763.01 1144.93C1768.94 1146.05 1778.58 1146.42 1791.93 1146.42C1807.5 1146.42 1820.1 1143.82 1829.37 1138.26C1839.01 1132.7 1847.17 1122.69 1853.47 1108.23L1867.19 1073L1678.1 688.888H1797.49L1916.5 943.606Z" fill="black"/>
<path d="M2619.11 778.985H2454.12V1227.99H2342.89V778.985H2180.12V688.888H2619.11V778.985Z" fill="black"/>
<path d="M1924.66 2591.31H1813.43V2360.32H1596.9V2591.31H1485.67V2054.06H1596.9V2270.59H1813.43V2054.06H1924.66V2591.31Z" fill="black"/>
<path d="M2327.69 2480.45H2136L2099.67 2591.68H1983.24L2180.12 2054.06H2281.34L2480.45 2591.31H2364.02L2327.69 2480.45ZM2165.29 2390.35H2298.03L2231.29 2188.65L2165.29 2390.35Z" fill="black"/>
<path fill-rule="evenodd" clip-rule="evenodd" d="M2616.89 1370.73H2505.29L2289.5 1729.27V1370.73H2178.27V1909.83H2289.5L2505.29 1551.67V1909.83H2616.89V1370.73Z" fill="black"/>
<path fill-rule="evenodd" clip-rule="evenodd" d="M1455.64 1470.84C1471.58 1482.33 1479.74 1498.65 1479.74 1519.04C1479.74 1566.5 1453.04 1590.6 1400.02 1591.34H1331.43V1678.47H1397.8C1427.09 1678.47 1449.34 1684.77 1464.91 1697.01C1480.11 1709.24 1487.9 1729.27 1487.9 1757.44C1487.9 1777.84 1479.37 1794.89 1461.94 1808.24C1444.89 1821.59 1421.53 1828.26 1391.87 1828.26C1365.54 1828.26 1344.41 1821.96 1327.35 1808.98C1310.67 1796 1302.14 1779.69 1302.14 1760.41H1190.17C1190.17 1791.18 1198.32 1818.25 1214.27 1841.98C1230.58 1865.34 1254.31 1883.51 1285.83 1897.23C1317.34 1910.57 1352.56 1917.25 1391.87 1917.25C1454.53 1917.25 1504.95 1903.16 1542.4 1874.61C1580.22 1846.06 1599.5 1807.5 1599.5 1759.3C1599.5 1727.78 1591.71 1701.83 1575.77 1680.7C1559.82 1659.56 1537.21 1643.62 1507.55 1633.24C1534.24 1621 1554.63 1604.32 1569.09 1583.93C1583.55 1563.53 1590.97 1541.29 1590.97 1517.19C1590.97 1468.25 1573.17 1430.43 1537.95 1403.73C1502.73 1377.04 1453.78 1363.69 1391.87 1363.69C1355.9 1363.69 1322.9 1370.36 1292.5 1383.34C1262.47 1396.32 1239.11 1414.85 1222.42 1438.21C1206.11 1461.57 1197.95 1487.52 1197.95 1516.82H1309.18C1309.18 1497.91 1316.97 1482.7 1332.54 1471.21C1348.49 1459.35 1368.14 1453.41 1391.87 1453.41C1418.56 1453.41 1439.7 1459.35 1455.64 1470.84Z" fill="black"/>
<path fill-rule="evenodd" clip-rule="evenodd" d="M1006.27 1370.73H1117.87V1909.83H1006.27V1551.67L790.479 1909.83H679.619V1370.73H790.479V1729.27L1006.27 1370.73Z" fill="black"/>
<path fill-rule="evenodd" clip-rule="evenodd" d="M1929.85 1370.73H1826.78L1626.19 1909.83H1744.1L1781.17 1798.6H1976.2L2013.65 1909.83H2131.92L1929.85 1370.73ZM1811.58 1708.5L1878.69 1506.81L1946.54 1708.5H1811.58Z" fill="black"/>
<path fill-rule="evenodd" clip-rule="evenodd" d="M628.081 1909.46L631.418 1820.48H572.095V1370.73H238.403L223.572 1608.4C219.494 1660.68 212.078 1704.8 200.585 1740.02C189.461 1775.24 173.518 1801.94 152.755 1820.48H114.195L116.42 1909.46H628.081ZM329.241 1602.46L338.14 1460.83H467.168V1820.48H272.885C303.658 1770.05 322.197 1697.38 329.241 1602.46Z" fill="black"/>
<path d="M2324.72 1282.86L2395.17 1353.31L2465.61 1282.86" stroke="black" stroke-width="59.3231"/>
<path d="M2617.63 2222.02H2505.29V2322.87H2617.63V2222.02Z" fill="black"/>
<path d="M2617.63 2490.83H2505.29V2591.68H2617.63V2490.83Z" fill="black"/>
</g>
<defs>
<clipPath id="clip0">
<rect width="2651" height="2591.68" fill="white"/>
</clipPath>
</defs>
</svg>
