<svg width="90" height="90" viewBox="0 0 90 90" fill="none" xmlns="http://www.w3.org/2000/svg">
<path fill-rule="evenodd" clip-rule="evenodd" d="M67.5 67.4998L67.4966 67.4964L67.4864 67.4865L67.4691 67.47L67.4447 67.4473L67.413 67.4184L67.374 67.3834L67.3274 67.3426L67.2734 67.2961L67.2116 67.244L67.1421 67.1866L67.0648 67.1241L66.9795 67.0565L66.8863 66.984L66.7849 66.907L66.6755 66.8254L66.5579 66.7396L66.432 66.6497L66.2979 66.5559L66.1555 66.4584L66.0048 66.3574L65.8457 66.253L65.6782 66.1456L65.5023 66.0353L65.3181 65.9222L65.1255 65.8067L64.9245 65.6888L64.7151 65.5688L64.4975 65.447L64.2715 65.3234L64.0372 65.1983L63.7947 65.072L63.5441 64.9446L63.2853 64.8162L63.0185 64.6872L62.7437 64.5577L62.4609 64.4279L62.1703 64.298L61.872 64.1682L61.566 64.0387L61.2525 63.9097L60.9315 63.7813L60.6032 63.6538L60.2676 63.5274L59.925 63.4022L59.5754 63.2784L59.219 63.1561L58.8558 63.0356L58.4861 62.917L58.1101 62.8006L57.7277 62.6863L57.3393 62.5745L56.945 62.4652L56.545 62.3586L56.1394 62.2548L55.7284 62.1541L55.3121 62.0565L54.8909 61.9621L54.4649 61.8711L54.0342 61.7836L53.5991 61.6998L53.1598 61.6197L52.7165 61.5434L52.2694 61.4711L51.8186 61.4028L51.3646 61.3386L50.9073 61.2786L50.4472 61.223L49.9843 61.1716L49.519 61.1248L49.0514 61.0824L48.5818 61.0446L48.1104 61.0113L47.6374 60.9827L47.1631 60.9588L46.6878 60.9396L46.2116 60.9251L45.7348 60.9154L45.2577 60.9104L44.7804 60.9102L44.3032 60.9148L43.8264 60.9242L43.3501 60.9383L42.8747 60.9571L42.4004 60.9806L41.9273 61.0089L41.4558 61.0417L40.986 61.0792L40.5182 61.1212L40.0527 61.1678L39.5896 61.2187L39.1293 61.274L38.6718 61.3337L38.2174 61.3975L37.7665 61.4655L37.319 61.5375L36.8754 61.6135L36.4358 61.6933L36.0003 61.7768L35.5693 61.864L35.1429 61.9547L34.7213 62.0489L34.3046 62.1462L33.8932 62.2467L33.4872 62.3502L33.0867 62.4566L32.6919 62.5657L32.303 62.6773L31.9202 62.7914L31.5436 62.9077L31.1734 63.0261L30.8098 63.1465L30.4528 63.2686L30.1026 63.3923L29.7594 63.5174L29.4233 63.6438L29.0944 63.7712L28.7728 63.8995L28.4587 64.0284L28.1521 64.1579L27.8532 64.2877L27.562 64.4176L27.2786 64.5474L27.0031 64.677L26.7357 64.806L26.4763 64.9344L26.225 65.0619L25.9818 65.1884L25.7469 65.3136L25.5203 65.4372L25.3019 65.5593L25.0919 65.6794L24.8903 65.7974L24.697 65.9132L24.5121 66.0264L24.3355 66.137L24.1674 66.2447L24.0076 66.3492L23.8562 66.4505L23.7131 66.5483L23.5784 66.6424L23.4519 66.7326L23.3336 66.8188L23.2235 66.9007L23.1215 66.9781L23.0276 67.0509L22.9417 67.1189L22.8638 67.1819L22.7936 67.2397L22.7313 67.2922L22.6766 67.3392L22.6295 67.3804L22.5899 67.4159L22.5576 67.4453L22.5326 67.4685L22.5148 67.4855L22.5039 67.496L22.5 67.4998L22.5028 67.497L22.5123 67.4873L22.5282 67.4705L22.5504 67.4467L22.5789 67.4156L22.6134 67.3771L22.6537 67.3312L22.6998 67.2778L22.7514 67.2166L22.8084 67.1478L22.8705 67.071L22.9377 66.9864L23.0098 66.8938L23.0865 66.7931L23.1677 66.6843L23.2532 66.5673L23.3428 66.4422L23.4363 66.3087L23.5335 66.167L23.6342 66.0169L23.7383 65.8584L23.8455 65.6916L23.9556 65.5164L24.0685 65.3329L24.1838 65.1409L24.3015 64.9406L24.4213 64.7319L24.543 64.5149L24.6665 64.2896L24.7914 64.056L24.9177 63.8142L25.045 63.5641L25.1733 63.306L25.3023 63.0398L25.4318 62.7656L25.5615 62.4835L25.6914 62.1936L25.8213 61.8959L25.9508 61.5905L26.0799 61.2775L26.2083 60.9571L26.3358 60.6294L26.4624 60.2944L26.5877 59.9524L26.7116 59.6033L26.834 59.2474L26.9546 58.8848L27.0734 58.5156L27.1901 58.14L27.3045 57.7582L27.4165 57.3703L27.526 56.9764L27.6328 56.5768L27.7368 56.1717L27.8378 55.7611L27.9357 55.3453L28.0303 54.9244L28.1216 54.4988L28.2093 54.0685L28.2935 53.6337L28.3739 53.1947L28.4505 52.7517L28.5232 52.3049L28.5918 51.8545L28.6563 51.4006L28.7166 50.9436L28.7726 50.4837L28.8243 50.021L28.8715 49.5559L28.9142 49.0885L28.9524 48.619L28.986 48.1477L29.015 47.6749L29.0393 47.2008L29.0589 46.7255L29.0738 46.2494L29.0839 45.7726L29.0892 45.2955L29.0898 44.8182L29.0856 44.341L29.0766 43.8641L29.0629 43.3878L29.0444 42.9123L29.0212 42.4379L28.9934 41.9647L28.9609 41.493L28.9238 41.0231L28.8821 40.5552L28.836 40.0895L28.7854 39.6262L28.7304 39.1656L28.6711 38.7079L28.6076 38.2533L28.5399 37.802L28.4682 37.3543L28.3926 36.9104L28.3131 36.4704L28.2298 36.0346L28.1429 35.6033L28.0525 35.1765L27.9586 34.7545L27.8615 34.3374L27.7613 33.9256L27.658 33.5191L27.5518 33.1181L27.443 32.7229L27.3315 32.3335L27.2176 31.9502L27.1015 31.5732L26.9832 31.2025L26.863 30.8383L26.7411 30.4808L26.6175 30.13L26.4925 29.7863L26.3662 29.4496L26.2389 29.1201L26.1106 28.798L25.9817 28.4832L25.8523 28.176L25.7225 27.8765L25.5926 27.5847L25.4628 27.3007L25.3332 27.0246L25.2041 26.7565L25.0757 26.4964L24.9481 26.2445L24.8215 26.0007L24.6963 25.7651L24.5724 25.5378L24.4503 25.3188L24.33 25.1081L24.2118 24.9058L24.0959 24.7119L23.9824 24.5263L23.8716 24.3491L23.7637 24.1803L23.6589 24.0199L23.5573 23.8678L23.4592 23.7241L23.3648 23.5886L23.2743 23.4615L23.1878 23.3425L23.1056 23.2318L23.0278 23.1292L22.9546 23.0346L22.8862 22.9481L22.8228 22.8695L22.7646 22.7988L22.7117 22.7358L22.6643 22.6805L22.6225 22.6328L22.5867 22.5926L22.5567 22.5597L22.533 22.5342L22.5155 22.5157L22.5045 22.5044L22.5001 22.4999L22.5024 22.5022L22.5116 22.5111L22.5278 22.5265L22.5511 22.5483L22.5816 22.5762L22.6194 22.6102L22.6647 22.6501L22.7176 22.6957L22.7781 22.7469L22.8464 22.8034L22.9225 22.8652L23.0065 22.932L23.0984 23.0037L23.1985 23.0801L23.3066 23.1609L23.4229 23.246L23.5475 23.3353L23.6803 23.4285L23.8214 23.5254L23.9708 23.6259L24.1285 23.7297L24.2947 23.8367L24.4692 23.9466L24.6521 24.0592L24.8434 24.1744L25.043 24.2919L25.2511 24.4115L25.4674 24.5331L25.6921 24.6564L25.925 24.7812L26.1662 24.9074L26.4155 25.0347L26.673 25.1629L26.9386 25.2918L27.2121 25.4212L27.4936 25.551L27.783 25.6809L28.0801 25.8107L28.3848 25.9403L28.6972 26.0694L29.017 26.1979L29.3441 26.3255L29.6785 26.4521L30.02 26.5776L30.3685 26.7016L30.7239 26.8241L31.086 26.9449L31.4546 27.0638L31.8297 27.1806L32.211 27.2952L32.5985 27.4075L32.9919 27.5172L33.391 27.6242L33.7958 27.7284L34.2059 27.8297L34.6213 27.9278L35.0418 28.0227L35.467 28.1142L35.897 28.2023L36.3314 28.2867L36.77 28.3674L37.2127 28.4443L37.6593 28.5173L38.1094 28.5862L38.563 28.6511L39.0197 28.7117L39.4795 28.7681L39.9419 28.8201L40.4069 28.8677L40.8741 28.9108L41.3434 28.9493L41.8145 28.9833L42.2873 29.0126L42.7613 29.0373L43.2365 29.0573L43.7126 29.0725L44.1893 29.083L44.6664 29.0887L45.1437 29.0896L45.6209 29.0858L46.0978 29.0772L46.5742 29.0639L47.0497 29.0458L47.5243 29.023L47.9975 28.9955L48.4693 28.9634L48.9394 28.9266L49.4075 28.8853L49.8734 28.8395L50.3369 28.7893L50.7977 28.7346L51.2556 28.6757L51.7105 28.6125L52.162 28.5452L52.61 28.4738L53.0543 28.3985L53.4946 28.3193L53.9307 28.2363L54.3624 28.1497L54.7896 28.0595L55.212 27.9659L55.6294 27.8691L56.0417 27.7691L56.4486 27.666L56.85 27.5601L57.2457 27.4514L57.6356 27.3402L58.0193 27.2265L58.3969 27.1105L58.7681 26.9924L59.1329 26.8724L59.4909 26.7505L59.8422 26.6271L60.1865 26.5022L60.5237 26.376L60.8538 26.2487L61.1765 26.1206L61.4919 25.9917L61.7997 25.8623L62.0998 25.7326L62.3923 25.6027L62.6769 25.4728L62.9536 25.3432L63.2223 25.2141L63.4831 25.0856L63.7357 24.9579L63.9801 24.8313L64.2163 24.7059L64.4443 24.5819L64.6639 24.4596L64.8753 24.3392L65.0783 24.2208L65.2729 24.1047L65.4591 23.991L65.637 23.88L65.8065 23.7719L65.9676 23.6668L66.1203 23.565L66.2647 23.4666L66.4008 23.3719L66.5286 23.281L66.6482 23.1942L66.7596 23.1117L66.8628 23.0335L66.958 22.9599L67.0452 22.8912L67.1244 22.8274L67.1958 22.7687L67.2594 22.7154L67.3153 22.6675L67.3636 22.6253L67.4044 22.589L67.4378 22.5586L67.464 22.5343L67.4829 22.5164L67.4949 22.5049L67.4999 22.4999L67.4982 22.5017L67.4898 22.5103L67.4749 22.5259L67.4536 22.5486L67.4261 22.5786L67.3926 22.6158L67.3532 22.6605L67.308 22.7128L67.2573 22.7727L67.2012 22.8403L67.1398 22.9158L67.0734 22.9992L67.0021 23.0905L66.9261 23.1899L66.8456 23.2974L66.7608 23.4131L66.6718 23.5369L66.5789 23.6691L66.4823 23.8095L66.3821 23.9583L66.2786 24.1154L66.1719 24.2808L66.0622 24.4547L65.9498 24.6369L65.8348 24.8275L65.7175 25.0265L65.598 25.2339L65.4766 25.4496L65.3534 25.6736L65.2287 25.9059L65.1026 26.1464L64.9754 26.3951L64.8473 26.6519L64.7184 26.9168L64.589 27.1898L64.4592 27.4706L64.3293 27.7593L64.1995 28.0558L64.0699 28.36L63.9407 28.6717L63.8122 28.9909L63.6845 29.3175L63.5578 29.6513L63.4323 29.9923L63.3081 30.3402L63.1855 30.6951L63.0645 31.0566L62.9455 31.4247L62.8285 31.7993L62.7137 32.1801L62.6012 32.5671L62.4913 32.96L62.3841 33.3587L62.2796 33.763L62.1782 34.1728L62.0798 34.5878L61.9846 35.0078L61.8928 35.4327L61.8045 35.8623L61.7198 36.2963L61.6387 36.7347L61.5615 37.1771L61.4882 37.6233L61.419 38.0732L61.3538 38.5265L61.2928 38.983L61.2361 39.4424L61.1838 39.9047L61.1358 40.3695L61.0924 40.8365L61.0534 41.3057L61.0191 41.7767L60.9894 42.2493L60.9643 42.7232L60.944 43.1983L60.9284 43.6744L60.9175 44.151L60.9114 44.6281L60.9101 45.1054L60.9135 45.5826L60.9217 46.0596L60.9347 46.536L60.9524 47.0116L60.9748 47.4862L61.0019 47.9596L61.0337 48.4315L61.0701 48.9017L61.111 49.37L61.1565 49.8361L61.2064 50.2998L61.2607 50.7608L61.3193 51.219L61.3821 51.6741L61.4491 52.1259L61.5202 52.5742L61.5952 53.0188L61.6741 53.4594L61.7568 53.8958L61.8431 54.3279L61.933 54.7555L62.0263 55.1783L62.1229 55.5961L62.2227 56.0088L62.3255 56.4161L62.4312 56.818L62.5396 57.2141L62.6507 57.6044L62.7642 57.9887L62.88 58.3668L62.9979 58.7385L63.1178 59.1038L63.2395 59.4623L63.3628 59.8141L63.4876 60.159L63.6137 60.4968L63.7409 60.8275L63.869 61.1508L63.9978 61.4667L64.1272 61.7751L64.2569 62.0759L64.3868 62.3689L64.5166 62.6542L64.6462 62.9315L64.7754 63.2009L64.904 63.4623L65.0318 63.7155L65.1585 63.9606L65.284 64.1975L65.408 64.4261L65.5305 64.6464L65.6511 64.8585L65.7696 65.0621L65.8859 65.2574L65.9998 65.4443L66.111 65.6228L66.2194 65.793L66.3247 65.9547L66.4268 66.1081L66.5255 66.2532L66.6205 66.39L66.7116 66.5184L66.7988 66.6387L66.8817 66.7507L66.9602 66.8546L67.0342 66.9504L67.1033 67.0382L67.1675 67.1181L67.2266 67.1901L67.2804 67.2543L67.3286 67.3108L67.3713 67.3597L67.4081 67.4011L67.439 67.4351L67.4637 67.4618L67.4822 67.4814L67.4942 67.4939L67.4997 67.4995L67.5 67.4998Z" fill="#00FF00"/>
</svg>
