<svg width="138" height="138" viewBox="0 0 138 138" fill="none" xmlns="http://www.w3.org/2000/svg">
<path fill-rule="evenodd" clip-rule="evenodd" d="M138 68.9997L137.99 68.9998L137.959 69.0003L137.907 69.0016L137.835 69.0042L137.742 69.0084L137.628 69.0146L137.494 69.0233L137.34 69.035L137.166 69.0498L136.971 69.0684L136.756 69.091L136.522 69.1181L136.268 69.1501L135.994 69.1872L135.702 69.23L135.39 69.2788L135.059 69.3339L134.709 69.3957L134.342 69.4645L133.955 69.5408L133.552 69.6248L133.13 69.7169L132.691 69.8173L132.235 69.9265L131.763 70.0446L131.274 70.1721L130.769 70.3091L130.248 70.4561L129.712 70.6131L129.161 70.7805L128.596 70.9586L128.016 71.1475L127.423 71.3475L126.816 71.5588L126.196 71.7817L125.563 72.0162L124.918 72.2626L124.262 72.521L123.594 72.7916L122.916 73.0745L122.227 73.3699L121.528 73.6778L120.819 73.9984L120.102 74.3318L119.376 74.678L118.642 75.0371L117.9 75.4092L117.152 75.7942L116.396 76.1922L115.635 76.6033L114.868 77.0273L114.096 77.4643L113.319 77.9143L112.538 78.3772L111.753 78.8529L110.965 79.3414L110.175 79.8426L109.382 80.3564L108.588 80.8826L107.792 81.4212L106.995 81.9719L106.199 82.5347L105.402 83.1094L104.606 83.6958L103.812 84.2936L103.019 84.9028L102.228 85.523L101.439 86.1541L100.654 86.7957L99.8719 87.4477L99.0938 88.1098L98.3201 88.7816L97.551 89.463L96.7871 90.1535L96.0288 90.8529L95.2765 91.5608L94.5305 92.277L93.7912 93.001L93.0591 93.7326L92.3344 94.4713L91.6176 95.2168L90.909 95.9686L90.2089 96.7265L89.5177 97.4899L88.8356 98.2586L88.163 99.032L87.5002 99.8098L86.8474 100.591L86.2049 101.377L85.573 102.165L84.9519 102.956L84.3418 103.748L83.7431 104.543L83.1558 105.339L82.5802 106.135L82.0164 106.932L81.4647 107.728L80.9251 108.524L80.3979 109.319L79.8832 110.112L79.381 110.903L78.8915 111.691L78.4147 112.476L77.9508 113.257L77.4998 114.034L77.0617 114.807L76.6367 115.574L76.2246 116.336L75.8255 117.092L75.4395 117.841L75.0664 118.583L74.7062 119.318L74.359 120.044L74.0246 120.762L73.703 121.472L73.394 122.171L73.0977 122.861L72.8138 123.541L72.5422 124.209L72.2828 124.867L72.0355 125.512L71.8 126.146L71.5763 126.767L71.3641 127.375L71.1632 127.969L70.9734 128.55L70.7944 129.117L70.6262 129.669L70.4683 130.206L70.3206 130.728L70.1828 131.234L70.0546 131.725L69.9357 132.198L69.8258 132.656L69.7247 133.096L69.632 133.519L69.5473 133.924L69.4705 134.311L69.401 134.681L69.3387 135.032L69.283 135.364L69.2338 135.678L69.1906 135.972L69.1529 136.247L69.1206 136.503L69.0931 136.739L69.0702 136.955L69.0513 137.151L69.0361 137.327L69.0243 137.483L69.0153 137.618L69.0089 137.733L69.0045 137.828L69.0019 137.902L69.0005 137.955L69 137.988L68.9999 138L68.9998 137.991L68.9994 137.962L68.9982 137.912L68.9957 137.841L68.9917 137.75L68.9856 137.638L68.9771 137.506L68.9657 137.353L68.9511 137.18L68.9328 136.987L68.9105 136.774L68.8838 136.542L68.8523 136.289L68.8155 136.017L68.7732 135.726L68.725 135.415L68.6704 135.086L68.6091 134.738L68.5408 134.372L68.4652 133.987L68.3818 133.584L68.2904 133.164L68.1906 132.727L68.0822 132.272L67.9647 131.801L67.838 131.314L67.7017 130.81L67.5556 130.29L67.3994 129.756L67.2328 129.206L67.0556 128.641L66.8675 128.063L66.6684 127.47L66.458 126.864L66.2361 126.245L66.0025 125.614L65.7571 124.97L65.4997 124.315L65.2301 123.648L64.9481 122.97L64.6537 122.282L64.3468 121.584L64.0272 120.876L63.6948 120.159L63.3497 119.434L62.9916 118.701L62.6206 117.96L62.2366 117.212L61.8396 116.457L61.4296 115.696L61.0066 114.929L60.5706 114.157L60.1216 113.381L59.6598 112.6L59.1851 111.816L58.6976 111.028L58.1974 110.238L57.6846 109.445L57.1594 108.651L56.6218 107.855L56.072 107.059L55.5102 106.262L54.9364 105.466L54.351 104.67L53.754 103.875L53.1458 103.082L52.5264 102.291L51.8962 101.502L51.2554 100.716L50.6042 99.934L49.943 99.1556L49.2719 98.3815L48.5913 97.612L47.9015 96.8477L47.2028 96.0889L46.4955 95.3361L45.78 94.5896L45.0566 93.8498L44.3256 93.1171L43.5875 92.3918L42.8425 91.6744L42.0911 90.9651L41.3338 90.2643L40.5707 89.5723L39.8025 88.8895L39.0294 88.2161L38.252 87.5525L37.4706 86.8989L36.6858 86.2556L35.8978 85.6228L35.1072 85.0008L34.3145 84.3899L33.5201 83.7902L32.7244 83.202L31.928 82.6255L31.1313 82.0608L30.3347 81.5081L29.5389 80.9676L28.7441 80.4394L27.9511 79.9236L27.1601 79.4204L26.3718 78.9299L25.5865 78.4521L24.8049 77.9872L24.0273 77.5351L23.2544 77.096L22.4865 76.6699L21.7241 76.2568L20.9678 75.8567L20.2181 75.4696L19.4754 75.0955L18.7401 74.7343L18.0129 74.3861L17.2941 74.0507L16.5843 73.728L15.8838 73.4181L15.1932 73.1207L14.513 72.8358L13.8435 72.5632L13.1852 72.3029L12.5386 72.0546L11.904 71.8182L11.282 71.5936L10.6729 71.3804L10.0772 71.1786L9.49525 70.9879L8.92742 70.8082L8.37413 70.6391L7.83574 70.4804L7.31264 70.3319L6.80517 70.1933L6.31368 70.0643L5.83851 69.9447L5.37999 69.8341L4.93843 69.7323L4.51413 69.6389L4.1074 69.5536L3.71851 69.4762L3.34772 69.4062L2.9953 69.3433L2.6615 69.2871L2.34653 69.2374L2.05063 69.1937L1.774 69.1556L1.51682 69.1229L1.27929 69.095L1.06156 69.0717L0.863784 69.0525L0.686105 69.0371L0.528645 69.025L0.391514 69.0158L0.274807 69.0092L0.178607 69.0047L0.10298 69.0019L0.0479806 69.0004L0.0136457 68.9998L0 68.9997L0.00705292 68.9997L0.0347995 68.9993L0.0832205 68.9982L0.152282 68.9958L0.241935 68.9919L0.352118 68.986L0.482753 68.9777L0.633749 68.9666L0.805001 68.9522L0.996388 68.9343L1.20778 68.9123L1.43902 68.886L1.68996 68.8549L1.96042 68.8185L2.2502 68.7767L2.55912 68.7289L2.88695 68.6748L3.23346 68.6141L3.59842 68.5464L3.98158 68.4713L4.38266 68.3886L4.80139 68.2978L5.23748 68.1987L5.69063 68.091L6.16053 67.9743L6.64686 67.8483L7.14928 67.7128L7.66744 67.5675L8.201 67.4121L8.74959 67.2463L9.31283 67.07L9.89034 66.8828L10.4817 66.6846L11.0866 66.4751L11.7045 66.2541L12.3351 66.0214L12.9779 65.777L13.6325 65.5205L14.2985 65.2518L14.9754 64.9709L15.6628 64.6775L16.3601 64.3716L17.067 64.053L17.783 63.7216L18.5076 63.3775L19.2403 63.0204L19.9807 62.6504L20.7283 62.2675L21.4825 61.8715L22.243 61.4626L23.0092 61.0406L23.7806 60.6056L24.5567 60.1577L25.3371 59.6969L26.1213 59.2232L26.9087 58.7367L27.6989 58.2375L28.4913 57.7258L29.2856 57.2015L30.0811 56.6649L30.8775 56.1161L31.6742 55.5552L32.4708 54.9824L33.2667 54.3979L34.0616 53.8018L34.8549 53.1944L35.6462 52.576L36.4351 51.9466L37.221 51.3066L38.0035 50.6563L38.7823 49.9958L39.5567 49.3255L40.3266 48.6457L41.0913 47.9566L41.8505 47.2586L42.6039 46.5519L43.3509 45.8371L44.0912 45.1143L44.8245 44.3839L45.5504 43.6463L46.2685 42.9019L46.9784 42.151L47.6799 41.3941L48.3726 40.6315L49.0561 39.8636L49.7303 39.0909L50.3947 38.3139L51.0491 37.5328L51.6932 36.7482L52.3268 35.9604L52.9497 35.17L53.5615 34.3775L54.1621 33.5832L54.7512 32.7876L55.3287 31.9912L55.8943 31.1945L56.448 30.3979L56.9895 29.602L57.5187 28.8071L58.0354 28.0139L58.5396 27.2227L59.0312 26.4342L59.5099 25.6487L59.9759 24.8667L60.429 24.0888L60.8691 23.3155L61.2962 22.5472L61.7104 21.7844L62.1115 21.0276L62.4997 20.2773L62.8748 19.534L63.237 18.7981L63.5863 18.0702L63.9227 17.3508L64.2464 16.6402L64.5573 15.939L64.8557 15.2476L65.1416 14.5665L65.4151 13.8961L65.6764 13.2369L65.9257 12.5893L66.163 11.9538L66.3886 11.3308L66.6026 10.7207L66.8053 10.1239L66.9969 9.54078L67.1775 8.97181L67.3475 8.41734L67.507 7.87776L67.6563 7.35342L67.7957 6.84469L67.9254 6.35191L68.0457 5.87543L68.157 5.41557L68.2595 4.97265L68.3536 4.54697L68.4395 4.13882L68.5175 3.7485L68.5881 3.37626L68.6516 3.02237L68.7083 2.68707L68.7585 2.3706L68.8027 2.07317L68.8412 1.79499L68.8743 1.53626L68.9025 1.29716L68.9262 1.07784L68.9457 0.878473L68.9614 0.699189L68.9738 0.540114L68.9831 0.401359L68.99 0.283023L68.9946 0.185187L68.9975 0.10792L68.9991 0.0512755L68.9997 0.0152938L68.9999 0L68.9999 0.00540464L69.0002 0.031504L69.0013 0.0782797L69.0035 0.145699L69.0073 0.233715L69.013 0.342266L69.0211 0.471276L69.032 0.620655L69.0461 0.790298L69.0637 0.980087L69.0854 1.18989L69.1113 1.41956L69.1421 1.66894L69.178 1.93784L69.2194 2.2261L69.2667 2.5335L69.3202 2.85983L69.3804 3.20487L69.4476 3.56837L69.522 3.95009L69.6041 4.34975L69.6942 4.76709L69.7927 5.20181L69.8997 5.65362L70.0157 6.1222L70.1409 6.60723L70.2756 7.10838L70.4202 7.62531L70.5748 8.15765L70.7397 8.70506L70.9152 9.26714L71.1015 9.84353L71.2989 10.4338L71.5074 11.0376L71.7275 11.6546L71.9592 12.2842L72.2027 12.926L72.4582 13.5797L72.7259 14.2448L73.0059 14.9208L73.2983 15.6074L73.6032 16.3039L73.9208 17.0101L74.2511 17.7254L74.5942 18.4493L74.9503 19.1814L75.3192 19.9212L75.7011 20.6682L76.0961 21.422L76.504 22.182L76.9249 22.9477L77.3589 23.7187L77.8057 24.4945L78.2655 25.2746L78.7382 26.0585L79.2237 26.8456L79.7218 27.6356L80.2326 28.4279L80.7559 29.222L81.2915 30.0175L81.8394 30.8138L82.3993 31.6105L82.9712 32.4071L83.5547 33.2032L84.1499 33.9981L84.7564 34.7916L85.3739 35.5831L86.0024 36.3721L86.6416 37.1583L87.2911 37.9411L87.9508 38.7202L88.6203 39.495L89.2994 40.2652L89.9878 41.0304L90.6851 41.7901L91.391 42.5439L92.1052 43.2914L92.8274 44.0323L93.5572 44.7662L94.2943 45.4927L95.0381 46.2114L95.7885 46.922L96.545 47.6242L97.3071 48.3175L98.0746 49.0018L98.8469 49.6767L99.6236 50.3419L100.404 50.9972L101.189 51.6421L101.976 52.2766L102.766 52.9003L103.559 53.513L104.353 54.1145L105.149 54.7045L105.945 55.283L106.742 55.8496L107.538 56.4042L108.334 56.9467L109.129 57.4768L109.922 57.9946L110.714 58.4998L111.503 58.9923L112.288 59.4721L113.071 59.9391L113.849 60.3932L114.623 60.8344L115.391 61.2626L116.155 61.6777L116.912 62.0799L117.663 62.4691L118.407 62.8453L119.143 63.2085L119.872 63.5588L120.592 63.8963L121.303 64.2209L122.005 64.5329L122.697 64.8323L123.379 65.1191L124.05 65.3937L124.71 65.6559L125.359 65.9061L125.995 66.1444L126.62 66.3709L127.231 66.5859L127.829 66.7895L128.413 66.9819L128.983 67.1634L129.538 67.3342L130.079 67.4945L130.605 67.6446L131.115 67.7848L131.609 67.9153L132.087 68.0364L132.548 68.1484L132.992 68.2515L133.419 68.3462L133.829 68.4328L134.221 68.5115L134.594 68.5826L134.95 68.6467L135.286 68.7039L135.604 68.7546L135.903 68.7992L136.183 68.8382L136.443 68.8717L136.684 68.9003L136.905 68.9243L137.106 68.9441L137.287 68.9602L137.447 68.9728L137.588 68.9824L137.708 68.9894L137.807 68.9942L137.886 68.9972L137.944 68.9989L137.982 68.9996L137.999 68.9997L138 68.9997Z" fill="#00FF00"/>
</svg>
