<svg width="546" height="393" viewBox="0 0 546 393" fill="none" xmlns="http://www.w3.org/2000/svg">
<path fill-rule="evenodd" clip-rule="evenodd" d="M319.309 325.165L319.309 324.971C320.833 325.094 322.367 325.16 323.91 325.165L319.309 325.165ZM396.354 325.165L324.347 325.165C372.819 324.988 412.078 265.841 412.078 192.905C412.078 190.474 412.034 188.057 411.948 185.658L412.078 185.658L412.078 242.429L412.078 242.429L412.078 381.936L319.31 381.936L319.31 381.74C320.905 381.87 322.511 381.935 324.128 381.935C354.041 381.935 380.465 359.479 396.354 325.165ZM412.078 249.811C412.078 249.766 412.078 249.721 412.078 249.675C412.078 249.63 412.078 249.584 412.078 249.539L412.078 249.811Z" fill="url(#paint0_linear)"/>
<path fill-rule="evenodd" clip-rule="evenodd" d="M133.831 253.225L133.831 253.421C135.426 253.291 137.033 253.226 138.65 253.226C187.223 253.226 226.599 312.441 226.599 385.486C226.599 387.917 226.556 390.333 226.469 392.733L226.599 392.733L226.599 335.964L226.6 335.964L226.6 196.457L138.791 196.457C168.645 196.527 195.011 218.966 210.875 253.225L133.831 253.225ZM226.599 328.606C226.599 328.643 226.599 328.68 226.599 328.717C226.599 328.754 226.599 328.791 226.599 328.828L226.599 328.606ZM133.832 196.457L133.832 196.652C135.38 196.526 136.94 196.46 138.509 196.457L133.832 196.457Z" fill="url(#paint1_linear)"/>
<path d="M128.127 304.974C130.413 303.888 132.003 301.429 132.842 297.744C133.679 294.066 133.744 289.253 133.055 283.622C131.678 272.366 127.299 257.956 120.232 243.073C113.165 228.19 104.767 215.689 96.9147 207.507C92.9869 203.414 89.2159 200.423 85.8365 198.747C82.4506 197.067 79.5399 196.745 77.2533 197.831C74.9667 198.916 73.3768 201.376 72.5381 205.061C71.7011 208.739 71.6354 213.552 72.3246 219.183C73.7021 230.439 78.081 244.849 85.1477 259.732C92.2145 274.615 100.613 287.116 108.465 295.298C112.393 299.391 116.164 302.382 119.543 304.058C122.929 305.737 125.84 306.06 128.127 304.974Z" stroke="black"/>
<path d="M116.371 304.974C118.658 303.888 120.248 301.429 121.086 297.744C121.923 294.066 121.989 289.253 121.3 283.622C119.922 272.366 115.544 257.956 108.477 243.073C101.41 228.19 93.0113 215.689 85.1594 207.507C81.2315 203.414 77.4605 200.423 74.0811 198.747C70.6953 197.067 67.7845 196.745 65.4979 197.831C63.2113 198.916 61.6214 201.376 60.7827 205.061C59.9457 208.739 59.8801 213.552 60.5692 219.183C61.9467 230.439 66.3256 244.849 73.3924 259.732C80.4591 274.615 88.8579 287.116 96.7098 295.298C100.638 299.391 104.409 302.382 107.788 304.058C111.174 305.737 114.085 306.06 116.371 304.974Z" stroke="black"/>
<path d="M104.615 304.974C106.902 303.888 108.492 301.429 109.331 297.744C110.168 294.066 110.233 289.253 109.544 283.622C108.167 272.366 103.788 257.956 96.721 243.073C89.6542 228.19 81.2554 215.689 73.4035 207.507C69.4756 203.414 65.7046 200.423 62.3253 198.747C58.9394 197.067 56.0286 196.745 53.7421 197.831C51.4555 198.916 49.8655 201.376 49.0269 205.061C48.1898 208.739 48.1242 213.552 48.8133 219.183C50.1909 230.439 54.5698 244.849 61.6365 259.732C68.7032 274.615 77.1021 287.116 84.954 295.298C88.8818 299.391 92.6528 302.382 96.0322 304.058C99.4181 305.737 102.329 306.06 104.615 304.974Z" stroke="black"/>
<path d="M92.8595 304.974C95.1461 303.888 96.7361 301.429 97.5747 297.744C98.4118 294.066 98.4774 289.253 97.7883 283.622C96.4107 272.366 92.0318 257.956 84.9651 243.073C77.8984 228.19 69.4995 215.689 61.6476 207.507C57.7198 203.414 53.9488 200.423 50.5694 198.747C47.1836 197.067 44.2728 196.745 41.9862 197.831C39.6996 198.916 38.1097 201.376 37.271 205.061C36.434 208.739 36.3683 213.552 37.0575 219.183C38.435 230.439 42.8139 244.849 49.8806 259.732C56.9474 274.615 65.3462 287.116 73.1981 295.298C77.126 299.391 80.897 302.382 84.2763 304.058C87.6622 305.737 90.573 306.06 92.8595 304.974Z" stroke="black"/>
<path d="M81.1037 304.974C83.3903 303.888 84.9802 301.429 85.8189 297.744C86.6559 294.066 86.7215 289.253 86.0324 283.622C84.6549 272.366 80.276 257.956 73.2092 243.073C66.1425 228.19 57.7437 215.689 49.8918 207.507C45.9639 203.414 42.1929 200.423 38.8135 198.747C35.4277 197.067 32.5169 196.745 30.2303 197.831C27.9438 198.916 26.3538 201.376 25.5152 205.061C24.6781 208.739 24.6125 213.552 25.3016 219.183C26.6792 230.439 31.058 244.849 38.1248 259.732C45.1915 274.615 53.5903 287.116 61.4422 295.298C65.3701 299.391 69.1411 302.382 72.5205 304.058C75.9063 305.737 78.8171 306.06 81.1037 304.974Z" stroke="black"/>
<path d="M69.3483 304.974C71.6349 303.888 73.2248 301.429 74.0635 297.744C74.9005 294.066 74.9662 289.253 74.277 283.622C72.8995 272.366 68.5206 257.956 61.4539 243.073C54.3871 228.19 45.9883 215.689 38.1364 207.507C34.2085 203.414 30.4375 200.423 27.0582 198.747C23.6723 197.067 20.7615 196.745 18.475 197.831C16.1884 198.916 14.5985 201.376 13.7598 205.061C12.9227 208.739 12.8571 213.552 13.5462 219.183C14.9238 230.439 19.3027 244.849 26.3694 259.732C33.4362 274.615 41.835 287.116 49.6869 295.298C53.6147 299.391 57.3857 302.382 60.7651 304.058C64.151 305.737 67.0617 306.06 69.3483 304.974Z" stroke="black"/>
<path fill-rule="evenodd" clip-rule="evenodd" d="M104.189 376.221L104.191 376.218L104.198 376.212L104.209 376.201L104.225 376.186L104.246 376.167L104.272 376.144L104.303 376.117L104.338 376.086L104.379 376.052L104.425 376.014L104.476 375.973L104.532 375.929L104.593 375.881L104.66 375.83L104.732 375.776L104.81 375.72L104.892 375.661L104.981 375.599L105.075 375.535L105.174 375.468L105.279 375.399L105.389 375.328L105.505 375.256L105.626 375.181L105.753 375.105L105.886 375.028L106.023 374.949L106.167 374.868L106.316 374.787L106.47 374.704L106.63 374.621L106.795 374.537L106.965 374.453L107.141 374.368L107.322 374.282L107.508 374.197L107.7 374.111L107.896 374.026L108.098 373.941L108.304 373.856L108.516 373.771L108.732 373.687L108.953 373.604L109.179 373.521L109.409 373.44L109.644 373.359L109.883 373.28L110.127 373.202L110.375 373.125L110.626 373.05L110.882 372.976L111.142 372.904L111.406 372.834L111.673 372.765L111.944 372.699L112.218 372.635L112.495 372.573L112.776 372.513L113.06 372.455L113.346 372.4L113.636 372.347L113.928 372.297L114.222 372.249L114.519 372.204L114.818 372.162L115.119 372.122L115.423 372.086L115.728 372.052L116.034 372.021L116.342 371.993L116.651 371.968L116.962 371.946L117.274 371.927L117.586 371.912L117.899 371.899L118.213 371.889L118.527 371.883L118.841 371.88L119.156 371.88L119.47 371.883L119.784 371.889L120.098 371.898L120.411 371.91L120.724 371.926L121.035 371.945L121.346 371.966L121.655 371.991L121.963 372.019L122.27 372.049L122.575 372.083L122.878 372.119L123.18 372.159L123.479 372.201L123.776 372.245L124.071 372.293L124.363 372.343L124.653 372.395L124.94 372.451L125.224 372.508L125.504 372.568L125.782 372.63L126.057 372.694L126.328 372.76L126.595 372.828L126.859 372.898L127.119 372.97L127.375 373.044L127.627 373.119L127.876 373.195L128.119 373.273L128.359 373.353L128.594 373.433L128.825 373.515L129.051 373.597L129.272 373.68L129.489 373.764L129.701 373.849L129.908 373.934L130.11 374.019L130.307 374.105L130.498 374.19L130.685 374.276L130.867 374.361L131.043 374.446L131.214 374.531L131.379 374.615L131.539 374.698L131.694 374.78L131.843 374.862L131.987 374.942L132.126 375.021L132.258 375.099L132.386 375.175L132.508 375.25L132.624 375.323L132.735 375.394L132.84 375.463L132.94 375.529L133.034 375.594L133.123 375.656L133.206 375.715L133.284 375.772L133.356 375.826L133.424 375.877L133.486 375.925L133.542 375.97L133.593 376.011L133.64 376.049L133.681 376.084L133.717 376.115L133.748 376.142L133.774 376.165L133.795 376.185L133.812 376.2L133.823 376.211L133.831 376.218L133.833 376.221L133.831 376.219L133.825 376.212L133.815 376.201L133.8 376.186L133.781 376.165L133.758 376.14L133.732 376.11L133.701 376.074L133.668 376.034L133.63 375.989L133.589 375.938L133.545 375.882L133.497 375.821L133.447 375.755L133.393 375.683L133.337 375.606L133.278 375.524L133.216 375.436L133.152 375.343L133.086 375.244L133.017 375.139L132.947 375.029L132.874 374.914L132.8 374.793L132.724 374.667L132.646 374.535L132.567 374.397L132.487 374.254L132.406 374.106L132.324 373.952L132.24 373.793L132.157 373.628L132.072 373.458L131.987 373.283L131.902 373.102L131.816 372.916L131.731 372.725L131.645 372.529L131.56 372.328L131.475 372.122L131.39 371.911L131.306 371.695L131.223 371.474L131.14 371.249L131.059 371.019L130.978 370.784L130.899 370.545L130.82 370.302L130.743 370.055L130.668 369.803L130.594 369.548L130.522 369.288L130.452 369.025L130.383 368.758L130.317 368.488L130.252 368.214L130.19 367.936L130.13 367.656L130.072 367.373L130.017 367.086L129.964 366.797L129.913 366.505L129.865 366.211L129.82 365.914L129.778 365.615L129.738 365.314L129.701 365.011L129.667 364.706L129.636 364.4L129.608 364.092L129.582 363.783L129.56 363.472L129.541 363.161L129.525 362.848L129.512 362.535L129.503 362.222L129.496 361.908L129.492 361.593L129.492 361.279L129.495 360.964L129.501 360.65L129.51 360.337L129.522 360.023L129.537 359.711L129.556 359.399L129.577 359.088L129.601 358.779L129.629 358.471L129.659 358.164L129.693 357.859L129.729 357.555L129.768 357.254L129.81 356.954L129.854 356.657L129.901 356.362L129.951 356.069L130.004 355.78L130.059 355.493L130.116 355.208L130.175 354.927L130.237 354.649L130.301 354.374L130.367 354.103L130.435 353.835L130.505 353.571L130.577 353.311L130.65 353.054L130.725 352.802L130.802 352.554L130.88 352.309L130.959 352.069L131.039 351.834L131.121 351.603L131.203 351.376L131.286 351.155L131.37 350.938L131.455 350.725L131.539 350.518L131.625 350.316L131.71 350.118L131.796 349.926L131.881 349.739L131.967 349.557L132.052 349.38L132.136 349.209L132.22 349.043L132.304 348.883L132.386 348.727L132.468 348.578L132.548 348.433L132.628 348.295L132.705 348.161L132.782 348.034L132.857 347.911L132.93 347.795L133.001 347.683L133.07 347.578L133.137 347.478L133.201 347.383L133.263 347.294L133.323 347.21L133.38 347.131L133.434 347.059L133.485 346.991L133.534 346.929L133.579 346.872L133.62 346.82L133.659 346.773L133.694 346.732L133.725 346.695L133.752 346.664L133.776 346.637L133.796 346.616L133.811 346.599L133.823 346.587L133.83 346.579L133.833 346.576L133.831 346.578L133.825 346.584L133.815 346.594L133.799 346.608L133.779 346.627L133.754 346.649L133.725 346.675L133.69 346.705L133.65 346.739L133.605 346.776L133.555 346.817L133.499 346.861L133.439 346.908L133.373 346.959L133.302 347.012L133.225 347.068L133.143 347.127L133.056 347.188L132.963 347.252L132.864 347.318L132.76 347.387L132.651 347.457L132.536 347.529L132.415 347.604L132.289 347.679L132.158 347.757L132.021 347.836L131.878 347.916L131.73 347.997L131.577 348.079L131.418 348.162L131.254 348.246L131.084 348.331L130.909 348.416L130.729 348.501L130.544 348.586L130.353 348.672L130.157 348.757L129.956 348.843L129.751 348.928L129.54 349.012L129.324 349.097L129.104 349.18L128.879 349.263L128.65 349.344L128.416 349.425L128.177 349.505L127.934 349.583L127.687 349.66L127.436 349.735L127.181 349.809L126.921 349.882L126.659 349.952L126.392 350.021L126.122 350.087L125.848 350.152L125.571 350.215L125.291 350.275L125.008 350.333L124.722 350.389L124.433 350.442L124.141 350.492L123.847 350.54L123.55 350.586L123.251 350.629L122.951 350.668L122.648 350.706L122.343 350.74L122.037 350.771L121.729 350.8L121.42 350.825L121.109 350.847L120.798 350.867L120.486 350.883L120.173 350.896L119.859 350.906L119.545 350.913L119.231 350.917L118.916 350.917L118.602 350.915L118.288 350.909L117.974 350.9L117.661 350.889L117.348 350.874L117.036 350.855L116.726 350.834L116.416 350.81L116.108 350.783L115.801 350.753L115.495 350.72L115.192 350.684L114.89 350.645L114.59 350.603L114.293 350.559L113.998 350.512L113.705 350.462L113.415 350.41L113.128 350.355L112.843 350.298L112.562 350.239L112.284 350.177L112.009 350.113L111.737 350.048L111.469 349.98L111.205 349.91L110.944 349.838L110.687 349.765L110.434 349.69L110.186 349.614L109.941 349.536L109.701 349.457L109.465 349.377L109.234 349.295L109.007 349.213L108.785 349.13L108.567 349.046L108.355 348.962L108.147 348.877L107.944 348.791L107.746 348.706L107.554 348.62L107.366 348.535L107.184 348.449L107.007 348.364L106.835 348.28L106.669 348.196L106.508 348.112L106.352 348.03L106.202 347.948L106.057 347.867L105.918 347.788L105.784 347.71L105.656 347.634L105.533 347.559L105.416 347.486L105.305 347.414L105.198 347.345L105.098 347.278L105.003 347.213L104.913 347.151L104.829 347.091L104.75 347.034L104.677 346.979L104.609 346.928L104.546 346.879L104.488 346.834L104.436 346.792L104.389 346.753L104.347 346.718L104.311 346.687L104.279 346.659L104.252 346.635L104.23 346.615L104.213 346.599L104.2 346.587L104.192 346.58L104.189 346.576L104.19 346.578L104.196 346.583L104.205 346.594L104.219 346.608L104.238 346.628L104.26 346.653L104.286 346.682L104.315 346.717L104.349 346.756L104.386 346.801L104.426 346.85L104.47 346.905L104.517 346.965L104.567 347.031L104.62 347.102L104.676 347.178L104.734 347.26L104.796 347.347L104.859 347.439L104.925 347.537L104.993 347.641L105.064 347.75L105.136 347.864L105.21 347.984L105.286 348.11L105.363 348.241L105.442 348.377L105.522 348.52L105.603 348.667L105.685 348.82L105.768 348.979L105.852 349.142L105.936 349.312L106.021 349.486L106.107 349.666L106.192 349.851L106.278 350.041L106.363 350.236L106.448 350.437L106.534 350.642L106.618 350.852L106.702 351.068L106.786 351.287L106.869 351.512L106.95 351.741L107.031 351.975L107.111 352.213L107.189 352.456L107.266 352.702L107.342 352.953L107.416 353.208L107.488 353.467L107.559 353.73L107.628 353.996L107.695 354.266L107.76 354.539L107.822 354.816L107.883 355.096L107.941 355.379L107.997 355.665L108.05 355.954L108.101 356.245L108.149 356.539L108.195 356.835L108.238 357.134L108.278 357.435L108.315 357.737L108.35 358.042L108.381 358.348L108.41 358.656L108.436 358.965L108.458 359.275L108.478 359.586L108.494 359.899L108.508 360.212L108.518 360.525L108.525 360.839L108.529 361.154L108.53 361.468L108.528 361.782L108.522 362.097L108.514 362.41L108.502 362.724L108.487 363.036L108.47 363.348L108.449 363.659L108.425 363.969L108.398 364.277L108.368 364.584L108.335 364.89L108.299 365.194L108.26 365.495L108.219 365.795L108.175 366.093L108.128 366.388L108.079 366.681L108.027 366.971L107.972 367.259L107.915 367.543L107.856 367.825L107.795 368.104L107.731 368.379L107.665 368.651L107.598 368.919L107.528 369.184L107.457 369.445L107.383 369.702L107.309 369.955L107.232 370.204L107.155 370.449L107.076 370.69L106.996 370.926L106.914 371.158L106.832 371.385L106.749 371.607L106.665 371.825L106.581 372.038L106.496 372.246L106.411 372.449L106.325 372.648L106.24 372.841L106.154 373.028L106.069 373.211L105.984 373.389L105.899 373.561L105.815 373.728L105.731 373.889L105.649 374.045L105.567 374.196L105.486 374.341L105.407 374.481L105.329 374.615L105.252 374.743L105.177 374.866L105.104 374.984L105.032 375.096L104.963 375.203L104.896 375.304L104.831 375.399L104.768 375.489L104.708 375.574L104.651 375.653L104.596 375.727L104.544 375.796L104.496 375.859L104.45 375.916L104.408 375.969L104.369 376.017L104.334 376.059L104.302 376.096L104.274 376.128L104.249 376.156L104.229 376.178L104.213 376.196L104.201 376.208L104.193 376.217L104.189 376.22L104.189 376.221Z" stroke="black"/>
<path fill-rule="evenodd" clip-rule="evenodd" d="M340.271 238.38L340.271 238.377L340.271 238.367L340.271 238.352L340.272 238.33L340.273 238.301L340.275 238.267L340.278 238.226L340.281 238.179L340.286 238.126L340.291 238.067L340.298 238.002L340.307 237.931L340.316 237.854L340.328 237.771L340.341 237.682L340.355 237.587L340.372 237.486L340.391 237.38L340.412 237.268L340.435 237.151L340.46 237.028L340.488 236.9L340.519 236.767L340.552 236.629L340.588 236.485L340.627 236.337L340.668 236.183L340.713 236.025L340.761 235.862L340.812 235.695L340.866 235.523L340.923 235.347L340.984 235.167L341.048 234.982L341.116 234.794L341.187 234.602L341.262 234.406L341.34 234.206L341.423 234.004L341.508 233.797L341.598 233.588L341.692 233.376L341.789 233.161L341.89 232.943L341.996 232.722L342.105 232.499L342.218 232.274L342.335 232.046L342.456 231.817L342.58 231.586L342.709 231.353L342.842 231.118L342.979 230.882L343.119 230.645L343.264 230.406L343.412 230.167L343.565 229.927L343.721 229.686L343.881 229.445L344.044 229.203L344.211 228.961L344.382 228.719L344.557 228.477L344.735 228.235L344.917 227.994L345.102 227.753L345.29 227.513L345.482 227.273L345.677 227.034L345.875 226.797L346.076 226.561L346.28 226.325L346.487 226.092L346.697 225.86L346.909 225.629L347.124 225.401L347.342 225.174L347.562 224.95L347.784 224.727L348.009 224.507L348.235 224.289L348.464 224.074L348.694 223.861L348.926 223.651L349.159 223.444L349.394 223.24L349.63 223.038L349.868 222.84L350.106 222.645L350.346 222.453L350.586 222.264L350.827 222.079L351.068 221.897L351.31 221.719L351.552 221.544L351.794 221.373L352.036 221.205L352.278 221.041L352.519 220.881L352.76 220.724L353 220.572L353.24 220.423L353.478 220.278L353.716 220.137L353.952 220L354.186 219.867L354.42 219.738L354.651 219.613L354.881 219.492L355.108 219.375L355.334 219.261L355.557 219.152L355.778 219.046L355.996 218.945L356.211 218.847L356.424 218.753L356.633 218.663L356.84 218.577L357.043 218.494L357.242 218.416L357.439 218.34L357.631 218.269L357.82 218.201L358.004 218.136L358.185 218.075L358.362 218.018L358.534 217.963L358.701 217.912L358.865 217.864L359.023 217.819L359.177 217.778L359.326 217.739L359.47 217.703L359.609 217.669L359.742 217.638L359.871 217.61L359.994 217.585L360.112 217.561L360.224 217.54L360.331 217.521L360.432 217.504L360.527 217.489L360.616 217.476L360.7 217.465L360.777 217.455L360.849 217.447L360.915 217.44L360.974 217.434L361.028 217.429L361.075 217.426L361.116 217.423L361.151 217.421L361.18 217.42L361.203 217.419L361.219 217.418L361.229 217.418L361.232 217.418L361.23 217.418L361.221 217.418L361.206 217.418L361.184 217.417L361.156 217.416L361.122 217.414L361.082 217.411L361.036 217.408L360.983 217.403L360.925 217.398L360.86 217.391L360.789 217.383L360.713 217.373L360.63 217.362L360.541 217.349L360.447 217.335L360.347 217.318L360.241 217.3L360.13 217.279L360.013 217.256L359.891 217.23L359.763 217.203L359.63 217.172L359.492 217.139L359.349 217.104L359.201 217.065L359.048 217.024L358.89 216.979L358.728 216.932L358.561 216.881L358.389 216.828L358.213 216.77L358.033 216.71L357.849 216.646L357.661 216.579L357.47 216.508L357.274 216.433L357.075 216.355L356.872 216.273L356.666 216.187L356.457 216.098L356.245 216.005L356.03 215.908L355.812 215.807L355.592 215.702L355.369 215.593L355.144 215.48L354.917 215.364L354.688 215.243L354.457 215.118L354.224 214.99L353.989 214.857L353.753 214.721L353.516 214.581L353.278 214.437L353.038 214.288L352.798 214.137L352.558 213.981L352.316 213.821L352.075 213.658L351.833 213.491L351.591 213.32L351.349 213.146L351.107 212.968L350.865 212.787L350.624 212.602L350.384 212.414L350.144 212.222L349.906 212.028L349.668 211.83L349.432 211.629L349.197 211.425L348.963 211.218L348.731 211.009L348.5 210.796L348.271 210.582L348.045 210.364L347.82 210.144L347.597 209.922L347.377 209.698L347.159 209.472L346.943 209.244L346.731 209.014L346.52 208.782L346.313 208.548L346.108 208.313L345.907 208.077L345.708 207.84L345.513 207.601L345.321 207.362L345.132 207.122L344.946 206.881L344.764 206.64L344.585 206.398L344.41 206.156L344.238 205.914L344.071 205.672L343.906 205.43L343.746 205.189L343.589 204.948L343.436 204.708L343.287 204.468L343.142 204.23L343.001 203.992L342.864 203.756L342.73 203.521L342.601 203.288L342.475 203.056L342.354 202.827L342.236 202.599L342.122 202.373L342.013 202.15L341.907 201.929L341.805 201.71L341.707 201.495L341.613 201.282L341.523 201.072L341.436 200.866L341.353 200.662L341.274 200.462L341.199 200.266L341.127 200.073L341.059 199.884L340.994 199.699L340.933 199.518L340.875 199.341L340.82 199.169L340.769 199.001L340.72 198.837L340.675 198.678L340.633 198.524L340.594 198.375L340.558 198.23L340.524 198.091L340.493 197.957L340.465 197.828L340.439 197.704L340.415 197.586L340.394 197.474L340.375 197.367L340.358 197.265L340.343 197.17L340.33 197.08L340.318 196.996L340.308 196.917L340.3 196.845L340.292 196.779L340.287 196.719L340.282 196.665L340.278 196.617L340.275 196.576L340.273 196.54L340.272 196.511L340.271 196.488L340.271 196.471L340.271 196.461L340.271 196.457L340.271 196.459L340.27 196.467L340.27 196.482L340.269 196.503L340.268 196.53L340.266 196.564L340.264 196.603L340.261 196.649L340.256 196.701L340.251 196.759L340.244 196.824L340.236 196.894L340.227 196.97L340.216 197.052L340.203 197.14L340.188 197.234L340.172 197.334L340.153 197.439L340.133 197.55L340.11 197.666L340.085 197.788L340.057 197.915L340.027 198.048L339.995 198.185L339.959 198.328L339.921 198.476L339.88 198.629L339.836 198.786L339.788 198.948L339.738 199.115L339.684 199.286L339.627 199.461L339.567 199.641L339.504 199.825L339.437 200.012L339.366 200.204L339.292 200.399L339.214 200.598L339.132 200.8L339.047 201.006L338.958 201.215L338.865 201.427L338.768 201.641L338.667 201.859L338.563 202.079L338.454 202.302L338.342 202.527L338.225 202.754L338.105 202.983L337.981 203.214L337.853 203.447L337.721 203.681L337.584 203.917L337.444 204.154L337.301 204.392L337.153 204.631L337.001 204.871L336.846 205.112L336.686 205.353L336.523 205.595L336.357 205.837L336.186 206.079L336.012 206.321L335.835 206.563L335.654 206.804L335.469 207.045L335.281 207.286L335.09 207.525L334.896 207.764L334.698 208.002L334.497 208.238L334.294 208.474L334.087 208.708L333.878 208.94L333.666 209.17L333.451 209.399L333.234 209.626L333.014 209.851L332.793 210.074L332.568 210.294L332.342 210.513L332.114 210.728L331.884 210.941L331.653 211.152L331.419 211.359L331.185 211.564L330.949 211.766L330.711 211.965L330.473 212.161L330.234 212.353L329.993 212.542L329.753 212.728L329.511 212.911L329.27 213.09L329.028 213.265L328.786 213.437L328.544 213.605L328.302 213.77L328.06 213.93L327.819 214.087L327.579 214.241L327.34 214.39L327.101 214.535L326.863 214.677L326.627 214.814L326.392 214.948L326.159 215.078L325.927 215.204L325.697 215.326L325.469 215.444L325.243 215.557L325.02 215.668L324.799 215.774L324.58 215.876L324.364 215.974L324.151 216.069L323.941 216.159L323.734 216.246L323.531 216.329L323.33 216.409L323.134 216.484L322.941 216.556L322.751 216.625L322.566 216.69L322.385 216.752L322.207 216.81L322.035 216.865L321.866 216.916L321.702 216.965L321.543 217.01L321.388 217.052L321.239 217.092L321.094 217.128L320.954 217.162L320.82 217.193L320.69 217.222L320.566 217.248L320.448 217.272L320.335 217.293L320.227 217.312L320.125 217.33L320.029 217.345L319.939 217.358L319.854 217.37L319.776 217.38L319.703 217.389L319.637 217.396L319.576 217.402L319.521 217.407L319.473 217.41L319.431 217.413L319.395 217.415L319.365 217.417L319.342 217.418L319.325 217.418L319.314 217.418L319.309 217.418L319.311 217.418L319.319 217.418L319.333 217.419L319.353 217.419L319.38 217.42L319.413 217.422L319.452 217.425L319.498 217.428L319.549 217.432L319.607 217.438L319.671 217.444L319.74 217.452L319.816 217.461L319.898 217.472L319.985 217.485L320.079 217.499L320.178 217.516L320.283 217.534L320.393 217.554L320.509 217.577L320.63 217.602L320.757 217.629L320.889 217.659L321.027 217.692L321.169 217.727L321.316 217.765L321.469 217.806L321.626 217.85L321.787 217.897L321.954 217.947L322.124 218L322.299 218.057L322.479 218.117L322.662 218.18L322.85 218.247L323.041 218.317L323.236 218.391L323.434 218.469L323.637 218.55L323.842 218.635L324.05 218.724L324.262 218.817L324.477 218.913L324.694 219.014L324.914 219.118L325.136 219.226L325.361 219.338L325.588 219.454L325.817 219.574L326.048 219.698L326.28 219.826L326.515 219.958L326.75 220.093L326.987 220.233L327.225 220.377L327.465 220.524L327.705 220.675L327.945 220.831L328.186 220.99L328.428 221.152L328.67 221.319L328.912 221.489L329.154 221.663L329.396 221.84L329.637 222.021L329.878 222.205L330.119 222.393L330.359 222.583L330.597 222.778L330.835 222.975L331.072 223.175L331.307 223.379L331.541 223.585L331.774 223.794L332.005 224.006L332.234 224.22L332.461 224.437L332.686 224.657L332.909 224.879L333.129 225.102L333.348 225.328L333.564 225.556L333.777 225.786L333.988 226.018L334.195 226.251L334.4 226.485L334.603 226.721L334.802 226.959L334.998 227.197L335.19 227.436L335.38 227.676L335.566 227.917L335.749 228.158L335.928 228.4L336.104 228.642L336.276 228.884L336.444 229.126L336.609 229.368L336.77 229.609L336.927 229.85L337.081 230.091L337.23 230.33L337.376 230.569L337.518 230.807L337.656 231.043L337.79 231.278L337.92 231.512L338.046 231.743L338.168 231.973L338.287 232.202L338.401 232.428L338.511 232.651L338.618 232.873L338.72 233.091L338.819 233.307L338.914 233.521L339.005 233.731L339.092 233.938L339.175 234.142L339.255 234.343L339.331 234.54L339.403 234.733L339.472 234.923L339.537 235.108L339.599 235.29L339.658 235.467L339.713 235.641L339.765 235.809L339.813 235.974L339.859 236.133L339.902 236.288L339.941 236.438L339.978 236.583L340.012 236.724L340.043 236.859L340.072 236.988L340.098 237.113L340.122 237.232L340.144 237.345L340.163 237.453L340.181 237.555L340.196 237.652L340.21 237.743L340.222 237.828L340.232 237.907L340.24 237.98L340.248 238.047L340.254 238.108L340.259 238.163L340.262 238.212L340.265 238.255L340.267 238.291L340.269 238.321L340.27 238.345L340.27 238.363L340.271 238.374L340.271 238.38L340.271 238.38Z" stroke="black"/>
<mask id="path-11-inside-1" fill="white">
<path fill-rule="evenodd" clip-rule="evenodd" d="M226.57 289.197L226.57 289.197L226.57 289.197ZM226.57 289.197L226.57 196.457L226.57 289.197ZM226.57 196.457L319.309 196.457L226.57 196.457ZM319.309 196.457L319.309 196.458L319.309 196.457ZM319.309 196.458C319.309 247.451 278.153 288.831 227.246 289.195L319.309 196.458ZM226.57 289.197C226.571 340.415 268.091 381.935 319.31 381.935L319.309 289.304C319.368 340.473 360.866 381.935 412.049 381.935L412.049 289.195L319.985 289.195C370.893 288.831 412.049 247.451 412.049 196.458L412.049 196.457L319.31 196.457L319.31 289.195L319.309 289.195L319.309 289.195L227.246 289.195"/>
</mask>
<path d="M226.57 289.197L226.57 289.697L226.07 289.697L226.07 289.197L226.57 289.197ZM226.57 196.457L226.07 196.457L226.07 195.957L226.57 195.957V196.457ZM319.309 196.457L319.309 195.957L319.809 195.957L319.809 196.457L319.309 196.457ZM319.309 196.458L319.809 196.458L319.809 196.664L319.664 196.81L319.309 196.458ZM227.246 289.195L227.601 289.547L227.455 289.694L227.248 289.695L227.246 289.195ZM226.57 289.697L226.57 289.697L226.57 288.697L226.57 288.697L226.57 289.697ZM226.07 289.197L226.07 196.457L227.07 196.457L227.07 289.197L226.07 289.197ZM226.57 195.957L319.309 195.957L319.309 196.957L226.57 196.957V195.957ZM319.809 196.457L319.809 196.458L318.809 196.458L318.809 196.457L319.809 196.457ZM319.664 196.81L227.601 289.547L226.891 288.842L318.955 196.106L319.664 196.81ZM227.248 289.695L226.572 289.697L226.568 288.697L227.244 288.695L227.248 289.695ZM226.57 289.197L226.57 290.197L225.57 290.197L225.57 289.197L226.57 289.197ZM226.57 196.457L225.57 196.457L225.57 195.457L226.57 195.457V196.457ZM319.309 196.457L319.309 195.457L320.309 195.457L320.309 196.457L319.309 196.457ZM227.246 289.195L227.246 290.195L227.239 288.195L227.246 289.195ZM319.31 381.935L320.31 381.935L320.31 382.935L319.31 382.935L319.31 381.935ZM319.309 289.304L318.309 289.304L320.309 289.302L319.309 289.304ZM412.049 381.935L413.049 381.935L413.049 382.935L412.049 382.935L412.049 381.935ZM412.049 289.195L412.049 288.195L413.049 288.195L413.049 289.195L412.049 289.195ZM319.985 289.195L319.985 290.195L319.978 288.195L319.985 289.195ZM412.049 196.458L411.049 196.458L412.049 196.458ZM412.049 196.457L412.049 195.457L413.049 195.457L413.049 196.457L412.049 196.457ZM319.31 196.457L318.31 196.457L318.31 195.457L319.31 195.457L319.31 196.457ZM319.31 289.195L320.31 289.195L320.31 290.237L319.268 290.194L319.31 289.195ZM319.309 289.195L319.185 288.202L319.268 288.192L319.351 288.196L319.309 289.195ZM319.309 289.195L319.433 290.187L319.372 290.195L319.309 290.195L319.309 289.195ZM226.57 290.197L226.57 290.197L226.57 288.197L226.57 288.197L226.57 290.197ZM225.57 289.197L225.57 196.457L227.57 196.457L227.57 289.197L225.57 289.197ZM226.57 195.457L319.309 195.457L319.309 197.457L226.57 197.457V195.457ZM320.309 196.457L320.309 196.458L318.309 196.458L318.309 196.457L320.309 196.457ZM320.309 196.458C320.309 248.001 278.71 289.827 227.253 290.195L227.239 288.195C277.597 287.835 318.309 246.901 318.309 196.458L320.309 196.458ZM227.57 289.197C227.571 339.863 268.644 380.935 319.31 380.935L319.31 382.935C267.539 382.935 225.571 340.967 225.57 289.197L227.57 289.197ZM318.31 381.935L318.309 289.304L320.309 289.304L320.31 381.935L318.31 381.935ZM320.309 289.302C320.367 339.92 361.418 380.935 412.049 380.935L412.049 382.935C360.314 382.935 318.368 341.026 318.309 289.305L320.309 289.302ZM411.049 381.935L411.049 289.195L413.049 289.195L413.049 381.935L411.049 381.935ZM412.049 290.195L319.985 290.195L319.985 288.195L412.049 288.195L412.049 290.195ZM319.978 288.195C370.336 287.835 411.049 246.901 411.049 196.458L413.049 196.458C413.049 248.001 371.449 289.827 319.992 290.195L319.978 288.195ZM411.049 196.458L411.049 196.457L413.049 196.457L413.049 196.458L411.049 196.458ZM412.049 197.457L319.31 197.457L319.31 195.457L412.049 195.457L412.049 197.457ZM320.31 196.457L320.31 289.195L318.31 289.195L318.31 196.457L320.31 196.457ZM319.268 290.194L319.268 290.194L319.351 288.196L319.351 288.196L319.268 290.194ZM319.434 290.187L319.433 290.187L319.185 288.202L319.185 288.202L319.434 290.187ZM319.309 290.195L227.246 290.195L227.246 288.195L319.309 288.195L319.309 290.195Z" fill="black" mask="url(#path-11-inside-1)"/>
<mask id="path-13-inside-2" fill="white">
<path fill-rule="evenodd" clip-rule="evenodd" d="M134.149 381.936L134.148 381.936C82.9299 381.936 41.4092 340.416 41.4092 289.197C41.4092 237.979 82.9299 196.458 134.148 196.458H134.149V289.196C134.149 237.978 175.669 196.457 226.888 196.457V289.196C226.888 237.978 268.409 196.457 319.627 196.457V381.935C268.409 381.935 226.888 340.415 226.888 289.196V381.935C175.669 381.935 134.149 340.415 134.149 289.196V381.936Z"/>
</mask>
<path d="M134.148 381.936V382.936V381.936ZM134.149 381.936H135.149V382.936L134.149 382.936V381.936ZM134.149 196.458V195.458H135.149V196.458H134.149ZM226.888 196.457V195.457H227.888V196.457H226.888ZM319.627 196.457V195.457H320.627V196.457H319.627ZM319.627 381.935H320.627V382.935H319.627V381.935ZM226.888 381.935H227.888V382.935H226.888V381.935ZM134.148 380.936H134.149V382.936H134.148V380.936ZM42.4092 289.197C42.4092 339.863 83.4822 380.936 134.148 380.936V382.936C82.3777 382.936 40.4092 340.968 40.4092 289.197H42.4092ZM134.148 197.458C83.4822 197.458 42.4092 238.531 42.4092 289.197H40.4092C40.4092 237.426 82.3777 195.458 134.148 195.458V197.458ZM134.149 197.458H134.148V195.458H134.149V197.458ZM133.149 289.196V196.458H135.149V289.196H133.149ZM133.149 289.196C133.149 237.425 175.117 195.457 226.888 195.457V197.457C176.222 197.457 135.149 238.53 135.149 289.196H133.149ZM227.888 196.457V289.196H225.888V196.457H227.888ZM225.888 289.196C225.888 237.425 267.856 195.457 319.627 195.457V197.457C268.961 197.457 227.888 238.53 227.888 289.196H225.888ZM320.627 196.457V381.935H318.627V196.457H320.627ZM319.627 382.935C267.856 382.935 225.888 340.967 225.888 289.196H227.888C227.888 339.862 268.961 380.935 319.627 380.935V382.935ZM227.888 289.196V381.935H225.888V289.196H227.888ZM226.888 382.935C175.117 382.935 133.149 340.967 133.149 289.196H135.149C135.149 339.862 176.222 380.935 226.888 380.935V382.935ZM133.149 381.936V289.196H135.149V381.936H133.149Z" fill="black" mask="url(#path-13-inside-2)"/>
<path fill-rule="evenodd" clip-rule="evenodd" d="M226.569 140.12L226.569 139.925C224.973 140.054 223.367 140.12 221.75 140.12C173.177 140.12 133.8 80.9047 133.8 7.85929C133.8 5.42793 133.844 3.01187 133.93 0.612819L133.8 0.612819L133.8 57.383L133.8 57.383L133.8 196.891L226.568 196.891L226.568 196.695C224.973 196.825 223.366 196.891 221.75 196.891C191.837 196.891 165.413 174.434 149.524 140.12L226.569 140.12ZM133.8 64.7775C133.8 64.7284 133.8 64.6793 133.8 64.6301C133.8 64.581 133.8 64.5319 133.8 64.4828L133.8 64.7775Z" fill="url(#paint2_linear)"/>
<path fill-rule="evenodd" clip-rule="evenodd" d="M412.047 68.18L412.047 68.3748C410.523 68.251 408.988 68.1856 407.444 68.18L412.047 68.18ZM335.003 68.18L407.012 68.18C358.538 68.3555 319.279 127.503 319.279 200.44C319.279 202.872 319.322 205.288 319.408 207.688L319.279 207.688L319.279 150.918L319.278 150.918L319.278 11.4109L412.046 11.4109L412.046 11.6067C410.451 11.4772 408.845 11.4116 407.228 11.4116C377.316 11.4116 350.892 33.8673 335.003 68.18ZM319.279 143.487C319.279 143.549 319.278 143.61 319.278 143.672C319.278 143.734 319.279 143.795 319.279 143.857L319.279 143.487Z" fill="url(#paint3_linear)"/>
<path d="M417.751 119.927C415.465 118.842 413.875 116.382 413.036 112.697C412.199 109.019 412.133 104.206 412.823 98.5752C414.2 87.3191 418.579 72.9093 425.646 58.0262C432.712 43.1431 441.111 30.642 448.963 22.4601C452.891 18.3671 456.662 15.376 460.041 13.6999C463.427 12.0205 466.338 11.6981 468.625 12.7838C470.911 13.8695 472.501 16.3289 473.34 20.0141C474.177 23.6923 474.242 28.5051 473.553 34.1358C472.176 45.3919 467.797 59.8017 460.73 74.6848C453.663 89.568 445.265 102.069 437.413 110.251C433.485 114.344 429.714 117.335 426.334 119.011C422.949 120.691 420.038 121.013 417.751 119.927Z" stroke="black"/>
<path d="M429.507 119.927C427.22 118.842 425.63 116.382 424.791 112.697C423.954 109.019 423.889 104.206 424.578 98.5752C425.955 87.3191 430.334 72.9093 437.401 58.0262C444.468 43.1431 452.867 30.642 460.719 22.4601C464.646 18.3671 468.417 15.376 471.797 13.6999C475.183 12.0205 478.093 11.6981 480.38 12.7838C482.667 13.8695 484.257 16.3289 485.095 20.0141C485.932 23.6923 485.998 28.5051 485.309 34.1358C483.931 45.3919 479.552 59.8017 472.486 74.6848C465.419 89.568 457.02 102.069 449.168 110.251C445.24 114.344 441.469 117.335 438.09 119.011C434.704 120.691 431.793 121.013 429.507 119.927Z" stroke="black"/>
<path d="M441.262 119.927C438.976 118.842 437.386 116.382 436.547 112.697C435.71 109.019 435.644 104.206 436.334 98.5752C437.711 87.3191 442.09 72.9093 449.157 58.0262C456.223 43.1431 464.622 30.642 472.474 22.4601C476.402 18.3671 480.173 15.376 483.552 13.6999C486.938 12.0205 489.849 11.6981 492.136 12.7838C494.422 13.8695 496.012 16.3289 496.851 20.0141C497.688 23.6923 497.753 28.5051 497.064 34.1358C495.687 45.3919 491.308 59.8017 484.241 74.6848C477.174 89.568 468.776 102.069 460.924 110.251C456.996 114.344 453.225 117.335 449.845 119.011C446.46 120.691 443.549 121.013 441.262 119.927Z" stroke="black"/>
<path d="M453.018 119.927C450.732 118.842 449.142 116.382 448.303 112.697C447.466 109.019 447.4 104.206 448.089 98.5752C449.467 87.3191 453.846 72.9093 460.913 58.0262C467.979 43.1431 476.378 30.642 484.23 22.4601C488.158 18.3671 491.929 15.376 495.308 13.6999C498.694 12.0205 501.605 11.6981 503.891 12.7838C506.178 13.8695 507.768 16.3289 508.607 20.0141C509.444 23.6923 509.509 28.5051 508.82 34.1358C507.443 45.3919 503.064 59.8017 495.997 74.6848C488.93 89.568 480.531 102.069 472.68 110.251C468.752 114.344 464.981 117.335 461.601 119.011C458.215 120.691 455.305 121.013 453.018 119.927Z" stroke="black"/>
<path d="M464.774 119.927C462.487 118.842 460.897 116.382 460.059 112.697C459.222 109.019 459.156 104.206 459.845 98.5752C461.223 87.3191 465.602 72.9093 472.668 58.0262C479.735 43.1431 488.134 30.642 495.986 22.4601C499.914 18.3671 503.685 15.376 507.064 13.6999C510.45 12.0205 513.361 11.6981 515.647 12.7838C517.934 13.8695 519.524 16.3289 520.363 20.0141C521.2 23.6923 521.265 28.5051 520.576 34.1358C519.199 45.3919 514.82 59.8017 507.753 74.6848C500.686 89.568 492.287 102.069 484.435 110.251C480.508 114.344 476.737 117.335 473.357 119.011C469.971 120.691 467.061 121.013 464.774 119.927Z" stroke="black"/>
<path d="M476.53 119.927C474.243 118.842 472.653 116.382 471.814 112.697C470.977 109.019 470.912 104.206 471.601 98.5752C472.978 87.3191 477.357 72.9093 484.424 58.0262C491.491 43.1431 499.89 30.642 507.742 22.4601C511.669 18.3671 515.44 15.376 518.82 13.6999C522.206 12.0205 525.116 11.6981 527.403 12.7838C529.69 13.8695 531.279 16.3289 532.118 20.0141C532.955 23.6923 533.021 28.5051 532.332 34.1358C530.954 45.3919 526.575 59.8017 519.509 74.6848C512.442 89.568 504.043 102.069 496.191 110.251C492.263 114.344 488.492 117.335 485.113 119.011C481.727 120.691 478.816 121.013 476.53 119.927Z" stroke="black"/>
<path fill-rule="evenodd" clip-rule="evenodd" d="M441.689 191.175L441.687 191.173L441.68 191.166L441.669 191.155L441.653 191.14L441.632 191.121L441.606 191.098L441.575 191.071L441.54 191.041L441.499 191.006L441.453 190.968L441.402 190.927L441.346 190.883L441.285 190.835L441.218 190.784L441.146 190.731L441.068 190.674L440.986 190.615L440.897 190.553L440.803 190.489L440.704 190.422L440.599 190.353L440.489 190.283L440.373 190.21L440.252 190.136L440.125 190.059L439.992 189.982L439.854 189.903L439.711 189.822L439.562 189.741L439.408 189.659L439.248 189.575L439.083 189.491L438.913 189.407L438.737 189.322L438.556 189.237L438.37 189.151L438.178 189.066L437.982 188.98L437.78 188.895L437.573 188.81L437.362 188.725L437.146 188.641L436.925 188.558L436.699 188.475L436.469 188.394L436.234 188.313L435.995 188.234L435.751 188.156L435.503 188.079L435.251 188.004L434.996 187.93L434.736 187.858L434.472 187.788L434.205 187.72L433.934 187.653L433.66 187.589L433.383 187.527L433.102 187.467L432.818 187.409L432.532 187.354L432.242 187.301L431.95 187.251L431.656 187.203L431.359 187.158L431.06 187.116L430.758 187.077L430.455 187.04L430.15 187.006L429.844 186.975L429.536 186.947L429.226 186.922L428.916 186.9L428.604 186.882L428.292 186.866L427.979 186.853L427.665 186.844L427.351 186.837L427.037 186.834L426.722 186.834L426.408 186.837L426.094 186.843L425.78 186.852L425.467 186.865L425.154 186.88L424.843 186.899L424.532 186.92L424.223 186.945L423.915 186.973L423.608 187.003L423.303 187.037L423 187.074L422.698 187.113L422.399 187.155L422.102 187.2L421.807 187.247L421.515 187.297L421.225 187.35L420.938 187.405L420.654 187.462L420.373 187.522L420.096 187.584L419.821 187.648L419.55 187.714L419.283 187.782L419.019 187.853L418.759 187.924L418.503 187.998L418.25 188.073L418.002 188.15L417.759 188.228L417.519 188.307L417.284 188.387L417.053 188.469L416.827 188.551L416.606 188.635L416.389 188.719L416.177 188.803L415.97 188.888L415.768 188.973L415.571 189.059L415.379 189.144L415.193 189.23L415.011 189.315L414.835 189.4L414.664 189.485L414.499 189.569L414.339 189.652L414.184 189.735L414.034 189.816L413.891 189.896L413.752 189.976L413.619 190.053L413.492 190.13L413.37 190.204L413.254 190.277L413.143 190.348L413.038 190.417L412.938 190.484L412.844 190.548L412.755 190.61L412.672 190.669L412.594 190.726L412.521 190.78L412.454 190.831L412.392 190.879L412.336 190.924L412.284 190.965L412.238 191.003L412.197 191.038L412.161 191.069L412.13 191.096L412.104 191.119L412.083 191.139L412.066 191.154L412.055 191.165L412.047 191.172L412.045 191.175L412.047 191.173L412.053 191.167L412.063 191.156L412.078 191.14L412.097 191.119L412.12 191.094L412.146 191.064L412.176 191.029L412.21 190.988L412.248 190.943L412.289 190.892L412.333 190.837L412.381 190.776L412.431 190.709L412.485 190.638L412.541 190.561L412.6 190.478L412.662 190.39L412.726 190.297L412.792 190.198L412.861 190.094L412.931 189.984L413.004 189.868L413.078 189.747L413.154 189.621L413.232 189.489L413.311 189.351L413.391 189.208L413.472 189.06L413.554 188.906L413.637 188.747L413.721 188.582L413.806 188.412L413.891 188.237L413.976 188.056L414.062 187.87L414.147 187.679L414.233 187.483L414.318 187.282L414.403 187.076L414.488 186.865L414.572 186.649L414.655 186.428L414.738 186.203L414.819 185.973L414.9 185.738L414.979 185.5L415.058 185.256L415.134 185.009L415.21 184.757L415.284 184.502L415.356 184.242L415.426 183.979L415.495 183.712L415.561 183.442L415.626 183.168L415.688 182.891L415.748 182.61L415.806 182.327L415.861 182.04L415.914 181.751L415.965 181.459L416.013 181.165L416.058 180.868L416.1 180.569L416.14 180.268L416.177 179.965L416.211 179.66L416.242 179.354L416.27 179.046L416.295 178.737L416.318 178.426L416.337 178.115L416.353 177.803L416.366 177.489L416.375 177.176L416.382 176.862L416.386 176.547L416.386 176.233L416.383 175.919L416.377 175.605L416.368 175.291L416.356 174.978L416.341 174.665L416.322 174.353L416.301 174.043L416.277 173.733L416.249 173.425L416.219 173.118L416.185 172.813L416.149 172.509L416.11 172.208L416.068 171.908L416.024 171.611L415.976 171.316L415.927 171.024L415.874 170.734L415.819 170.447L415.762 170.163L415.703 169.881L415.641 169.603L415.577 169.329L415.511 169.057L415.443 168.79L415.373 168.525L415.301 168.265L415.228 168.009L415.153 167.756L415.076 167.508L414.998 167.264L414.919 167.024L414.839 166.788L414.757 166.557L414.675 166.331L414.592 166.109L414.508 165.892L414.423 165.68L414.338 165.472L414.253 165.27L414.168 165.073L414.082 164.88L413.997 164.693L413.911 164.511L413.826 164.335L413.742 164.163L413.658 163.997L413.574 163.837L413.492 163.682L413.41 163.532L413.33 163.388L413.25 163.249L413.172 163.116L413.096 162.988L413.021 162.866L412.948 162.749L412.877 162.638L412.808 162.532L412.741 162.432L412.677 162.337L412.615 162.248L412.555 162.164L412.498 162.086L412.444 162.013L412.392 161.945L412.344 161.883L412.299 161.826L412.257 161.774L412.219 161.727L412.184 161.686L412.153 161.65L412.126 161.618L412.102 161.592L412.082 161.57L412.067 161.553L412.055 161.541L412.048 161.534L412.045 161.531L412.046 161.532L412.052 161.538L412.063 161.548L412.078 161.562L412.099 161.581L412.123 161.603L412.153 161.63L412.188 161.66L412.228 161.693L412.273 161.731L412.323 161.771L412.378 161.815L412.439 161.862L412.505 161.913L412.576 161.966L412.653 162.022L412.735 162.081L412.822 162.142L412.915 162.206L413.014 162.272L413.118 162.341L413.227 162.411L413.342 162.484L413.463 162.558L413.589 162.634L413.72 162.711L413.857 162.79L414 162.87L414.148 162.951L414.301 163.033L414.46 163.117L414.624 163.2L414.794 163.285L414.969 163.37L415.149 163.455L415.334 163.541L415.525 163.626L415.721 163.712L415.922 163.797L416.127 163.882L416.338 163.967L416.553 164.051L416.774 164.134L416.999 164.217L417.228 164.299L417.462 164.379L417.701 164.459L417.944 164.537L418.191 164.614L418.442 164.69L418.697 164.764L418.956 164.836L419.219 164.906L419.486 164.975L419.756 165.042L420.03 165.106L420.307 165.169L420.587 165.229L420.87 165.287L421.156 165.343L421.445 165.396L421.737 165.447L422.031 165.495L422.328 165.54L422.626 165.583L422.927 165.623L423.23 165.66L423.535 165.694L423.841 165.725L424.149 165.754L424.458 165.779L424.768 165.802L425.08 165.821L425.392 165.837L425.705 165.85L426.019 165.86L426.333 165.867L426.647 165.871L426.962 165.872L427.276 165.869L427.59 165.864L427.904 165.855L428.217 165.843L428.53 165.828L428.842 165.81L429.152 165.789L429.462 165.764L429.77 165.737L430.077 165.707L430.383 165.674L430.686 165.638L430.988 165.599L431.288 165.557L431.585 165.513L431.88 165.466L432.173 165.416L432.463 165.364L432.75 165.31L433.035 165.252L433.316 165.193L433.594 165.131L433.869 165.068L434.141 165.002L434.409 164.934L434.673 164.864L434.934 164.792L435.191 164.719L435.444 164.644L435.692 164.568L435.937 164.49L436.177 164.411L436.413 164.331L436.644 164.249L436.871 164.167L437.093 164.084L437.311 164L437.523 163.916L437.731 163.831L437.934 163.746L438.132 163.66L438.324 163.575L438.512 163.489L438.694 163.404L438.871 163.319L439.043 163.234L439.209 163.15L439.37 163.066L439.526 162.984L439.676 162.902L439.821 162.822L439.96 162.742L440.094 162.664L440.222 162.588L440.345 162.513L440.462 162.44L440.573 162.369L440.68 162.299L440.78 162.232L440.875 162.167L440.965 162.105L441.049 162.045L441.128 161.988L441.201 161.934L441.269 161.882L441.332 161.834L441.389 161.788L441.442 161.746L441.489 161.708L441.531 161.673L441.567 161.641L441.599 161.613L441.626 161.589L441.648 161.569L441.665 161.553L441.678 161.541L441.686 161.534L441.689 161.531L441.688 161.532L441.682 161.537L441.673 161.548L441.658 161.563L441.64 161.582L441.618 161.607L441.592 161.636L441.563 161.671L441.529 161.71L441.492 161.755L441.452 161.805L441.408 161.86L441.361 161.92L441.311 161.985L441.258 162.056L441.202 162.132L441.143 162.214L441.082 162.301L441.019 162.393L440.953 162.491L440.884 162.595L440.814 162.704L440.742 162.818L440.668 162.938L440.592 163.064L440.515 163.195L440.436 163.332L440.356 163.474L440.275 163.621L440.193 163.774L440.11 163.933L440.026 164.097L439.942 164.266L439.857 164.44L439.771 164.62L439.686 164.805L439.6 164.995L439.515 165.191L439.429 165.391L439.344 165.596L439.26 165.807L439.176 166.022L439.092 166.242L439.009 166.466L438.928 166.696L438.847 166.929L438.767 167.167L438.689 167.41L438.612 167.657L438.536 167.908L438.462 168.162L438.39 168.421L438.319 168.684L438.25 168.95L438.183 169.22L438.118 169.494L438.056 169.77L437.995 170.05L437.937 170.333L437.881 170.619L437.828 170.908L437.777 171.199L437.729 171.493L437.683 171.79L437.64 172.088L437.6 172.389L437.563 172.692L437.528 172.996L437.497 173.302L437.468 173.61L437.442 173.919L437.42 174.229L437.4 174.541L437.384 174.853L437.37 175.166L437.36 175.48L437.353 175.794L437.349 176.108L437.348 176.422L437.35 176.737L437.356 177.051L437.364 177.365L437.376 177.678L437.391 177.991L437.408 178.302L437.429 178.613L437.453 178.923L437.48 179.232L437.51 179.539L437.543 179.844L437.579 180.148L437.617 180.45L437.659 180.749L437.703 181.047L437.75 181.342L437.799 181.635L437.851 181.926L437.906 182.213L437.963 182.498L438.022 182.779L438.083 183.058L438.147 183.333L438.213 183.605L438.28 183.873L438.35 184.138L438.421 184.399L438.495 184.656L438.569 184.909L438.646 185.158L438.723 185.403L438.802 185.644L438.882 185.88L438.964 186.112L439.046 186.339L439.129 186.562L439.213 186.779L439.297 186.992L439.382 187.2L439.467 187.404L439.553 187.602L439.638 187.795L439.724 187.983L439.809 188.165L439.894 188.343L439.979 188.515L440.063 188.682L440.147 188.843L440.229 188.999L440.311 189.15L440.392 189.295L440.471 189.435L440.549 189.569L440.626 189.698L440.701 189.821L440.774 189.938L440.845 190.05L440.915 190.157L440.982 190.258L441.047 190.354L441.11 190.444L441.17 190.528L441.227 190.608L441.282 190.681L441.333 190.75L441.382 190.813L441.428 190.871L441.47 190.923L441.509 190.971L441.544 191.013L441.576 191.05L441.604 191.082L441.629 191.11L441.649 191.132L441.665 191.15L441.677 191.163L441.685 191.171L441.689 191.175L441.689 191.175Z" stroke="black"/>
<path fill-rule="evenodd" clip-rule="evenodd" d="M205.607 53.3341L205.607 53.331L205.607 53.3215L205.607 53.3058L205.606 53.2838L205.605 53.2556L205.603 53.2211L205.6 53.1805L205.597 53.1336L205.592 53.0806L205.586 53.0215L205.58 52.9563L205.571 52.8851L205.562 52.8079L205.55 52.7248L205.537 52.6359L205.523 52.5411L205.506 52.4406L205.487 52.3344L205.466 52.2227L205.443 52.1054L205.417 51.9827L205.389 51.8547L205.359 51.7213L205.326 51.5829L205.29 51.4393L205.251 51.2908L205.21 51.1374L205.165 50.9792L205.117 50.8164L205.066 50.649L205.012 50.4772L204.955 50.3011L204.894 50.1208L204.83 49.9364L204.762 49.748L204.691 49.5559L204.616 49.36L204.538 49.1606L204.455 48.9577L204.369 48.7516L204.28 48.5423L204.186 48.3299L204.089 48.1147L203.987 47.8968L203.882 47.6763L203.773 47.4533L203.66 47.228L203.543 47.0006L203.422 46.7711L203.297 46.5398L203.169 46.3068L203.036 46.0722L202.899 45.8362L202.759 45.599L202.614 45.3606L202.466 45.1212L202.313 44.881L202.157 44.6402L201.997 44.3989L201.834 44.1571L201.666 43.9152L201.496 43.6731L201.321 43.4311L201.143 43.1894L200.961 42.948L200.776 42.7071L200.588 42.4668L200.396 42.2273L200.201 41.9887L200.003 41.7511L199.802 41.5147L199.598 41.2797L199.391 41.046L199.181 40.814L198.969 40.5836L198.753 40.3551L198.536 40.1284L198.316 39.9039L198.094 39.6814L197.869 39.4613L197.643 39.2435L197.414 39.0283L197.184 38.8156L196.952 38.6056L196.719 38.3984L196.484 38.1941L196.247 37.9927L196.01 37.7944L195.772 37.5992L195.532 37.4072L195.292 37.2185L195.051 37.0332L194.81 36.8513L194.568 36.6729L194.326 36.498L194.084 36.3268L193.842 36.1592L193.6 35.9952L193.359 35.8351L193.118 35.6787L192.878 35.5261L192.638 35.3774L192.4 35.2326L192.162 35.0917L191.926 34.9547L191.692 34.8216L191.458 34.6924L191.227 34.5673L190.997 34.446L190.77 34.3287L190.544 34.2154L190.321 34.106L190.1 34.0005L189.882 33.8989L189.667 33.8012L189.454 33.7074L189.245 33.6173L189.038 33.5311L188.835 33.4486L188.635 33.3698L188.439 33.2946L188.247 33.2231L188.058 33.1551L187.873 33.0907L187.693 33.0296L187.516 32.972L187.344 32.9176L187.176 32.8665L187.013 32.8186L186.855 32.7737L186.701 32.7318L186.552 32.6929L186.408 32.6567L186.269 32.6234L186.135 32.5926L186.007 32.5645L185.884 32.5388L185.766 32.5154L185.654 32.4943L185.547 32.4754L185.446 32.4585L185.351 32.4435L185.262 32.4304L185.178 32.419L185.101 32.4091L185.029 32.4008L184.963 32.3938L184.904 32.3881L184.85 32.3835L184.803 32.3799L184.762 32.3772L184.727 32.3752L184.698 32.3739L184.675 32.3731L184.659 32.3726L184.649 32.3725L184.646 32.3725L184.648 32.3724L184.657 32.3723L184.672 32.3719L184.694 32.3712L184.722 32.37L184.756 32.3681L184.796 32.3655L184.842 32.3621L184.895 32.3576L184.953 32.3521L185.018 32.3453L185.089 32.3372L185.165 32.3276L185.248 32.3165L185.337 32.3036L185.431 32.2889L185.531 32.2724L185.637 32.2537L185.748 32.233L185.865 32.21L185.987 32.1847L186.115 32.1569L186.248 32.1266L186.386 32.0937L186.529 32.058L186.677 32.0195L186.83 31.9781L186.988 31.9337L187.15 31.8862L187.317 31.8356L187.489 31.7818L187.664 31.7247L187.844 31.6642L188.029 31.6003L188.217 31.5329L188.408 31.4619L188.604 31.3873L188.803 31.3091L189.006 31.2272L189.212 31.1416L189.421 31.0521L189.633 30.9589L189.848 30.8618L190.065 30.7608L190.286 30.656L190.509 30.5472L190.734 30.4345L190.961 30.3178L191.19 30.1972L191.421 30.0727L191.654 29.9442L191.889 29.8117L192.125 29.6753L192.362 29.535L192.6 29.3908L192.839 29.2427L193.08 29.0908L193.32 28.935L193.562 28.7754L193.803 28.6121L194.045 28.4451L194.287 28.2744L194.529 28.1001L194.771 27.9222L195.013 27.7409L195.254 27.5561L195.494 27.368L195.733 27.1765L195.972 26.9818L196.21 26.784L196.446 26.5831L196.681 26.3793L196.915 26.1725L197.147 25.963L197.378 25.7507L197.607 25.5358L197.833 25.3185L198.058 25.0987L198.281 24.8766L198.501 24.6524L198.719 24.4261L198.934 24.1978L199.147 23.9677L199.358 23.7359L199.565 23.5025L199.77 23.2677L199.971 23.0315L200.17 22.7941L200.365 22.5557L200.557 22.3163L200.746 22.0762L200.932 21.8353L201.114 21.594L201.293 21.3523L201.468 21.1103L201.639 20.8683L201.807 20.6263L201.972 20.3845L202.132 20.1431L202.289 19.9022L202.442 19.6619L202.591 19.4224L202.736 19.1839L202.877 18.9464L203.014 18.7102L203.148 18.4754L203.277 18.2421L203.403 18.0105L203.524 17.7807L203.642 17.553L203.755 17.3273L203.865 17.104L203.971 16.8831L204.073 16.6647L204.171 16.449L204.265 16.2363L204.355 16.0265L204.442 15.8198L204.525 15.6164L204.604 15.4164L204.679 15.22L204.751 15.0272L204.819 14.8383L204.884 14.6532L204.945 14.4723L205.003 14.2955L205.058 14.123L205.109 13.9549L205.158 13.7913L205.203 13.6324L205.245 13.4782L205.284 13.3289L205.32 13.1846L205.354 13.0453L205.385 12.9111L205.413 12.7822L205.439 12.6587L205.463 12.5405L205.484 12.4279L205.503 12.3208L205.52 12.2194L205.535 12.1237L205.548 12.0339L205.56 11.9498L205.57 11.8717L205.578 11.7995L205.585 11.7334L205.591 11.6733L205.596 11.6193L205.6 11.5715L205.602 11.5298L205.604 11.4944L205.606 11.4651L205.607 11.4422L205.607 11.4255L205.607 11.415L205.607 11.4109L205.607 11.413L205.607 11.4215L205.608 11.4362L205.609 11.4571L205.61 11.4844L205.611 11.5179L205.614 11.5575L205.617 11.6034L205.622 11.6554L205.627 11.7136L205.634 11.7778L205.642 11.8481L205.651 11.9243L205.662 12.0064L205.675 12.0945L205.69 12.1883L205.706 12.2879L205.724 12.3932L205.745 12.5041L205.768 12.6205L205.793 12.7423L205.821 12.8695L205.851 13.002L205.883 13.1397L205.919 13.2824L205.957 13.4301L205.998 13.5828L206.042 13.7402L206.09 13.9023L206.14 14.0689L206.194 14.24L206.25 14.4155L206.311 14.5951L206.374 14.7789L206.441 14.9666L206.512 15.1582L206.586 15.3535L206.664 15.5523L206.746 15.7547L206.831 15.9603L206.92 16.1691L207.013 16.381L207.11 16.5957L207.211 16.8132L207.315 17.0333L207.424 17.2559L207.536 17.4809L207.653 17.708L207.773 17.9371L207.897 18.1681L208.025 18.4009L208.157 18.6352L208.293 18.871L208.433 19.1081L208.577 19.3463L208.725 19.5855L208.877 19.8256L209.032 20.0663L209.192 20.3076L209.355 20.5493L209.521 20.7912L209.692 21.0332L209.866 21.2752L210.043 21.517L210.224 21.7585L210.409 21.9995L210.597 22.2399L210.788 22.4796L210.982 22.7183L211.18 22.956L211.381 23.1926L211.584 23.4279L211.791 23.6618L212 23.8941L212.212 24.1247L212.427 24.3536L212.644 24.5805L212.864 24.8054L213.085 25.0282L213.309 25.2487L213.536 25.4669L213.764 25.6825L213.994 25.8956L214.225 26.1061L214.459 26.3137L214.693 26.5185L214.929 26.7204L215.167 26.9192L215.405 27.1148L215.644 27.3073L215.884 27.4965L216.125 27.6824L216.367 27.8649L216.608 28.0438L216.85 28.2193L217.092 28.3911L217.334 28.5593L217.576 28.7238L217.817 28.8846L218.058 29.0416L218.299 29.1947L218.538 29.344L218.777 29.4895L219.015 29.6311L219.251 29.7687L219.486 29.9024L219.719 30.0322L219.951 30.158L220.181 30.2798L220.409 30.3978L220.635 30.5117L220.858 30.6217L221.079 30.7279L221.298 30.8301L221.514 30.9284L221.727 31.0229L221.937 31.1135L222.144 31.2003L222.347 31.2834L222.548 31.3628L222.744 31.4385L222.937 31.5106L223.127 31.5792L223.312 31.6442L223.493 31.7058L223.67 31.764L223.843 31.8188L224.012 31.8705L224.176 31.9189L224.335 31.9643L224.489 32.0066L224.639 32.046L224.784 32.0826L224.924 32.1164L225.058 32.1475L225.188 32.1761L225.312 32.2022L225.43 32.2259L225.543 32.2474L225.651 32.2667L225.753 32.2839L225.849 32.2991L225.939 32.3126L226.024 32.3242L226.102 32.3343L226.175 32.3429L226.241 32.3501L226.302 32.356L226.356 32.3608L226.405 32.3645L226.447 32.3674L226.483 32.3694L226.513 32.3709L226.536 32.3717L226.553 32.3722L226.564 32.3724L226.569 32.3725L226.567 32.3725L226.559 32.3726L226.545 32.3729L226.525 32.3736L226.498 32.3747L226.465 32.3765L226.426 32.3789L226.38 32.3822L226.329 32.3865L226.271 32.3919L226.207 32.3984L226.138 32.4063L226.062 32.4157L225.98 32.4266L225.893 32.4391L225.799 32.4535L225.7 32.4698L225.595 32.4881L225.485 32.5085L225.369 32.5311L225.247 32.556L225.121 32.5834L224.989 32.6133L224.851 32.6458L224.709 32.6811L224.562 32.7191L224.409 32.76L224.252 32.8039L224.091 32.8509L223.924 32.901L223.754 32.9543L223.578 33.0109L223.399 33.0709L223.216 33.1342L223.028 33.2011L222.837 33.2715L222.642 33.3455L222.443 33.4231L222.241 33.5044L222.036 33.5894L221.827 33.6783L221.616 33.7709L221.401 33.8674L221.184 33.9677L220.964 34.072L220.742 34.1801L220.517 34.2922L220.29 34.4082L220.061 34.5282L219.83 34.6521L219.598 34.78L219.363 34.9118L219.128 35.0476L218.891 35.1873L218.653 35.3309L218.413 35.4784L218.173 35.6297L217.933 35.7849L217.691 35.9438L217.45 36.1065L217.208 36.273L216.966 36.4431L216.724 36.6168L216.482 36.7941L216.241 36.9749L215.999 37.1591L215.759 37.3468L215.519 37.5377L215.28 37.7319L215.043 37.9292L214.806 38.1296L214.571 38.333L214.337 38.5393L214.104 38.7484L213.873 38.9602L213.644 39.1747L213.417 39.3917L213.192 39.6111L212.969 39.8328L212.749 40.0567L212.53 40.2827L212.314 40.5106L212.101 40.7404L211.89 40.972L211.683 41.2051L211.477 41.4397L211.275 41.6757L211.076 41.9129L210.88 42.1512L210.688 42.3904L210.498 42.6304L210.312 42.8712L210.129 43.1124L209.95 43.3541L209.774 43.596L209.602 43.8381L209.434 44.0801L209.269 44.3219L209.108 44.5634L208.951 44.8044L208.797 45.0448L208.647 45.2844L208.502 45.5231L208.36 45.7608L208.222 45.9972L208.088 46.2322L207.958 46.4658L207.832 46.6977L207.71 46.9277L207.591 47.1558L207.477 47.3818L207.367 47.6055L207.26 47.8268L207.158 48.0456L207.059 48.2617L206.964 48.475L206.873 48.6852L206.786 48.8924L206.703 49.0963L206.623 49.2969L206.547 49.4939L206.475 49.6872L206.406 49.8768L206.341 50.0625L206.279 50.2441L206.22 50.4216L206.165 50.5948L206.113 50.7636L206.065 50.9278L206.019 51.0875L205.976 51.2424L205.937 51.3925L205.9 51.5377L205.866 51.6778L205.835 51.8128L205.806 51.9425L205.78 52.0669L205.756 52.1859L205.734 52.2994L205.715 52.4074L205.697 52.5097L205.682 52.6063L205.668 52.6971L205.656 52.7821L205.646 52.8612L205.638 52.9343L205.63 53.0014L205.624 53.0625L205.619 53.1174L205.616 53.1662L205.613 53.2089L205.61 53.2453L205.609 53.2755L205.608 53.2995L205.608 53.3172L205.607 53.3286L205.607 53.3338L205.607 53.3341Z" stroke="black"/>
<mask id="path-25-inside-3" fill="white">
<path fill-rule="evenodd" clip-rule="evenodd" d="M319.308 104.151L319.308 104.151L319.308 104.151ZM319.308 104.151L319.308 11.4119L319.308 104.151ZM319.308 11.4119L226.569 11.4119L319.308 11.4119ZM226.569 11.4119L226.569 11.4122L226.569 11.4119ZM226.569 11.4122C226.569 62.4491 267.795 103.857 318.763 104.15L226.569 11.4122ZM319.308 104.151C319.307 155.369 277.787 196.89 226.568 196.89L226.568 104.258C226.51 155.427 185.012 196.89 133.829 196.89L133.829 104.15L226.024 104.15C175.056 103.857 133.829 62.4491 133.829 11.4122L133.829 11.4119L226.568 11.4119L226.568 104.15L226.568 104.15L226.569 104.15L318.763 104.15"/>
</mask>
<path d="M319.308 104.151L319.308 104.651L319.808 104.651L319.808 104.151L319.308 104.151ZM319.308 11.4119L319.808 11.4119L319.808 10.9119L319.308 10.9119L319.308 11.4119ZM226.569 11.4119L226.569 10.9119L226.069 10.9119L226.069 11.4119L226.569 11.4119ZM226.569 11.4122L226.069 11.4122L226.069 11.6185L226.214 11.7647L226.569 11.4122ZM318.763 104.15L318.409 104.502L318.555 104.649L318.762 104.65L318.763 104.15ZM319.308 104.651L319.308 104.651L319.308 103.651L319.308 103.651L319.308 104.651ZM319.808 104.151L319.808 11.4119L318.808 11.4119L318.808 104.151L319.808 104.151ZM319.308 10.9119L226.569 10.9119L226.569 11.9119L319.308 11.9119L319.308 10.9119ZM226.069 11.4119L226.069 11.4122L227.069 11.4122L227.069 11.4119L226.069 11.4119ZM226.214 11.7647L318.409 104.502L319.118 103.797L226.923 11.0597L226.214 11.7647ZM318.762 104.65L319.306 104.651L319.309 103.651L318.765 103.65L318.762 104.65ZM319.308 104.151L319.308 105.151L320.308 105.151L320.308 104.151L319.308 104.151ZM319.308 11.4119L320.308 11.4119L320.308 10.4119L319.308 10.4119L319.308 11.4119ZM226.569 11.4119L226.569 10.4119L225.569 10.4119L225.569 11.4119L226.569 11.4119ZM318.763 104.15L318.763 105.15L318.769 103.15L318.763 104.15ZM226.568 196.89L225.568 196.89L225.568 197.89L226.568 197.89L226.568 196.89ZM226.568 104.258L227.568 104.258L225.568 104.257L226.568 104.258ZM133.829 196.89L132.829 196.89L132.829 197.89L133.829 197.89L133.829 196.89ZM133.829 104.15L133.829 103.15L132.829 103.15L132.829 104.15L133.829 104.15ZM226.024 104.15L226.024 105.15L226.03 103.15L226.024 104.15ZM133.829 11.4119L133.829 10.4119L132.829 10.4119L132.829 11.4119L133.829 11.4119ZM226.568 11.4119L227.568 11.4119L227.568 10.4119L226.568 10.4119L226.568 11.4119ZM226.568 104.15L225.568 104.15L225.568 105.214L226.631 105.148L226.568 104.15ZM226.568 104.15L226.692 103.158L226.6 103.146L226.506 103.152L226.568 104.15ZM226.569 104.15L226.444 105.142L226.506 105.15L226.569 105.15L226.569 104.15ZM319.308 105.151L319.308 105.151L319.308 103.151L319.308 103.151L319.308 105.151ZM320.308 104.151L320.308 11.4119L318.308 11.4119L318.308 104.151L320.308 104.151ZM319.308 10.4119L226.569 10.4119L226.569 12.4119L319.308 12.4119L319.308 10.4119ZM225.569 11.4119L225.569 11.4122L227.569 11.4122L227.569 11.4119L225.569 11.4119ZM225.569 11.4122C225.569 62.9995 267.24 104.854 318.758 105.15L318.769 103.15C268.351 102.86 227.569 61.8987 227.569 11.4122L225.569 11.4122ZM318.308 104.151C318.307 154.817 277.234 195.89 226.568 195.89L226.568 197.89C278.339 197.89 320.307 155.922 320.308 104.151L318.308 104.151ZM227.568 196.89L227.568 104.258L225.568 104.258L225.568 196.89L227.568 196.89ZM225.568 104.257C225.511 154.874 184.46 195.89 133.829 195.89L133.829 197.89C185.564 197.89 227.51 155.98 227.568 104.259L225.568 104.257ZM134.829 196.89L134.829 104.15L132.829 104.15L132.829 196.89L134.829 196.89ZM133.829 105.15L226.024 105.15L226.024 103.15L133.829 103.15L133.829 105.15ZM226.03 103.15C175.612 102.86 134.829 61.8987 134.829 11.4122L132.829 11.4122C132.829 62.9994 174.501 104.854 226.018 105.15L226.03 103.15ZM134.829 11.4122L134.829 11.4119L132.829 11.4119L132.829 11.4122L134.829 11.4122ZM133.829 12.4119L226.568 12.4119L226.568 10.4119L133.829 10.4119L133.829 12.4119ZM225.568 11.4119L225.568 104.15L227.568 104.15L227.568 11.4119L225.568 11.4119ZM226.631 105.148L226.631 105.148L226.506 103.152L226.506 103.152L226.631 105.148ZM226.444 105.142L226.444 105.142L226.693 103.158L226.692 103.158L226.444 105.142ZM226.569 105.15L318.763 105.15L318.763 103.15L226.569 103.15L226.569 105.15Z" fill="black" mask="url(#path-25-inside-3)"/>
<mask id="path-27-inside-4" fill="white">
<path fill-rule="evenodd" clip-rule="evenodd" d="M411.729 196.891L411.729 196.891C462.948 196.891 504.469 155.37 504.469 104.151C504.469 52.9329 462.948 11.4122 411.729 11.4121L411.729 11.4121L411.729 104.151C411.729 52.9329 370.208 11.4121 318.99 11.4121L318.99 104.151C318.99 52.9329 277.469 11.4121 226.25 11.4121L226.25 196.891C277.469 196.891 318.99 155.37 318.99 104.151L318.99 196.891C370.208 196.891 411.729 155.37 411.729 104.151L411.729 196.891Z"/>
</mask>
<path d="M411.729 196.891L410.729 196.891L410.729 197.891L411.729 197.891L411.729 196.891ZM411.729 11.4121L411.729 10.4121L411.729 11.4121ZM411.729 11.4121L411.729 10.4121L410.729 10.4121L410.729 11.4121L411.729 11.4121ZM318.99 11.4121L318.99 10.4121L317.99 10.4121L317.99 11.4121L318.99 11.4121ZM226.25 11.4121L226.25 10.4121L225.25 10.4121L225.25 11.4121L226.25 11.4121ZM226.25 196.891L225.25 196.891L225.25 197.891L226.25 197.891L226.25 196.891ZM318.99 196.891L317.99 196.891L317.99 197.891L318.99 197.891L318.99 196.891ZM411.729 195.891L411.729 195.891L411.729 197.891L411.729 197.891L411.729 195.891ZM503.469 104.151C503.469 154.818 462.395 195.891 411.729 195.891L411.729 197.891C463.5 197.891 505.469 155.922 505.469 104.151L503.469 104.151ZM411.729 12.4121C462.395 12.4122 503.469 53.4852 503.469 104.151L505.469 104.151C505.469 52.3806 463.5 10.4122 411.729 10.4121L411.729 12.4121ZM411.729 12.4121L411.729 12.4121L411.729 10.4121L411.729 10.4121L411.729 12.4121ZM412.729 104.151L412.729 11.4121L410.729 11.4121L410.729 104.151L412.729 104.151ZM412.729 104.151C412.729 52.3806 370.761 10.4121 318.99 10.4121L318.99 12.4121C369.656 12.4121 410.729 53.4851 410.729 104.151L412.729 104.151ZM317.99 11.4121L317.99 104.151L319.99 104.151L319.99 11.4121L317.99 11.4121ZM319.99 104.151C319.99 52.3806 278.021 10.4121 226.25 10.4121L226.25 12.4121C276.917 12.4121 317.99 53.4852 317.99 104.151L319.99 104.151ZM225.25 11.4121L225.25 196.891L227.25 196.891L227.25 11.4121L225.25 11.4121ZM226.25 197.891C278.021 197.891 319.99 155.922 319.99 104.151L317.99 104.151C317.99 154.817 276.917 195.891 226.25 195.891L226.25 197.891ZM317.99 104.151L317.99 196.891L319.99 196.891L319.99 104.151L317.99 104.151ZM318.99 197.891C370.761 197.891 412.729 155.922 412.729 104.151L410.729 104.151C410.729 154.817 369.656 195.891 318.99 195.891L318.99 197.891ZM412.729 196.891L412.729 104.151L410.729 104.151L410.729 196.891L412.729 196.891Z" fill="black" mask="url(#path-27-inside-4)"/>
<defs>
<linearGradient id="paint0_linear" x1="365.694" y1="381.936" x2="365.694" y2="185.658" gradientUnits="userSpaceOnUse">
<stop stop-color="#D4FC79"/>
<stop offset="1" stop-color="#96E6A1"/>
</linearGradient>
<linearGradient id="paint1_linear" x1="180.215" y1="196.457" x2="180.215" y2="392.732" gradientUnits="userSpaceOnUse">
<stop stop-color="#FFD465"/>
<stop offset="1" stop-color="#FDF185"/>
</linearGradient>
<linearGradient id="paint2_linear" x1="180.184" y1="196.891" x2="180.184" y2="0.612821" gradientUnits="userSpaceOnUse">
<stop stop-color="#D4FC79"/>
<stop offset="1" stop-color="#96E6A1"/>
</linearGradient>
<linearGradient id="paint3_linear" x1="365.662" y1="11.4109" x2="365.662" y2="207.688" gradientUnits="userSpaceOnUse">
<stop stop-color="#FFD465"/>
<stop offset="1" stop-color="#FDF185"/>
</linearGradient>
</defs>
</svg>
