<svg width="517" height="423" viewBox="0 0 517 423" fill="none" xmlns="http://www.w3.org/2000/svg">
<path fill-rule="evenodd" clip-rule="evenodd" d="M377.491 319.042H377.686C377.562 320.566 377.496 322.1 377.491 323.643V319.042ZM377.491 396.087V324.08C377.668 372.553 436.815 411.811 509.751 411.811C512.183 411.811 514.599 411.767 516.998 411.681V411.811H460.227V411.812H320.72V319.043H320.916C320.786 320.638 320.721 322.245 320.721 323.862C320.721 353.774 343.177 380.199 377.491 396.087ZM452.845 411.811C452.89 411.811 452.936 411.811 452.981 411.811C453.027 411.811 453.072 411.811 453.117 411.811H452.845Z" fill="#00FF00"/>
<path fill-rule="evenodd" clip-rule="evenodd" d="M448.431 133.564H448.236C448.365 135.16 448.431 136.766 448.431 138.383C448.431 186.956 389.216 226.333 316.17 226.333C313.739 226.333 311.323 226.289 308.924 226.203V226.333H365.692V226.333H505.2V138.524C505.129 168.378 482.69 194.744 448.431 210.608V133.564ZM373.051 226.333C373.014 226.333 372.977 226.333 372.939 226.333C372.902 226.333 372.865 226.333 372.828 226.333H373.051ZM505.2 133.565H505.005C505.131 135.114 505.196 136.673 505.2 138.242V133.565Z" fill="url(#paint0_linear)"/>
<path d="M396.682 127.86C397.768 130.147 400.227 131.737 403.912 132.575C407.591 133.412 412.403 133.478 418.034 132.789C429.29 131.411 443.7 127.032 458.583 119.966C473.466 112.899 485.967 104.5 494.149 96.6482C498.242 92.7203 501.233 88.9493 502.909 85.5699C504.589 82.1841 504.911 79.2733 503.826 76.9867C502.74 74.7001 500.28 73.1102 496.595 72.2715C492.917 71.4345 488.104 71.3689 482.473 72.058C471.217 73.4356 456.808 77.8144 441.924 84.8812C427.041 91.9479 414.54 100.347 406.358 108.199C402.265 112.126 399.274 115.897 397.598 119.277C395.919 122.663 395.596 125.573 396.682 127.86Z" stroke="black"/>
<path d="M396.682 116.105C397.768 118.391 400.227 119.981 403.912 120.82C407.591 121.657 412.403 121.722 418.034 121.033C429.29 119.656 443.7 115.277 458.583 108.21C473.466 101.143 485.967 92.7445 494.149 84.8926C498.242 80.9647 501.233 77.1937 502.909 73.8144C504.589 70.4285 504.911 67.5177 503.826 65.2312C502.74 62.9446 500.28 61.3546 496.595 60.516C492.917 59.6789 488.104 59.6133 482.473 60.3024C471.217 61.68 456.808 66.0589 441.924 73.1256C427.041 80.1923 414.54 88.5912 406.358 96.4431C402.265 100.371 399.274 104.142 397.598 107.521C395.919 110.907 395.596 113.818 396.682 116.105Z" stroke="black"/>
<path d="M396.682 104.349C397.768 106.636 400.227 108.225 403.912 109.064C407.591 109.901 412.403 109.967 418.034 109.278C429.29 107.9 443.7 103.521 458.583 96.4545C473.466 89.3877 485.967 80.9889 494.149 73.137C498.242 69.2091 501.233 65.4381 502.909 62.0588C504.589 58.6729 504.911 55.7622 503.826 53.4756C502.74 51.189 500.28 49.5991 496.595 48.7604C492.917 47.9233 488.104 47.8577 482.473 48.5468C471.217 49.9244 456.808 54.3033 441.924 61.37C427.041 68.4368 414.54 76.8356 406.358 84.6875C402.265 88.6154 399.274 92.3864 397.598 95.7657C395.919 99.1516 395.596 102.062 396.682 104.349Z" stroke="black"/>
<path d="M396.682 92.5931C397.768 94.8797 400.227 96.4696 403.912 97.3083C407.591 98.1454 412.403 98.211 418.034 97.5219C429.29 96.1443 443.7 91.7654 458.583 84.6987C473.466 77.6319 485.967 69.2331 494.149 61.3812C498.242 57.4533 501.233 53.6823 502.909 50.303C504.589 46.9171 504.911 44.0064 503.826 41.7198C502.74 39.4332 500.28 37.8433 496.595 37.0046C492.917 36.1676 488.104 36.1019 482.473 36.791C471.217 38.1686 456.808 42.5475 441.924 49.6142C427.041 56.681 414.54 65.0798 406.358 72.9317C402.265 76.8596 399.274 80.6306 397.598 84.0099C395.919 87.3958 395.596 90.3066 396.682 92.5931Z" stroke="black"/>
<path d="M396.682 80.8373C397.768 83.1238 400.227 84.7138 403.912 85.5524C407.591 86.3895 412.403 86.4551 418.034 85.766C429.29 84.3884 443.7 80.0096 458.583 72.9428C473.466 65.8761 485.967 57.4773 494.149 49.6254C498.242 45.6975 501.233 41.9265 502.909 38.5471C504.589 35.1613 504.911 32.2505 503.826 29.9639C502.74 27.6773 500.28 26.0874 496.595 25.2487C492.917 24.4117 488.104 24.3461 482.473 25.0352C471.217 26.4128 456.808 30.7916 441.924 37.8584C427.041 44.9251 414.54 53.3239 406.358 61.1758C402.265 65.1037 399.274 68.8747 397.598 72.2541C395.919 75.6399 395.596 78.5507 396.682 80.8373Z" stroke="black"/>
<path d="M396.682 69.0817C397.768 71.3683 400.227 72.9582 403.912 73.7969C407.591 74.6339 412.403 74.6996 418.034 74.0104C429.29 72.6329 443.7 68.254 458.583 61.1873C473.466 54.1205 485.967 45.7217 494.149 37.8698C498.242 33.9419 501.233 30.1709 502.909 26.7916C504.589 23.4057 504.911 20.4949 503.826 18.2084C502.74 15.9218 500.28 14.3319 496.595 13.4932C492.917 12.6561 488.104 12.5905 482.473 13.2796C471.217 14.6572 456.808 19.0361 441.924 26.1028C427.041 33.1696 414.54 41.5684 406.358 49.4203C402.265 53.3481 399.274 57.1191 397.598 60.4985C395.919 63.8844 395.596 66.7951 396.682 69.0817Z" stroke="black"/>
<path fill-rule="evenodd" clip-rule="evenodd" d="M325.436 103.922L325.438 103.924L325.444 103.931L325.455 103.943L325.47 103.959L325.489 103.98L325.512 104.005L325.539 104.036L325.57 104.071L325.604 104.112L325.642 104.158L325.683 104.209L325.728 104.265L325.775 104.327L325.826 104.393L325.88 104.465L325.936 104.543L325.996 104.626L326.057 104.714L326.122 104.808L326.188 104.907L326.257 105.012L326.328 105.122L326.4 105.238L326.475 105.36L326.551 105.486L326.629 105.619L326.708 105.757L326.788 105.9L326.869 106.049L326.952 106.203L327.035 106.363L327.119 106.528L327.203 106.699L327.288 106.874L327.374 107.056L327.459 107.242L327.545 107.433L327.63 107.63L327.716 107.831L327.801 108.038L327.885 108.249L327.969 108.466L328.052 108.687L328.135 108.912L328.217 109.143L328.297 109.377L328.376 109.617L328.455 109.86L328.531 110.108L328.607 110.36L328.68 110.616L328.752 110.875L328.822 111.139L328.891 111.406L328.957 111.677L329.021 111.951L329.084 112.229L329.144 112.509L329.201 112.793L329.256 113.08L329.309 113.369L329.359 113.661L329.407 113.956L329.452 114.252L329.494 114.552L329.534 114.853L329.571 115.156L329.604 115.461L329.635 115.767L329.663 116.075L329.688 116.385L329.71 116.695L329.729 117.007L329.745 117.319L329.757 117.632L329.767 117.946L329.773 118.26L329.776 118.575L329.777 118.889L329.774 119.203L329.767 119.517L329.758 119.831L329.746 120.144L329.73 120.457L329.712 120.769L329.69 121.079L329.665 121.389L329.638 121.697L329.607 122.003L329.573 122.308L329.537 122.612L329.498 122.913L329.456 123.212L329.411 123.51L329.363 123.804L329.313 124.096L329.261 124.386L329.206 124.673L329.148 124.957L329.088 125.238L329.026 125.516L328.962 125.79L328.896 126.061L328.828 126.329L328.758 126.592L328.686 126.852L328.612 127.109L328.537 127.361L328.461 127.609L328.383 127.853L328.303 128.092L328.223 128.327L328.141 128.558L328.059 128.784L327.976 129.006L327.892 129.222L327.807 129.434L327.722 129.641L327.637 129.843L327.552 130.04L327.466 130.232L327.381 130.418L327.295 130.6L327.21 130.776L327.126 130.947L327.042 131.113L326.958 131.273L326.876 131.428L326.794 131.577L326.714 131.721L326.635 131.859L326.557 131.992L326.481 132.119L326.406 132.241L326.333 132.357L326.262 132.468L326.194 132.573L326.127 132.673L326.062 132.767L326 132.856L325.941 132.939L325.884 133.017L325.83 133.09L325.779 133.157L325.731 133.219L325.687 133.275L325.645 133.327L325.607 133.373L325.572 133.414L325.541 133.45L325.514 133.481L325.491 133.507L325.472 133.528L325.456 133.545L325.445 133.557L325.438 133.564L325.436 133.566L325.437 133.565L325.444 133.558L325.455 133.548L325.471 133.533L325.491 133.514L325.516 133.492L325.547 133.465L325.582 133.435L325.622 133.401L325.668 133.363L325.718 133.322L325.774 133.278L325.835 133.231L325.901 133.18L325.973 133.127L326.05 133.07L326.132 133.011L326.22 132.95L326.314 132.886L326.413 132.819L326.517 132.751L326.627 132.68L326.742 132.608L326.863 132.533L326.99 132.457L327.122 132.38L327.259 132.301L327.402 132.221L327.55 132.139L327.704 132.057L327.864 131.974L328.028 131.89L328.198 131.805L328.374 131.72L328.554 131.635L328.74 131.55L328.931 131.464L329.127 131.379L329.328 131.293L329.535 131.208L329.746 131.124L329.962 131.04L330.182 130.956L330.408 130.874L330.638 130.792L330.872 130.711L331.111 130.632L331.354 130.554L331.601 130.477L331.853 130.401L332.109 130.328L332.368 130.255L332.631 130.185L332.898 130.117L333.169 130.05L333.443 129.986L333.72 129.923L334 129.863L334.284 129.805L334.57 129.75L334.859 129.697L335.151 129.646L335.445 129.599L335.742 129.553L336.041 129.511L336.342 129.471L336.645 129.434L336.95 129.4L337.256 129.369L337.564 129.341L337.874 129.316L338.184 129.294L338.495 129.275L338.808 129.259L339.121 129.246L339.435 129.236L339.749 129.229L340.063 129.226L340.377 129.225L340.692 129.228L341.006 129.234L341.32 129.243L341.633 129.255L341.945 129.271L342.257 129.289L342.568 129.31L342.877 129.335L343.186 129.362L343.492 129.393L343.798 129.426L344.101 129.462L344.403 129.501L344.702 129.543L344.999 129.588L345.294 129.635L345.587 129.685L345.877 129.737L346.164 129.792L346.448 129.849L346.729 129.909L347.007 129.971L347.282 130.034L347.553 130.101L347.821 130.169L348.085 130.238L348.345 130.31L348.602 130.384L348.854 130.459L349.103 130.535L349.347 130.613L349.587 130.692L349.822 130.773L350.053 130.854L350.28 130.936L350.502 131.02L350.719 131.103L350.931 131.188L351.138 131.273L351.341 131.358L351.538 131.444L351.73 131.529L351.917 131.615L352.099 131.7L352.276 131.785L352.447 131.87L352.613 131.954L352.774 132.037L352.929 132.12L353.079 132.201L353.223 132.282L353.362 132.361L353.495 132.439L353.623 132.515L353.745 132.59L353.862 132.663L353.973 132.734L354.079 132.803L354.179 132.87L354.273 132.935L354.363 132.997L354.446 133.056L354.525 133.113L354.598 133.168L354.665 133.219L354.728 133.267L354.785 133.312L354.836 133.354L354.883 133.392L354.924 133.427L354.961 133.458L354.992 133.486L355.019 133.509L355.04 133.529L355.057 133.545L355.069 133.556L355.077 133.563L355.08 133.566L355.078 133.565L355.072 133.559L355.062 133.548L355.048 133.533L355.03 133.513L355.007 133.488L354.981 133.458L354.951 133.423L354.917 133.383L354.88 133.338L354.839 133.288L354.795 133.233L354.748 133.172L354.698 133.106L354.644 133.035L354.588 132.958L354.529 132.876L354.468 132.789L354.404 132.696L354.338 132.598L354.27 132.494L354.199 132.384L354.127 132.269L354.053 132.149L353.977 132.023L353.899 131.891L353.821 131.754L353.74 131.612L353.659 131.464L353.577 131.31L353.494 131.151L353.41 130.987L353.326 130.817L353.241 130.642L353.155 130.462L353.07 130.277L352.984 130.086L352.899 129.891L352.813 129.69L352.728 129.484L352.644 129.273L352.56 129.058L352.476 128.838L352.394 128.613L352.312 128.383L352.231 128.149L352.152 127.91L352.073 127.667L351.996 127.42L351.921 127.169L351.847 126.914L351.775 126.655L351.704 126.392L351.635 126.125L351.569 125.855L351.504 125.581L351.442 125.304L351.381 125.024L351.323 124.741L351.268 124.455L351.215 124.166L351.164 123.874L351.116 123.58L351.07 123.284L351.028 122.985L350.988 122.684L350.951 122.381L350.916 122.076L350.885 121.77L350.857 121.462L350.831 121.153L350.809 120.843L350.789 120.531L350.773 120.219L350.76 119.906L350.75 119.592L350.743 119.278L350.739 118.964L350.739 118.65L350.741 118.335L350.747 118.021L350.756 117.707L350.768 117.394L350.783 117.081L350.801 116.77L350.822 116.459L350.846 116.149L350.873 115.841L350.904 115.534L350.937 115.229L350.973 114.925L351.011 114.623L351.053 114.324L351.097 114.026L351.144 113.731L351.194 113.438L351.246 113.148L351.301 112.861L351.358 112.577L351.417 112.295L351.479 112.017L351.543 111.742L351.609 111.47L351.677 111.202L351.746 110.938L351.818 110.677L351.891 110.421L351.966 110.168L352.042 109.919L352.12 109.674L352.199 109.434L352.28 109.198L352.361 108.967L352.443 108.74L352.526 108.518L352.61 108.3L352.695 108.088L352.78 107.88L352.865 107.677L352.95 107.48L353.036 107.287L353.121 107.099L353.207 106.917L353.292 106.74L353.376 106.568L353.461 106.402L353.544 106.241L353.627 106.085L353.708 105.935L353.789 105.79L353.868 105.651L353.946 105.518L354.023 105.389L354.098 105.267L354.171 105.149L354.242 105.038L354.311 104.932L354.378 104.831L354.443 104.736L354.505 104.646L354.565 104.562L354.622 104.483L354.677 104.41L354.728 104.342L354.777 104.279L354.822 104.222L354.864 104.17L354.903 104.123L354.938 104.081L354.969 104.044L354.997 104.012L355.021 103.985L355.041 103.963L355.057 103.946L355.069 103.933L355.077 103.926L355.08 103.922L355.079 103.923L355.073 103.929L355.063 103.939L355.048 103.953L355.028 103.971L355.003 103.993L354.974 104.019L354.94 104.049L354.9 104.082L354.856 104.119L354.806 104.159L354.751 104.203L354.691 104.25L354.625 104.3L354.554 104.353L354.478 104.409L354.397 104.468L354.31 104.529L354.217 104.593L354.119 104.659L354.016 104.727L353.907 104.797L353.792 104.869L353.672 104.943L353.546 105.019L353.415 105.096L353.279 105.175L353.137 105.255L352.989 105.336L352.836 105.418L352.678 105.502L352.514 105.585L352.345 105.67L352.17 105.755L351.99 105.84L351.805 105.925L351.615 106.011L351.42 106.096L351.219 106.182L351.014 106.267L350.804 106.352L350.589 106.436L350.369 106.519L350.144 106.602L349.915 106.684L349.681 106.764L349.443 106.844L349.2 106.923L348.954 107L348.703 107.075L348.448 107.149L348.189 107.222L347.926 107.292L347.66 107.361L347.39 107.428L347.117 107.493L346.84 107.556L346.56 107.616L346.277 107.674L345.991 107.73L345.702 107.783L345.411 107.834L345.117 107.883L344.821 107.928L344.522 107.971L344.221 108.011L343.919 108.049L343.614 108.083L343.308 108.115L343 108.143L342.691 108.169L342.381 108.192L342.07 108.211L341.757 108.228L341.444 108.241L341.131 108.251L340.817 108.258L340.503 108.263L340.188 108.263L339.874 108.261L339.56 108.256L339.246 108.247L338.932 108.235L338.62 108.221L338.308 108.203L337.997 108.182L337.687 108.158L337.379 108.131L337.072 108.101L336.766 108.068L336.463 108.032L336.161 107.994L335.861 107.952L335.563 107.908L335.268 107.861L334.975 107.812L334.685 107.76L334.397 107.706L334.113 107.649L333.831 107.59L333.553 107.528L333.277 107.464L333.005 107.399L332.737 107.331L332.472 107.261L332.211 107.19L331.954 107.117L331.701 107.042L331.452 106.966L331.207 106.888L330.967 106.809L330.73 106.729L330.499 106.648L330.271 106.565L330.049 106.482L329.831 106.399L329.618 106.314L329.41 106.229L329.207 106.144L329.009 106.059L328.816 105.973L328.628 105.888L328.445 105.802L328.268 105.717L328.095 105.632L327.929 105.548L327.767 105.465L327.611 105.382L327.46 105.3L327.315 105.22L327.176 105.14L327.041 105.062L326.913 104.985L326.79 104.91L326.672 104.837L326.56 104.766L326.453 104.696L326.352 104.629L326.257 104.564L326.167 104.502L326.082 104.442L326.003 104.384L325.929 104.33L325.861 104.278L325.798 104.229L325.74 104.184L325.687 104.141L325.64 104.102L325.597 104.067L325.56 104.035L325.528 104.007L325.501 103.983L325.478 103.962L325.461 103.946L325.448 103.934L325.44 103.926L325.436 103.922L325.436 103.922Z" stroke="black"/>
<path fill-rule="evenodd" clip-rule="evenodd" d="M463.276 340.004L463.28 340.004L463.289 340.004L463.305 340.005L463.327 340.005L463.355 340.007L463.389 340.009L463.43 340.011L463.477 340.015L463.53 340.019L463.589 340.025L463.654 340.032L463.725 340.04L463.803 340.05L463.886 340.061L463.975 340.074L464.069 340.089L464.17 340.106L464.276 340.124L464.388 340.145L464.505 340.168L464.628 340.194L464.756 340.222L464.889 340.252L465.028 340.286L465.171 340.322L465.32 340.36L465.473 340.402L465.631 340.447L465.794 340.494L465.962 340.545L466.133 340.599L466.31 340.657L466.49 340.717L466.674 340.782L466.863 340.849L467.055 340.92L467.251 340.995L467.45 341.074L467.653 341.156L467.859 341.242L468.068 341.332L468.281 341.425L468.496 341.523L468.714 341.624L468.934 341.729L469.157 341.838L469.383 341.951L469.61 342.068L469.839 342.189L470.071 342.314L470.304 342.443L470.538 342.576L470.774 342.712L471.012 342.853L471.25 342.997L471.489 343.146L471.73 343.298L471.97 343.454L472.212 343.614L472.453 343.778L472.695 343.945L472.937 344.116L473.179 344.29L473.421 344.469L473.663 344.65L473.904 344.835L474.144 345.024L474.383 345.215L474.622 345.41L474.859 345.608L475.096 345.81L475.331 346.014L475.565 346.221L475.797 346.43L476.027 346.643L476.256 346.858L476.482 347.076L476.707 347.295L476.929 347.518L477.149 347.742L477.367 347.969L477.582 348.197L477.795 348.427L478.005 348.659L478.212 348.893L478.417 349.128L478.618 349.364L478.816 349.601L479.011 349.84L479.203 350.079L479.392 350.32L479.577 350.56L479.759 350.802L479.938 351.044L480.113 351.286L480.284 351.528L480.451 351.77L480.615 352.011L480.776 352.253L480.932 352.494L481.084 352.734L481.233 352.973L481.378 353.212L481.519 353.449L481.656 353.685L481.789 353.92L481.918 354.153L482.043 354.384L482.165 354.614L482.282 354.842L482.395 355.067L482.505 355.29L482.61 355.511L482.712 355.729L482.809 355.945L482.903 356.157L482.993 356.367L483.08 356.573L483.162 356.776L483.241 356.976L483.316 357.172L483.387 357.365L483.455 357.553L483.52 357.738L483.581 357.919L483.639 358.095L483.693 358.267L483.744 358.435L483.792 358.598L483.837 358.757L483.879 358.91L483.918 359.059L483.954 359.203L483.987 359.342L484.018 359.476L484.046 359.604L484.072 359.728L484.095 359.845L484.116 359.957L484.135 360.064L484.152 360.165L484.167 360.26L484.18 360.35L484.192 360.433L484.201 360.511L484.21 360.583L484.217 360.648L484.223 360.708L484.227 360.761L484.231 360.809L484.233 360.85L484.235 360.885L484.237 360.914L484.238 360.936L484.238 360.952L484.238 360.962L484.238 360.966L484.238 360.963L484.238 360.954L484.239 360.939L484.239 360.918L484.241 360.89L484.242 360.856L484.245 360.816L484.249 360.769L484.253 360.717L484.259 360.658L484.265 360.593L484.273 360.523L484.283 360.446L484.294 360.363L484.307 360.275L484.322 360.181L484.338 360.081L484.357 359.975L484.378 359.863L484.401 359.747L484.426 359.624L484.454 359.497L484.484 359.364L484.517 359.226L484.553 359.083L484.591 358.934L484.633 358.781L484.677 358.624L484.724 358.461L484.775 358.294L484.829 358.123L484.886 357.947L484.946 357.767L485.01 357.583L485.078 357.395L485.149 357.203L485.223 357.007L485.301 356.808L485.383 356.606L485.469 356.4L485.558 356.191L485.652 355.979L485.749 355.764L485.85 355.546L485.955 355.326L486.063 355.103L486.176 354.878L486.293 354.65L486.413 354.421L486.538 354.19L486.666 353.957L486.799 353.723L486.935 353.487L487.076 353.25L487.22 353.011L487.368 352.772L487.52 352.532L487.676 352.291L487.835 352.05L487.998 351.808L488.166 351.566L488.336 351.324L488.51 351.082L488.688 350.84L488.87 350.599L489.054 350.358L489.243 350.118L489.434 349.878L489.629 349.639L489.827 349.402L490.027 349.165L490.231 348.93L490.438 348.696L490.648 348.464L490.86 348.234L491.075 348.005L491.292 347.778L491.512 347.553L491.734 347.331L491.958 347.11L492.185 346.892L492.413 346.677L492.643 346.464L492.875 346.254L493.108 346.046L493.343 345.842L493.579 345.64L493.816 345.442L494.055 345.246L494.294 345.054L494.534 344.865L494.775 344.68L495.017 344.497L495.258 344.319L495.5 344.143L495.742 343.972L495.984 343.804L496.226 343.64L496.467 343.479L496.708 343.323L496.949 343.17L497.188 343.021L497.427 342.876L497.664 342.734L497.9 342.597L498.135 342.464L498.369 342.334L498.6 342.209L498.83 342.087L499.058 341.97L499.283 341.856L499.507 341.746L499.728 341.64L499.946 341.539L500.162 341.441L500.374 341.346L500.584 341.256L500.791 341.169L500.994 341.087L501.194 341.008L501.391 340.932L501.583 340.86L501.772 340.792L501.957 340.727L502.138 340.666L502.315 340.608L502.488 340.553L502.656 340.502L502.819 340.454L502.978 340.409L503.132 340.367L503.282 340.328L503.426 340.291L503.565 340.258L503.699 340.227L503.828 340.198L503.952 340.172L504.07 340.149L504.183 340.128L504.29 340.108L504.391 340.091L504.487 340.076L504.577 340.063L504.661 340.051L504.739 340.042L504.811 340.033L504.877 340.026L504.937 340.02L504.991 340.015L505.039 340.012L505.081 340.009L505.116 340.007L505.145 340.006L505.168 340.005L505.185 340.004L505.196 340.004L505.2 340.004L505.198 340.004L505.189 340.004L505.174 340.004L505.153 340.003L505.126 340.002L505.093 340L505.053 339.997L505.007 339.994L504.955 339.99L504.897 339.984L504.833 339.978L504.763 339.97L504.686 339.96L504.604 339.949L504.516 339.936L504.422 339.922L504.323 339.905L504.217 339.887L504.107 339.866L503.99 339.844L503.868 339.818L503.741 339.791L503.609 339.761L503.471 339.728L503.328 339.693L503.18 339.654L503.028 339.613L502.87 339.569L502.708 339.522L502.542 339.471L502.371 339.418L502.195 339.361L502.015 339.301L501.832 339.237L501.644 339.17L501.452 339.099L501.257 339.025L501.058 338.947L500.856 338.866L500.65 338.78L500.441 338.691L500.23 338.598L500.015 338.501L499.797 338.401L499.577 338.296L499.355 338.188L499.13 338.075L498.903 337.959L498.673 337.839L498.442 337.714L498.21 337.586L497.975 337.454L497.74 337.318L497.503 337.178L497.264 337.034L497.025 336.886L496.785 336.735L496.544 336.579L496.303 336.42L496.061 336.257L495.819 336.09L495.577 335.92L495.335 335.746L495.094 335.568L494.852 335.387L494.611 335.203L494.371 335.015L494.131 334.824L493.892 334.629L493.655 334.432L493.418 334.231L493.183 334.027L492.949 333.821L492.717 333.611L492.486 333.399L492.257 333.185L492.03 332.967L491.805 332.748L491.582 332.526L491.362 332.302L491.144 332.076L490.928 331.848L490.715 331.618L490.505 331.386L490.297 331.153L490.092 330.918L489.89 330.682L489.691 330.445L489.496 330.206L489.303 329.967L489.114 329.727L488.928 329.486L488.746 329.245L488.567 329.003L488.391 328.761L488.219 328.519L488.051 328.277L487.887 328.035L487.726 327.794L487.569 327.553L487.416 327.313L487.267 327.073L487.121 326.834L486.98 326.597L486.842 326.361L486.708 326.126L486.578 325.892L486.453 325.66L486.331 325.431L486.213 325.203L486.099 324.977L485.989 324.753L485.883 324.532L485.781 324.314L485.682 324.098L485.588 323.885L485.497 323.675L485.41 323.468L485.327 323.264L485.248 323.064L485.172 322.867L485.1 322.674L485.031 322.485L484.966 322.299L484.905 322.118L484.847 321.941L484.792 321.768L484.74 321.6L484.692 321.436L484.646 321.276L484.604 321.122L484.565 320.972L484.528 320.827L484.494 320.688L484.463 320.553L484.434 320.424L484.408 320.3L484.385 320.181L484.363 320.068L484.344 319.961L484.327 319.859L484.311 319.763L484.298 319.672L484.286 319.588L484.276 319.509L484.268 319.437L484.261 319.37L484.255 319.309L484.25 319.255L484.246 319.207L484.243 319.165L484.241 319.129L484.24 319.099L484.239 319.075L484.238 319.058L484.238 319.047L484.238 319.043L484.238 319.044L484.238 319.052L484.238 319.066L484.237 319.087L484.236 319.114L484.234 319.147L484.232 319.186L484.228 319.231L484.224 319.283L484.219 319.34L484.212 319.404L484.204 319.474L484.195 319.55L484.184 319.631L484.171 319.719L484.157 319.812L484.141 319.911L484.123 320.016L484.102 320.127L484.08 320.243L484.055 320.364L484.027 320.491L483.997 320.623L483.965 320.76L483.93 320.902L483.892 321.05L483.851 321.202L483.807 321.359L483.76 321.521L483.71 321.687L483.656 321.858L483.6 322.033L483.54 322.212L483.476 322.396L483.41 322.583L483.339 322.774L483.265 322.969L483.188 323.168L483.106 323.37L483.021 323.575L482.932 323.784L482.84 323.996L482.743 324.21L482.643 324.427L482.539 324.647L482.43 324.87L482.318 325.094L482.202 325.321L482.082 325.55L481.958 325.781L481.831 326.014L481.699 326.248L481.563 326.484L481.423 326.721L481.28 326.959L481.132 327.198L480.981 327.438L480.826 327.679L480.667 327.92L480.504 328.162L480.338 328.404L480.168 328.646L479.994 328.888L479.816 329.129L479.636 329.371L479.451 329.612L479.264 329.852L479.073 330.092L478.879 330.331L478.681 330.569L478.481 330.805L478.278 331.041L478.071 331.275L477.862 331.507L477.65 331.738L477.436 331.967L477.219 332.194L477 332.419L476.778 332.642L476.554 332.863L476.328 333.081L476.1 333.297L475.87 333.51L475.639 333.721L475.405 333.929L475.171 334.134L474.935 334.336L474.698 334.535L474.459 334.731L474.22 334.924L473.98 335.113L473.739 335.299L473.498 335.482L473.256 335.661L473.015 335.837L472.773 336.009L472.531 336.178L472.289 336.342L472.047 336.504L471.806 336.661L471.566 336.814L471.326 336.964L471.087 337.11L470.85 337.252L470.613 337.39L470.378 337.524L470.145 337.654L469.913 337.78L469.683 337.902L469.455 338.02L469.229 338.134L469.005 338.245L468.784 338.351L468.565 338.454L468.349 338.552L468.136 338.647L467.925 338.738L467.718 338.825L467.514 338.909L467.314 338.988L467.117 339.064L466.923 339.137L466.734 339.205L466.548 339.271L466.366 339.333L466.189 339.391L466.016 339.446L465.847 339.498L465.683 339.547L465.523 339.592L465.368 339.635L465.218 339.675L465.073 339.711L464.933 339.745L464.798 339.777L464.668 339.806L464.544 339.832L464.425 339.856L464.311 339.877L464.203 339.897L464.101 339.914L464.004 339.93L463.913 339.943L463.828 339.955L463.749 339.965L463.676 339.974L463.609 339.981L463.548 339.987L463.493 339.992L463.444 339.996L463.402 339.999L463.365 340.001L463.335 340.002L463.311 340.003L463.293 340.004L463.282 340.004L463.277 340.004L463.276 340.004Z" stroke="black"/>
<mask id="path-11-inside-1" fill="white">
<path fill-rule="evenodd" clip-rule="evenodd" d="M412.459 226.304V226.303V226.304ZM412.459 226.303L505.2 226.303L412.459 226.303ZM505.2 226.303L505.2 319.043L505.2 226.303ZM505.2 319.043H505.199H505.2ZM505.199 319.043C454.206 319.043 412.825 277.887 412.462 226.979L505.199 319.043ZM412.459 226.304C361.241 226.304 319.721 267.825 319.721 319.043L412.353 319.043C361.184 319.101 319.721 360.599 319.721 411.782H412.462L412.462 319.719C412.825 370.626 454.206 411.782 505.199 411.782H505.2L505.2 319.043L412.462 319.043L412.462 319.043L412.462 319.043V226.979"/>
</mask>
<path d="M412.459 226.303H411.959V225.803L412.459 225.803V226.303ZM505.2 226.303L505.2 225.803H505.7L505.7 226.303L505.2 226.303ZM505.2 319.043H505.7V319.543H505.2V319.043ZM505.199 319.043V319.543H504.992L504.846 319.398L505.199 319.043ZM412.462 226.979L412.109 227.334L411.962 227.188L411.962 226.981L412.462 226.979ZM411.959 226.304V226.303H412.959V226.304H411.959ZM412.459 225.803L505.2 225.803L505.2 226.803L412.459 226.803V225.803ZM505.7 226.303L505.7 319.043H504.7L504.7 226.303L505.7 226.303ZM505.2 319.543H505.199V318.543H505.2V319.543ZM504.846 319.398L412.109 227.334L412.814 226.624L505.551 318.688L504.846 319.398ZM411.962 226.981L411.959 226.305L412.959 226.302L412.962 226.978L411.962 226.981ZM412.459 226.303H411.459V225.303L412.459 225.303V226.303ZM505.2 226.303L505.2 225.303H506.2L506.2 226.303L505.2 226.303ZM505.2 319.043H506.2V320.043H505.2V319.043ZM412.462 226.979H411.462L413.462 226.972L412.462 226.979ZM319.721 319.043V320.043H318.721V319.043H319.721ZM412.353 319.043V318.043L412.354 320.043L412.353 319.043ZM319.721 411.782V412.782H318.721V411.782H319.721ZM412.462 411.782H413.462V412.782H412.462V411.782ZM412.462 319.719H411.462L413.462 319.711L412.462 319.719ZM505.2 411.782H506.2V412.782H505.2V411.782ZM505.2 319.043L505.2 318.043H506.2L506.2 319.043H505.2ZM412.462 319.043V320.043H411.419L411.463 319.001L412.462 319.043ZM412.462 319.043L413.454 318.919L413.464 319.001L413.461 319.084L412.462 319.043ZM412.462 319.043L411.469 319.167L411.462 319.105V319.043H412.462ZM411.459 226.304V226.303H413.459V226.304H411.459ZM412.459 225.303L505.2 225.303L505.2 227.303L412.459 227.303V225.303ZM506.2 226.303L506.2 319.043H504.2L504.2 226.303L506.2 226.303ZM505.2 320.043H505.199V318.043H505.2V320.043ZM505.199 320.043C453.656 320.043 411.829 278.443 411.462 226.986L413.462 226.972C413.821 277.33 454.755 318.043 505.199 318.043V320.043ZM412.459 227.304C361.794 227.304 320.721 268.377 320.721 319.043H318.721C318.721 267.272 360.689 225.304 412.459 225.304L412.459 227.304ZM319.721 318.043L412.353 318.043V320.043L319.721 320.043V318.043ZM412.354 320.043C361.737 320.1 320.721 361.151 320.721 411.782H318.721C318.721 360.047 360.631 318.102 412.352 318.043L412.354 320.043ZM319.721 410.782H412.462V412.782H319.721V410.782ZM411.462 411.782L411.462 319.719H413.462L413.462 411.782H411.462ZM413.462 319.711C413.821 370.07 454.755 410.782 505.199 410.782V412.782C453.656 412.782 411.829 371.182 411.462 319.726L413.462 319.711ZM505.199 410.782H505.2V412.782H505.199V410.782ZM504.2 411.782L504.2 319.043H506.2L506.2 411.782H504.2ZM505.2 320.043L412.462 320.043V318.043L505.2 318.043L505.2 320.043ZM411.463 319.001L411.463 319.001L413.461 319.084L413.461 319.085L411.463 319.001ZM411.469 319.167L411.469 319.167L413.454 318.919L413.454 318.919L411.469 319.167ZM411.462 319.043V226.979H413.462V319.043H411.462Z" fill="black" mask="url(#path-11-inside-1)"/>
<mask id="path-13-inside-2" fill="white">
<path fill-rule="evenodd" clip-rule="evenodd" d="M319.72 133.882L319.72 133.882C319.72 82.6635 361.24 41.1427 412.459 41.1427C463.677 41.1427 505.198 82.6635 505.198 133.882L505.198 133.882L412.46 133.882C463.678 133.882 505.199 175.403 505.199 226.621L412.46 226.621C463.678 226.621 505.199 268.142 505.199 319.361L319.721 319.361C319.721 268.142 361.241 226.621 412.46 226.621L319.721 226.621C319.721 175.403 361.241 133.882 412.46 133.882L319.72 133.882Z"/>
</mask>
<path d="M319.72 133.882L318.72 133.882L319.72 133.882ZM319.72 133.882L319.72 134.882L318.72 134.882L318.72 133.882L319.72 133.882ZM505.198 133.882L506.198 133.882L506.198 134.882L505.198 134.882L505.198 133.882ZM412.46 133.882L412.46 134.882L412.46 133.882ZM505.199 226.621L506.199 226.621L506.199 227.621L505.199 227.621L505.199 226.621ZM505.199 319.361L506.199 319.361L506.199 320.361L505.199 320.361L505.199 319.361ZM319.721 319.361L319.721 320.361L318.721 320.361L318.721 319.361L319.721 319.361ZM319.721 226.621L319.721 227.621L318.721 227.621L318.721 226.621L319.721 226.621ZM320.72 133.882L320.72 133.882L318.72 133.882L318.72 133.882L320.72 133.882ZM412.459 42.1427C361.793 42.1427 320.72 83.2157 320.72 133.882L318.72 133.882C318.72 82.1112 360.688 40.1427 412.459 40.1427L412.459 42.1427ZM504.198 133.882C504.198 83.2157 463.125 42.1427 412.459 42.1427L412.459 40.1427C464.23 40.1427 506.198 82.1112 506.198 133.882L504.198 133.882ZM504.198 133.882L504.198 133.882L506.198 133.882L506.198 133.882L504.198 133.882ZM412.46 132.882L505.198 132.882L505.198 134.882L412.46 134.882L412.46 132.882ZM412.46 132.882C464.231 132.882 506.199 174.851 506.199 226.621L504.199 226.621C504.199 175.955 463.126 134.882 412.46 134.882L412.46 132.882ZM505.199 227.621L412.46 227.621L412.46 225.621L505.199 225.621L505.199 227.621ZM412.46 225.621C464.231 225.621 506.199 267.59 506.199 319.361L504.199 319.361C504.199 268.694 463.126 227.621 412.46 227.621L412.46 225.621ZM505.199 320.361L319.721 320.361L319.721 318.361L505.199 318.361L505.199 320.361ZM318.721 319.361C318.721 267.59 360.689 225.621 412.46 225.621L412.46 227.621C361.794 227.621 320.721 268.694 320.721 319.361L318.721 319.361ZM412.46 227.621L319.721 227.621L319.721 225.621L412.46 225.621L412.46 227.621ZM318.721 226.621C318.721 174.851 360.689 132.882 412.46 132.882L412.46 134.882C361.794 134.882 320.721 175.955 320.721 226.621L318.721 226.621ZM319.72 132.882L412.46 132.882L412.46 134.882L319.72 134.882L319.72 132.882Z" fill="black" mask="url(#path-13-inside-2)"/>
<path fill-rule="evenodd" clip-rule="evenodd" d="M318.553 282.936L318.553 283.132C320.148 283.002 321.755 282.936 323.372 282.936C371.945 282.936 411.321 342.151 411.321 415.197C411.321 417.628 411.278 420.044 411.191 422.443L411.321 422.443L411.321 365.673L411.322 365.673L411.322 226.166L318.553 226.166L318.553 226.361C320.149 226.231 321.755 226.166 323.372 226.166C353.284 226.166 379.709 248.622 395.598 282.936L318.553 282.936ZM411.321 358.279C411.321 358.328 411.321 358.377 411.321 358.426C411.321 358.475 411.321 358.524 411.321 358.573L411.321 358.279Z" fill="#00FF00"/>
<path fill-rule="evenodd" clip-rule="evenodd" d="M134.074 354.876L134.074 354.681C135.598 354.805 137.133 354.871 138.677 354.876L134.074 354.876ZM211.118 354.876L139.11 354.876C187.583 354.701 226.843 295.553 226.843 222.616C226.843 220.184 226.799 217.768 226.713 215.369L226.843 215.369L226.843 272.138L226.843 272.138L226.843 411.645L134.075 411.645L134.075 411.449C135.67 411.579 137.277 411.645 138.893 411.645C168.805 411.645 195.23 389.189 211.118 354.876ZM226.843 279.569C226.843 279.507 226.843 279.446 226.843 279.384C226.843 279.323 226.843 279.261 226.843 279.2L226.843 279.569Z" fill="url(#paint1_linear)"/>
<path d="M128.37 303.129C130.657 304.215 132.247 306.674 133.085 310.359C133.923 314.037 133.988 318.85 133.299 324.481C131.921 335.737 127.543 350.147 120.476 365.03C113.409 379.913 105.01 392.414 97.1584 400.596C93.2305 404.689 89.4595 407.68 86.0801 409.356C82.6943 411.036 79.7835 411.358 77.4969 410.272C75.2104 409.187 73.6204 406.727 72.7818 403.042C71.9447 399.364 71.8791 394.551 72.5682 388.92C73.9458 377.664 78.3246 363.254 85.3914 348.371C92.4581 333.488 100.857 320.987 108.709 312.805C112.637 308.712 116.408 305.721 119.787 304.045C123.173 302.366 126.084 302.043 128.37 303.129Z" stroke="black"/>
<path d="M116.615 303.129C118.901 304.215 120.491 306.674 121.33 310.359C122.167 314.037 122.233 318.85 121.544 324.481C120.166 335.737 115.787 350.147 108.72 365.03C101.654 379.913 93.2549 392.414 85.403 400.596C81.4751 404.689 77.7041 407.68 74.3248 409.356C70.9389 411.036 68.0281 411.358 65.7416 410.272C63.455 409.187 61.8651 406.727 61.0264 403.042C60.1893 399.364 60.1237 394.551 60.8128 388.92C62.1904 377.664 66.5693 363.254 73.636 348.371C80.7028 333.488 89.1016 320.987 96.9535 312.805C100.881 308.712 104.652 305.721 108.032 304.045C111.418 302.366 114.328 302.043 116.615 303.129Z" stroke="black"/>
<path d="M104.859 303.129C107.146 304.215 108.736 306.674 109.574 310.359C110.411 314.037 110.477 318.85 109.788 324.481C108.41 335.737 104.031 350.147 96.9646 365.03C89.8979 379.913 81.4991 392.414 73.6471 400.596C69.7193 404.689 65.9483 407.68 62.5689 409.356C59.1831 411.036 56.2723 411.358 53.9857 410.272C51.6991 409.187 50.1092 406.727 49.2705 403.042C48.4335 399.364 48.3679 394.551 49.057 388.92C50.4345 377.664 54.8134 363.254 61.8802 348.371C68.9469 333.488 77.3457 320.987 85.1976 312.805C89.1255 308.712 92.8965 305.721 96.2759 304.045C99.6617 302.366 102.572 302.043 104.859 303.129Z" stroke="black"/>
<path d="M93.1032 303.129C95.3898 304.215 96.9797 306.674 97.8184 310.359C98.6554 314.037 98.721 318.85 98.0319 324.481C96.6544 335.737 92.2755 350.147 85.2088 365.03C78.142 379.913 69.7432 392.414 61.8913 400.596C57.9634 404.689 54.1924 407.68 50.813 409.356C47.4272 411.036 44.5164 411.358 42.2298 410.272C39.9433 409.187 38.3533 406.727 37.5147 403.042C36.6776 399.364 36.612 394.551 37.3011 388.92C38.6787 377.664 43.0575 363.254 50.1243 348.371C57.191 333.488 65.5898 320.987 73.4418 312.805C77.3696 308.712 81.1406 305.721 84.52 304.045C87.9058 302.366 90.8166 302.043 93.1032 303.129Z" stroke="black"/>
<path d="M81.3473 303.129C83.6339 304.215 85.2239 306.674 86.0625 310.359C86.8996 314.037 86.9652 318.85 86.2761 324.481C84.8985 335.737 80.5196 350.147 73.4529 365.03C66.3862 379.913 57.9873 392.414 50.1354 400.596C46.2076 404.689 42.4366 407.68 39.0572 409.356C35.6713 411.036 32.7606 411.358 30.474 410.272C28.1874 409.187 26.5975 406.727 25.7588 403.042C24.9218 399.364 24.8561 394.551 25.5453 388.92C26.9228 377.664 31.3017 363.254 38.3684 348.371C45.4352 333.488 53.834 320.987 61.6859 312.805C65.6138 308.712 69.3848 305.721 72.7641 304.045C76.15 302.366 79.0608 302.043 81.3473 303.129Z" stroke="black"/>
<path d="M69.592 303.129C71.8785 304.215 73.4685 306.674 74.3071 310.359C75.1442 314.037 75.2098 318.85 74.5207 324.481C73.1431 335.737 68.7643 350.147 61.6975 365.03C54.6308 379.913 46.232 392.414 38.3801 400.596C34.4522 404.689 30.6812 407.68 27.3018 409.356C23.916 411.036 21.0052 411.358 18.7186 410.272C16.432 409.187 14.8421 406.727 14.0034 403.042C13.1664 399.364 13.1008 394.551 13.7899 388.92C15.1675 377.664 19.5463 363.254 26.6131 348.371C33.6798 333.488 42.0786 320.987 49.9305 312.805C53.8584 308.712 57.6294 305.721 61.0088 304.045C64.3946 302.366 67.3054 302.043 69.592 303.129Z" stroke="black"/>
<path fill-rule="evenodd" clip-rule="evenodd" d="M104.432 231.881L104.434 231.884L104.441 231.89L104.453 231.901L104.469 231.916L104.49 231.935L104.515 231.958L104.546 231.985L104.582 232.016L104.622 232.05L104.668 232.088L104.719 232.129L104.775 232.173L104.837 232.221L104.903 232.272L104.975 232.326L105.053 232.382L105.136 232.441L105.224 232.503L105.318 232.567L105.417 232.634L105.522 232.703L105.632 232.773L105.748 232.846L105.87 232.921L105.997 232.997L106.129 233.074L106.267 233.153L106.41 233.234L106.559 233.315L106.713 233.397L106.873 233.481L107.038 233.565L107.209 233.649L107.385 233.734L107.566 233.82L107.752 233.905L107.943 233.991L108.14 234.076L108.341 234.161L108.548 234.246L108.759 234.331L108.976 234.415L109.197 234.498L109.422 234.581L109.653 234.662L109.887 234.743L110.127 234.822L110.37 234.9L110.618 234.977L110.87 235.052L111.126 235.126L111.385 235.198L111.649 235.268L111.916 235.337L112.187 235.403L112.461 235.467L112.739 235.529L113.019 235.589L113.303 235.647L113.59 235.702L113.879 235.755L114.171 235.805L114.466 235.853L114.763 235.898L115.062 235.94L115.363 235.98L115.666 236.016L115.971 236.05L116.277 236.081L116.586 236.109L116.895 236.134L117.205 236.156L117.517 236.175L117.829 236.19L118.143 236.203L118.456 236.213L118.77 236.219L119.085 236.222L119.399 236.222L119.713 236.219L120.028 236.213L120.341 236.204L120.654 236.191L120.967 236.176L121.279 236.157L121.589 236.136L121.899 236.111L122.207 236.083L122.513 236.053L122.819 236.019L123.122 235.983L123.423 235.943L123.722 235.901L124.02 235.857L124.314 235.809L124.607 235.759L124.896 235.706L125.183 235.651L125.467 235.594L125.748 235.534L126.026 235.472L126.3 235.408L126.571 235.342L126.839 235.274L127.102 235.204L127.363 235.132L127.619 235.058L127.871 234.983L128.119 234.906L128.363 234.828L128.602 234.749L128.838 234.669L129.068 234.587L129.294 234.505L129.516 234.422L129.732 234.338L129.944 234.253L130.151 234.168L130.353 234.083L130.55 233.997L130.742 233.912L130.929 233.826L131.11 233.741L131.286 233.656L131.457 233.571L131.623 233.487L131.783 233.404L131.938 233.322L132.087 233.24L132.231 233.16L132.369 233.081L132.502 233.003L132.629 232.927L132.751 232.852L132.867 232.779L132.978 232.708L133.083 232.639L133.183 232.573L133.277 232.508L133.366 232.446L133.449 232.387L133.527 232.33L133.6 232.276L133.667 232.225L133.729 232.177L133.786 232.132L133.837 232.091L133.883 232.053L133.924 232.018L133.96 231.987L133.991 231.96L134.017 231.937L134.039 231.917L134.055 231.902L134.067 231.891L134.074 231.884L134.077 231.881L134.075 231.883L134.068 231.89L134.058 231.901L134.043 231.916L134.025 231.937L134.002 231.962L133.975 231.992L133.945 232.028L133.911 232.068L133.873 232.113L133.832 232.164L133.788 232.22L133.741 232.281L133.69 232.347L133.637 232.419L133.58 232.496L133.521 232.578L133.46 232.666L133.396 232.759L133.329 232.858L133.261 232.963L133.19 233.073L133.118 233.188L133.043 233.309L132.967 233.435L132.89 233.567L132.811 233.705L132.731 233.848L132.649 233.996L132.567 234.15L132.484 234.309L132.4 234.474L132.315 234.644L132.23 234.819L132.145 235L132.06 235.186L131.974 235.377L131.889 235.573L131.803 235.774L131.718 235.98L131.634 236.191L131.55 236.407L131.466 236.628L131.384 236.853L131.302 237.083L131.221 237.318L131.142 237.557L131.064 237.8L130.987 238.047L130.912 238.299L130.838 238.554L130.766 238.814L130.695 239.077L130.627 239.344L130.56 239.614L130.496 239.888L130.433 240.166L130.373 240.446L130.315 240.729L130.26 241.016L130.207 241.305L130.157 241.597L130.109 241.891L130.063 242.188L130.021 242.487L129.981 242.788L129.944 243.091L129.91 243.396L129.879 243.702L129.851 244.01L129.826 244.319L129.804 244.63L129.785 244.941L129.769 245.254L129.756 245.567L129.746 245.88L129.739 246.194L129.736 246.509L129.735 246.823L129.738 247.137L129.744 247.452L129.753 247.765L129.765 248.079L129.781 248.391L129.799 248.703L129.82 249.014L129.845 249.323L129.872 249.631L129.903 249.938L129.936 250.243L129.972 250.547L130.011 250.848L130.053 251.148L130.098 251.445L130.145 251.74L130.195 252.032L130.247 252.322L130.302 252.609L130.359 252.894L130.419 253.175L130.481 253.453L130.545 253.727L130.611 253.999L130.679 254.267L130.749 254.531L130.82 254.791L130.894 255.048L130.969 255.3L131.045 255.548L131.123 255.793L131.202 256.033L131.283 256.268L131.364 256.499L131.446 256.726L131.53 256.947L131.613 257.164L131.698 257.377L131.783 257.584L131.868 257.786L131.954 257.984L132.039 258.176L132.125 258.363L132.21 258.545L132.295 258.721L132.38 258.893L132.464 259.059L132.547 259.219L132.63 259.375L132.711 259.524L132.792 259.669L132.871 259.807L132.949 259.941L133.025 260.068L133.1 260.191L133.173 260.307L133.244 260.419L133.313 260.524L133.38 260.624L133.445 260.719L133.507 260.808L133.566 260.892L133.623 260.97L133.678 261.043L133.729 261.111L133.777 261.173L133.822 261.23L133.864 261.282L133.902 261.329L133.937 261.37L133.968 261.407L133.996 261.438L134.019 261.464L134.039 261.486L134.055 261.503L134.066 261.515L134.074 261.523L134.076 261.526L134.075 261.524L134.069 261.518L134.058 261.508L134.043 261.494L134.023 261.475L133.998 261.453L133.968 261.427L133.933 261.397L133.893 261.363L133.848 261.326L133.798 261.285L133.743 261.241L133.682 261.194L133.616 261.143L133.545 261.09L133.469 261.034L133.386 260.975L133.299 260.914L133.206 260.85L133.108 260.784L133.004 260.715L132.894 260.645L132.779 260.573L132.659 260.498L132.533 260.422L132.401 260.345L132.264 260.266L132.122 260.186L131.974 260.105L131.82 260.023L131.661 259.94L131.497 259.856L131.327 259.771L131.153 259.686L130.972 259.601L130.787 259.516L130.596 259.43L130.401 259.344L130.2 259.259L129.994 259.174L129.783 259.089L129.568 259.005L129.348 258.922L129.123 258.839L128.893 258.758L128.659 258.677L128.42 258.597L128.178 258.519L127.93 258.442L127.679 258.367L127.424 258.293L127.165 258.22L126.902 258.15L126.635 258.081L126.365 258.015L126.091 257.95L125.814 257.887L125.534 257.827L125.251 257.769L124.965 257.713L124.676 257.66L124.384 257.61L124.09 257.562L123.794 257.516L123.495 257.473L123.194 257.433L122.891 257.396L122.586 257.362L122.28 257.331L121.972 257.302L121.663 257.277L121.353 257.255L121.041 257.235L120.729 257.219L120.416 257.206L120.102 257.196L119.788 257.189L119.474 257.185L119.16 257.184L118.845 257.187L118.531 257.193L118.217 257.201L117.904 257.213L117.592 257.228L117.28 257.246L116.969 257.268L116.659 257.292L116.351 257.319L116.044 257.349L115.739 257.382L115.435 257.418L115.133 257.457L114.834 257.499L114.536 257.543L114.241 257.59L113.949 257.64L113.658 257.692L113.371 257.747L113.087 257.804L112.805 257.863L112.527 257.925L112.252 257.989L111.981 258.054L111.712 258.122L111.448 258.192L111.187 258.264L110.931 258.337L110.678 258.412L110.429 258.488L110.184 258.566L109.944 258.645L109.708 258.725L109.477 258.807L109.25 258.889L109.028 258.972L108.811 259.056L108.598 259.14L108.39 259.225L108.187 259.311L107.99 259.396L107.797 259.482L107.61 259.567L107.427 259.652L107.25 259.738L107.078 259.822L106.912 259.906L106.751 259.99L106.595 260.072L106.445 260.154L106.301 260.235L106.161 260.314L106.028 260.392L105.899 260.468L105.777 260.543L105.66 260.616L105.548 260.688L105.442 260.757L105.341 260.824L105.246 260.889L105.156 260.951L105.072 261.011L104.993 261.068L104.92 261.123L104.852 261.174L104.789 261.222L104.732 261.268L104.68 261.31L104.633 261.348L104.591 261.384L104.554 261.415L104.522 261.443L104.495 261.467L104.473 261.487L104.456 261.503L104.444 261.515L104.436 261.522L104.432 261.526L104.433 261.524L104.439 261.519L104.449 261.508L104.463 261.493L104.481 261.474L104.503 261.449L104.529 261.42L104.559 261.385L104.592 261.346L104.629 261.301L104.67 261.252L104.713 261.197L104.76 261.136L104.81 261.071L104.863 261L104.919 260.924L104.978 260.842L105.039 260.755L105.103 260.663L105.169 260.565L105.237 260.461L105.307 260.352L105.379 260.238L105.454 260.118L105.529 259.992L105.607 259.861L105.685 259.725L105.765 259.582L105.846 259.435L105.929 259.282L106.012 259.123L106.095 258.96L106.18 258.79L106.265 258.616L106.35 258.436L106.435 258.251L106.521 258.061L106.607 257.866L106.692 257.665L106.777 257.46L106.862 257.25L106.946 257.034L107.029 256.814L107.112 256.59L107.194 256.361L107.275 256.127L107.354 255.889L107.433 255.646L107.51 255.399L107.585 255.149L107.659 254.894L107.732 254.635L107.802 254.372L107.871 254.106L107.938 253.836L108.003 253.563L108.066 253.286L108.126 253.006L108.184 252.723L108.24 252.437L108.293 252.148L108.344 251.857L108.393 251.563L108.438 251.266L108.481 250.968L108.521 250.667L108.559 250.364L108.593 250.06L108.625 249.754L108.653 249.446L108.679 249.137L108.702 248.827L108.721 248.515L108.738 248.203L108.751 247.89L108.761 247.577L108.769 247.263L108.773 246.948L108.773 246.634L108.771 246.32L108.766 246.005L108.757 245.692L108.746 245.378L108.731 245.066L108.713 244.754L108.692 244.443L108.668 244.133L108.641 243.825L108.611 243.518L108.578 243.212L108.543 242.908L108.504 242.607L108.462 242.307L108.418 242.009L108.372 241.714L108.322 241.421L108.27 241.131L108.216 240.843L108.159 240.558L108.1 240.277L108.038 239.998L107.975 239.723L107.909 239.451L107.841 239.183L107.771 238.918L107.7 238.657L107.627 238.4L107.552 238.147L107.476 237.898L107.398 237.653L107.319 237.412L107.239 237.176L107.158 236.944L107.075 236.717L106.992 236.495L106.909 236.277L106.824 236.064L106.739 235.856L106.654 235.653L106.569 235.454L106.483 235.261L106.398 235.073L106.312 234.891L106.227 234.713L106.142 234.541L106.058 234.374L105.975 234.213L105.892 234.057L105.81 233.906L105.73 233.761L105.65 233.621L105.572 233.487L105.496 233.359L105.421 233.235L105.347 233.118L105.276 233.006L105.206 232.899L105.139 232.798L105.074 232.703L105.012 232.612L104.952 232.528L104.894 232.449L104.84 232.375L104.788 232.306L104.739 232.243L104.694 232.185L104.651 232.133L104.612 232.085L104.577 232.043L104.545 232.006L104.517 231.974L104.493 231.946L104.472 231.924L104.456 231.906L104.444 231.894L104.436 231.885L104.432 231.882L104.432 231.881Z" stroke="black"/>
<path fill-rule="evenodd" clip-rule="evenodd" d="M340.514 369.722L340.514 369.725L340.514 369.735L340.515 369.75L340.516 369.772L340.517 369.801L340.519 369.835L340.521 369.876L340.525 369.923L340.529 369.976L340.535 370.035L340.542 370.1L340.55 370.171L340.56 370.248L340.571 370.331L340.584 370.42L340.599 370.515L340.616 370.616L340.635 370.722L340.655 370.833L340.679 370.951L340.704 371.073L340.732 371.202L340.763 371.335L340.796 371.473L340.832 371.617L340.87 371.765L340.912 371.919L340.957 372.077L341.004 372.24L341.055 372.407L341.109 372.579L341.167 372.755L341.227 372.935L341.292 373.12L341.359 373.308L341.431 373.5L341.505 373.696L341.584 373.896L341.666 374.098L341.752 374.305L341.842 374.514L341.935 374.726L342.033 374.941L342.134 375.159L342.239 375.38L342.348 375.603L342.461 375.828L342.578 376.056L342.699 376.285L342.824 376.516L342.953 376.749L343.086 376.984L343.222 377.22L343.363 377.457L343.508 377.696L343.656 377.935L343.808 378.175L343.964 378.416L344.124 378.657L344.288 378.899L344.455 379.141L344.626 379.383L344.801 379.625L344.979 379.867L345.16 380.108L345.345 380.349L345.534 380.589L345.726 380.829L345.921 381.067L346.119 381.305L346.32 381.541L346.524 381.776L346.731 382.01L346.941 382.242L347.153 382.473L347.368 382.701L347.586 382.928L347.806 383.152L348.028 383.375L348.252 383.595L348.479 383.813L348.707 384.028L348.937 384.241L349.169 384.451L349.403 384.658L349.638 384.862L349.874 385.063L350.112 385.262L350.35 385.457L350.59 385.649L350.83 385.838L351.071 386.023L351.312 386.205L351.554 386.383L351.796 386.558L352.038 386.729L352.28 386.897L352.521 387.061L352.763 387.221L353.004 387.377L353.244 387.53L353.483 387.679L353.722 387.824L353.959 387.964L354.195 388.102L354.43 388.235L354.663 388.364L354.895 388.489L355.124 388.61L355.352 388.727L355.577 388.841L355.8 388.95L356.021 389.056L356.239 389.157L356.455 389.255L356.667 389.349L356.877 389.439L357.083 389.525L357.286 389.608L357.486 389.686L357.682 389.762L357.875 389.833L358.063 389.901L358.248 389.965L358.429 390.027L358.605 390.084L358.777 390.139L358.945 390.19L359.108 390.238L359.267 390.282L359.421 390.324L359.57 390.363L359.713 390.399L359.852 390.433L359.986 390.464L360.115 390.492L360.238 390.517L360.355 390.541L360.468 390.562L360.574 390.581L360.675 390.598L360.77 390.613L360.86 390.626L360.943 390.637L361.021 390.647L361.093 390.655L361.158 390.662L361.218 390.668L361.271 390.673L361.319 390.676L361.36 390.679L361.395 390.681L361.424 390.682L361.446 390.683L361.462 390.684L361.472 390.684L361.476 390.684L361.473 390.684L361.464 390.684L361.449 390.684L361.428 390.685L361.4 390.686L361.366 390.688L361.326 390.691L361.279 390.694L361.227 390.699L361.168 390.704L361.104 390.711L361.033 390.719L360.956 390.729L360.874 390.74L360.785 390.753L360.691 390.767L360.591 390.784L360.485 390.802L360.374 390.823L360.257 390.846L360.135 390.871L360.007 390.899L359.874 390.93L359.736 390.963L359.593 390.998L359.445 391.037L359.292 391.078L359.134 391.122L358.971 391.17L358.804 391.221L358.633 391.274L358.457 391.331L358.277 391.392L358.093 391.456L357.905 391.523L357.713 391.594L357.518 391.669L357.318 391.747L357.116 391.829L356.91 391.915L356.701 392.004L356.489 392.097L356.274 392.194L356.056 392.295L355.836 392.4L355.613 392.509L355.388 392.622L355.161 392.738L354.931 392.859L354.7 392.983L354.467 393.112L354.233 393.244L353.997 393.381L353.76 393.521L353.521 393.665L353.282 393.813L353.042 393.965L352.801 394.121L352.56 394.281L352.318 394.444L352.076 394.611L351.834 394.782L351.592 394.956L351.35 395.134L351.109 395.315L350.868 395.5L350.628 395.688L350.388 395.88L350.149 396.074L349.912 396.272L349.675 396.473L349.44 396.677L349.206 396.884L348.974 397.093L348.744 397.305L348.515 397.52L348.288 397.738L348.063 397.957L347.841 398.18L347.621 398.404L347.403 398.63L347.187 398.858L346.974 399.088L346.764 399.32L346.557 399.554L346.352 399.788L346.15 400.025L345.952 400.262L345.756 400.5L345.564 400.74L345.375 400.98L345.19 401.221L345.007 401.462L344.829 401.704L344.654 401.946L344.482 402.188L344.314 402.43L344.15 402.672L343.99 402.913L343.833 403.154L343.68 403.394L343.531 403.634L343.386 403.872L343.245 404.11L343.107 404.346L342.974 404.581L342.844 404.814L342.719 405.046L342.597 405.275L342.48 405.503L342.366 405.729L342.256 405.952L342.151 406.173L342.049 406.391L341.951 406.607L341.857 406.82L341.766 407.03L341.68 407.236L341.597 407.44L341.518 407.64L341.442 407.836L341.37 408.029L341.302 408.218L341.237 408.403L341.176 408.584L341.118 408.761L341.064 408.933L341.012 409.101L340.964 409.265L340.919 409.424L340.877 409.578L340.838 409.727L340.801 409.872L340.768 410.011L340.737 410.145L340.708 410.274L340.683 410.397L340.659 410.516L340.638 410.628L340.619 410.735L340.602 410.837L340.586 410.932L340.573 411.022L340.562 411.106L340.552 411.184L340.543 411.257L340.536 411.323L340.53 411.383L340.526 411.437L340.522 411.485L340.519 411.526L340.517 411.562L340.516 411.591L340.515 411.614L340.514 411.631L340.514 411.641L340.514 411.645L340.514 411.643L340.514 411.635L340.514 411.62L340.513 411.599L340.512 411.572L340.51 411.538L340.508 411.499L340.504 411.453L340.5 411.401L340.494 411.343L340.488 411.278L340.48 411.208L340.47 411.132L340.459 411.05L340.446 410.962L340.432 410.868L340.416 410.768L340.397 410.663L340.377 410.552L340.354 410.436L340.329 410.314L340.301 410.187L340.271 410.054L340.238 409.917L340.203 409.774L340.164 409.626L340.123 409.473L340.079 409.316L340.032 409.154L339.982 408.987L339.928 408.816L339.871 408.641L339.811 408.461L339.747 408.277L339.68 408.09L339.609 407.898L339.535 407.703L339.457 407.504L339.376 407.302L339.29 407.096L339.201 406.887L339.108 406.675L339.011 406.46L338.911 406.243L338.806 406.023L338.698 405.8L338.585 405.575L338.469 405.348L338.349 405.119L338.225 404.888L338.096 404.655L337.964 404.421L337.828 404.185L337.688 403.948L337.544 403.71L337.396 403.471L337.245 403.231L337.089 402.99L336.93 402.749L336.767 402.507L336.6 402.265L336.43 402.023L336.256 401.781L336.078 401.539L335.897 401.298L335.713 401.057L335.525 400.816L335.334 400.577L335.139 400.338L334.942 400.1L334.741 399.864L334.537 399.628L334.331 399.394L334.122 399.162L333.909 398.931L333.695 398.703L333.478 398.476L333.258 398.251L333.036 398.028L332.812 397.807L332.586 397.589L332.358 397.374L332.128 397.161L331.896 396.95L331.663 396.742L331.428 396.538L331.192 396.336L330.955 396.137L330.717 395.941L330.477 395.749L330.237 395.56L329.996 395.374L329.755 395.191L329.513 395.012L329.271 394.837L329.029 394.665L328.787 394.497L328.546 394.332L328.304 394.172L328.063 394.015L327.823 393.861L327.583 393.712L327.345 393.567L327.107 393.425L326.871 393.287L326.636 393.154L326.402 393.024L326.171 392.898L325.941 392.776L325.713 392.658L325.487 392.544L325.263 392.434L325.042 392.328L324.824 392.226L324.608 392.128L324.395 392.033L324.185 391.943L323.978 391.856L323.774 391.773L323.574 391.693L323.377 391.618L323.184 391.546L322.995 391.477L322.81 391.412L322.628 391.35L322.451 391.292L322.278 391.237L322.11 391.186L321.946 391.137L321.787 391.092L321.632 391.05L321.482 391.01L321.338 390.974L321.198 390.94L321.063 390.909L320.934 390.88L320.81 390.854L320.691 390.83L320.578 390.809L320.471 390.79L320.369 390.772L320.273 390.757L320.183 390.744L320.098 390.732L320.019 390.722L319.947 390.713L319.88 390.706L319.82 390.7L319.765 390.695L319.717 390.692L319.675 390.689L319.639 390.687L319.609 390.685L319.586 390.684L319.568 390.684L319.557 390.684L319.553 390.684L319.554 390.684L319.562 390.684L319.577 390.683L319.597 390.683L319.624 390.681L319.657 390.68L319.696 390.677L319.741 390.674L319.793 390.67L319.85 390.664L319.914 390.658L319.984 390.65L320.06 390.641L320.141 390.63L320.229 390.617L320.322 390.603L320.422 390.586L320.526 390.568L320.637 390.548L320.753 390.525L320.874 390.5L321.001 390.473L321.133 390.443L321.27 390.41L321.413 390.375L321.56 390.337L321.712 390.296L321.869 390.252L322.031 390.205L322.197 390.155L322.368 390.102L322.543 390.045L322.722 389.985L322.906 389.922L323.093 389.855L323.285 389.785L323.48 389.711L323.678 389.633L323.88 389.552L324.086 389.467L324.294 389.378L324.506 389.285L324.72 389.189L324.938 389.088L325.157 388.984L325.38 388.876L325.605 388.764L325.832 388.648L326.061 388.528L326.291 388.404L326.524 388.276L326.758 388.144L326.994 388.009L327.231 387.869L327.469 387.725L327.708 387.578L327.948 387.426L328.189 387.271L328.43 387.112L328.672 386.95L328.914 386.783L329.156 386.613L329.398 386.439L329.64 386.262L329.881 386.081L330.122 385.897L330.363 385.709L330.602 385.518L330.841 385.324L331.079 385.127L331.316 384.927L331.551 384.723L331.785 384.517L332.017 384.308L332.248 384.096L332.477 383.881L332.704 383.664L332.929 383.445L333.152 383.223L333.373 382.999L333.591 382.774L333.807 382.546L334.021 382.316L334.231 382.084L334.439 381.851L334.644 381.616L334.846 381.38L335.045 381.143L335.241 380.905L335.434 380.666L335.623 380.426L335.81 380.185L335.992 379.944L336.172 379.702L336.347 379.46L336.519 379.218L336.688 378.976L336.853 378.734L337.014 378.493L337.171 378.252L337.324 378.011L337.474 377.772L337.62 377.533L337.762 377.295L337.9 377.059L338.034 376.824L338.164 376.59L338.29 376.359L338.412 376.128L338.53 375.9L338.645 375.674L338.755 375.451L338.861 375.229L338.964 375.011L339.062 374.794L339.157 374.581L339.248 374.371L339.335 374.164L339.419 373.96L339.498 373.759L339.574 373.562L339.647 373.369L339.716 373.179L339.781 372.994L339.843 372.812L339.901 372.635L339.956 372.461L340.008 372.293L340.057 372.128L340.103 371.969L340.145 371.814L340.185 371.664L340.222 371.518L340.256 371.378L340.287 371.243L340.316 371.114L340.342 370.989L340.366 370.87L340.388 370.757L340.407 370.649L340.424 370.546L340.44 370.45L340.453 370.359L340.465 370.274L340.475 370.195L340.484 370.122L340.491 370.055L340.497 369.994L340.502 369.939L340.506 369.89L340.509 369.847L340.511 369.811L340.513 369.781L340.513 369.757L340.514 369.739L340.514 369.728L340.514 369.722L340.514 369.722Z" stroke="black"/>
<mask id="path-25-inside-3" fill="white">
<path fill-rule="evenodd" clip-rule="evenodd" d="M226.814 318.905L226.813 318.905L226.814 318.905ZM226.813 318.905L226.813 411.644L226.813 318.905ZM226.813 411.644L319.553 411.644L226.813 411.644ZM319.553 411.644L319.553 411.644L319.553 411.644ZM319.553 411.644C319.553 360.607 278.326 319.199 227.358 318.906L319.553 411.644ZM226.814 318.905C226.814 267.687 268.335 226.167 319.553 226.167L319.553 318.798C319.611 267.629 361.109 226.167 412.292 226.167L412.292 318.906L320.097 318.906C371.065 319.199 412.292 360.607 412.292 411.644L412.292 411.644L319.553 411.644L319.553 318.906L319.553 318.906L319.553 318.906L227.358 318.906"/>
</mask>
<path d="M226.813 318.905L226.813 318.405L226.313 318.405L226.313 318.905L226.813 318.905ZM226.813 411.644L226.313 411.644L226.313 412.144L226.813 412.144V411.644ZM319.553 411.644L319.553 412.144L320.053 412.144L320.053 411.644L319.553 411.644ZM319.553 411.644L320.053 411.644L320.053 411.438L319.907 411.291L319.553 411.644ZM227.358 318.906L227.713 318.554L227.567 318.407L227.359 318.406L227.358 318.906ZM226.814 318.405L226.813 318.405L226.813 319.405L226.814 319.405L226.814 318.405ZM226.313 318.905L226.313 411.644L227.313 411.644L227.313 318.905L226.313 318.905ZM226.813 412.144L319.553 412.144L319.553 411.144L226.813 411.144V412.144ZM320.053 411.644L320.053 411.644L319.053 411.644L319.053 411.644L320.053 411.644ZM319.907 411.291L227.713 318.554L227.003 319.259L319.198 411.996L319.907 411.291ZM227.359 318.406L226.815 318.405L226.812 319.405L227.357 319.406L227.359 318.406ZM226.813 318.905L226.813 317.905L225.813 317.905L225.813 318.905L226.813 318.905ZM226.813 411.644L225.813 411.644L225.813 412.644L226.813 412.644V411.644ZM319.553 411.644L319.553 412.644L320.553 412.644L320.553 411.644L319.553 411.644ZM227.358 318.906L227.358 317.906L227.352 319.906L227.358 318.906ZM319.553 226.167L320.553 226.167L320.553 225.167L319.553 225.167L319.553 226.167ZM319.553 318.798L318.553 318.798L320.553 318.799L319.553 318.798ZM412.292 226.167L413.292 226.167L413.292 225.167L412.292 225.167L412.292 226.167ZM412.292 318.906L412.292 319.906L413.292 319.906L413.292 318.906L412.292 318.906ZM320.097 318.906L320.097 317.906L320.091 319.906L320.097 318.906ZM412.292 411.644L412.292 412.644L413.292 412.644L413.292 411.644L412.292 411.644ZM319.553 411.644L318.553 411.644L318.553 412.644L319.553 412.644L319.553 411.644ZM319.553 318.906L320.553 318.906L320.553 317.842L319.491 317.908L319.553 318.906ZM319.553 318.906L319.429 319.899L319.522 319.91L319.615 319.904L319.553 318.906ZM319.553 318.906L319.677 317.914L319.615 317.906L319.553 317.906L319.553 318.906ZM226.814 317.905L226.813 317.905L226.813 319.905L226.814 319.905L226.814 317.905ZM225.813 318.905L225.813 411.644L227.813 411.644L227.813 318.905L225.813 318.905ZM226.813 412.644L319.553 412.644L319.553 410.644L226.813 410.644V412.644ZM320.553 411.644L320.553 411.644L318.553 411.644L318.553 411.644L320.553 411.644ZM320.553 411.644C320.553 360.057 278.881 318.202 227.364 317.906L227.352 319.906C277.77 320.196 318.553 361.157 318.553 411.644L320.553 411.644ZM227.814 318.905C227.814 268.239 268.887 227.167 319.553 227.167L319.553 225.167C267.782 225.167 225.814 267.134 225.814 318.905L227.814 318.905ZM318.553 226.167L318.553 318.798L320.553 318.798L320.553 226.167L318.553 226.167ZM320.553 318.799C320.61 268.182 361.661 227.167 412.292 227.167L412.292 225.167C360.558 225.167 318.612 267.076 318.553 318.797L320.553 318.799ZM411.292 226.167L411.292 318.906L413.292 318.906L413.292 226.167L411.292 226.167ZM412.292 317.906L320.097 317.906L320.097 319.906L412.292 319.906L412.292 317.906ZM320.091 319.906C370.51 320.196 411.292 361.157 411.292 411.644L413.292 411.644C413.292 360.057 371.621 318.202 320.103 317.906L320.091 319.906ZM411.292 411.644L411.292 411.644L413.292 411.644L413.292 411.644L411.292 411.644ZM412.292 410.644L319.553 410.644L319.553 412.644L412.292 412.644L412.292 410.644ZM320.553 411.644L320.553 318.906L318.553 318.906L318.553 411.644L320.553 411.644ZM319.491 317.908L319.49 317.908L319.615 319.904L319.615 319.904L319.491 317.908ZM319.677 317.914L319.677 317.914L319.429 319.899L319.429 319.899L319.677 317.914ZM319.553 317.906L227.358 317.906L227.358 319.906L319.553 319.906L319.553 317.906Z" fill="black" mask="url(#path-25-inside-3)"/>
<mask id="path-27-inside-4" fill="white">
<path fill-rule="evenodd" clip-rule="evenodd" d="M134.392 226.166H134.392C83.1736 226.166 41.6528 267.686 41.6528 318.905C41.6528 370.123 83.1736 411.644 134.392 411.644H134.392V318.905C134.392 370.123 175.913 411.644 227.131 411.644V318.905C227.131 370.123 268.652 411.644 319.871 411.644V226.166C268.652 226.166 227.131 267.686 227.131 318.905V226.166C175.913 226.166 134.392 267.686 134.392 318.905V226.166Z"/>
</mask>
<path d="M134.392 226.166H135.392V225.166H134.392V226.166ZM134.392 411.644V412.644H135.392V411.644H134.392ZM227.131 411.644V412.644H228.131V411.644H227.131ZM319.871 411.644V412.644H320.871V411.644H319.871ZM319.871 226.166H320.871V225.166H319.871V226.166ZM227.131 226.166H228.131V225.166H227.131V226.166ZM134.392 227.166H134.392V225.166H134.392V227.166ZM42.6528 318.905C42.6528 268.239 83.7259 227.166 134.392 227.166V225.166C82.6213 225.166 40.6528 267.134 40.6528 318.905H42.6528ZM134.392 410.644C83.7259 410.644 42.6528 369.571 42.6528 318.905H40.6528C40.6528 370.676 82.6213 412.644 134.392 412.644V410.644ZM134.392 410.644H134.392V412.644H134.392V410.644ZM133.392 318.905V411.644H135.392V318.905H133.392ZM133.392 318.905C133.392 370.676 175.361 412.644 227.131 412.644V410.644C176.465 410.644 135.392 369.571 135.392 318.905H133.392ZM228.131 411.644V318.905H226.131V411.644H228.131ZM226.131 318.905C226.131 370.676 268.1 412.644 319.871 412.644V410.644C269.205 410.644 228.131 369.571 228.131 318.905H226.131ZM320.871 411.644V226.166H318.871V411.644H320.871ZM319.871 225.166C268.1 225.166 226.131 267.134 226.131 318.905H228.131C228.131 268.239 269.205 227.166 319.871 227.166V225.166ZM228.131 318.905V226.166H226.131V318.905H228.131ZM227.131 225.166C175.361 225.166 133.392 267.134 133.392 318.905H135.392C135.392 268.239 176.465 227.166 227.131 227.166V225.166ZM133.392 226.166V318.905H135.392V226.166H133.392Z" fill="black" mask="url(#path-27-inside-4)"/>
<defs>
<linearGradient id="paint0_linear" x1="505.2" y1="179.949" x2="308.924" y2="179.949" gradientUnits="userSpaceOnUse">
<stop stop-color="#0C3483"/>
<stop offset="1" stop-color="#A2B6DF"/>
<stop offset="1" stop-color="#6B8CCE"/>
</linearGradient>
<linearGradient id="paint1_linear" x1="180.459" y1="411.645" x2="180.459" y2="215.369" gradientUnits="userSpaceOnUse">
<stop stop-color="#0C3483"/>
<stop offset="1" stop-color="#A2B6DF"/>
<stop offset="1" stop-color="#6B8CCE"/>
</linearGradient>
</defs>
</svg>
