<svg width="393" height="546" viewBox="0 0 393 546" fill="none" xmlns="http://www.w3.org/2000/svg">
<path fill-rule="evenodd" clip-rule="evenodd" d="M325.431 226.302H325.237C325.36 224.779 325.426 223.245 325.431 221.702V226.302ZM325.431 149.257V221.265C325.254 172.792 266.107 133.534 193.171 133.534C190.74 133.534 188.323 133.577 185.924 133.664V133.534H242.695V133.533H382.202V226.302H382.006C382.136 224.706 382.202 223.1 382.202 221.483C382.202 191.571 359.745 165.146 325.431 149.257ZM250.078 133.534C250.032 133.534 249.987 133.534 249.941 133.534C249.896 133.534 249.85 133.534 249.805 133.534H250.078Z" fill="#00FF00"/>
<path fill-rule="evenodd" clip-rule="evenodd" d="M253.491 411.781H253.687C253.557 410.185 253.492 408.578 253.492 406.962C253.492 358.388 312.707 319.012 385.752 319.012C388.184 319.012 390.6 319.056 392.999 319.142V319.012H336.23V319.011H196.723V406.821C196.793 376.967 219.232 350.6 253.491 334.737V411.781ZM328.872 319.012C328.909 319.012 328.946 319.012 328.983 319.012C329.02 319.012 329.057 319.012 329.094 319.012H328.872ZM196.723 411.78H196.918C196.792 410.231 196.726 408.671 196.723 407.102V411.78Z" fill="url(#paint0_linear)"/>
<path d="M305.24 417.485C304.155 415.198 301.695 413.608 298.01 412.769C294.332 411.932 289.519 411.867 283.888 412.556C272.632 413.934 258.222 418.312 243.339 425.379C228.456 432.446 215.955 440.845 207.773 448.697C203.68 452.624 200.689 456.395 199.013 459.775C197.333 463.161 197.011 466.071 198.097 468.358C199.182 470.645 201.642 472.235 205.327 473.073C209.005 473.91 213.818 473.976 219.449 473.287C230.705 471.909 245.115 467.53 259.998 460.464C274.881 453.397 287.382 444.998 295.564 437.146C299.657 433.218 302.648 429.447 304.324 426.068C306.004 422.682 306.326 419.771 305.24 417.485Z" stroke="black"/>
<path d="M305.24 429.24C304.155 426.954 301.695 425.364 298.01 424.525C294.332 423.688 289.519 423.622 283.888 424.311C272.632 425.689 258.222 430.068 243.339 437.135C228.456 444.201 215.955 452.6 207.773 460.452C203.68 464.38 200.689 468.151 199.013 471.53C197.333 474.916 197.011 477.827 198.097 480.114C199.182 482.4 201.642 483.99 205.327 484.829C209.005 485.666 213.818 485.731 219.449 485.042C230.705 483.665 245.115 479.286 259.998 472.219C274.881 465.152 287.382 456.754 295.564 448.902C299.657 444.974 302.648 441.203 304.324 437.823C306.004 434.438 306.326 431.527 305.24 429.24Z" stroke="black"/>
<path d="M305.24 440.996C304.155 438.709 301.695 437.119 298.01 436.281C294.332 435.444 289.519 435.378 283.888 436.067C272.632 437.445 258.222 441.823 243.339 448.89C228.456 455.957 215.955 464.356 207.773 472.208C203.68 476.136 200.689 479.907 199.013 483.286C197.333 486.672 197.011 489.583 198.097 491.869C199.182 494.156 201.642 495.746 205.327 496.584C209.005 497.421 213.818 497.487 219.449 496.798C230.705 495.42 245.115 491.041 259.998 483.975C274.881 476.908 287.382 468.509 295.564 460.657C299.657 456.729 302.648 452.958 304.324 449.579C306.004 446.193 306.326 443.282 305.24 440.996Z" stroke="black"/>
<path d="M305.24 452.752C304.155 450.465 301.695 448.875 298.01 448.036C294.332 447.199 289.519 447.134 283.888 447.823C272.632 449.2 258.222 453.579 243.339 460.646C228.456 467.713 215.955 476.112 207.773 483.964C203.68 487.891 200.689 491.662 199.013 495.042C197.333 498.428 197.011 501.338 198.097 503.625C199.182 505.912 201.642 507.501 205.327 508.34C209.005 509.177 213.818 509.243 219.449 508.554C230.705 507.176 245.115 502.797 259.998 495.73C274.881 488.664 287.382 480.265 295.564 472.413C299.657 468.485 302.648 464.714 304.324 461.335C306.004 457.949 306.326 455.038 305.24 452.752Z" stroke="black"/>
<path d="M305.24 464.507C304.155 462.221 301.695 460.631 298.01 459.792C294.332 458.955 289.519 458.89 283.888 459.579C272.632 460.956 258.222 465.335 243.339 472.402C228.456 479.469 215.955 487.867 207.773 495.719C203.68 499.647 200.689 503.418 199.013 506.798C197.333 510.183 197.011 513.094 198.097 515.381C199.182 517.667 201.642 519.257 205.327 520.096C209.005 520.933 213.818 520.999 219.449 520.31C230.705 518.932 245.115 514.553 259.998 507.486C274.881 500.42 287.382 492.021 295.564 484.169C299.657 480.241 302.648 476.47 304.324 473.091C306.004 469.705 306.326 466.794 305.24 464.507Z" stroke="black"/>
<path d="M305.24 476.263C304.155 473.976 301.695 472.386 298.01 471.548C294.332 470.711 289.519 470.645 283.888 471.334C272.632 472.712 258.222 477.091 243.339 484.157C228.456 491.224 215.955 499.623 207.773 507.475C203.68 511.403 200.689 515.174 199.013 518.553C197.333 521.939 197.011 524.85 198.097 527.136C199.182 529.423 201.642 531.013 205.327 531.852C209.005 532.689 213.818 532.754 219.449 532.065C230.705 530.688 245.115 526.309 259.998 519.242C274.881 512.175 287.382 503.776 295.564 495.924C299.657 491.997 302.648 488.226 304.324 484.846C306.004 481.46 306.326 478.55 305.24 476.263Z" stroke="black"/>
<path fill-rule="evenodd" clip-rule="evenodd" d="M376.487 441.423L376.484 441.42L376.478 441.414L376.467 441.402L376.452 441.386L376.433 441.365L376.41 441.34L376.383 441.309L376.352 441.273L376.318 441.233L376.28 441.187L376.239 441.136L376.195 441.08L376.147 441.018L376.096 440.951L376.042 440.879L375.986 440.802L375.927 440.719L375.865 440.631L375.801 440.537L375.734 440.438L375.665 440.333L375.595 440.222L375.522 440.107L375.447 439.985L375.371 439.858L375.294 439.726L375.215 439.588L375.134 439.445L375.053 439.296L374.971 439.141L374.887 438.982L374.803 438.817L374.719 438.646L374.634 438.47L374.549 438.289L374.463 438.103L374.377 437.912L374.292 437.715L374.207 437.513L374.122 437.307L374.037 437.095L373.953 436.879L373.87 436.658L373.787 436.432L373.706 436.202L373.625 435.967L373.546 435.728L373.468 435.485L373.391 435.237L373.316 434.985L373.242 434.729L373.17 434.469L373.1 434.206L373.031 433.939L372.965 433.668L372.901 433.394L372.839 433.116L372.779 432.836L372.721 432.552L372.666 432.265L372.613 431.976L372.563 431.684L372.515 431.389L372.47 431.092L372.428 430.793L372.388 430.492L372.352 430.189L372.318 429.884L372.287 429.577L372.259 429.269L372.234 428.96L372.212 428.649L372.193 428.338L372.178 428.025L372.165 427.712L372.156 427.399L372.149 427.084L372.146 426.77L372.146 426.456L372.149 426.141L372.155 425.827L372.164 425.514L372.177 425.2L372.192 424.888L372.211 424.576L372.232 424.266L372.257 423.956L372.285 423.648L372.315 423.341L372.349 423.036L372.385 422.733L372.425 422.432L372.467 422.132L372.512 421.835L372.559 421.54L372.609 421.248L372.662 420.959L372.717 420.672L372.774 420.388L372.834 420.107L372.896 419.829L372.96 419.555L373.026 419.284L373.094 419.016L373.164 418.752L373.236 418.492L373.31 418.236L373.385 417.984L373.462 417.736L373.54 417.492L373.619 417.252L373.699 417.017L373.781 416.787L373.863 416.561L373.946 416.339L374.03 416.122L374.115 415.911L374.2 415.704L374.285 415.502L374.371 415.305L374.456 415.113L374.542 414.926L374.627 414.745L374.712 414.569L374.797 414.398L374.881 414.232L374.964 414.072L375.046 413.917L375.128 413.768L375.208 413.624L375.287 413.486L375.365 413.353L375.441 413.226L375.516 413.104L375.589 412.987L375.66 412.877L375.729 412.771L375.795 412.672L375.86 412.577L375.922 412.489L375.981 412.405L376.038 412.327L376.092 412.255L376.143 412.188L376.191 412.126L376.236 412.069L376.277 412.018L376.315 411.972L376.35 411.931L376.381 411.895L376.408 411.864L376.431 411.838L376.451 411.816L376.466 411.8L376.477 411.788L376.484 411.781L376.487 411.778L376.485 411.78L376.478 411.786L376.467 411.797L376.452 411.812L376.431 411.83L376.406 411.853L376.376 411.88L376.34 411.91L376.3 411.944L376.255 411.981L376.204 412.022L376.148 412.067L376.087 412.114L376.021 412.165L375.949 412.218L375.872 412.274L375.79 412.333L375.702 412.395L375.609 412.459L375.51 412.525L375.405 412.594L375.296 412.665L375.18 412.737L375.059 412.812L374.933 412.888L374.801 412.965L374.663 413.044L374.52 413.124L374.372 413.205L374.218 413.288L374.059 413.371L373.894 413.455L373.724 413.539L373.549 413.624L373.368 413.71L373.182 413.795L372.991 413.881L372.795 413.966L372.594 414.052L372.388 414.137L372.177 414.221L371.961 414.305L371.74 414.389L371.515 414.471L371.285 414.553L371.05 414.633L370.811 414.713L370.568 414.791L370.321 414.868L370.069 414.943L369.814 415.017L369.554 415.089L369.291 415.16L369.024 415.228L368.754 415.295L368.48 415.359L368.203 415.421L367.922 415.482L367.639 415.539L367.352 415.595L367.063 415.648L366.771 415.698L366.477 415.746L366.18 415.791L365.881 415.834L365.58 415.874L365.277 415.91L364.972 415.944L364.666 415.976L364.358 416.004L364.049 416.029L363.738 416.051L363.427 416.07L363.114 416.086L362.801 416.099L362.488 416.109L362.174 416.115L361.859 416.119L361.545 416.119L361.231 416.117L360.916 416.111L360.603 416.102L360.289 416.09L359.977 416.074L359.665 416.056L359.354 416.034L359.045 416.01L358.737 415.983L358.43 415.952L358.125 415.919L357.821 415.883L357.52 415.844L357.22 415.802L356.923 415.757L356.628 415.71L356.336 415.66L356.046 415.608L355.759 415.553L355.474 415.496L355.193 415.436L354.915 415.374L354.641 415.31L354.369 415.244L354.102 415.176L353.837 415.106L353.577 415.035L353.321 414.961L353.068 414.886L352.82 414.81L352.575 414.732L352.335 414.652L352.1 414.572L351.869 414.491L351.642 414.408L351.421 414.325L351.204 414.241L350.991 414.157L350.784 414.072L350.582 413.987L350.384 413.901L350.192 413.816L350.005 413.73L349.823 413.645L349.647 413.56L349.475 413.475L349.309 413.391L349.149 413.308L348.994 413.225L348.844 413.144L348.699 413.063L348.561 412.984L348.427 412.906L348.3 412.83L348.177 412.755L348.061 412.682L347.949 412.611L347.844 412.542L347.744 412.475L347.649 412.41L347.56 412.348L347.476 412.288L347.398 412.231L347.325 412.177L347.257 412.126L347.195 412.078L347.138 412.033L347.086 411.991L347.039 411.953L346.998 411.918L346.961 411.887L346.93 411.859L346.904 411.835L346.882 411.816L346.865 411.8L346.853 411.789L346.845 411.781L346.842 411.778L346.844 411.78L346.85 411.786L346.86 411.797L346.874 411.812L346.893 411.832L346.915 411.857L346.941 411.887L346.971 411.922L347.005 411.962L347.042 412.006L347.083 412.057L347.127 412.112L347.174 412.173L347.225 412.238L347.278 412.31L347.334 412.386L347.393 412.468L347.454 412.556L347.518 412.649L347.584 412.747L347.653 412.851L347.723 412.961L347.795 413.076L347.87 413.196L347.946 413.322L348.023 413.454L348.102 413.591L348.182 413.733L348.263 413.881L348.345 414.035L348.428 414.193L348.512 414.358L348.597 414.527L348.682 414.702L348.767 414.882L348.852 415.068L348.938 415.259L349.024 415.454L349.109 415.655L349.194 415.861L349.279 416.071L349.363 416.287L349.446 416.507L349.529 416.732L349.61 416.962L349.691 417.196L349.771 417.434L349.849 417.677L349.926 417.924L350.001 418.176L350.075 418.431L350.148 418.69L350.218 418.953L350.287 419.22L350.354 419.49L350.418 419.763L350.481 420.04L350.541 420.32L350.599 420.604L350.655 420.89L350.708 421.179L350.758 421.47L350.807 421.765L350.852 422.061L350.895 422.36L350.935 422.661L350.972 422.964L351.006 423.268L351.037 423.575L351.066 423.882L351.091 424.192L351.114 424.502L351.133 424.813L351.149 425.126L351.162 425.439L351.172 425.752L351.179 426.066L351.183 426.381L351.184 426.695L351.181 427.009L351.175 427.324L351.167 427.637L351.155 427.951L351.14 428.263L351.122 428.575L351.1 428.886L351.076 429.196L351.049 429.504L351.019 429.811L350.986 430.116L350.95 430.42L350.911 430.721L350.869 431.021L350.825 431.318L350.778 431.614L350.728 431.906L350.676 432.196L350.621 432.484L350.564 432.768L350.505 433.049L350.443 433.328L350.38 433.603L350.314 433.874L350.246 434.142L350.176 434.407L350.104 434.667L350.031 434.924L349.956 435.177L349.88 435.426L349.802 435.67L349.723 435.911L349.643 436.146L349.561 436.378L349.479 436.605L349.396 436.827L349.312 437.044L349.228 437.257L349.143 437.465L349.058 437.667L348.972 437.865L348.886 438.058L348.801 438.245L348.716 438.428L348.63 438.605L348.546 438.776L348.462 438.943L348.378 439.104L348.296 439.259L348.214 439.41L348.134 439.554L348.054 439.693L347.976 439.827L347.9 439.955L347.825 440.078L347.752 440.195L347.68 440.307L347.611 440.413L347.544 440.514L347.479 440.609L347.417 440.698L347.357 440.783L347.3 440.861L347.245 440.935L347.194 441.003L347.146 441.066L347.1 441.123L347.058 441.175L347.02 441.222L346.984 441.264L346.953 441.301L346.925 441.333L346.901 441.36L346.881 441.382L346.865 441.399L346.853 441.411L346.846 441.419L346.843 441.422L346.844 441.421L346.849 441.416L346.86 441.406L346.875 441.392L346.894 441.374L346.919 441.352L346.948 441.326L346.983 441.296L347.022 441.263L347.067 441.226L347.116 441.185L347.171 441.141L347.232 441.095L347.297 441.044L347.368 440.991L347.444 440.936L347.526 440.877L347.613 440.816L347.705 440.752L347.803 440.686L347.907 440.618L348.016 440.548L348.13 440.475L348.25 440.401L348.376 440.326L348.507 440.248L348.644 440.17L348.786 440.09L348.933 440.008L349.086 439.926L349.245 439.843L349.408 439.759L349.578 439.675L349.752 439.59L349.932 439.505L350.117 439.419L350.307 439.334L350.503 439.248L350.703 439.163L350.908 439.078L351.119 438.993L351.334 438.909L351.554 438.826L351.778 438.743L352.007 438.661L352.241 438.58L352.479 438.501L352.722 438.422L352.969 438.345L353.219 438.269L353.474 438.195L353.733 438.123L353.996 438.052L354.262 437.984L354.532 437.917L354.806 437.852L355.082 437.789L355.362 437.729L355.645 437.671L355.931 437.615L356.22 437.561L356.511 437.511L356.805 437.462L357.102 437.417L357.4 437.374L357.701 437.333L358.004 437.296L358.308 437.262L358.614 437.23L358.922 437.201L359.231 437.176L359.541 437.153L359.853 437.134L360.165 437.117L360.478 437.104L360.791 437.093L361.105 437.086L361.42 437.082L361.734 437.081L362.048 437.084L362.363 437.089L362.677 437.098L362.99 437.109L363.303 437.124L363.614 437.142L363.925 437.163L364.235 437.187L364.543 437.214L364.851 437.244L365.156 437.277L365.46 437.312L365.762 437.351L366.061 437.392L366.359 437.436L366.654 437.483L366.947 437.533L367.237 437.585L367.525 437.639L367.81 437.696L368.091 437.755L368.37 437.817L368.645 437.88L368.917 437.946L369.185 438.014L369.45 438.083L369.711 438.155L369.968 438.228L370.221 438.303L370.47 438.379L370.715 438.457L370.956 438.536L371.192 438.616L371.424 438.697L371.651 438.779L371.873 438.862L372.091 438.946L372.304 439.031L372.512 439.115L372.715 439.201L372.914 439.286L373.107 439.372L373.295 439.457L373.477 439.543L373.655 439.628L373.827 439.712L373.994 439.797L374.155 439.88L374.311 439.963L374.462 440.044L374.607 440.125L374.747 440.205L374.881 440.283L375.009 440.359L375.133 440.434L375.25 440.508L375.362 440.579L375.469 440.648L375.57 440.716L375.665 440.781L375.756 440.843L375.84 440.903L375.919 440.961L375.993 441.015L376.062 441.067L376.125 441.116L376.183 441.161L376.235 441.204L376.283 441.242L376.325 441.278L376.362 441.31L376.394 441.338L376.422 441.362L376.444 441.382L376.462 441.399L376.475 441.411L376.483 441.419L376.486 441.422L376.487 441.423Z" stroke="black"/>
<path fill-rule="evenodd" clip-rule="evenodd" d="M238.646 205.341L238.643 205.341L238.633 205.34L238.618 205.34L238.596 205.339L238.568 205.338L238.533 205.336L238.492 205.333L238.446 205.33L238.393 205.325L238.333 205.32L238.268 205.313L238.197 205.305L238.12 205.295L238.037 205.284L237.948 205.271L237.853 205.256L237.752 205.239L237.646 205.22L237.535 205.199L237.417 205.176L237.295 205.151L237.167 205.123L237.033 205.092L236.895 205.059L236.751 205.023L236.603 204.984L236.449 204.943L236.291 204.898L236.128 204.851L235.961 204.8L235.789 204.746L235.613 204.688L235.433 204.627L235.248 204.563L235.06 204.496L234.868 204.424L234.672 204.349L234.472 204.271L234.27 204.189L234.063 204.103L233.854 204.013L233.642 203.919L233.427 203.822L233.209 203.721L232.988 203.616L232.765 203.507L232.54 203.394L232.312 203.277L232.083 203.156L231.852 203.031L231.619 202.902L231.384 202.769L231.148 202.632L230.911 202.492L230.672 202.347L230.433 202.199L230.193 202.047L229.952 201.891L229.711 201.731L229.469 201.567L229.227 201.4L228.985 201.229L228.743 201.054L228.501 200.876L228.26 200.694L228.019 200.509L227.779 200.321L227.539 200.129L227.301 199.934L227.063 199.736L226.827 199.535L226.592 199.331L226.358 199.124L226.126 198.914L225.896 198.702L225.667 198.487L225.44 198.269L225.216 198.049L224.993 197.827L224.773 197.603L224.555 197.376L224.34 197.148L224.127 196.917L223.917 196.686L223.71 196.452L223.506 196.217L223.305 195.981L223.106 195.743L222.911 195.505L222.719 195.265L222.53 195.025L222.345 194.784L222.163 194.543L221.985 194.301L221.81 194.059L221.639 193.817L221.471 193.575L221.307 193.333L221.147 193.092L220.991 192.851L220.838 192.611L220.689 192.372L220.544 192.133L220.404 191.896L220.267 191.66L220.133 191.425L220.004 191.192L219.879 190.96L219.758 190.731L219.641 190.503L219.527 190.278L219.418 190.054L219.312 189.834L219.211 189.616L219.113 189.4L219.019 189.188L218.929 188.978L218.843 188.772L218.76 188.568L218.682 188.369L218.607 188.173L218.535 187.98L218.467 187.792L218.403 187.607L218.342 187.426L218.284 187.25L218.23 187.078L218.178 186.91L218.13 186.747L218.086 186.588L218.044 186.434L218.005 186.285L217.969 186.141L217.935 186.003L217.905 185.869L217.876 185.74L217.851 185.617L217.827 185.499L217.806 185.387L217.787 185.281L217.77 185.18L217.755 185.084L217.742 184.995L217.731 184.911L217.721 184.834L217.713 184.762L217.706 184.696L217.7 184.637L217.695 184.583L217.692 184.536L217.689 184.495L217.687 184.46L217.686 184.431L217.685 184.409L217.685 184.393L217.684 184.383L217.684 184.379L217.684 184.382L217.684 184.391L217.684 184.406L217.683 184.427L217.682 184.455L217.68 184.489L217.677 184.529L217.674 184.575L217.67 184.628L217.664 184.687L217.657 184.751L217.649 184.822L217.64 184.899L217.628 184.981L217.615 185.07L217.601 185.164L217.584 185.264L217.566 185.37L217.545 185.481L217.522 185.598L217.497 185.72L217.469 185.848L217.438 185.981L217.406 186.119L217.37 186.262L217.331 186.41L217.29 186.563L217.246 186.721L217.198 186.884L217.148 187.051L217.094 187.222L217.037 187.398L216.976 187.578L216.912 187.762L216.845 187.95L216.774 188.142L216.699 188.337L216.621 188.536L216.539 188.739L216.453 188.945L216.364 189.154L216.271 189.366L216.174 189.581L216.073 189.799L215.968 190.019L215.859 190.242L215.746 190.467L215.63 190.694L215.509 190.924L215.385 191.155L215.256 191.388L215.124 191.622L214.987 191.858L214.847 192.095L214.703 192.333L214.555 192.573L214.403 192.813L214.247 193.054L214.087 193.295L213.924 193.537L213.757 193.779L213.586 194.021L213.412 194.263L213.234 194.504L213.053 194.746L212.868 194.987L212.68 195.227L212.488 195.467L212.294 195.705L212.096 195.943L211.895 196.18L211.691 196.415L211.484 196.648L211.275 196.881L211.063 197.111L210.848 197.34L210.63 197.567L210.411 197.791L210.189 198.014L209.964 198.234L209.738 198.452L209.51 198.668L209.28 198.881L209.048 199.091L208.814 199.298L208.58 199.503L208.343 199.704L208.106 199.903L207.868 200.098L207.628 200.291L207.388 200.48L207.147 200.665L206.906 200.847L206.664 201.026L206.422 201.201L206.18 201.373L205.938 201.541L205.696 201.705L205.455 201.865L205.214 202.022L204.974 202.175L204.734 202.324L204.496 202.469L204.258 202.61L204.022 202.748L203.787 202.881L203.554 203.01L203.322 203.136L203.093 203.258L202.865 203.375L202.639 203.489L202.416 203.599L202.195 203.704L201.977 203.806L201.761 203.904L201.548 203.998L201.338 204.089L201.132 204.175L200.928 204.258L200.728 204.337L200.532 204.413L200.339 204.484L200.15 204.553L199.965 204.617L199.784 204.679L199.607 204.737L199.435 204.791L199.267 204.843L199.103 204.891L198.944 204.936L198.79 204.978L198.641 205.017L198.496 205.054L198.357 205.087L198.223 205.118L198.094 205.146L197.971 205.172L197.852 205.196L197.74 205.217L197.633 205.236L197.531 205.253L197.436 205.268L197.346 205.282L197.262 205.293L197.184 205.303L197.111 205.312L197.045 205.319L196.985 205.325L196.931 205.329L196.883 205.333L196.842 205.336L196.806 205.338L196.777 205.339L196.754 205.34L196.737 205.34L196.727 205.341L196.723 205.341L196.725 205.341L196.733 205.341L196.748 205.341L196.769 205.342L196.796 205.343L196.83 205.345L196.869 205.347L196.915 205.351L196.967 205.355L197.025 205.361L197.09 205.367L197.16 205.375L197.236 205.385L197.318 205.396L197.406 205.408L197.5 205.423L197.6 205.439L197.705 205.458L197.816 205.478L197.932 205.501L198.054 205.526L198.181 205.554L198.314 205.584L198.452 205.617L198.594 205.652L198.742 205.69L198.895 205.732L199.052 205.776L199.214 205.823L199.381 205.873L199.552 205.927L199.727 205.984L199.907 206.044L200.091 206.108L200.279 206.175L200.47 206.245L200.665 206.32L200.864 206.398L201.067 206.479L201.272 206.565L201.481 206.654L201.693 206.747L201.908 206.843L202.125 206.944L202.345 207.049L202.568 207.157L202.793 207.269L203.02 207.386L203.249 207.506L203.48 207.63L203.713 207.759L203.947 207.891L204.183 208.027L204.42 208.167L204.658 208.311L204.897 208.458L205.137 208.61L205.378 208.766L205.619 208.925L205.861 209.088L206.103 209.255L206.345 209.425L206.587 209.599L206.829 209.777L207.07 209.958L207.311 210.142L207.552 210.33L207.791 210.521L208.03 210.716L208.268 210.913L208.504 211.114L208.74 211.317L208.974 211.524L209.206 211.733L209.437 211.945L209.665 212.16L209.892 212.377L210.117 212.597L210.34 212.819L210.561 213.043L210.779 213.269L210.994 213.497L211.208 213.727L211.418 213.959L211.626 214.192L211.83 214.427L212.032 214.663L212.231 214.9L212.427 215.138L212.619 215.378L212.808 215.618L212.994 215.859L213.177 216.1L213.356 216.342L213.531 216.584L213.703 216.826L213.871 217.068L214.036 217.309L214.196 217.551L214.353 217.792L214.507 218.032L214.656 218.272L214.801 218.51L214.943 218.748L215.081 218.984L215.214 219.219L215.344 219.453L215.47 219.684L215.592 219.914L215.71 220.142L215.824 220.368L215.934 220.591L216.04 220.813L216.142 221.031L216.24 221.247L216.335 221.46L216.425 221.67L216.512 221.877L216.595 222.081L216.675 222.281L216.75 222.478L216.823 222.671L216.891 222.86L216.956 223.045L217.018 223.227L217.076 223.404L217.131 223.577L217.182 223.745L217.231 223.909L217.276 224.068L217.319 224.223L217.358 224.372L217.394 224.517L217.428 224.657L217.459 224.792L217.488 224.921L217.514 225.045L217.538 225.163L217.559 225.276L217.579 225.384L217.596 225.486L217.611 225.582L217.624 225.672L217.636 225.757L217.646 225.835L217.655 225.908L217.662 225.975L217.668 226.035L217.673 226.09L217.676 226.138L217.679 226.18L217.681 226.216L217.683 226.246L217.684 226.269L217.684 226.287L217.684 226.298L217.684 226.302L217.684 226.301L217.684 226.293L217.685 226.278L217.685 226.258L217.687 226.231L217.688 226.198L217.691 226.159L217.694 226.114L217.698 226.062L217.704 226.004L217.71 225.941L217.718 225.871L217.728 225.795L217.738 225.713L217.751 225.626L217.765 225.532L217.782 225.433L217.8 225.329L217.82 225.218L217.843 225.102L217.868 224.981L217.895 224.854L217.925 224.722L217.958 224.585L217.993 224.442L218.031 224.295L218.072 224.143L218.116 223.986L218.163 223.824L218.213 223.658L218.266 223.487L218.323 223.312L218.383 223.132L218.446 222.949L218.513 222.762L218.583 222.57L218.657 222.375L218.735 222.177L218.816 221.975L218.901 221.769L218.99 221.561L219.083 221.349L219.179 221.135L219.28 220.917L219.384 220.697L219.492 220.475L219.604 220.25L219.72 220.023L219.84 219.794L219.964 219.563L220.092 219.331L220.224 219.097L220.359 218.861L220.499 218.624L220.643 218.386L220.79 218.147L220.942 217.907L221.097 217.666L221.256 217.425L221.418 217.183L221.585 216.941L221.755 216.699L221.929 216.457L222.106 216.215L222.287 215.974L222.471 215.733L222.659 215.492L222.85 215.253L223.044 215.014L223.241 214.776L223.441 214.539L223.645 214.304L223.851 214.07L224.06 213.837L224.272 213.607L224.487 213.378L224.704 213.151L224.923 212.926L225.145 212.703L225.369 212.482L225.595 212.264L225.823 212.048L226.052 211.834L226.284 211.624L226.517 211.416L226.752 211.211L226.988 211.009L227.225 210.81L227.463 210.614L227.702 210.421L227.942 210.231L228.183 210.045L228.424 209.863L228.666 209.683L228.908 209.508L229.15 209.336L229.392 209.167L229.634 209.002L229.875 208.841L230.116 208.684L230.357 208.53L230.596 208.381L230.835 208.235L231.073 208.093L231.309 207.955L231.544 207.821L231.778 207.691L232.01 207.565L232.24 207.443L232.468 207.325L232.694 207.21L232.917 207.1L233.139 206.994L233.358 206.891L233.574 206.792L233.787 206.698L233.997 206.607L234.204 206.52L234.408 206.436L234.609 206.356L234.806 206.28L234.999 206.208L235.189 206.139L235.374 206.074L235.556 206.012L235.733 205.954L235.907 205.898L236.075 205.847L236.24 205.798L236.399 205.752L236.554 205.71L236.704 205.67L236.85 205.633L236.99 205.599L237.125 205.568L237.254 205.539L237.379 205.513L237.498 205.489L237.611 205.467L237.719 205.448L237.822 205.431L237.918 205.415L238.009 205.402L238.094 205.39L238.173 205.38L238.246 205.371L238.313 205.364L238.374 205.358L238.429 205.353L238.478 205.349L238.521 205.346L238.557 205.344L238.587 205.342L238.611 205.341L238.629 205.341L238.641 205.341L238.646 205.341L238.646 205.341Z" stroke="black"/>
<mask id="path-11-inside-1" fill="white">
<path fill-rule="evenodd" clip-rule="evenodd" d="M289.463 319.041V319.041V319.041ZM289.463 319.041L196.723 319.041L289.463 319.041ZM196.723 319.041L196.723 226.302L196.723 319.041ZM196.723 226.302H196.724H196.723ZM196.724 226.302C247.717 226.302 289.097 267.458 289.461 318.365L196.724 226.302ZM289.463 319.041C340.681 319.041 382.201 277.52 382.201 226.302L289.57 226.302C340.739 226.244 382.201 184.745 382.201 133.563H289.461L289.461 225.626C289.097 174.719 247.717 133.563 196.724 133.563H196.723L196.723 226.302L289.461 226.302L289.461 226.302L289.461 226.302V318.365"/>
</mask>
<path d="M289.463 319.041H289.963V319.541L289.463 319.541V319.041ZM196.723 319.041L196.723 319.541H196.223L196.223 319.041L196.723 319.041ZM196.723 226.302H196.223V225.802H196.723V226.302ZM196.724 226.302V225.802H196.93L197.076 225.947L196.724 226.302ZM289.461 318.365L289.813 318.011L289.96 318.157L289.961 318.364L289.461 318.365ZM289.963 319.041V319.041H288.963V319.041H289.963ZM289.463 319.541L196.723 319.541L196.723 318.541L289.463 318.541V319.541ZM196.223 319.041L196.223 226.302H197.223L197.223 319.041L196.223 319.041ZM196.723 225.802H196.724V226.802H196.723V225.802ZM197.076 225.947L289.813 318.011L289.109 318.72L196.372 226.657L197.076 225.947ZM289.961 318.364L289.963 319.039L288.963 319.043L288.961 318.367L289.961 318.364ZM289.463 319.041H290.463V320.041L289.463 320.041V319.041ZM196.723 319.041L196.723 320.041H195.723L195.723 319.041L196.723 319.041ZM196.723 226.302H195.723V225.302H196.723V226.302ZM289.461 318.365H290.461L288.461 318.373L289.461 318.365ZM382.201 226.302V225.302H383.201V226.302H382.201ZM289.57 226.302V227.302L289.569 225.302L289.57 226.302ZM382.201 133.563V132.563H383.201V133.563H382.201ZM289.461 133.563H288.461V132.563H289.461V133.563ZM289.461 225.626H290.461L288.461 225.633L289.461 225.626ZM196.723 133.563H195.723V132.563H196.723V133.563ZM196.723 226.302L196.723 227.302H195.723L195.723 226.302H196.723ZM289.461 226.302V225.302H290.503L290.46 226.343L289.461 226.302ZM289.461 226.302L288.468 226.426L288.458 226.343L288.462 226.26L289.461 226.302ZM289.461 226.302L290.453 226.178L290.461 226.24V226.302H289.461ZM290.463 319.041V319.041H288.463V319.041H290.463ZM289.463 320.041L196.723 320.041L196.723 318.041L289.463 318.041V320.041ZM195.723 319.041L195.723 226.302H197.723L197.723 319.041L195.723 319.041ZM196.723 225.302H196.724V227.302H196.723V225.302ZM196.724 225.302C248.267 225.302 290.094 266.902 290.461 318.358L288.461 318.373C288.101 268.014 247.167 227.302 196.724 227.302V225.302ZM289.463 318.041C340.129 318.041 381.201 276.968 381.201 226.302H383.201C383.201 278.072 341.233 320.041 289.463 320.041L289.463 318.041ZM382.201 227.302L289.57 227.302V225.302L382.201 225.302V227.302ZM289.569 225.302C340.186 225.244 381.201 184.193 381.201 133.563H383.201C383.201 185.297 341.292 227.243 289.571 227.302L289.569 225.302ZM382.201 134.563H289.461V132.563H382.201V134.563ZM290.461 133.563L290.461 225.626H288.461L288.461 133.563H290.461ZM288.461 225.633C288.101 175.275 247.167 134.563 196.724 134.563V132.563C248.267 132.563 290.094 174.162 290.461 225.619L288.461 225.633ZM196.724 134.563H196.723V132.563H196.724V134.563ZM197.723 133.563L197.723 226.302H195.723L195.723 133.563H197.723ZM196.723 225.302L289.461 225.302V227.302L196.723 227.302L196.723 225.302ZM290.46 226.343L290.46 226.344L288.462 226.26L288.462 226.26L290.46 226.343ZM290.453 226.178L290.453 226.178L288.468 226.426L288.468 226.426L290.453 226.178ZM290.461 226.302V318.365H288.461V226.302H290.461Z" fill="black" mask="url(#path-11-inside-1)"/>
<mask id="path-13-inside-2" fill="white">
<path fill-rule="evenodd" clip-rule="evenodd" d="M382.202 411.463L382.202 411.463C382.202 462.681 340.682 504.202 289.463 504.202C238.245 504.202 196.724 462.681 196.724 411.463L196.724 411.463L289.462 411.463C238.244 411.463 196.723 369.942 196.723 318.723L289.462 318.723C238.244 318.723 196.723 277.203 196.723 225.984L382.202 225.984C382.202 277.203 340.681 318.723 289.462 318.723L382.202 318.723C382.202 369.942 340.681 411.463 289.462 411.463L382.202 411.463Z"/>
</mask>
<path d="M382.202 411.463L383.202 411.463L382.202 411.463ZM382.202 411.463L382.202 410.463L383.202 410.463L383.202 411.463L382.202 411.463ZM196.724 411.463L195.724 411.463L196.724 411.463ZM196.724 411.463L195.724 411.463L195.724 410.463L196.724 410.463L196.724 411.463ZM196.723 318.723L195.723 318.723L195.723 317.723L196.723 317.723L196.723 318.723ZM289.462 318.723L289.462 317.723L289.462 318.723ZM196.723 225.984L195.723 225.984L195.723 224.984L196.723 224.984L196.723 225.984ZM382.202 225.984L382.202 224.984L383.202 224.984L383.202 225.984L382.202 225.984ZM382.202 318.723L382.202 317.723L383.202 317.723L383.202 318.723L382.202 318.723ZM381.202 411.463L381.202 411.463L383.202 411.463L383.202 411.463L381.202 411.463ZM289.463 503.202C340.129 503.202 381.202 462.129 381.202 411.463L383.202 411.463C383.202 463.234 341.234 505.202 289.463 505.202L289.463 503.202ZM197.724 411.463C197.724 462.129 238.797 503.202 289.463 503.202L289.463 505.202C237.692 505.202 195.724 463.234 195.724 411.463L197.724 411.463ZM197.724 411.463L197.724 411.463L195.724 411.463L195.724 411.463L197.724 411.463ZM289.462 412.463L196.724 412.463L196.724 410.463L289.462 410.463L289.462 412.463ZM289.462 412.463C237.692 412.463 195.723 370.494 195.723 318.723L197.723 318.723C197.723 369.39 238.796 410.463 289.462 410.463L289.462 412.463ZM196.723 317.723L289.462 317.723L289.462 319.723L196.723 319.723L196.723 317.723ZM289.462 319.723C237.692 319.723 195.723 277.755 195.723 225.984L197.723 225.984C197.723 276.65 238.796 317.723 289.462 317.723L289.462 319.723ZM196.723 224.984L382.202 224.984L382.202 226.984L196.723 226.984L196.723 224.984ZM383.202 225.984C383.202 277.755 341.233 319.723 289.462 319.723L289.462 317.723C340.128 317.723 381.202 276.65 381.202 225.984L383.202 225.984ZM289.462 317.723L382.202 317.723L382.202 319.723L289.462 319.723L289.462 317.723ZM383.202 318.723C383.202 370.494 341.233 412.463 289.462 412.463L289.462 410.463C340.128 410.463 381.202 369.39 381.202 318.723L383.202 318.723ZM382.202 412.463L289.462 412.463L289.462 410.463L382.202 410.463L382.202 412.463Z" fill="black" mask="url(#path-13-inside-2)"/>
<path fill-rule="evenodd" clip-rule="evenodd" d="M140.386 319.043H140.191C140.32 320.638 140.386 322.245 140.386 323.862C140.386 372.435 81.1708 411.811 8.12538 411.811C5.69402 411.811 3.27795 411.767 0.878906 411.681V411.811H57.6491V411.812H197.157V319.043H196.961C197.091 320.638 197.157 322.245 197.157 323.862C197.157 353.774 174.7 380.199 140.386 396.087V319.043ZM65.0436 411.811C64.9945 411.811 64.9453 411.811 64.8962 411.811C64.8471 411.811 64.798 411.811 64.7489 411.811H65.0436Z" fill="#00FF00"/>
<path fill-rule="evenodd" clip-rule="evenodd" d="M68.4461 133.564H68.6409C68.5171 135.088 68.4517 136.623 68.4461 138.167V133.564ZM68.4461 210.608V138.599C68.6216 187.073 127.769 226.333 200.706 226.333C203.138 226.333 205.554 226.289 207.954 226.203V226.333H151.184V226.333H11.6769V133.565H11.8728C11.7432 135.16 11.6776 136.767 11.6776 138.383C11.6776 168.295 34.1333 194.719 68.4461 210.608ZM143.753 226.333C143.815 226.333 143.876 226.333 143.938 226.333C144 226.333 144.061 226.333 144.123 226.333H143.753Z" fill="url(#paint1_linear)"/>
<path d="M120.193 127.86C119.108 130.147 116.648 131.737 112.963 132.575C109.285 133.412 104.472 133.478 98.8413 132.789C87.5852 131.411 73.1755 127.032 58.2923 119.966C43.4092 112.899 30.9081 104.5 22.7262 96.6482C18.6332 92.7203 15.6421 88.9493 13.966 85.5699C12.2866 82.1841 11.9642 79.2733 13.0499 76.9867C14.1356 74.7002 16.595 73.1102 20.2802 72.2716C23.9584 71.4345 28.7712 71.3689 34.402 72.058C45.658 73.4356 60.0678 77.8144 74.951 84.8812C89.8341 91.9479 102.335 100.347 110.517 108.199C114.61 112.127 117.601 115.898 119.277 119.277C120.957 122.663 121.279 125.574 120.193 127.86Z" stroke="black"/>
<path d="M120.193 116.105C119.108 118.391 116.648 119.981 112.963 120.82C109.285 121.657 104.472 121.722 98.8413 121.033C87.5852 119.656 73.1755 115.277 58.2923 108.21C43.4092 101.143 30.9081 92.7446 22.7262 84.8927C18.6332 80.9648 15.6421 77.1938 13.966 73.8144C12.2866 70.4286 11.9642 67.5178 13.0499 65.2312C14.1356 62.9446 16.595 61.3547 20.2802 60.516C23.9584 59.679 28.7712 59.6134 34.402 60.3025C45.658 61.6801 60.0678 66.0589 74.951 73.1257C89.8341 80.1924 102.335 88.5912 110.517 96.4431C114.61 100.371 117.601 104.142 119.277 107.521C120.957 110.907 121.279 113.818 120.193 116.105Z" stroke="black"/>
<path d="M120.193 104.349C119.108 106.636 116.648 108.226 112.963 109.064C109.285 109.901 104.472 109.967 98.8413 109.278C87.5852 107.9 73.1755 103.521 58.2923 96.4545C43.4092 89.3878 30.9081 80.989 22.7262 73.1371C18.6332 69.2092 15.6421 65.4382 13.966 62.0588C12.2866 58.673 11.9642 55.7622 13.0499 53.4756C14.1356 51.1891 16.595 49.5991 20.2802 48.7605C23.9584 47.9234 28.7712 47.8578 34.402 48.5469C45.658 49.9245 60.0678 54.3033 74.951 61.3701C89.8341 68.4368 102.335 76.8356 110.517 84.6876C114.61 88.6154 117.601 92.3864 119.277 95.7658C120.957 99.1516 121.279 102.062 120.193 104.349Z" stroke="black"/>
<path d="M120.193 92.5931C119.108 94.8797 116.648 96.4696 112.963 97.3083C109.285 98.1454 104.472 98.211 98.8413 97.5219C87.5852 96.1443 73.1755 91.7654 58.2923 84.6987C43.4092 77.6319 30.9081 69.2331 22.7262 61.3812C18.6332 57.4533 15.6421 53.6823 13.966 50.303C12.2866 46.9171 11.9642 44.0064 13.0499 41.7198C14.1356 39.4332 16.595 37.8433 20.2802 37.0046C23.9584 36.1676 28.7712 36.1019 34.402 36.791C45.658 38.1686 60.0678 42.5475 74.951 49.6142C89.8341 56.681 102.335 65.0798 110.517 72.9317C114.61 76.8596 117.601 80.6306 119.277 84.0099C120.957 87.3958 121.279 90.3066 120.193 92.5931Z" stroke="black"/>
<path d="M120.193 80.8373C119.108 83.1238 116.648 84.7138 112.963 85.5524C109.285 86.3895 104.472 86.4551 98.8413 85.766C87.5852 84.3884 73.1755 80.0096 58.2923 72.9428C43.4092 65.8761 30.9081 57.4773 22.7262 49.6254C18.6332 45.6975 15.6421 41.9265 13.966 38.5471C12.2866 35.1613 11.9642 32.2505 13.0499 29.9639C14.1356 27.6773 16.595 26.0874 20.2802 25.2487C23.9584 24.4117 28.7712 24.3461 34.402 25.0352C45.658 26.4128 60.0678 30.7916 74.951 37.8584C89.8341 44.9251 102.335 53.3239 110.517 61.1758C114.61 65.1037 117.601 68.8747 119.277 72.2541C120.957 75.6399 121.279 78.5507 120.193 80.8373Z" stroke="black"/>
<path d="M120.193 69.0817C119.108 71.3683 116.648 72.9582 112.963 73.7969C109.285 74.6339 104.472 74.6996 98.8413 74.0104C87.5852 72.6329 73.1755 68.254 58.2923 61.1873C43.4092 54.1205 30.9081 45.7217 22.7262 37.8698C18.6332 33.9419 15.6421 30.1709 13.966 26.7916C12.2866 23.4057 11.9642 20.4949 13.0499 18.2084C14.1356 15.9218 16.595 14.3319 20.2802 13.4932C23.9584 12.6561 28.7712 12.5905 34.402 13.2796C45.658 14.6572 60.0678 19.0361 74.951 26.1028C89.8341 33.1696 102.335 41.5684 110.517 49.4203C114.61 53.3481 117.601 57.1191 119.277 60.4985C120.957 63.8844 121.279 66.7951 120.193 69.0817Z" stroke="black"/>
<path fill-rule="evenodd" clip-rule="evenodd" d="M191.441 103.922L191.439 103.924L191.432 103.931L191.421 103.943L191.406 103.959L191.387 103.98L191.364 104.005L191.337 104.036L191.307 104.071L191.272 104.112L191.235 104.158L191.193 104.209L191.149 104.265L191.101 104.327L191.05 104.393L190.997 104.465L190.94 104.543L190.881 104.626L190.819 104.714L190.755 104.808L190.688 104.907L190.62 105.012L190.549 105.122L190.476 105.238L190.402 105.36L190.326 105.486L190.248 105.619L190.169 105.757L190.089 105.9L190.007 106.049L189.925 106.203L189.842 106.363L189.758 106.528L189.673 106.699L189.588 106.874L189.503 107.056L189.417 107.242L189.332 107.433L189.246 107.63L189.161 107.831L189.076 108.038L188.991 108.249L188.907 108.466L188.824 108.687L188.742 108.912L188.66 109.143L188.579 109.377L188.5 109.617L188.422 109.86L188.345 110.108L188.27 110.36L188.196 110.616L188.124 110.875L188.054 111.139L187.986 111.406L187.919 111.677L187.855 111.951L187.793 112.229L187.733 112.509L187.675 112.793L187.62 113.08L187.567 113.369L187.517 113.661L187.469 113.956L187.424 114.252L187.382 114.552L187.343 114.853L187.306 115.156L187.272 115.461L187.241 115.767L187.213 116.075L187.188 116.385L187.167 116.695L187.148 117.007L187.132 117.319L187.119 117.632L187.11 117.946L187.103 118.26L187.1 118.575L187.1 118.889L187.103 119.203L187.109 119.517L187.118 119.831L187.131 120.144L187.146 120.457L187.165 120.769L187.187 121.079L187.211 121.389L187.239 121.697L187.27 122.003L187.303 122.308L187.34 122.612L187.379 122.913L187.421 123.212L187.466 123.51L187.513 123.804L187.563 124.096L187.616 124.386L187.671 124.673L187.728 124.957L187.788 125.238L187.85 125.516L187.914 125.79L187.98 126.061L188.049 126.329L188.119 126.592L188.191 126.852L188.264 127.109L188.339 127.361L188.416 127.609L188.494 127.853L188.573 128.092L188.654 128.327L188.735 128.558L188.817 128.784L188.901 129.006L188.985 129.222L189.069 129.434L189.154 129.641L189.239 129.843L189.325 130.04L189.41 130.232L189.496 130.418L189.581 130.6L189.666 130.776L189.751 130.947L189.835 131.113L189.918 131.273L190.001 131.428L190.082 131.577L190.163 131.721L190.242 131.859L190.319 131.992L190.396 132.119L190.47 132.241L190.543 132.357L190.614 132.468L190.683 132.573L190.75 132.673L190.814 132.767L190.876 132.856L190.936 132.939L190.992 133.017L191.046 133.09L191.097 133.157L191.145 133.219L191.19 133.275L191.231 133.327L191.27 133.373L191.304 133.414L191.335 133.45L191.362 133.481L191.386 133.507L191.405 133.528L191.42 133.545L191.431 133.557L191.438 133.564L191.441 133.566L191.439 133.565L191.433 133.558L191.422 133.548L191.406 133.533L191.385 133.514L191.36 133.492L191.33 133.465L191.295 133.435L191.254 133.401L191.209 133.363L191.158 133.322L191.103 133.278L191.042 133.231L190.975 133.18L190.904 133.127L190.827 133.07L190.744 133.011L190.656 132.95L190.563 132.886L190.464 132.819L190.36 132.751L190.25 132.68L190.134 132.608L190.013 132.533L189.887 132.457L189.755 132.38L189.618 132.301L189.475 132.221L189.326 132.139L189.172 132.057L189.013 131.974L188.848 131.89L188.678 131.805L188.503 131.72L188.322 131.635L188.136 131.55L187.945 131.464L187.749 131.379L187.548 131.293L187.342 131.208L187.131 131.124L186.915 131.04L186.694 130.956L186.469 130.874L186.239 130.792L186.005 130.711L185.766 130.632L185.522 130.554L185.275 130.477L185.024 130.401L184.768 130.328L184.509 130.255L184.245 130.185L183.978 130.117L183.708 130.05L183.434 129.986L183.157 129.923L182.876 129.863L182.593 129.805L182.306 129.75L182.017 129.697L181.725 129.646L181.431 129.599L181.134 129.553L180.835 129.511L180.534 129.471L180.231 129.434L179.927 129.4L179.62 129.369L179.312 129.341L179.003 129.316L178.693 129.294L178.381 129.275L178.069 129.259L177.756 129.246L177.442 129.236L177.128 129.229L176.814 129.226L176.499 129.225L176.185 129.228L175.871 129.234L175.557 129.243L175.244 129.255L174.931 129.271L174.619 129.289L174.309 129.31L173.999 129.335L173.691 129.362L173.384 129.393L173.079 129.426L172.775 129.462L172.474 129.501L172.174 129.543L171.877 129.588L171.582 129.635L171.29 129.685L171 129.737L170.713 129.792L170.429 129.849L170.148 129.909L169.87 129.971L169.595 130.034L169.324 130.101L169.056 130.169L168.792 130.238L168.531 130.31L168.275 130.384L168.022 130.459L167.774 130.535L167.53 130.613L167.29 130.692L167.054 130.773L166.823 130.854L166.597 130.936L166.375 131.02L166.158 131.103L165.946 131.188L165.738 131.273L165.536 131.358L165.339 131.444L165.146 131.529L164.959 131.615L164.777 131.7L164.601 131.785L164.429 131.87L164.264 131.954L164.103 132.037L163.948 132.12L163.798 132.201L163.654 132.282L163.515 132.361L163.382 132.439L163.254 132.515L163.132 132.59L163.015 132.663L162.904 132.734L162.798 132.803L162.698 132.87L162.603 132.935L162.514 132.997L162.43 133.056L162.352 133.113L162.279 133.168L162.211 133.219L162.149 133.267L162.092 133.312L162.04 133.354L161.994 133.392L161.952 133.427L161.916 133.458L161.884 133.486L161.858 133.509L161.836 133.529L161.819 133.545L161.807 133.556L161.8 133.563L161.797 133.566L161.798 133.565L161.804 133.559L161.814 133.548L161.829 133.533L161.847 133.513L161.869 133.488L161.896 133.458L161.926 133.423L161.959 133.383L161.997 133.338L162.037 133.288L162.081 133.233L162.129 133.172L162.179 133.106L162.232 133.035L162.288 132.958L162.347 132.876L162.408 132.789L162.472 132.696L162.538 132.598L162.607 132.494L162.677 132.384L162.75 132.269L162.824 132.149L162.9 132.023L162.977 131.891L163.056 131.754L163.136 131.612L163.217 131.464L163.3 131.31L163.383 131.151L163.467 130.987L163.551 130.817L163.636 130.642L163.721 130.462L163.807 130.277L163.892 130.086L163.978 129.891L164.063 129.69L164.148 129.484L164.233 129.273L164.317 129.058L164.4 128.838L164.483 128.613L164.565 128.383L164.645 128.149L164.725 127.91L164.803 127.667L164.88 127.42L164.956 127.169L165.03 126.914L165.102 126.655L165.172 126.392L165.241 126.125L165.308 125.855L165.372 125.581L165.435 125.304L165.495 125.024L165.553 124.741L165.609 124.455L165.662 124.166L165.713 123.874L165.761 123.58L165.806 123.284L165.849 122.985L165.889 122.684L165.926 122.381L165.96 122.076L165.992 121.77L166.02 121.462L166.045 121.153L166.068 120.843L166.087 120.531L166.103 120.219L166.116 119.906L166.126 119.592L166.133 119.278L166.137 118.964L166.138 118.65L166.135 118.335L166.13 118.021L166.121 117.707L166.109 117.394L166.094 117.081L166.076 116.77L166.055 116.459L166.03 116.149L166.003 115.841L165.973 115.534L165.94 115.229L165.904 114.925L165.865 114.623L165.823 114.324L165.779 114.026L165.732 113.731L165.682 113.438L165.63 113.148L165.576 112.861L165.519 112.577L165.459 112.295L165.398 112.017L165.334 111.742L165.268 111.47L165.2 111.202L165.13 110.938L165.059 110.677L164.985 110.421L164.91 110.168L164.834 109.919L164.756 109.674L164.677 109.434L164.597 109.198L164.516 108.967L164.433 108.74L164.35 108.518L164.266 108.3L164.182 108.088L164.097 107.88L164.012 107.677L163.926 107.48L163.841 107.287L163.755 107.099L163.67 106.917L163.585 106.74L163.5 106.568L163.416 106.402L163.333 106.241L163.25 106.085L163.168 105.935L163.088 105.79L163.008 105.651L162.93 105.518L162.854 105.389L162.779 105.267L162.706 105.149L162.635 105.038L162.565 104.932L162.498 104.831L162.434 104.736L162.371 104.646L162.311 104.562L162.254 104.483L162.2 104.41L162.148 104.342L162.1 104.279L162.054 104.222L162.012 104.17L161.974 104.123L161.939 104.081L161.907 104.044L161.879 104.012L161.855 103.985L161.835 103.963L161.819 103.946L161.808 103.933L161.8 103.926L161.797 103.922L161.798 103.923L161.804 103.929L161.814 103.939L161.829 103.953L161.849 103.971L161.873 103.993L161.903 104.019L161.937 104.049L161.976 104.082L162.021 104.119L162.071 104.159L162.126 104.203L162.186 104.25L162.251 104.3L162.322 104.353L162.398 104.409L162.48 104.468L162.567 104.529L162.659 104.593L162.757 104.659L162.861 104.727L162.97 104.797L163.084 104.869L163.205 104.943L163.33 105.019L163.461 105.096L163.598 105.175L163.74 105.255L163.887 105.336L164.04 105.418L164.199 105.502L164.363 105.585L164.532 105.67L164.706 105.755L164.886 105.84L165.071 105.925L165.261 106.011L165.457 106.096L165.657 106.182L165.862 106.267L166.073 106.352L166.288 106.436L166.508 106.519L166.732 106.602L166.962 106.684L167.195 106.764L167.434 106.844L167.676 106.923L167.923 107L168.174 107.075L168.429 107.149L168.687 107.222L168.95 107.292L169.216 107.361L169.486 107.428L169.76 107.493L170.036 107.556L170.316 107.616L170.599 107.674L170.885 107.73L171.174 107.783L171.465 107.834L171.759 107.883L172.056 107.928L172.354 107.971L172.655 108.011L172.958 108.049L173.262 108.083L173.568 108.115L173.876 108.143L174.185 108.169L174.496 108.192L174.807 108.211L175.119 108.228L175.432 108.241L175.746 108.251L176.06 108.258L176.374 108.263L176.688 108.263L177.003 108.261L177.317 108.256L177.631 108.247L177.944 108.235L178.257 108.221L178.569 108.203L178.879 108.182L179.189 108.158L179.498 108.131L179.805 108.101L180.11 108.068L180.414 108.032L180.716 107.994L181.016 107.952L181.313 107.908L181.608 107.861L181.901 107.812L182.192 107.76L182.479 107.706L182.764 107.649L183.045 107.59L183.324 107.528L183.599 107.464L183.871 107.399L184.139 107.331L184.404 107.261L184.665 107.19L184.922 107.117L185.175 107.042L185.424 106.966L185.669 106.888L185.91 106.809L186.146 106.729L186.378 106.648L186.605 106.565L186.828 106.482L187.045 106.399L187.258 106.314L187.467 106.229L187.67 106.144L187.868 106.059L188.061 105.973L188.249 105.888L188.432 105.802L188.609 105.717L188.781 105.632L188.948 105.548L189.109 105.465L189.265 105.382L189.416 105.3L189.561 105.22L189.701 105.14L189.835 105.062L189.964 104.985L190.087 104.91L190.204 104.837L190.317 104.766L190.423 104.696L190.524 104.629L190.62 104.564L190.71 104.502L190.794 104.442L190.874 104.384L190.947 104.33L191.016 104.278L191.079 104.229L191.137 104.184L191.189 104.141L191.237 104.102L191.279 104.067L191.316 104.035L191.349 104.007L191.376 103.983L191.398 103.962L191.416 103.946L191.429 103.934L191.437 103.926L191.441 103.922L191.441 103.922Z" stroke="black"/>
<path fill-rule="evenodd" clip-rule="evenodd" d="M53.6002 340.004L53.597 340.004L53.5876 340.004L53.5719 340.005L53.5499 340.005L53.5217 340.007L53.4872 340.009L53.4465 340.011L53.3997 340.015L53.3467 340.019L53.2876 340.025L53.2224 340.032L53.1512 340.04L53.074 340.05L52.9909 340.061L52.9019 340.074L52.8072 340.089L52.7067 340.106L52.6005 340.124L52.4887 340.145L52.3715 340.168L52.2488 340.194L52.1207 340.222L51.9874 340.252L51.8489 340.286L51.7054 340.322L51.5568 340.36L51.4034 340.402L51.2453 340.447L51.0824 340.494L50.9151 340.545L50.7433 340.599L50.5671 340.657L50.3868 340.717L50.2024 340.782L50.0141 340.849L49.8219 340.92L49.6261 340.995L49.4266 341.074L49.2238 341.156L49.0176 341.242L48.8083 341.332L48.596 341.425L48.3808 341.523L48.1629 341.624L47.9423 341.729L47.7194 341.838L47.4941 341.951L47.2666 342.068L47.0372 342.189L46.8059 342.314L46.5729 342.443L46.3383 342.576L46.1023 342.712L45.865 342.853L45.6266 342.997L45.3873 343.146L45.1471 343.298L44.9063 343.454L44.6649 343.614L44.4232 343.778L44.1812 343.945L43.9392 344.116L43.6972 344.29L43.4554 344.469L43.214 344.65L42.9731 344.835L42.7328 345.024L42.4933 345.215L42.2547 345.41L42.0172 345.608L41.7808 345.81L41.5457 346.014L41.3121 346.221L41.08 346.43L40.8497 346.643L40.6211 346.858L40.3945 347.076L40.1699 347.295L39.9475 347.518L39.7274 347.742L39.5096 347.969L39.2943 348.197L39.0816 348.427L38.8716 348.659L38.6644 348.893L38.4601 349.128L38.2587 349.364L38.0604 349.601L37.8652 349.84L37.6733 350.079L37.4846 350.32L37.2993 350.56L37.1174 350.802L36.939 351.044L36.7641 351.286L36.5928 351.528L36.4252 351.77L36.2613 352.011L36.1011 352.253L35.9448 352.494L35.7922 352.734L35.6435 352.973L35.4987 353.212L35.3577 353.449L35.2207 353.685L35.0876 353.92L34.9585 354.153L34.8333 354.384L34.7121 354.614L34.5948 354.842L34.4815 355.067L34.3721 355.29L34.2666 355.511L34.165 355.729L34.0673 355.945L33.9734 356.157L33.8834 356.367L33.7971 356.573L33.7146 356.776L33.6358 356.976L33.5607 357.172L33.4892 357.365L33.4212 357.553L33.3567 357.738L33.2957 357.919L33.238 358.095L33.1837 358.267L33.1326 358.435L33.0846 358.598L33.0397 358.757L32.9979 358.91L32.9589 359.059L32.9228 359.203L32.8894 359.342L32.8587 359.476L32.8305 359.604L32.8048 359.728L32.7815 359.845L32.7604 359.957L32.7414 360.064L32.7245 360.165L32.7096 360.26L32.6964 360.35L32.685 360.433L32.6752 360.511L32.6668 360.583L32.6599 360.648L32.6541 360.708L32.6495 360.761L32.6459 360.809L32.6432 360.85L32.6413 360.885L32.6399 360.914L32.6391 360.936L32.6387 360.952L32.6385 360.962L32.6385 360.966L32.6385 360.963L32.6384 360.954L32.638 360.939L32.6372 360.918L32.636 360.89L32.6342 360.856L32.6316 360.816L32.6281 360.769L32.6237 360.717L32.6181 360.658L32.6114 360.593L32.6033 360.523L32.5937 360.446L32.5825 360.363L32.5697 360.275L32.555 360.181L32.5384 360.081L32.5198 359.975L32.4991 359.863L32.4761 359.747L32.4507 359.624L32.423 359.497L32.3927 359.364L32.3597 359.226L32.324 359.083L32.2855 358.934L32.2441 358.781L32.1998 358.624L32.1523 358.461L32.1017 358.294L32.0479 358.123L31.9907 357.947L31.9302 357.767L31.8663 357.583L31.7989 357.395L31.7279 357.203L31.6534 357.007L31.5752 356.808L31.4933 356.606L31.4076 356.4L31.3182 356.191L31.2249 355.979L31.1279 355.764L31.0269 355.546L30.922 355.326L30.8132 355.103L30.7005 354.878L30.5839 354.65L30.4633 354.421L30.3387 354.19L30.2102 353.957L30.0778 353.723L29.9414 353.487L29.8011 353.25L29.6569 353.011L29.5088 352.772L29.3568 352.532L29.201 352.291L29.0415 352.05L28.8782 351.808L28.7111 351.566L28.5404 351.324L28.3662 351.082L28.1883 350.84L28.007 350.599L27.8222 350.358L27.634 350.118L27.4426 349.878L27.2479 349.639L27.0501 349.402L26.8492 349.165L26.6453 348.93L26.4386 348.696L26.229 348.464L26.0167 348.234L25.8019 348.005L25.5845 347.778L25.3647 347.553L25.1427 347.331L24.9184 347.11L24.6921 346.892L24.4639 346.677L24.2338 346.464L24.002 346.254L23.7686 346.046L23.5337 345.842L23.2976 345.64L23.0602 345.442L22.8218 345.246L22.5824 345.054L22.3422 344.865L22.1014 344.68L21.8601 344.497L21.6183 344.319L21.3764 344.143L21.1344 343.972L20.8924 343.804L20.6506 343.64L20.4092 343.479L20.1682 343.323L19.9279 343.17L19.6885 343.021L19.4499 342.876L19.2125 342.734L18.9762 342.597L18.7414 342.464L18.5081 342.334L18.2765 342.209L18.0468 342.087L17.819 341.97L17.5934 341.856L17.37 341.746L17.1491 341.64L16.9307 341.539L16.7151 341.441L16.5023 341.346L16.2925 341.256L16.0859 341.169L15.8825 341.087L15.6825 341.008L15.486 340.932L15.2933 340.86L15.1043 340.792L14.9193 340.727L14.7383 340.666L14.5615 340.608L14.389 340.553L14.2209 340.502L14.0574 340.454L13.8985 340.409L13.7443 340.367L13.595 340.328L13.4506 340.291L13.3113 340.258L13.1772 340.227L13.0483 340.198L12.9247 340.172L12.8066 340.149L12.6939 340.128L12.5869 340.108L12.4855 340.091L12.3898 340.076L12.2999 340.063L12.2159 340.051L12.1377 340.042L12.0656 340.033L11.9994 340.026L11.9394 340.02L11.8854 340.015L11.8375 340.012L11.7959 340.009L11.7604 340.007L11.7312 340.006L11.7082 340.005L11.6915 340.004L11.6811 340.004L11.6769 340.004L11.6791 340.004L11.6875 340.004L11.7022 340.004L11.7232 340.003L11.7504 340.002L11.7839 340L11.8236 339.997L11.8695 339.994L11.9215 339.99L11.9796 339.984L12.0439 339.978L12.1141 339.97L12.1903 339.96L12.2725 339.949L12.3605 339.936L12.4544 339.922L12.554 339.905L12.6592 339.887L12.7701 339.866L12.8865 339.844L13.0084 339.818L13.1356 339.791L13.268 339.761L13.4057 339.728L13.5485 339.693L13.6962 339.654L13.8488 339.613L14.0062 339.569L14.1683 339.522L14.335 339.471L14.5061 339.418L14.6815 339.361L14.8612 339.301L15.045 339.237L15.2327 339.17L15.4242 339.099L15.6195 339.025L15.8184 338.947L16.0207 338.866L16.2263 338.78L16.4352 338.691L16.647 338.598L16.8618 338.501L17.0793 338.401L17.2994 338.296L17.522 338.188L17.7469 338.075L17.974 337.959L18.2032 337.839L18.4342 337.714L18.6669 337.586L18.9013 337.454L19.1371 337.318L19.3741 337.178L19.6124 337.034L19.8516 336.886L20.0916 336.735L20.3324 336.579L20.5736 336.42L20.8153 336.257L21.0573 336.09L21.2993 335.92L21.5413 335.746L21.7831 335.568L22.0246 335.387L22.2656 335.203L22.506 335.015L22.7456 334.824L22.9844 334.629L23.2221 334.432L23.4587 334.231L23.6939 334.027L23.9278 333.821L24.1601 333.611L24.3908 333.399L24.6196 333.185L24.8466 332.967L25.0715 332.748L25.2942 332.526L25.5148 332.302L25.7329 332.076L25.9486 331.848L26.1617 331.618L26.3721 331.386L26.5798 331.153L26.7846 330.918L26.9864 330.682L27.1852 330.445L27.3809 330.206L27.5734 329.967L27.7626 329.727L27.9485 329.486L28.1309 329.245L28.3099 329.003L28.4853 328.761L28.6572 328.519L28.8254 328.277L28.9899 328.035L29.1506 327.794L29.3076 327.553L29.4608 327.313L29.6101 327.073L29.7556 326.834L29.8971 326.597L30.0347 326.361L30.1685 326.126L30.2982 325.892L30.424 325.66L30.5459 325.431L30.6638 325.203L30.7778 324.977L30.8878 324.753L30.9939 324.532L31.0961 324.314L31.1944 324.098L31.2889 323.885L31.3795 323.675L31.4664 323.468L31.5495 323.264L31.6289 323.064L31.7046 322.867L31.7767 322.674L31.8452 322.485L31.9102 322.299L31.9718 322.118L32.03 321.941L32.0849 321.768L32.1365 321.6L32.185 321.436L32.2303 321.276L32.2727 321.122L32.3121 320.972L32.3487 320.827L32.3825 320.688L32.4136 320.553L32.4422 320.424L32.4683 320.3L32.492 320.181L32.5134 320.068L32.5327 319.961L32.5499 319.859L32.5652 319.763L32.5786 319.672L32.5903 319.588L32.6004 319.509L32.6089 319.437L32.6161 319.37L32.622 319.309L32.6268 319.255L32.6306 319.207L32.6334 319.165L32.6355 319.129L32.6369 319.099L32.6378 319.075L32.6383 319.058L32.6385 319.047L32.6385 319.043L32.6385 319.044L32.6386 319.052L32.6389 319.066L32.6396 319.087L32.6408 319.114L32.6425 319.147L32.645 319.186L32.6483 319.231L32.6526 319.283L32.6579 319.34L32.6645 319.404L32.6724 319.474L32.6817 319.55L32.6926 319.631L32.7052 319.719L32.7196 319.812L32.7358 319.911L32.7541 320.016L32.7745 320.127L32.7971 320.243L32.8221 320.364L32.8495 320.491L32.8794 320.623L32.9119 320.76L32.9471 320.902L32.9851 321.05L33.0261 321.202L33.07 321.359L33.117 321.521L33.1671 321.687L33.2204 321.858L33.277 322.033L33.3369 322.212L33.4003 322.396L33.4671 322.583L33.5375 322.774L33.6115 322.969L33.6891 323.168L33.7704 323.37L33.8555 323.575L33.9443 323.784L34.037 323.996L34.1334 324.21L34.2338 324.427L34.338 324.647L34.4462 324.87L34.5583 325.094L34.6743 325.321L34.7943 325.55L34.9182 325.781L35.0461 326.014L35.1779 326.248L35.3137 326.484L35.4533 326.721L35.5969 326.959L35.7444 327.198L35.8957 327.438L36.0509 327.679L36.2099 327.92L36.3726 328.162L36.539 328.404L36.7091 328.646L36.8829 328.888L37.0602 329.129L37.2409 329.371L37.4252 329.612L37.6128 329.852L37.8037 330.092L37.9979 330.331L38.1952 330.569L38.3956 330.805L38.599 331.041L38.8053 331.275L39.0145 331.507L39.2263 331.738L39.4407 331.967L39.6577 332.194L39.8771 332.419L40.0988 332.642L40.3227 332.863L40.5487 333.081L40.7767 333.297L41.0065 333.51L41.238 333.721L41.4712 333.929L41.7058 334.134L41.9417 334.336L42.1789 334.535L42.4172 334.731L42.6564 334.924L42.8965 335.113L43.1372 335.299L43.3785 335.482L43.6202 335.661L43.8621 335.837L44.1041 336.009L44.3461 336.178L44.5879 336.342L44.8294 336.504L45.0705 336.661L45.3108 336.814L45.5505 336.964L45.7892 337.11L46.0268 337.252L46.2632 337.39L46.4983 337.524L46.7318 337.654L46.9637 337.78L47.1938 337.902L47.4219 338.02L47.6478 338.134L47.8716 338.245L48.0929 338.351L48.3117 338.454L48.5278 338.552L48.741 338.647L48.9513 338.738L49.1585 338.825L49.3624 338.909L49.5629 338.988L49.7599 339.064L49.9533 339.137L50.1429 339.205L50.3285 339.271L50.5102 339.333L50.6876 339.391L50.8608 339.446L51.0296 339.498L51.1939 339.547L51.3536 339.592L51.5085 339.635L51.6586 339.675L51.8037 339.711L51.9438 339.745L52.0788 339.777L52.2085 339.806L52.333 339.832L52.452 339.856L52.5655 339.877L52.6735 339.897L52.7758 339.914L52.8724 339.93L52.9632 339.943L53.0482 339.955L53.1272 339.965L53.2003 339.974L53.2675 339.981L53.3285 339.987L53.3835 339.992L53.4323 339.996L53.4749 339.999L53.5114 340.001L53.5416 340.002L53.5655 340.003L53.5833 340.004L53.5947 340.004L53.5998 340.004L53.6002 340.004Z" stroke="black"/>
<mask id="path-25-inside-3" fill="white">
<path fill-rule="evenodd" clip-rule="evenodd" d="M104.418 226.304V226.303V226.304ZM104.418 226.303L11.678 226.303L104.418 226.303ZM11.678 226.303L11.678 319.043L11.678 226.303ZM11.678 319.043H11.6783H11.678ZM11.6783 319.043C62.7152 319.043 104.123 277.816 104.416 226.848L11.6783 319.043ZM104.418 226.304C155.635 226.304 197.156 267.825 197.156 319.043L104.524 319.043C155.693 319.101 197.156 360.599 197.156 411.782L104.416 411.782L104.416 319.587C104.123 370.555 62.7152 411.782 11.6783 411.782H11.678L11.678 319.043L104.416 319.043L104.416 319.043L104.416 319.043V226.848"/>
</mask>
<path d="M104.418 226.303H104.918V225.803L104.418 225.803V226.303ZM11.678 226.303L11.678 225.803H11.178L11.178 226.303L11.678 226.303ZM11.678 319.043H11.178V319.543H11.678V319.043ZM11.6783 319.043V319.543H11.8845L12.0308 319.397L11.6783 319.043ZM104.416 226.848L104.768 227.202L104.915 227.056L104.916 226.849L104.416 226.848ZM104.918 226.304V226.303H103.918V226.304H104.918ZM104.418 225.803L11.678 225.803L11.678 226.803L104.418 226.803V225.803ZM11.178 226.303L11.178 319.043H12.178L12.178 226.303L11.178 226.303ZM11.678 319.543H11.6783V318.543H11.678V319.543ZM12.0308 319.397L104.768 227.202L104.063 226.493L11.3258 318.688L12.0308 319.397ZM104.916 226.849L104.918 226.305L103.918 226.302L103.916 226.846L104.916 226.849ZM104.418 226.303H105.418V225.303L104.418 225.303V226.303ZM11.678 226.303L11.678 225.303H10.678L10.678 226.303L11.678 226.303ZM11.678 319.043H10.678V320.043H11.678V319.043ZM104.416 226.848H105.416L103.416 226.842L104.416 226.848ZM197.156 319.043V320.043H198.156V319.043H197.156ZM104.524 319.043V318.043L104.523 320.043L104.524 319.043ZM197.156 411.782V412.782H198.156V411.782H197.156ZM104.416 411.782H103.416V412.782H104.416V411.782ZM104.416 319.587H105.416L103.416 319.581L104.416 319.587ZM11.678 411.782H10.678V412.782H11.678V411.782ZM11.678 319.043L11.678 318.043H10.678L10.678 319.043H11.678ZM104.416 319.043V320.043H105.48L105.414 318.981L104.416 319.043ZM104.416 319.043L103.424 318.919L103.412 319.012L103.418 319.105L104.416 319.043ZM104.416 319.043L105.408 319.167L105.416 319.105V319.043H104.416ZM105.418 226.304V226.303H103.418V226.304H105.418ZM104.418 225.303L11.678 225.303L11.678 227.303L104.418 227.303V225.303ZM10.678 226.303L10.678 319.043H12.678L12.678 226.303L10.678 226.303ZM11.678 320.043H11.6783V318.043H11.678V320.043ZM11.6783 320.043C63.2655 320.043 105.12 278.371 105.416 226.854L103.416 226.842C103.126 277.26 62.1648 318.043 11.6783 318.043V320.043ZM104.418 227.304C155.083 227.304 196.156 268.377 196.156 319.043H198.156C198.156 267.272 156.188 225.304 104.418 225.304L104.418 227.304ZM197.156 318.043L104.524 318.043V320.043L197.156 320.043V318.043ZM104.523 320.043C155.14 320.1 196.156 361.151 196.156 411.782H198.156C198.156 360.047 156.246 318.102 104.525 318.043L104.523 320.043ZM197.156 410.782L104.416 410.782V412.782L197.156 412.782V410.782ZM105.416 411.782L105.416 319.587H103.416L103.416 411.782H105.416ZM103.416 319.581C103.126 370 62.1648 410.782 11.6783 410.782V412.782C63.2655 412.782 105.12 371.111 105.416 319.593L103.416 319.581ZM11.6783 410.782H11.678V412.782H11.6783V410.782ZM12.678 411.782L12.678 319.043H10.678L10.678 411.782H12.678ZM11.678 320.043L104.416 320.043V318.043L11.678 318.043L11.678 320.043ZM105.414 318.981L105.414 318.98L103.418 319.105L103.418 319.105L105.414 318.981ZM105.408 319.167L105.408 319.167L103.424 318.919L103.424 318.919L105.408 319.167ZM105.416 319.043V226.848H103.416V319.043H105.416Z" fill="black" mask="url(#path-25-inside-3)"/>
<mask id="path-27-inside-4" fill="white">
<path fill-rule="evenodd" clip-rule="evenodd" d="M197.157 133.882L197.157 133.882C197.157 82.6635 155.636 41.1427 104.417 41.1427C53.199 41.1427 11.6782 82.6635 11.6782 133.882L11.6782 133.882L104.417 133.882C53.1989 133.882 11.6782 175.403 11.6782 226.621L104.417 226.621C53.199 226.621 11.6782 268.142 11.6782 319.361L197.157 319.361C197.157 268.142 155.636 226.621 104.417 226.621L197.157 226.621C197.157 175.403 155.636 133.882 104.417 133.882L197.157 133.882Z"/>
</mask>
<path d="M197.157 133.882L196.157 133.882L197.157 133.882ZM197.157 133.882L197.157 134.882L198.157 134.882L198.157 133.882L197.157 133.882ZM11.6782 133.882L10.6782 133.882L10.6782 134.882L11.6782 134.882L11.6782 133.882ZM11.6782 226.621L10.6782 226.621L10.6782 227.621L11.6782 227.621L11.6782 226.621ZM11.6782 319.361L10.6782 319.361L10.6782 320.361L11.6782 320.361L11.6782 319.361ZM197.157 319.361L197.157 320.361L198.157 320.361L198.157 319.361L197.157 319.361ZM197.157 226.621L197.157 227.621L198.157 227.621L198.157 226.621L197.157 226.621ZM196.157 133.882L196.157 133.882L198.157 133.882L198.157 133.882L196.157 133.882ZM104.417 42.1427C155.084 42.1427 196.157 83.2157 196.157 133.882L198.157 133.882C198.157 82.1112 156.188 40.1427 104.417 40.1427L104.417 42.1427ZM12.6782 133.882C12.6782 83.2157 53.7513 42.1427 104.417 42.1427L104.417 40.1427C52.6467 40.1427 10.6782 82.1112 10.6782 133.882L12.6782 133.882ZM12.6782 133.882L12.6782 133.882L10.6782 133.882L10.6782 133.882L12.6782 133.882ZM104.417 132.882L11.6782 132.882L11.6782 134.882L104.417 134.882L104.417 132.882ZM104.417 132.882C52.6466 132.882 10.6782 174.851 10.6782 226.621L12.6782 226.621C12.6782 175.955 53.7512 134.882 104.417 134.882L104.417 132.882ZM11.6782 227.621L104.417 227.621L104.417 225.621L11.6782 225.621L11.6782 227.621ZM104.417 225.621C52.6467 225.621 10.6782 267.59 10.6782 319.361L12.6782 319.361C12.6782 268.694 53.7512 227.621 104.417 227.621L104.417 225.621ZM11.6782 320.361L197.157 320.361L197.157 318.361L11.6782 318.361L11.6782 320.361ZM198.157 319.361C198.157 267.59 156.188 225.621 104.417 225.621L104.417 227.621C155.084 227.621 196.157 268.694 196.157 319.361L198.157 319.361ZM104.417 227.621L197.157 227.621L197.157 225.621L104.417 225.621L104.417 227.621ZM198.157 226.621C198.157 174.851 156.188 132.882 104.417 132.882L104.417 134.882C155.084 134.882 196.157 175.955 196.157 226.621L198.157 226.621ZM197.157 132.882L104.417 132.882L104.417 134.882L197.157 134.882L197.157 132.882Z" fill="black" mask="url(#path-27-inside-4)"/>
<defs>
<linearGradient id="paint0_linear" x1="196.723" y1="365.396" x2="392.999" y2="365.396" gradientUnits="userSpaceOnUse">
<stop stop-color="#74EBD5"/>
<stop offset="1" stop-color="#9FACE6"/>
</linearGradient>
<linearGradient id="paint1_linear" x1="11.6769" y1="179.949" x2="207.954" y2="179.949" gradientUnits="userSpaceOnUse">
<stop stop-color="#74EBD5"/>
<stop offset="1" stop-color="#9FACE6"/>
</linearGradient>
</defs>
</svg>
