<svg width="393" height="546" viewBox="0 0 393 546" fill="none" xmlns="http://www.w3.org/2000/svg">
<path fill-rule="evenodd" clip-rule="evenodd" d="M325.432 319.043H325.237C325.361 320.566 325.426 322.1 325.432 323.643V319.043ZM325.432 396.087V324.08C325.254 372.553 266.107 411.811 193.172 411.811C190.74 411.811 188.323 411.767 185.924 411.681V411.811H242.695V411.812H382.203V319.043H382.007C382.136 320.638 382.202 322.245 382.202 323.862C382.202 353.774 359.745 380.199 325.432 396.087ZM250.078 411.811C250.032 411.811 249.987 411.811 249.941 411.811C249.896 411.811 249.85 411.811 249.805 411.811H250.078Z" fill="url(#paint0_linear)"/>
<path fill-rule="evenodd" clip-rule="evenodd" d="M253.491 133.564H253.687C253.557 135.16 253.492 136.766 253.492 138.383C253.492 186.956 312.707 226.333 385.752 226.333C388.183 226.333 390.599 226.289 392.998 226.203V226.333H336.23V226.333H196.723V138.524C196.793 168.378 219.232 194.744 253.491 210.608V133.564ZM328.872 226.333C328.909 226.333 328.946 226.333 328.983 226.333C329.02 226.333 329.057 226.333 329.094 226.333H328.872ZM196.723 133.565H196.918C196.792 135.114 196.726 136.673 196.723 138.242V133.565Z" fill="#00FF00"/>
<path d="M305.24 127.86C304.154 130.147 301.695 131.737 298.009 132.575C294.331 133.412 289.519 133.478 283.888 132.789C272.632 131.411 258.222 127.032 243.339 119.966C228.456 112.899 215.955 104.5 207.773 96.6481C203.68 92.7203 200.689 88.9493 199.012 85.5699C197.333 82.184 197.011 79.2733 198.096 76.9867C199.182 74.7001 201.641 73.1102 205.327 72.2715C209.005 71.4345 213.818 71.3688 219.448 72.058C230.704 73.4355 245.114 77.8144 259.997 84.8811C274.881 91.9479 287.382 100.347 295.564 108.199C299.657 112.126 302.648 115.897 304.324 119.277C306.003 122.663 306.326 125.573 305.24 127.86Z" stroke="black"/>
<path d="M305.24 116.104C304.154 118.391 301.695 119.981 298.009 120.82C294.331 121.657 289.519 121.722 283.888 121.033C272.632 119.656 258.222 115.277 243.339 108.21C228.456 101.143 215.955 92.7445 207.773 84.8926C203.68 80.9647 200.689 77.1937 199.012 73.8143C197.333 70.4285 197.011 67.5177 198.096 65.2311C199.182 62.9446 201.641 61.3546 205.327 60.516C209.005 59.6789 213.818 59.6133 219.448 60.3024C230.704 61.68 245.114 66.0588 259.997 73.1256C274.881 80.1923 287.382 88.5911 295.564 96.443C299.657 100.371 302.648 104.142 304.324 107.521C306.003 110.907 306.326 113.818 305.24 116.104Z" stroke="black"/>
<path d="M305.24 104.349C304.154 106.636 301.695 108.225 298.009 109.064C294.331 109.901 289.519 109.967 283.888 109.278C272.632 107.9 258.222 103.521 243.339 96.4545C228.456 89.3877 215.955 80.9889 207.773 73.137C203.68 69.2091 200.689 65.4381 199.012 62.0588C197.333 58.6729 197.011 55.7622 198.096 53.4756C199.182 51.189 201.641 49.5991 205.327 48.7604C209.005 47.9233 213.818 47.8577 219.448 48.5468C230.704 49.9244 245.114 54.3033 259.997 61.37C274.881 68.4368 287.382 76.8356 295.564 84.6875C299.657 88.6154 302.648 92.3864 304.324 95.7657C306.003 99.1516 306.326 102.062 305.24 104.349Z" stroke="black"/>
<path d="M305.24 92.5931C304.154 94.8797 301.695 96.4696 298.009 97.3083C294.331 98.1454 289.519 98.211 283.888 97.5219C272.632 96.1443 258.222 91.7654 243.339 84.6987C228.456 77.6319 215.955 69.2331 207.773 61.3812C203.68 57.4533 200.689 53.6823 199.012 50.303C197.333 46.9171 197.011 44.0064 198.096 41.7198C199.182 39.4332 201.641 37.8433 205.327 37.0046C209.005 36.1676 213.818 36.1019 219.448 36.791C230.704 38.1686 245.114 42.5475 259.997 49.6142C274.881 56.681 287.382 65.0798 295.564 72.9317C299.657 76.8596 302.648 80.6306 304.324 84.0099C306.003 87.3958 306.326 90.3066 305.24 92.5931Z" stroke="black"/>
<path d="M305.24 80.8373C304.154 83.1238 301.695 84.7138 298.009 85.5524C294.331 86.3895 289.519 86.4551 283.888 85.766C272.632 84.3884 258.222 80.0096 243.339 72.9428C228.456 65.8761 215.955 57.4773 207.773 49.6254C203.68 45.6975 200.689 41.9265 199.012 38.5471C197.333 35.1613 197.011 32.2505 198.096 29.9639C199.182 27.6773 201.641 26.0874 205.327 25.2487C209.005 24.4117 213.818 24.3461 219.448 25.0352C230.704 26.4128 245.114 30.7916 259.997 37.8584C274.881 44.9251 287.382 53.3239 295.564 61.1758C299.657 65.1037 302.648 68.8747 304.324 72.2541C306.003 75.6399 306.326 78.5507 305.24 80.8373Z" stroke="black"/>
<path d="M305.24 69.0817C304.154 71.3683 301.695 72.9582 298.009 73.7969C294.331 74.6339 289.519 74.6996 283.888 74.0104C272.632 72.6329 258.222 68.254 243.339 61.1873C228.456 54.1205 215.955 45.7217 207.773 37.8698C203.68 33.9419 200.689 30.1709 199.012 26.7916C197.333 23.4057 197.011 20.4949 198.096 18.2084C199.182 15.9218 201.641 14.3319 205.327 13.4932C209.005 12.6561 213.818 12.5905 219.448 13.2796C230.704 14.6572 245.114 19.0361 259.997 26.1028C274.881 33.1696 287.382 41.5684 295.564 49.4203C299.657 53.3481 302.648 57.1191 304.324 60.4985C306.003 63.8844 306.326 66.7951 305.24 69.0817Z" stroke="black"/>
<path fill-rule="evenodd" clip-rule="evenodd" d="M376.487 103.922L376.485 103.924L376.478 103.931L376.467 103.943L376.452 103.959L376.433 103.98L376.41 104.005L376.383 104.036L376.353 104.071L376.318 104.112L376.28 104.158L376.239 104.209L376.195 104.265L376.147 104.327L376.096 104.393L376.042 104.465L375.986 104.543L375.927 104.626L375.865 104.714L375.801 104.808L375.734 104.907L375.665 105.012L375.595 105.122L375.522 105.238L375.447 105.36L375.371 105.486L375.294 105.619L375.215 105.757L375.134 105.9L375.053 106.049L374.971 106.203L374.887 106.363L374.803 106.528L374.719 106.699L374.634 106.874L374.549 107.056L374.463 107.242L374.378 107.433L374.292 107.63L374.207 107.831L374.122 108.038L374.037 108.249L373.953 108.466L373.87 108.687L373.787 108.912L373.706 109.143L373.625 109.377L373.546 109.617L373.468 109.86L373.391 110.108L373.316 110.36L373.242 110.616L373.17 110.875L373.1 111.139L373.032 111.406L372.965 111.677L372.901 111.951L372.839 112.229L372.779 112.509L372.721 112.793L372.666 113.08L372.613 113.369L372.563 113.661L372.515 113.956L372.47 114.252L372.428 114.552L372.388 114.853L372.352 115.156L372.318 115.461L372.287 115.767L372.259 116.075L372.234 116.385L372.212 116.695L372.194 117.007L372.178 117.319L372.165 117.632L372.156 117.946L372.149 118.26L372.146 118.575L372.146 118.889L372.149 119.203L372.155 119.517L372.164 119.831L372.177 120.144L372.192 120.457L372.211 120.769L372.232 121.079L372.257 121.389L372.285 121.697L372.315 122.003L372.349 122.308L372.385 122.612L372.425 122.913L372.467 123.212L372.512 123.51L372.559 123.804L372.609 124.096L372.662 124.386L372.717 124.673L372.774 124.957L372.834 125.238L372.896 125.516L372.96 125.79L373.026 126.061L373.094 126.329L373.164 126.592L373.236 126.852L373.31 127.109L373.385 127.361L373.462 127.609L373.54 127.853L373.619 128.092L373.699 128.327L373.781 128.558L373.863 128.784L373.947 129.006L374.03 129.222L374.115 129.434L374.2 129.641L374.285 129.843L374.371 130.04L374.456 130.232L374.542 130.418L374.627 130.6L374.712 130.776L374.797 130.947L374.881 131.113L374.964 131.273L375.047 131.428L375.128 131.577L375.208 131.721L375.288 131.859L375.365 131.992L375.442 132.119L375.516 132.241L375.589 132.357L375.66 132.468L375.729 132.573L375.796 132.673L375.86 132.767L375.922 132.856L375.981 132.939L376.038 133.017L376.092 133.09L376.143 133.157L376.191 133.219L376.236 133.275L376.277 133.327L376.315 133.373L376.35 133.414L376.381 133.45L376.408 133.481L376.431 133.507L376.451 133.528L376.466 133.545L376.477 133.557L376.484 133.564L376.487 133.566L376.485 133.565L376.478 133.558L376.467 133.548L376.452 133.533L376.431 133.514L376.406 133.492L376.376 133.465L376.34 133.435L376.3 133.401L376.255 133.363L376.204 133.322L376.149 133.278L376.088 133.231L376.021 133.18L375.95 133.127L375.872 133.07L375.79 133.011L375.702 132.95L375.609 132.886L375.51 132.819L375.405 132.751L375.296 132.68L375.18 132.608L375.059 132.533L374.933 132.457L374.801 132.38L374.663 132.301L374.52 132.221L374.372 132.139L374.218 132.057L374.059 131.974L373.894 131.89L373.724 131.805L373.549 131.72L373.368 131.635L373.182 131.55L372.991 131.464L372.795 131.379L372.594 131.293L372.388 131.208L372.177 131.124L371.961 131.04L371.74 130.956L371.515 130.874L371.285 130.792L371.05 130.711L370.811 130.632L370.568 130.554L370.321 130.477L370.069 130.401L369.814 130.328L369.554 130.255L369.291 130.185L369.024 130.117L368.754 130.05L368.48 129.986L368.203 129.923L367.922 129.863L367.639 129.805L367.352 129.75L367.063 129.697L366.771 129.646L366.477 129.599L366.18 129.553L365.881 129.511L365.58 129.471L365.277 129.434L364.972 129.4L364.666 129.369L364.358 129.341L364.049 129.316L363.738 129.294L363.427 129.275L363.115 129.259L362.801 129.246L362.488 129.236L362.174 129.229L361.859 129.226L361.545 129.225L361.231 129.228L360.916 129.234L360.603 129.243L360.289 129.255L359.977 129.271L359.665 129.289L359.355 129.31L359.045 129.335L358.737 129.362L358.43 129.393L358.125 129.426L357.821 129.462L357.52 129.501L357.22 129.543L356.923 129.588L356.628 129.635L356.336 129.685L356.046 129.737L355.759 129.792L355.475 129.849L355.193 129.909L354.915 129.971L354.641 130.034L354.369 130.101L354.102 130.169L353.837 130.238L353.577 130.31L353.321 130.384L353.068 130.459L352.82 130.535L352.575 130.613L352.336 130.692L352.1 130.773L351.869 130.854L351.643 130.936L351.421 131.02L351.204 131.103L350.991 131.188L350.784 131.273L350.582 131.358L350.384 131.444L350.192 131.529L350.005 131.615L349.823 131.7L349.647 131.785L349.475 131.87L349.309 131.954L349.149 132.037L348.994 132.12L348.844 132.201L348.7 132.282L348.561 132.361L348.427 132.439L348.3 132.515L348.177 132.59L348.061 132.663L347.95 132.734L347.844 132.803L347.744 132.87L347.649 132.935L347.56 132.997L347.476 133.056L347.398 133.113L347.325 133.168L347.257 133.219L347.195 133.267L347.138 133.312L347.086 133.354L347.039 133.392L346.998 133.427L346.962 133.458L346.93 133.486L346.904 133.509L346.882 133.529L346.865 133.545L346.853 133.556L346.845 133.563L346.843 133.566L346.844 133.565L346.85 133.559L346.86 133.548L346.874 133.533L346.893 133.513L346.915 133.488L346.942 133.458L346.972 133.423L347.005 133.383L347.043 133.338L347.083 133.288L347.127 133.233L347.174 133.172L347.225 133.106L347.278 133.035L347.334 132.958L347.393 132.876L347.454 132.789L347.518 132.696L347.584 132.598L347.653 132.494L347.723 132.384L347.796 132.269L347.87 132.149L347.946 132.023L348.023 131.891L348.102 131.754L348.182 131.612L348.263 131.464L348.345 131.31L348.429 131.151L348.512 130.987L348.597 130.817L348.682 130.642L348.767 130.462L348.853 130.277L348.938 130.086L349.024 129.891L349.109 129.69L349.194 129.484L349.279 129.273L349.363 129.058L349.446 128.838L349.529 128.613L349.61 128.383L349.691 128.149L349.771 127.91L349.849 127.667L349.926 127.42L350.002 127.169L350.075 126.914L350.148 126.655L350.218 126.392L350.287 126.125L350.354 125.855L350.418 125.581L350.481 125.304L350.541 125.024L350.599 124.741L350.655 124.455L350.708 124.166L350.759 123.874L350.807 123.58L350.852 123.284L350.895 122.985L350.935 122.684L350.972 122.381L351.006 122.076L351.037 121.77L351.066 121.462L351.091 121.153L351.114 120.843L351.133 120.531L351.149 120.219L351.162 119.906L351.172 119.592L351.179 119.278L351.183 118.964L351.184 118.65L351.181 118.335L351.175 118.021L351.167 117.707L351.155 117.394L351.14 117.081L351.122 116.77L351.1 116.459L351.076 116.149L351.049 115.841L351.019 115.534L350.986 115.229L350.95 114.925L350.911 114.623L350.869 114.324L350.825 114.026L350.778 113.731L350.728 113.438L350.676 113.148L350.621 112.861L350.564 112.577L350.505 112.295L350.443 112.017L350.38 111.742L350.314 111.47L350.246 111.202L350.176 110.938L350.104 110.677L350.031 110.421L349.956 110.168L349.88 109.919L349.802 109.674L349.723 109.434L349.643 109.198L349.561 108.967L349.479 108.74L349.396 108.518L349.312 108.3L349.228 108.088L349.143 107.88L349.058 107.677L348.972 107.48L348.887 107.287L348.801 107.099L348.716 106.917L348.631 106.74L348.546 106.568L348.462 106.402L348.378 106.241L348.296 106.085L348.214 105.935L348.134 105.79L348.054 105.651L347.976 105.518L347.9 105.389L347.825 105.267L347.752 105.149L347.68 105.038L347.611 104.932L347.544 104.831L347.479 104.736L347.417 104.646L347.357 104.562L347.3 104.483L347.246 104.41L347.194 104.342L347.146 104.279L347.1 104.222L347.058 104.17L347.02 104.123L346.985 104.081L346.953 104.044L346.925 104.012L346.901 103.985L346.881 103.963L346.865 103.946L346.853 103.933L346.846 103.926L346.843 103.922L346.844 103.923L346.849 103.929L346.86 103.939L346.875 103.953L346.894 103.971L346.919 103.993L346.948 104.019L346.983 104.049L347.022 104.082L347.067 104.119L347.117 104.159L347.171 104.203L347.232 104.25L347.297 104.3L347.368 104.353L347.444 104.409L347.526 104.468L347.613 104.529L347.705 104.593L347.803 104.659L347.907 104.727L348.016 104.797L348.13 104.869L348.25 104.943L348.376 105.019L348.507 105.096L348.644 105.175L348.786 105.255L348.933 105.336L349.086 105.418L349.245 105.502L349.409 105.585L349.578 105.67L349.752 105.755L349.932 105.84L350.117 105.925L350.307 106.011L350.503 106.096L350.703 106.182L350.908 106.267L351.119 106.352L351.334 106.436L351.554 106.519L351.778 106.602L352.007 106.684L352.241 106.764L352.479 106.844L352.722 106.923L352.969 107L353.22 107.075L353.474 107.149L353.733 107.222L353.996 107.292L354.262 107.361L354.532 107.428L354.806 107.493L355.082 107.556L355.362 107.616L355.645 107.674L355.931 107.73L356.22 107.783L356.511 107.834L356.805 107.883L357.102 107.928L357.4 107.971L357.701 108.011L358.004 108.049L358.308 108.083L358.614 108.115L358.922 108.143L359.231 108.169L359.541 108.192L359.853 108.211L360.165 108.228L360.478 108.241L360.791 108.251L361.105 108.258L361.42 108.263L361.734 108.263L362.049 108.261L362.363 108.256L362.677 108.247L362.99 108.235L363.303 108.221L363.614 108.203L363.925 108.182L364.235 108.158L364.544 108.131L364.851 108.101L365.156 108.068L365.46 108.032L365.762 107.994L366.061 107.952L366.359 107.908L366.654 107.861L366.947 107.812L367.237 107.76L367.525 107.706L367.81 107.649L368.091 107.59L368.37 107.528L368.645 107.464L368.917 107.399L369.185 107.331L369.45 107.261L369.711 107.19L369.968 107.117L370.221 107.042L370.47 106.966L370.715 106.888L370.956 106.809L371.192 106.729L371.424 106.648L371.651 106.565L371.873 106.482L372.091 106.399L372.304 106.314L372.512 106.229L372.716 106.144L372.914 106.059L373.107 105.973L373.295 105.888L373.477 105.802L373.655 105.717L373.827 105.632L373.994 105.548L374.155 105.465L374.311 105.382L374.462 105.3L374.607 105.22L374.747 105.14L374.881 105.062L375.01 104.985L375.133 104.91L375.25 104.837L375.362 104.766L375.469 104.696L375.57 104.629L375.666 104.564L375.756 104.502L375.84 104.442L375.919 104.384L375.993 104.33L376.062 104.278L376.125 104.229L376.183 104.184L376.235 104.141L376.283 104.102L376.325 104.067L376.362 104.035L376.394 104.007L376.422 103.983L376.444 103.962L376.462 103.946L376.475 103.934L376.483 103.926L376.487 103.922L376.487 103.922Z" stroke="black"/>
<path fill-rule="evenodd" clip-rule="evenodd" d="M238.646 340.004L238.643 340.004L238.633 340.004L238.618 340.005L238.596 340.005L238.567 340.007L238.533 340.009L238.492 340.011L238.445 340.015L238.392 340.019L238.333 340.025L238.268 340.032L238.197 340.04L238.12 340.05L238.037 340.061L237.948 340.074L237.853 340.089L237.752 340.106L237.646 340.124L237.534 340.145L237.417 340.168L237.294 340.194L237.166 340.222L237.033 340.252L236.895 340.286L236.751 340.322L236.603 340.36L236.449 340.402L236.291 340.447L236.128 340.494L235.961 340.545L235.789 340.599L235.613 340.657L235.433 340.717L235.248 340.782L235.06 340.849L234.868 340.92L234.672 340.995L234.472 341.074L234.269 341.156L234.063 341.242L233.854 341.332L233.642 341.425L233.427 341.523L233.209 341.624L232.988 341.729L232.765 341.838L232.54 341.951L232.312 342.068L232.083 342.189L231.852 342.314L231.619 342.443L231.384 342.576L231.148 342.712L230.911 342.853L230.672 342.997L230.433 343.146L230.193 343.298L229.952 343.454L229.711 343.614L229.469 343.778L229.227 343.945L228.985 344.116L228.743 344.29L228.501 344.469L228.26 344.65L228.019 344.835L227.779 345.024L227.539 345.215L227.3 345.41L227.063 345.608L226.827 345.81L226.591 346.014L226.358 346.221L226.126 346.43L225.895 346.643L225.667 346.858L225.44 347.076L225.216 347.295L224.993 347.518L224.773 347.742L224.555 347.969L224.34 348.197L224.127 348.427L223.917 348.659L223.71 348.893L223.506 349.128L223.304 349.364L223.106 349.601L222.911 349.84L222.719 350.079L222.53 350.32L222.345 350.56L222.163 350.802L221.985 351.044L221.81 351.286L221.639 351.528L221.471 351.77L221.307 352.011L221.147 352.253L220.99 352.494L220.838 352.734L220.689 352.973L220.544 353.212L220.403 353.449L220.266 353.685L220.133 353.92L220.004 354.153L219.879 354.384L219.758 354.614L219.641 354.842L219.527 355.067L219.418 355.29L219.312 355.511L219.211 355.729L219.113 355.945L219.019 356.157L218.929 356.367L218.843 356.573L218.76 356.776L218.682 356.976L218.606 357.172L218.535 357.365L218.467 357.553L218.402 357.738L218.341 357.919L218.284 358.095L218.229 358.267L218.178 358.435L218.13 358.598L218.085 358.757L218.044 358.91L218.005 359.059L217.969 359.203L217.935 359.342L217.904 359.476L217.876 359.604L217.851 359.728L217.827 359.845L217.806 359.957L217.787 360.064L217.77 360.165L217.755 360.26L217.742 360.35L217.731 360.433L217.721 360.511L217.713 360.583L217.706 360.648L217.7 360.708L217.695 360.761L217.692 360.809L217.689 360.85L217.687 360.885L217.686 360.914L217.685 360.936L217.684 360.952L217.684 360.962L217.684 360.966L217.684 360.963L217.684 360.954L217.684 360.939L217.683 360.918L217.682 360.89L217.68 360.856L217.677 360.816L217.674 360.769L217.669 360.717L217.664 360.658L217.657 360.593L217.649 360.523L217.639 360.446L217.628 360.363L217.615 360.275L217.601 360.181L217.584 360.081L217.566 359.975L217.545 359.863L217.522 359.747L217.496 359.624L217.469 359.497L217.438 359.364L217.405 359.226L217.37 359.083L217.331 358.934L217.29 358.781L217.245 358.624L217.198 358.461L217.147 358.294L217.094 358.123L217.036 357.947L216.976 357.767L216.912 357.583L216.845 357.395L216.774 357.203L216.699 357.007L216.621 356.808L216.539 356.606L216.453 356.4L216.364 356.191L216.271 355.979L216.174 355.764L216.073 355.546L215.968 355.326L215.859 355.103L215.746 354.878L215.63 354.65L215.509 354.421L215.384 354.19L215.256 353.957L215.123 353.723L214.987 353.487L214.847 353.25L214.703 353.011L214.554 352.772L214.403 352.532L214.247 352.291L214.087 352.05L213.924 351.808L213.757 351.566L213.586 351.324L213.412 351.082L213.234 350.84L213.053 350.599L212.868 350.358L212.68 350.118L212.488 349.878L212.294 349.639L212.096 349.402L211.895 349.165L211.691 348.93L211.484 348.696L211.275 348.464L211.062 348.234L210.848 348.005L210.63 347.778L210.41 347.553L210.188 347.331L209.964 347.11L209.738 346.892L209.51 346.677L209.279 346.464L209.048 346.254L208.814 346.046L208.579 345.842L208.343 345.64L208.106 345.442L207.867 345.246L207.628 345.054L207.388 344.865L207.147 344.68L206.906 344.497L206.664 344.319L206.422 344.143L206.18 343.972L205.938 343.804L205.696 343.64L205.455 343.479L205.214 343.323L204.974 343.17L204.734 343.021L204.496 342.876L204.258 342.734L204.022 342.597L203.787 342.464L203.554 342.334L203.322 342.209L203.093 342.087L202.865 341.97L202.639 341.856L202.416 341.746L202.195 341.64L201.976 341.539L201.761 341.441L201.548 341.346L201.338 341.256L201.132 341.169L200.928 341.087L200.728 341.008L200.532 340.932L200.339 340.86L200.15 340.792L199.965 340.727L199.784 340.666L199.607 340.608L199.435 340.553L199.267 340.502L199.103 340.454L198.944 340.409L198.79 340.367L198.641 340.328L198.496 340.291L198.357 340.258L198.223 340.227L198.094 340.198L197.97 340.172L197.852 340.149L197.74 340.128L197.633 340.108L197.531 340.091L197.436 340.076L197.346 340.063L197.262 340.051L197.183 340.042L197.111 340.033L197.045 340.026L196.985 340.02L196.931 340.015L196.883 340.012L196.842 340.009L196.806 340.007L196.777 340.006L196.754 340.005L196.737 340.004L196.727 340.004L196.723 340.004L196.725 340.004L196.733 340.004L196.748 340.004L196.769 340.003L196.796 340.002L196.83 340L196.869 339.997L196.915 339.994L196.967 339.99L197.025 339.984L197.09 339.978L197.16 339.97L197.236 339.96L197.318 339.949L197.406 339.936L197.5 339.922L197.6 339.905L197.705 339.887L197.816 339.866L197.932 339.844L198.054 339.818L198.181 339.791L198.314 339.761L198.451 339.728L198.594 339.693L198.742 339.654L198.895 339.613L199.052 339.569L199.214 339.522L199.381 339.471L199.552 339.418L199.727 339.361L199.907 339.301L200.091 339.237L200.278 339.17L200.47 339.099L200.665 339.025L200.864 338.947L201.066 338.866L201.272 338.78L201.481 338.691L201.693 338.598L201.907 338.501L202.125 338.401L202.345 338.296L202.568 338.188L202.793 338.075L203.02 337.959L203.249 337.839L203.48 337.714L203.713 337.586L203.947 337.454L204.183 337.318L204.42 337.178L204.658 337.034L204.897 336.886L205.137 336.735L205.378 336.579L205.619 336.42L205.861 336.257L206.103 336.09L206.345 335.92L206.587 335.746L206.829 335.568L207.07 335.387L207.311 335.203L207.552 335.015L207.791 334.824L208.03 334.629L208.268 334.432L208.504 334.231L208.74 334.027L208.974 333.821L209.206 333.611L209.436 333.399L209.665 333.185L209.892 332.967L210.117 332.748L210.34 332.526L210.56 332.302L210.779 332.076L210.994 331.848L211.207 331.618L211.418 331.386L211.625 331.153L211.83 330.918L212.032 330.682L212.231 330.445L212.427 330.206L212.619 329.967L212.808 329.727L212.994 329.486L213.177 329.245L213.356 329.003L213.531 328.761L213.703 328.519L213.871 328.277L214.036 328.035L214.196 327.794L214.353 327.553L214.506 327.313L214.656 327.073L214.801 326.834L214.943 326.597L215.08 326.361L215.214 326.126L215.344 325.892L215.47 325.66L215.592 325.431L215.71 325.203L215.823 324.977L215.934 324.753L216.04 324.532L216.142 324.314L216.24 324.098L216.335 323.885L216.425 323.675L216.512 323.468L216.595 323.264L216.675 323.064L216.75 322.867L216.822 322.674L216.891 322.485L216.956 322.299L217.018 322.118L217.076 321.941L217.131 321.768L217.182 321.6L217.231 321.436L217.276 321.276L217.318 321.122L217.358 320.972L217.394 320.827L217.428 320.688L217.459 320.553L217.488 320.424L217.514 320.3L217.538 320.181L217.559 320.068L217.578 319.961L217.596 319.859L217.611 319.763L217.624 319.672L217.636 319.588L217.646 319.509L217.655 319.437L217.662 319.37L217.668 319.309L217.673 319.255L217.676 319.207L217.679 319.165L217.681 319.129L217.683 319.099L217.684 319.075L217.684 319.058L217.684 319.047L217.684 319.043L217.684 319.044L217.684 319.052L217.685 319.066L217.685 319.087L217.686 319.114L217.688 319.147L217.691 319.186L217.694 319.231L217.698 319.283L217.704 319.34L217.71 319.404L217.718 319.474L217.727 319.55L217.738 319.631L217.751 319.719L217.765 319.812L217.782 319.911L217.8 320.016L217.82 320.127L217.843 320.243L217.868 320.364L217.895 320.491L217.925 320.623L217.958 320.76L217.993 320.902L218.031 321.05L218.072 321.202L218.116 321.359L218.163 321.521L218.213 321.687L218.266 321.858L218.323 322.033L218.383 322.212L218.446 322.396L218.513 322.583L218.583 322.774L218.657 322.969L218.735 323.168L218.816 323.37L218.901 323.575L218.99 323.784L219.083 323.996L219.179 324.21L219.28 324.427L219.384 324.647L219.492 324.87L219.604 325.094L219.72 325.321L219.84 325.55L219.964 325.781L220.092 326.014L220.224 326.248L220.359 326.484L220.499 326.721L220.643 326.959L220.79 327.198L220.941 327.438L221.097 327.679L221.256 327.92L221.418 328.162L221.585 328.404L221.755 328.646L221.929 328.888L222.106 329.129L222.287 329.371L222.471 329.612L222.659 329.852L222.849 330.092L223.044 330.331L223.241 330.569L223.441 330.805L223.645 331.041L223.851 331.275L224.06 331.507L224.272 331.738L224.486 331.967L224.703 332.194L224.923 332.419L225.145 332.642L225.368 332.863L225.594 333.081L225.822 333.297L226.052 333.51L226.284 333.721L226.517 333.929L226.751 334.134L226.987 334.336L227.225 334.535L227.463 334.731L227.702 334.924L227.942 335.113L228.183 335.299L228.424 335.482L228.666 335.661L228.908 335.837L229.15 336.009L229.392 336.178L229.634 336.342L229.875 336.504L230.116 336.661L230.357 336.814L230.596 336.964L230.835 337.11L231.073 337.252L231.309 337.39L231.544 337.524L231.778 337.654L232.009 337.78L232.239 337.902L232.468 338.02L232.694 338.134L232.917 338.245L233.139 338.351L233.357 338.454L233.573 338.552L233.787 338.647L233.997 338.738L234.204 338.825L234.408 338.909L234.609 338.988L234.806 339.064L234.999 339.137L235.189 339.205L235.374 339.271L235.556 339.333L235.733 339.391L235.907 339.446L236.075 339.498L236.24 339.547L236.399 339.592L236.554 339.635L236.704 339.675L236.849 339.711L236.99 339.745L237.125 339.777L237.254 339.806L237.379 339.832L237.498 339.856L237.611 339.877L237.719 339.897L237.821 339.914L237.918 339.93L238.009 339.943L238.094 339.955L238.173 339.965L238.246 339.974L238.313 339.981L238.374 339.987L238.429 339.992L238.478 339.996L238.521 339.999L238.557 340.001L238.587 340.002L238.611 340.003L238.629 340.004L238.64 340.004L238.646 340.004L238.646 340.004Z" stroke="black"/>
<mask id="path-11-inside-1" fill="white">
<path fill-rule="evenodd" clip-rule="evenodd" d="M289.463 226.304V226.303V226.304ZM289.463 226.303L196.723 226.303L289.463 226.303ZM196.723 226.303L196.723 319.043L196.723 226.303ZM196.723 319.043H196.724H196.723ZM196.724 319.043C247.717 319.043 289.097 277.887 289.461 226.979L196.724 319.043ZM289.463 226.304C340.681 226.304 382.201 267.825 382.201 319.043L289.57 319.043C340.739 319.101 382.201 360.599 382.201 411.782H289.461L289.461 319.719C289.097 370.626 247.717 411.782 196.724 411.782H196.723L196.723 319.043L289.461 319.043L289.461 319.043L289.461 319.043V226.979"/>
</mask>
<path d="M289.463 226.303H289.963V225.803L289.463 225.803V226.303ZM196.723 226.303L196.723 225.803H196.223L196.223 226.303L196.723 226.303ZM196.723 319.043H196.223V319.543H196.723V319.043ZM196.724 319.043V319.543H196.93L197.076 319.398L196.724 319.043ZM289.461 226.979L289.813 227.334L289.96 227.188L289.961 226.981L289.461 226.979ZM289.963 226.304V226.303H288.963V226.304H289.963ZM289.463 225.803L196.723 225.803L196.723 226.803L289.463 226.803V225.803ZM196.223 226.303L196.223 319.043H197.223L197.223 226.303L196.223 226.303ZM196.723 319.543H196.724V318.543H196.723V319.543ZM197.076 319.398L289.813 227.334L289.108 226.624L196.372 318.688L197.076 319.398ZM289.961 226.981L289.963 226.305L288.963 226.302L288.961 226.978L289.961 226.981ZM289.463 226.303H290.463V225.303L289.463 225.303V226.303ZM196.723 226.303L196.723 225.303H195.723L195.723 226.303L196.723 226.303ZM196.723 319.043H195.723V320.043H196.723V319.043ZM289.461 226.979H290.461L288.461 226.972L289.461 226.979ZM382.201 319.043V320.043H383.201V319.043H382.201ZM289.57 319.043V318.043L289.568 320.043L289.57 319.043ZM382.201 411.782V412.782H383.201V411.782H382.201ZM289.461 411.782H288.461V412.782H289.461V411.782ZM289.461 319.719H290.461L288.461 319.711L289.461 319.719ZM196.723 411.782H195.723V412.782H196.723V411.782ZM196.723 319.043L196.723 318.043H195.723L195.723 319.043H196.723ZM289.461 319.043V320.043H290.503L290.46 319.001L289.461 319.043ZM289.461 319.043L288.468 318.919L288.458 319.001L288.462 319.084L289.461 319.043ZM289.461 319.043L290.453 319.167L290.461 319.105V319.043H289.461ZM290.463 226.304V226.303H288.463V226.304H290.463ZM289.463 225.303L196.723 225.303L196.723 227.303L289.463 227.303V225.303ZM195.723 226.303L195.723 319.043H197.723L197.723 226.303L195.723 226.303ZM196.723 320.043H196.724V318.043H196.723V320.043ZM196.724 320.043C248.267 320.043 290.093 278.443 290.461 226.986L288.461 226.972C288.101 277.33 247.167 318.043 196.724 318.043V320.043ZM289.463 227.304C340.129 227.304 381.201 268.377 381.201 319.043H383.201C383.201 267.272 341.233 225.304 289.463 225.304L289.463 227.304ZM382.201 318.043L289.57 318.043V320.043L382.201 320.043V318.043ZM289.568 320.043C340.186 320.1 381.201 361.151 381.201 411.782H383.201C383.201 360.047 341.292 318.102 289.571 318.043L289.568 320.043ZM382.201 410.782H289.461V412.782H382.201V410.782ZM290.461 411.782L290.461 319.719H288.461L288.461 411.782H290.461ZM288.461 319.711C288.101 370.07 247.167 410.782 196.724 410.782V412.782C248.267 412.782 290.093 371.182 290.461 319.726L288.461 319.711ZM196.724 410.782H196.723V412.782H196.724V410.782ZM197.723 411.782L197.723 319.043H195.723L195.723 411.782H197.723ZM196.723 320.043L289.461 320.043V318.043L196.723 318.043L196.723 320.043ZM290.46 319.001L290.46 319.001L288.462 319.084L288.462 319.085L290.46 319.001ZM290.453 319.167L290.453 319.167L288.468 318.919L288.468 318.919L290.453 319.167ZM290.461 319.043V226.979H288.461V319.043H290.461Z" fill="black" mask="url(#path-11-inside-1)"/>
<mask id="path-13-inside-2" fill="white">
<path fill-rule="evenodd" clip-rule="evenodd" d="M382.203 133.882L382.203 133.882C382.203 82.6635 340.682 41.1427 289.463 41.1427C238.245 41.1427 196.724 82.6635 196.724 133.882L196.724 133.882L289.462 133.882C238.244 133.882 196.723 175.403 196.723 226.621L289.463 226.621C238.244 226.621 196.723 268.142 196.723 319.361L382.202 319.361C382.202 268.142 340.681 226.621 289.463 226.621L382.202 226.621C382.202 175.403 340.681 133.882 289.462 133.882L382.203 133.882Z"/>
</mask>
<path d="M382.203 133.882L383.203 133.882L382.203 133.882ZM382.203 133.882L382.203 134.882L383.203 134.882L383.203 133.882L382.203 133.882ZM196.724 133.882L195.724 133.882L195.724 134.882L196.724 134.882L196.724 133.882ZM289.462 133.882L289.462 134.882L289.462 133.882ZM196.723 226.621L195.723 226.621L195.723 227.621L196.723 227.621L196.723 226.621ZM196.723 319.361L195.723 319.361L195.723 320.361L196.723 320.361L196.723 319.361ZM382.202 319.361L382.202 320.361L383.202 320.361L383.202 319.361L382.202 319.361ZM382.202 226.621L382.202 227.621L383.202 227.621L383.202 226.621L382.202 226.621ZM381.203 133.882L381.203 133.882L383.203 133.882L383.203 133.882L381.203 133.882ZM289.463 42.1427C340.13 42.1427 381.203 83.2157 381.203 133.882L383.203 133.882C383.203 82.1112 341.234 40.1427 289.463 40.1427L289.463 42.1427ZM197.724 133.882C197.724 83.2157 238.797 42.1427 289.463 42.1427L289.463 40.1427C237.693 40.1427 195.724 82.1112 195.724 133.882L197.724 133.882ZM197.724 133.882L197.724 133.882L195.724 133.882L195.724 133.882L197.724 133.882ZM289.462 132.882L196.724 132.882L196.724 134.882L289.462 134.882L289.462 132.882ZM289.462 132.882C237.692 132.882 195.723 174.851 195.723 226.621L197.723 226.621C197.723 175.955 238.796 134.882 289.462 134.882L289.462 132.882ZM196.723 227.621L289.463 227.621L289.463 225.621L196.723 225.621L196.723 227.621ZM289.463 225.621C237.692 225.621 195.723 267.59 195.723 319.361L197.723 319.361C197.723 268.694 238.796 227.621 289.463 227.621L289.463 225.621ZM196.723 320.361L382.202 320.361L382.202 318.361L196.723 318.361L196.723 320.361ZM383.202 319.361C383.202 267.59 341.233 225.621 289.463 225.621L289.463 227.621C340.129 227.621 381.202 268.694 381.202 319.361L383.202 319.361ZM289.463 227.621L382.202 227.621L382.202 225.621L289.463 225.621L289.463 227.621ZM383.202 226.621C383.202 174.851 341.233 132.882 289.462 132.882L289.462 134.882C340.129 134.882 381.202 175.955 381.202 226.621L383.202 226.621ZM382.203 132.882L289.462 132.882L289.462 134.882L382.203 134.882L382.203 132.882Z" fill="black" mask="url(#path-13-inside-2)"/>
<path fill-rule="evenodd" clip-rule="evenodd" d="M140.387 226.302H140.191C140.32 224.707 140.386 223.1 140.386 221.483C140.386 172.91 81.1708 133.534 8.12544 133.534C5.69408 133.534 3.27802 133.577 0.878967 133.663V133.534H57.6492V133.533H197.157V226.302H196.962C197.091 224.706 197.157 223.1 197.157 221.483C197.157 191.571 174.7 165.146 140.387 149.257V226.302ZM65.0436 133.534C64.9945 133.534 64.9454 133.534 64.8963 133.534C64.8472 133.534 64.798 133.534 64.7489 133.534H65.0436Z" fill="url(#paint1_linear)"/>
<path fill-rule="evenodd" clip-rule="evenodd" d="M68.4459 411.781H68.6407C68.5169 410.256 68.4515 408.722 68.4459 407.178V411.781ZM68.4459 334.737V406.745C68.6214 358.272 127.769 319.012 200.706 319.012C203.138 319.012 205.554 319.056 207.953 319.142V319.012H151.184V319.011H11.6768V411.78H11.8726C11.7431 410.185 11.6775 408.578 11.6775 406.961C11.6775 377.049 34.1332 350.625 68.4459 334.737ZM143.753 319.012C143.815 319.012 143.876 319.012 143.938 319.012C143.999 319.012 144.061 319.012 144.123 319.012H143.753Z" fill="#00FF00"/>
<path d="M120.193 417.485C119.108 415.198 116.648 413.608 112.963 412.769C109.285 411.932 104.472 411.867 98.8414 412.556C87.5853 413.933 73.1755 418.312 58.2924 425.379C43.4092 432.446 30.9082 440.845 22.7262 448.697C18.6333 452.624 15.6422 456.395 13.966 459.775C12.2867 463.161 11.9643 466.071 13.05 468.358C14.1357 470.645 16.5951 472.234 20.2803 473.073C23.9585 473.91 28.7712 473.976 34.402 473.287C45.6581 471.909 60.0679 467.53 74.951 460.464C89.8342 453.397 102.335 444.998 110.517 437.146C114.61 433.218 117.601 429.447 119.277 426.068C120.957 422.682 121.279 419.771 120.193 417.485Z" stroke="black"/>
<path d="M120.193 429.24C119.108 426.954 116.648 425.364 112.963 424.525C109.285 423.688 104.472 423.622 98.8414 424.311C87.5853 425.689 73.1755 430.068 58.2924 437.135C43.4092 444.201 30.9082 452.6 22.7262 460.452C18.6333 464.38 15.6422 468.151 13.966 471.53C12.2867 474.916 11.9643 477.827 13.05 480.114C14.1357 482.4 16.5951 483.99 20.2803 484.829C23.9585 485.666 28.7712 485.731 34.402 485.042C45.6581 483.665 60.0679 479.286 74.951 472.219C89.8342 465.152 102.335 456.754 110.517 448.902C114.61 444.974 117.601 441.203 119.277 437.823C120.957 434.438 121.279 431.527 120.193 429.24Z" stroke="black"/>
<path d="M120.193 440.996C119.108 438.709 116.648 437.119 112.963 436.281C109.285 435.443 104.472 435.378 98.8414 436.067C87.5853 437.445 73.1755 441.823 58.2924 448.89C43.4092 455.957 30.9082 464.356 22.7262 472.208C18.6333 476.135 15.6422 479.906 13.966 483.286C12.2867 486.672 11.9643 489.582 13.05 491.869C14.1357 494.156 16.5951 495.746 20.2803 496.584C23.9585 497.421 28.7712 497.487 34.402 496.798C45.6581 495.42 60.0679 491.041 74.951 483.975C89.8342 476.908 102.335 468.509 110.517 460.657C114.61 456.729 117.601 452.958 119.277 449.579C120.957 446.193 121.279 443.282 120.193 440.996Z" stroke="black"/>
<path d="M120.193 452.752C119.108 450.465 116.648 448.875 112.963 448.036C109.285 447.199 104.472 447.134 98.8414 447.823C87.5853 449.2 73.1755 453.579 58.2924 460.646C43.4092 467.713 30.9082 476.112 22.7262 483.964C18.6333 487.891 15.6422 491.662 13.966 495.042C12.2867 498.428 11.9643 501.338 13.05 503.625C14.1357 505.912 16.5951 507.501 20.2803 508.34C23.9585 509.177 28.7712 509.243 34.402 508.554C45.6581 507.176 60.0679 502.797 74.951 495.73C89.8342 488.664 102.335 480.265 110.517 472.413C114.61 468.485 117.601 464.714 119.277 461.335C120.957 457.949 121.279 455.038 120.193 452.752Z" stroke="black"/>
<path d="M120.193 464.507C119.108 462.221 116.648 460.631 112.963 459.792C109.285 458.955 104.472 458.89 98.8414 459.579C87.5853 460.956 73.1755 465.335 58.2924 472.402C43.4092 479.469 30.9082 487.867 22.7262 495.719C18.6333 499.647 15.6422 503.418 13.966 506.798C12.2867 510.183 11.9643 513.094 13.05 515.381C14.1357 517.667 16.5951 519.257 20.2803 520.096C23.9585 520.933 28.7712 520.999 34.402 520.31C45.6581 518.932 60.0679 514.553 74.951 507.486C89.8342 500.42 102.335 492.021 110.517 484.169C114.61 480.241 117.601 476.47 119.277 473.091C120.957 469.705 121.279 466.794 120.193 464.507Z" stroke="black"/>
<path d="M120.193 476.263C119.108 473.976 116.648 472.386 112.963 471.548C109.285 470.711 104.472 470.645 98.8414 471.334C87.5853 472.712 73.1755 477.091 58.2924 484.157C43.4092 491.224 30.9082 499.623 22.7262 507.475C18.6333 511.403 15.6422 515.174 13.966 518.553C12.2867 521.939 11.9643 524.85 13.05 527.136C14.1357 529.423 16.5951 531.013 20.2803 531.852C23.9585 532.689 28.7712 532.754 34.402 532.065C45.6581 530.688 60.0679 526.309 74.951 519.242C89.8342 512.175 102.335 503.776 110.517 495.924C114.61 491.997 117.601 488.226 119.277 484.846C120.957 481.46 121.279 478.55 120.193 476.263Z" stroke="black"/>
<path fill-rule="evenodd" clip-rule="evenodd" d="M191.441 441.423L191.439 441.42L191.432 441.414L191.421 441.402L191.406 441.386L191.387 441.365L191.364 441.34L191.337 441.309L191.307 441.273L191.272 441.233L191.235 441.187L191.193 441.136L191.149 441.08L191.101 441.018L191.05 440.951L190.997 440.879L190.94 440.802L190.881 440.719L190.819 440.631L190.755 440.537L190.688 440.438L190.62 440.333L190.549 440.222L190.476 440.107L190.402 439.985L190.325 439.858L190.248 439.726L190.169 439.588L190.089 439.445L190.007 439.296L189.925 439.141L189.841 438.982L189.758 438.817L189.673 438.646L189.588 438.47L189.503 438.289L189.417 438.103L189.332 437.912L189.246 437.715L189.161 437.513L189.076 437.307L188.991 437.095L188.907 436.879L188.824 436.658L188.741 436.432L188.66 436.202L188.579 435.967L188.5 435.728L188.422 435.485L188.345 435.237L188.27 434.985L188.196 434.729L188.124 434.469L188.054 434.206L187.986 433.939L187.919 433.668L187.855 433.394L187.793 433.116L187.733 432.836L187.675 432.552L187.62 432.265L187.567 431.976L187.517 431.684L187.469 431.389L187.424 431.092L187.382 430.793L187.343 430.492L187.306 430.189L187.272 429.884L187.241 429.577L187.213 429.269L187.188 428.96L187.166 428.649L187.148 428.338L187.132 428.025L187.119 427.712L187.11 427.399L187.103 427.084L187.1 426.77L187.1 426.456L187.103 426.141L187.109 425.827L187.118 425.514L187.131 425.2L187.146 424.888L187.165 424.576L187.187 424.266L187.211 423.956L187.239 423.648L187.27 423.341L187.303 423.036L187.34 422.733L187.379 422.432L187.421 422.132L187.466 421.835L187.513 421.54L187.563 421.248L187.616 420.959L187.671 420.672L187.728 420.388L187.788 420.107L187.85 419.829L187.914 419.555L187.98 419.284L188.049 419.016L188.119 418.752L188.19 418.492L188.264 418.236L188.339 417.984L188.416 417.736L188.494 417.492L188.573 417.252L188.653 417.017L188.735 416.787L188.817 416.561L188.901 416.339L188.985 416.122L189.069 415.911L189.154 415.704L189.239 415.502L189.325 415.305L189.41 415.113L189.496 414.926L189.581 414.745L189.666 414.569L189.751 414.398L189.835 414.232L189.918 414.072L190.001 413.917L190.082 413.768L190.162 413.624L190.242 413.486L190.319 413.353L190.396 413.226L190.47 413.104L190.543 412.987L190.614 412.877L190.683 412.771L190.75 412.672L190.814 412.577L190.876 412.489L190.935 412.405L190.992 412.327L191.046 412.255L191.097 412.188L191.145 412.126L191.19 412.069L191.231 412.018L191.27 411.972L191.304 411.931L191.335 411.895L191.362 411.864L191.386 411.838L191.405 411.816L191.42 411.8L191.431 411.788L191.438 411.781L191.441 411.778L191.439 411.78L191.433 411.786L191.422 411.797L191.406 411.812L191.385 411.83L191.36 411.853L191.33 411.88L191.295 411.91L191.254 411.944L191.209 411.981L191.158 412.022L191.103 412.067L191.042 412.114L190.975 412.165L190.904 412.218L190.827 412.274L190.744 412.333L190.656 412.395L190.563 412.459L190.464 412.525L190.36 412.594L190.25 412.665L190.134 412.737L190.013 412.812L189.887 412.888L189.755 412.965L189.617 413.044L189.474 413.124L189.326 413.205L189.172 413.288L189.013 413.371L188.848 413.455L188.678 413.539L188.503 413.624L188.322 413.71L188.136 413.795L187.945 413.881L187.749 413.966L187.548 414.052L187.342 414.137L187.131 414.221L186.915 414.305L186.694 414.389L186.469 414.471L186.239 414.553L186.004 414.633L185.766 414.713L185.522 414.791L185.275 414.868L185.023 414.943L184.768 415.017L184.508 415.089L184.245 415.16L183.978 415.228L183.708 415.295L183.434 415.359L183.157 415.421L182.876 415.482L182.593 415.539L182.306 415.595L182.017 415.648L181.725 415.698L181.431 415.746L181.134 415.791L180.835 415.834L180.534 415.874L180.231 415.91L179.927 415.944L179.62 415.976L179.312 416.004L179.003 416.029L178.692 416.051L178.381 416.07L178.069 416.086L177.756 416.099L177.442 416.109L177.128 416.115L176.813 416.119L176.499 416.119L176.185 416.117L175.871 416.111L175.557 416.102L175.244 416.09L174.931 416.074L174.619 416.056L174.309 416.034L173.999 416.01L173.691 415.983L173.384 415.952L173.079 415.919L172.775 415.883L172.474 415.844L172.174 415.802L171.877 415.757L171.582 415.71L171.29 415.66L171 415.608L170.713 415.553L170.429 415.496L170.147 415.436L169.869 415.374L169.595 415.31L169.323 415.244L169.056 415.176L168.792 415.106L168.531 415.035L168.275 414.961L168.022 414.886L167.774 414.81L167.53 414.732L167.29 414.652L167.054 414.572L166.823 414.491L166.597 414.408L166.375 414.325L166.158 414.241L165.946 414.157L165.738 414.072L165.536 413.987L165.339 413.901L165.146 413.816L164.959 413.73L164.777 413.645L164.601 413.56L164.429 413.475L164.263 413.391L164.103 413.308L163.948 413.225L163.798 413.144L163.654 413.063L163.515 412.984L163.382 412.906L163.254 412.83L163.132 412.755L163.015 412.682L162.904 412.611L162.798 412.542L162.698 412.475L162.603 412.41L162.514 412.348L162.43 412.288L162.352 412.231L162.279 412.177L162.211 412.126L162.149 412.078L162.092 412.033L162.04 411.991L161.994 411.953L161.952 411.918L161.916 411.887L161.884 411.859L161.858 411.835L161.836 411.816L161.819 411.8L161.807 411.789L161.8 411.781L161.797 411.778L161.798 411.78L161.804 411.786L161.814 411.797L161.829 411.812L161.847 411.832L161.869 411.857L161.896 411.887L161.926 411.922L161.959 411.962L161.997 412.006L162.037 412.057L162.081 412.112L162.129 412.173L162.179 412.238L162.232 412.31L162.288 412.386L162.347 412.468L162.408 412.556L162.472 412.649L162.538 412.747L162.607 412.851L162.677 412.961L162.75 413.076L162.824 413.196L162.9 413.322L162.977 413.454L163.056 413.591L163.136 413.733L163.217 413.881L163.3 414.035L163.383 414.193L163.466 414.358L163.551 414.527L163.636 414.702L163.721 414.882L163.807 415.068L163.892 415.259L163.978 415.454L164.063 415.655L164.148 415.861L164.233 416.071L164.317 416.287L164.4 416.507L164.483 416.732L164.565 416.962L164.645 417.196L164.725 417.434L164.803 417.677L164.88 417.924L164.956 418.176L165.03 418.431L165.102 418.69L165.172 418.953L165.241 419.22L165.308 419.49L165.372 419.763L165.435 420.04L165.495 420.32L165.553 420.604L165.609 420.89L165.662 421.179L165.713 421.47L165.761 421.765L165.806 422.061L165.849 422.36L165.889 422.661L165.926 422.964L165.96 423.268L165.991 423.575L166.02 423.882L166.045 424.192L166.068 424.502L166.087 424.813L166.103 425.126L166.116 425.439L166.126 425.752L166.133 426.066L166.137 426.381L166.138 426.695L166.135 427.009L166.13 427.324L166.121 427.637L166.109 427.951L166.094 428.263L166.076 428.575L166.055 428.886L166.03 429.196L166.003 429.504L165.973 429.811L165.94 430.116L165.904 430.42L165.865 430.721L165.823 431.021L165.779 431.318L165.732 431.614L165.682 431.906L165.63 432.196L165.576 432.484L165.519 432.768L165.459 433.049L165.397 433.328L165.334 433.603L165.268 433.874L165.2 434.142L165.13 434.407L165.059 434.667L164.985 434.924L164.91 435.177L164.834 435.426L164.756 435.67L164.677 435.911L164.597 436.146L164.515 436.378L164.433 436.605L164.35 436.827L164.266 437.044L164.182 437.257L164.097 437.465L164.012 437.667L163.926 437.865L163.841 438.058L163.755 438.245L163.67 438.428L163.585 438.605L163.5 438.776L163.416 438.943L163.332 439.104L163.25 439.259L163.168 439.41L163.088 439.554L163.008 439.693L162.93 439.827L162.854 439.955L162.779 440.078L162.706 440.195L162.635 440.307L162.565 440.413L162.498 440.514L162.433 440.609L162.371 440.698L162.311 440.783L162.254 440.861L162.2 440.935L162.148 441.003L162.1 441.066L162.054 441.123L162.012 441.175L161.974 441.222L161.939 441.264L161.907 441.301L161.879 441.333L161.855 441.36L161.835 441.382L161.819 441.399L161.808 441.411L161.8 441.419L161.797 441.422L161.798 441.421L161.804 441.416L161.814 441.406L161.829 441.392L161.848 441.374L161.873 441.352L161.902 441.326L161.937 441.296L161.976 441.263L162.021 441.226L162.071 441.185L162.126 441.141L162.186 441.095L162.251 441.044L162.322 440.991L162.398 440.936L162.48 440.877L162.567 440.816L162.659 440.752L162.757 440.686L162.861 440.618L162.97 440.548L163.084 440.475L163.204 440.401L163.33 440.326L163.461 440.248L163.598 440.17L163.74 440.09L163.887 440.008L164.04 439.926L164.199 439.843L164.363 439.759L164.532 439.675L164.706 439.59L164.886 439.505L165.071 439.419L165.261 439.334L165.457 439.248L165.657 439.163L165.862 439.078L166.073 438.993L166.288 438.909L166.508 438.826L166.732 438.743L166.962 438.661L167.195 438.58L167.433 438.501L167.676 438.422L167.923 438.345L168.174 438.269L168.429 438.195L168.687 438.123L168.95 438.052L169.216 437.984L169.486 437.917L169.76 437.852L170.036 437.789L170.316 437.729L170.599 437.671L170.885 437.615L171.174 437.561L171.465 437.511L171.759 437.462L172.056 437.417L172.354 437.374L172.655 437.333L172.958 437.296L173.262 437.262L173.568 437.23L173.876 437.201L174.185 437.176L174.495 437.153L174.807 437.134L175.119 437.117L175.432 437.104L175.746 437.093L176.06 437.086L176.374 437.082L176.688 437.081L177.003 437.084L177.317 437.089L177.631 437.098L177.944 437.109L178.257 437.124L178.569 437.142L178.879 437.163L179.189 437.187L179.498 437.214L179.805 437.244L180.11 437.277L180.414 437.312L180.716 437.351L181.015 437.392L181.313 437.436L181.608 437.483L181.901 437.533L182.192 437.585L182.479 437.639L182.764 437.696L183.045 437.755L183.324 437.817L183.599 437.88L183.871 437.946L184.139 438.014L184.404 438.083L184.665 438.155L184.922 438.228L185.175 438.303L185.424 438.379L185.669 438.457L185.91 438.536L186.146 438.616L186.378 438.697L186.605 438.779L186.828 438.862L187.045 438.946L187.258 439.031L187.466 439.115L187.67 439.201L187.868 439.286L188.061 439.372L188.249 439.457L188.431 439.543L188.609 439.628L188.781 439.712L188.948 439.797L189.109 439.88L189.265 439.963L189.416 440.044L189.561 440.125L189.701 440.205L189.835 440.283L189.964 440.359L190.087 440.434L190.204 440.508L190.316 440.579L190.423 440.648L190.524 440.716L190.62 440.781L190.71 440.843L190.794 440.903L190.874 440.961L190.947 441.015L191.016 441.067L191.079 441.116L191.137 441.161L191.189 441.204L191.237 441.242L191.279 441.278L191.316 441.31L191.349 441.338L191.376 441.362L191.398 441.382L191.416 441.399L191.429 441.411L191.437 441.419L191.441 441.422L191.441 441.423Z" stroke="black"/>
<path fill-rule="evenodd" clip-rule="evenodd" d="M53.6 205.341L53.5968 205.341L53.5874 205.34L53.5717 205.34L53.5497 205.339L53.5215 205.338L53.487 205.336L53.4463 205.333L53.3995 205.33L53.3465 205.325L53.2874 205.32L53.2222 205.313L53.151 205.305L53.0738 205.295L52.9907 205.284L52.9017 205.271L52.807 205.256L52.7065 205.239L52.6003 205.22L52.4886 205.199L52.3713 205.176L52.2486 205.151L52.1205 205.123L51.9872 205.092L51.8487 205.059L51.7052 205.023L51.5566 204.984L51.4032 204.943L51.2451 204.898L51.0823 204.851L50.9149 204.8L50.7431 204.746L50.567 204.688L50.3866 204.627L50.2022 204.563L50.0139 204.496L49.8217 204.424L49.6259 204.349L49.4264 204.271L49.2236 204.189L49.0174 204.103L48.8081 204.013L48.5958 203.919L48.3806 203.822L48.1627 203.721L47.9421 203.616L47.7192 203.507L47.4939 203.394L47.2665 203.277L47.037 203.156L46.8057 203.031L46.5727 202.902L46.3381 202.769L46.1021 202.632L45.8648 202.492L45.6264 202.347L45.3871 202.199L45.1469 202.047L44.9061 201.891L44.6647 201.731L44.423 201.567L44.181 201.4L43.939 201.229L43.697 201.054L43.4553 200.876L43.2138 200.694L42.9729 200.509L42.7326 200.321L42.4931 200.129L42.2545 199.934L42.017 199.736L41.7806 199.535L41.5455 199.331L41.3119 199.124L41.0799 198.914L40.8495 198.702L40.6209 198.487L40.3943 198.269L40.1697 198.049L39.9473 197.827L39.7272 197.603L39.5094 197.376L39.2941 197.148L39.0815 196.917L38.8715 196.686L38.6643 196.452L38.4599 196.217L38.2586 195.981L38.0602 195.743L37.8651 195.505L37.6731 195.265L37.4844 195.025L37.2991 194.784L37.1172 194.543L36.9388 194.301L36.7639 194.059L36.5926 193.817L36.425 193.575L36.2611 193.333L36.101 193.092L35.9446 192.851L35.792 192.611L35.6433 192.372L35.4985 192.133L35.3575 191.896L35.2205 191.66L35.0875 191.425L34.9583 191.192L34.8331 190.96L34.7119 190.731L34.5946 190.503L34.4813 190.278L34.3719 190.054L34.2664 189.834L34.1648 189.616L34.0671 189.4L33.9732 189.188L33.8832 188.978L33.797 188.772L33.7144 188.568L33.6357 188.369L33.5605 188.173L33.489 187.98L33.421 187.792L33.3565 187.607L33.2955 187.426L33.2379 187.25L33.1835 187.078L33.1324 186.91L33.0844 186.747L33.0396 186.588L32.9977 186.434L32.9587 186.285L32.9226 186.141L32.8892 186.003L32.8585 185.869L32.8303 185.74L32.8046 185.617L32.7813 185.499L32.7602 185.387L32.7412 185.281L32.7244 185.18L32.7094 185.084L32.6963 184.995L32.6848 184.911L32.675 184.834L32.6667 184.762L32.6597 184.696L32.654 184.637L32.6493 184.583L32.6457 184.536L32.643 184.495L32.6411 184.46L32.6397 184.431L32.6389 184.409L32.6385 184.393L32.6384 184.383L32.6383 184.379L32.6383 184.382L32.6382 184.391L32.6378 184.406L32.6371 184.427L32.6358 184.455L32.634 184.489L32.6314 184.529L32.6279 184.575L32.6235 184.628L32.618 184.687L32.6112 184.751L32.6031 184.822L32.5935 184.899L32.5823 184.981L32.5695 185.07L32.5548 185.164L32.5382 185.264L32.5196 185.37L32.4989 185.481L32.4759 185.598L32.4506 185.72L32.4228 185.848L32.3925 185.981L32.3595 186.119L32.3239 186.262L32.2854 186.41L32.244 186.563L32.1996 186.721L32.1521 186.884L32.1015 187.051L32.0477 187.222L31.9905 187.398L31.9301 187.578L31.8661 187.762L31.7987 187.95L31.7278 188.142L31.6532 188.337L31.575 188.536L31.4931 188.739L31.4074 188.945L31.318 189.154L31.2248 189.366L31.1277 189.581L31.0267 189.799L30.9218 190.019L30.8131 190.242L30.7003 190.467L30.5837 190.694L30.4631 190.924L30.3385 191.155L30.21 191.388L30.0776 191.622L29.9412 191.858L29.8009 192.095L29.6567 192.333L29.5086 192.573L29.3566 192.813L29.2009 193.054L29.0413 193.295L28.878 193.537L28.711 193.779L28.5403 194.021L28.366 194.263L28.1881 194.504L28.0068 194.746L27.822 194.987L27.6338 195.227L27.4424 195.467L27.2477 195.705L27.0499 195.943L26.849 196.18L26.6451 196.415L26.4384 196.648L26.2288 196.881L26.0166 197.111L25.8017 197.34L25.5843 197.567L25.3646 197.791L25.1425 198.014L24.9183 198.234L24.6919 198.452L24.4637 198.668L24.2336 198.881L24.0018 199.091L23.7684 199.298L23.5336 199.503L23.2974 199.704L23.06 199.903L22.8216 200.098L22.5822 200.291L22.342 200.48L22.1012 200.665L21.8599 200.847L21.6182 201.026L21.3762 201.201L21.1342 201.373L20.8922 201.541L20.6504 201.705L20.409 201.865L20.168 202.022L19.9278 202.175L19.6883 202.324L19.4497 202.469L19.2123 202.61L18.9761 202.748L18.7412 202.881L18.508 203.01L18.2764 203.136L18.0466 203.258L17.8188 203.375L17.5932 203.489L17.3699 203.599L17.1489 203.704L16.9306 203.806L16.7149 203.904L16.5021 203.998L16.2923 204.089L16.0857 204.175L15.8823 204.258L15.6823 204.337L15.4859 204.413L15.2931 204.484L15.1041 204.553L14.9191 204.617L14.7381 204.679L14.5613 204.737L14.3888 204.791L14.2207 204.843L14.0572 204.891L13.8983 204.936L13.7441 204.978L13.5948 205.017L13.4504 205.054L13.3112 205.087L13.177 205.118L13.0481 205.146L12.9246 205.172L12.8064 205.196L12.6938 205.217L12.5867 205.236L12.4853 205.253L12.3896 205.268L12.2997 205.282L12.2157 205.293L12.1376 205.303L12.0654 205.312L11.9992 205.319L11.9392 205.325L11.8852 205.329L11.8374 205.333L11.7957 205.336L11.7602 205.338L11.731 205.339L11.708 205.34L11.6913 205.34L11.6809 205.341L11.6768 205.341L11.6789 205.341L11.6873 205.341L11.702 205.341L11.723 205.342L11.7503 205.343L11.7837 205.345L11.8234 205.347L11.8693 205.351L11.9213 205.355L11.9795 205.361L12.0437 205.367L12.1139 205.375L12.1902 205.385L12.2723 205.396L12.3603 205.408L12.4542 205.423L12.5538 205.439L12.6591 205.458L12.7699 205.478L12.8863 205.501L13.0082 205.526L13.1354 205.554L13.2679 205.584L13.4055 205.617L13.5483 205.652L13.696 205.69L13.8486 205.732L14.0061 205.776L14.1682 205.823L14.3348 205.873L14.5059 205.927L14.6814 205.984L14.861 206.044L15.0448 206.108L15.2325 206.175L15.4241 206.245L15.6193 206.32L15.8182 206.398L16.0205 206.479L16.2262 206.565L16.435 206.654L16.6468 206.747L16.8616 206.843L17.0791 206.944L17.2992 207.049L17.5218 207.157L17.7467 207.269L17.9738 207.386L18.203 207.506L18.434 207.63L18.6668 207.759L18.9011 207.891L19.1369 208.027L19.374 208.167L19.6122 208.311L19.8514 208.458L20.0914 208.61L20.3322 208.766L20.5735 208.925L20.8151 209.088L21.0571 209.255L21.2991 209.425L21.5411 209.599L21.7829 209.777L22.0244 209.958L22.2654 210.142L22.5058 210.33L22.7454 210.521L22.9842 210.716L23.2219 210.913L23.4585 211.114L23.6938 211.317L23.9276 211.524L24.1599 211.733L24.3906 211.945L24.6194 212.16L24.8464 212.377L25.0713 212.597L25.2941 212.819L25.5146 213.043L25.7327 213.269L25.9484 213.497L26.1615 213.727L26.3719 213.959L26.5796 214.192L26.7844 214.427L26.9862 214.663L27.185 214.9L27.3807 215.138L27.5732 215.378L27.7624 215.618L27.9483 215.859L28.1307 216.1L28.3097 216.342L28.4851 216.584L28.657 216.826L28.8252 217.068L28.9897 217.309L29.1504 217.551L29.3074 217.792L29.4606 218.032L29.6099 218.272L29.7554 218.51L29.8969 218.748L30.0346 218.984L30.1683 219.219L30.298 219.453L30.4238 219.684L30.5457 219.914L30.6636 220.142L30.7776 220.368L30.8876 220.591L30.9937 220.813L31.0959 221.031L31.1943 221.247L31.2887 221.46L31.3794 221.67L31.4662 221.877L31.5493 222.081L31.6287 222.281L31.7044 222.478L31.7765 222.671L31.845 222.86L31.9101 223.045L31.9716 223.227L32.0298 223.404L32.0847 223.577L32.1363 223.745L32.1848 223.909L32.2302 224.068L32.2725 224.223L32.3119 224.372L32.3485 224.517L32.3823 224.657L32.4134 224.792L32.442 224.921L32.4681 225.045L32.4918 225.163L32.5132 225.276L32.5325 225.384L32.5497 225.486L32.565 225.582L32.5784 225.672L32.5901 225.757L32.6002 225.835L32.6088 225.908L32.6159 225.975L32.6219 226.035L32.6266 226.09L32.6304 226.138L32.6332 226.18L32.6353 226.216L32.6367 226.246L32.6376 226.269L32.6381 226.287L32.6383 226.298L32.6383 226.302L32.6383 226.301L32.6384 226.293L32.6388 226.278L32.6394 226.258L32.6406 226.231L32.6423 226.198L32.6448 226.159L32.6481 226.114L32.6524 226.062L32.6577 226.004L32.6643 225.941L32.6722 225.871L32.6815 225.795L32.6924 225.713L32.705 225.626L32.7194 225.532L32.7356 225.433L32.7539 225.329L32.7743 225.218L32.7969 225.102L32.8219 224.981L32.8493 224.854L32.8792 224.722L32.9117 224.585L32.9469 224.442L32.985 224.295L33.0259 224.143L33.0698 223.986L33.1168 223.824L33.1669 223.658L33.2202 223.487L33.2768 223.312L33.3367 223.132L33.4001 222.949L33.467 222.762L33.5373 222.57L33.6113 222.375L33.6889 222.177L33.7703 221.975L33.8553 221.769L33.9441 221.561L34.0368 221.349L34.1333 221.135L34.2336 220.917L34.3378 220.697L34.446 220.475L34.5581 220.25L34.6741 220.023L34.7941 219.794L34.918 219.563L35.0459 219.331L35.1777 219.097L35.3135 218.861L35.4532 218.624L35.5968 218.386L35.7442 218.147L35.8956 217.907L36.0507 217.666L36.2097 217.425L36.3724 217.183L36.5389 216.941L36.709 216.699L36.8827 216.457L37.06 216.215L37.2408 215.974L37.425 215.733L37.6126 215.492L37.8036 215.253L37.9977 215.014L38.1951 214.776L38.3955 214.539L38.5989 214.304L38.8052 214.07L39.0143 213.837L39.2261 213.607L39.4406 213.378L39.6575 213.151L39.8769 212.926L40.0986 212.703L40.3225 212.482L40.5485 212.264L40.7765 212.048L41.0063 211.834L41.2378 211.624L41.471 211.416L41.7056 211.211L41.9416 211.009L42.1788 210.81L42.417 210.614L42.6563 210.421L42.8963 210.231L43.137 210.045L43.3783 209.863L43.62 209.683L43.8619 209.508L44.1039 209.336L44.3459 209.167L44.5878 209.002L44.8292 208.841L45.0703 208.684L45.3107 208.53L45.5503 208.381L45.789 208.235L46.0266 208.093L46.2631 207.955L46.4981 207.821L46.7317 207.691L46.9635 207.565L47.1936 207.443L47.4217 207.325L47.6477 207.21L47.8714 207.1L48.0927 206.994L48.3115 206.891L48.5276 206.792L48.7408 206.698L48.9511 206.607L49.1583 206.52L49.3622 206.436L49.5627 206.356L49.7597 206.28L49.9531 206.208L50.1427 206.139L50.3283 206.074L50.51 206.012L50.6874 205.954L50.8606 205.898L51.0294 205.847L51.1937 205.798L51.3534 205.752L51.5083 205.71L51.6584 205.67L51.8036 205.633L51.9437 205.599L52.0786 205.568L52.2084 205.539L52.3328 205.513L52.4518 205.489L52.5653 205.467L52.6733 205.448L52.7756 205.431L52.8722 205.415L52.963 205.402L53.048 205.39L53.127 205.38L53.2002 205.371L53.2673 205.364L53.3283 205.358L53.3833 205.353L53.4321 205.349L53.4747 205.346L53.5112 205.344L53.5414 205.342L53.5654 205.341L53.5831 205.341L53.5945 205.341L53.5997 205.341L53.6 205.341Z" stroke="black"/>
<mask id="path-25-inside-3" fill="white">
<path fill-rule="evenodd" clip-rule="evenodd" d="M104.418 319.041V319.041V319.041ZM104.418 319.041L11.6782 319.041L104.418 319.041ZM11.6782 319.041L11.6782 226.302L11.6782 319.041ZM11.6782 226.302H11.6785H11.6782ZM11.6785 226.302C62.7154 226.302 104.123 267.529 104.416 318.497L11.6785 226.302ZM104.418 319.041C155.636 319.041 197.156 277.52 197.156 226.302L104.524 226.302C155.693 226.244 197.156 184.745 197.156 133.563L104.416 133.563L104.416 225.758C104.123 174.79 62.7154 133.563 11.6785 133.563H11.6782L11.6782 226.302L104.416 226.302L104.416 226.302L104.416 226.302V318.497"/>
</mask>
<path d="M104.418 319.041H104.918V319.541L104.418 319.541V319.041ZM11.6782 319.041L11.6782 319.541H11.1782L11.1782 319.041L11.6782 319.041ZM11.6782 226.302H11.1782V225.802H11.6782V226.302ZM11.6785 226.302V225.802H11.8848L12.031 225.947L11.6785 226.302ZM104.416 318.497L104.769 318.142L104.916 318.288L104.916 318.495L104.416 318.497ZM104.918 319.041V319.041H103.918V319.041H104.918ZM104.418 319.541L11.6782 319.541L11.6782 318.541L104.418 318.541V319.541ZM11.1782 319.041L11.1782 226.302H12.1782L12.1782 319.041L11.1782 319.041ZM11.6782 225.802H11.6785V226.802H11.6782V225.802ZM12.031 225.947L104.769 318.142L104.064 318.851L11.326 226.657L12.031 225.947ZM104.916 318.495L104.918 319.04L103.918 319.043L103.916 318.498L104.916 318.495ZM104.418 319.041H105.418V320.041L104.418 320.041V319.041ZM11.6782 319.041L11.6782 320.041H10.6782L10.6782 319.041L11.6782 319.041ZM11.6782 226.302H10.6782V225.302H11.6782V226.302ZM104.416 318.497H105.416L103.416 318.503L104.416 318.497ZM197.156 226.302V225.302H198.156V226.302H197.156ZM104.524 226.302V227.302L104.523 225.302L104.524 226.302ZM197.156 133.563V132.563H198.156V133.563H197.156ZM104.416 133.563H103.416V132.563H104.416V133.563ZM104.416 225.758H105.416L103.416 225.763L104.416 225.758ZM11.6782 133.563H10.6782V132.563H11.6782V133.563ZM11.6782 226.302L11.6782 227.302H10.6782L10.6782 226.302H11.6782ZM104.416 226.302V225.302H105.481L105.414 226.364L104.416 226.302ZM104.416 226.302L103.424 226.426L103.412 226.333L103.418 226.24L104.416 226.302ZM104.416 226.302L105.408 226.178L105.416 226.24V226.302H104.416ZM105.418 319.041V319.041H103.418V319.041H105.418ZM104.418 320.041L11.6782 320.041L11.6782 318.041L104.418 318.041V320.041ZM10.6782 319.041L10.6782 226.302H12.6782L12.6782 319.041L10.6782 319.041ZM11.6782 225.302H11.6785V227.302H11.6782V225.302ZM11.6785 225.302C63.2658 225.302 105.12 266.973 105.416 318.491L103.416 318.503C103.126 268.084 62.1651 227.302 11.6785 227.302V225.302ZM104.418 318.041C155.083 318.041 196.156 276.968 196.156 226.302H198.156C198.156 278.072 156.188 320.041 104.418 320.041L104.418 318.041ZM197.156 227.302L104.524 227.302V225.302L197.156 225.302V227.302ZM104.523 225.302C155.14 225.244 196.156 184.194 196.156 133.563H198.156C198.156 185.297 156.246 227.243 104.525 227.302L104.523 225.302ZM197.156 134.563L104.416 134.563V132.563L197.156 132.563V134.563ZM105.416 133.563L105.416 225.758H103.416L103.416 133.563H105.416ZM103.416 225.763C103.126 175.345 62.1651 134.563 11.6785 134.563V132.563C63.2658 132.563 105.12 174.234 105.416 225.752L103.416 225.763ZM11.6785 134.563H11.6782V132.563H11.6785V134.563ZM12.6782 133.563L12.6782 226.302H10.6782L10.6782 133.563H12.6782ZM11.6782 225.302L104.416 225.302V227.302L11.6782 227.302L11.6782 225.302ZM105.414 226.364L105.414 226.364L103.418 226.24L103.418 226.239L105.414 226.364ZM105.408 226.178L105.408 226.178L103.424 226.426L103.424 226.426L105.408 226.178ZM105.416 226.302V318.497H103.416V226.302H105.416Z" fill="black" mask="url(#path-25-inside-3)"/>
<mask id="path-27-inside-4" fill="white">
<path fill-rule="evenodd" clip-rule="evenodd" d="M197.157 411.463L197.157 411.463C197.157 462.681 155.636 504.202 104.418 504.202C53.1991 504.202 11.6783 462.681 11.6783 411.463L11.6783 411.463L104.417 411.463C53.199 411.463 11.6782 369.942 11.6782 318.723L104.417 318.723C53.199 318.723 11.6782 277.203 11.6782 225.984L197.157 225.984C197.157 277.203 155.636 318.723 104.417 318.723L197.157 318.723C197.157 369.942 155.636 411.463 104.417 411.463L197.157 411.463Z"/>
</mask>
<path d="M197.157 411.463L197.157 410.463L198.157 410.463L198.157 411.463L197.157 411.463ZM11.6783 411.463L10.6783 411.463L10.6783 410.463L11.6783 410.463L11.6783 411.463ZM11.6782 318.723L10.6782 318.723L10.6782 317.723L11.6782 317.723L11.6782 318.723ZM104.417 318.723L104.417 319.723L104.417 318.723ZM11.6782 225.984L10.6782 225.984L10.6782 224.984L11.6782 224.984L11.6782 225.984ZM197.157 225.984L197.157 224.984L198.157 224.984L198.157 225.984L197.157 225.984ZM197.157 318.723L197.157 317.723L198.157 317.723L198.157 318.723L197.157 318.723ZM196.157 411.463L196.157 411.463L198.157 411.463L198.157 411.463L196.157 411.463ZM104.418 503.202C155.084 503.202 196.157 462.129 196.157 411.463L198.157 411.463C198.157 463.234 156.188 505.202 104.418 505.202L104.418 503.202ZM12.6783 411.463C12.6783 462.129 53.7514 503.202 104.418 503.202L104.418 505.202C52.6468 505.202 10.6783 463.234 10.6783 411.463L12.6783 411.463ZM12.6783 411.463L12.6783 411.463L10.6783 411.463L10.6783 411.463L12.6783 411.463ZM104.417 412.463L11.6783 412.463L11.6783 410.463L104.417 410.463L104.417 412.463ZM104.417 412.463C52.6467 412.463 10.6782 370.494 10.6782 318.723L12.6782 318.723C12.6782 369.39 53.7513 410.463 104.417 410.463L104.417 412.463ZM11.6782 317.723L104.417 317.723L104.417 319.723L11.6782 319.723L11.6782 317.723ZM104.417 319.723C52.6467 319.723 10.6782 277.755 10.6782 225.984L12.6782 225.984C12.6782 276.65 53.7513 317.723 104.417 317.723L104.417 319.723ZM11.6782 224.984L197.157 224.984L197.157 226.984L11.6782 226.984L11.6782 224.984ZM198.157 225.984C198.157 277.755 156.188 319.723 104.417 319.723L104.417 317.723C155.084 317.723 196.157 276.65 196.157 225.984L198.157 225.984ZM104.417 317.723L197.157 317.723L197.157 319.723L104.417 319.723L104.417 317.723ZM198.157 318.723C198.157 370.494 156.188 412.463 104.417 412.463L104.417 410.463C155.084 410.463 196.157 369.39 196.157 318.723L198.157 318.723ZM197.157 412.463L104.417 412.463L104.417 410.463L197.157 410.463L197.157 412.463Z" fill="black" mask="url(#path-27-inside-4)"/>
<defs>
<linearGradient id="paint0_linear" x1="382.203" y1="365.427" x2="185.924" y2="365.427" gradientUnits="userSpaceOnUse">
<stop stop-color="#FF0808"/>
<stop offset="1" stop-color="#FFB199"/>
</linearGradient>
<linearGradient id="paint1_linear" x1="197.157" y1="179.918" x2="0.878967" y2="179.918" gradientUnits="userSpaceOnUse">
<stop stop-color="#FF0808"/>
<stop offset="1" stop-color="#FFB199"/>
</linearGradient>
</defs>
</svg>
