<svg width="393" height="546" viewBox="0 0 393 546" fill="none" xmlns="http://www.w3.org/2000/svg">
<path fill-rule="evenodd" clip-rule="evenodd" d="M68.4461 319.043H68.6409C68.5172 320.566 68.4518 322.1 68.4461 323.643V319.043ZM68.4461 396.087V324.08C68.6234 372.553 127.77 411.811 200.706 411.811C203.138 411.811 205.554 411.767 207.954 411.681V411.811H151.183V411.812H11.675V319.043H11.8711C11.7416 320.638 11.676 322.245 11.676 323.862C11.676 353.774 34.1324 380.199 68.4461 396.087ZM143.8 411.811C143.845 411.811 143.891 411.811 143.936 411.811C143.982 411.811 144.027 411.811 144.073 411.811H143.8Z" fill="url(#paint0_linear)"/>
<path fill-rule="evenodd" clip-rule="evenodd" d="M140.387 133.564H140.191C140.32 135.16 140.386 136.766 140.386 138.383C140.386 186.956 81.1708 226.333 8.12543 226.333C5.69406 226.333 3.27802 226.289 0.878967 226.203V226.333H57.6472V226.333H197.155V138.524C197.084 168.378 174.645 194.744 140.387 210.608V133.564ZM65.0059 226.333C64.9688 226.333 64.9317 226.333 64.8946 226.333C64.8574 226.333 64.8203 226.333 64.7832 226.333H65.0059ZM197.155 133.565H196.96C197.086 135.114 197.151 136.673 197.155 138.242V133.565Z" fill="url(#paint1_linear)"/>
<path d="M88.6371 127.86C89.7228 130.147 92.1822 131.737 95.8675 132.575C99.5456 133.412 104.358 133.478 109.989 132.789C121.245 131.411 135.655 127.032 150.538 119.966C165.421 112.899 177.922 104.5 186.104 96.6481C190.197 92.7203 193.188 88.9493 194.865 85.5699C196.544 82.184 196.866 79.2733 195.781 76.9867C194.695 74.7001 192.235 73.1102 188.55 72.2715C184.872 71.4345 180.059 71.3688 174.429 72.058C163.172 73.4355 148.763 77.8144 133.88 84.8811C118.996 91.9479 106.495 100.347 98.3134 108.199C94.2204 112.126 91.2294 115.897 89.5532 119.277C87.8738 122.663 87.5514 125.573 88.6371 127.86Z" stroke="black"/>
<path d="M88.6371 116.104C89.7228 118.391 92.1822 119.981 95.8675 120.82C99.5456 121.657 104.358 121.722 109.989 121.033C121.245 119.656 135.655 115.277 150.538 108.21C165.421 101.143 177.922 92.7445 186.104 84.8926C190.197 80.9647 193.188 77.1937 194.865 73.8143C196.544 70.4285 196.866 67.5177 195.781 65.2311C194.695 62.9446 192.235 61.3546 188.55 60.516C184.872 59.6789 180.059 59.6133 174.429 60.3024C163.172 61.68 148.763 66.0588 133.88 73.1256C118.996 80.1923 106.495 88.5911 98.3134 96.443C94.2204 100.371 91.2294 104.142 89.5532 107.521C87.8738 110.907 87.5514 113.818 88.6371 116.104Z" stroke="black"/>
<path d="M88.6371 104.349C89.7228 106.636 92.1822 108.225 95.8675 109.064C99.5456 109.901 104.358 109.967 109.989 109.278C121.245 107.9 135.655 103.521 150.538 96.4545C165.421 89.3877 177.922 80.9889 186.104 73.137C190.197 69.2091 193.188 65.4381 194.865 62.0588C196.544 58.6729 196.866 55.7622 195.781 53.4756C194.695 51.189 192.235 49.5991 188.55 48.7604C184.872 47.9233 180.059 47.8577 174.429 48.5468C163.172 49.9244 148.763 54.3033 133.88 61.37C118.996 68.4368 106.495 76.8356 98.3134 84.6875C94.2204 88.6154 91.2294 92.3864 89.5532 95.7657C87.8738 99.1516 87.5514 102.062 88.6371 104.349Z" stroke="black"/>
<path d="M88.6371 92.5931C89.7228 94.8797 92.1822 96.4696 95.8675 97.3083C99.5456 98.1454 104.358 98.211 109.989 97.5219C121.245 96.1443 135.655 91.7654 150.538 84.6987C165.421 77.6319 177.922 69.2331 186.104 61.3812C190.197 57.4533 193.188 53.6823 194.865 50.303C196.544 46.9171 196.866 44.0064 195.781 41.7198C194.695 39.4332 192.235 37.8433 188.55 37.0046C184.872 36.1676 180.059 36.1019 174.429 36.791C163.172 38.1686 148.763 42.5475 133.88 49.6142C118.996 56.681 106.495 65.0798 98.3134 72.9317C94.2204 76.8596 91.2294 80.6306 89.5532 84.0099C87.8738 87.3958 87.5514 90.3066 88.6371 92.5931Z" stroke="black"/>
<path d="M88.6371 80.8373C89.7228 83.1238 92.1822 84.7138 95.8675 85.5524C99.5456 86.3895 104.358 86.4551 109.989 85.766C121.245 84.3884 135.655 80.0096 150.538 72.9428C165.421 65.8761 177.922 57.4773 186.104 49.6254C190.197 45.6975 193.188 41.9265 194.865 38.5471C196.544 35.1613 196.866 32.2505 195.781 29.9639C194.695 27.6773 192.235 26.0874 188.55 25.2487C184.872 24.4117 180.059 24.3461 174.429 25.0352C163.172 26.4128 148.763 30.7916 133.88 37.8584C118.996 44.9251 106.495 53.3239 98.3134 61.1758C94.2204 65.1037 91.2294 68.8747 89.5532 72.2541C87.8738 75.6399 87.5514 78.5507 88.6371 80.8373Z" stroke="black"/>
<path d="M88.6371 69.0817C89.7228 71.3683 92.1822 72.9582 95.8675 73.7969C99.5456 74.6339 104.358 74.6996 109.989 74.0104C121.245 72.6329 135.655 68.254 150.538 61.1873C165.421 54.1205 177.922 45.7217 186.104 37.8698C190.197 33.9419 193.188 30.1709 194.865 26.7916C196.544 23.4057 196.866 20.4949 195.781 18.2084C194.695 15.9218 192.235 14.3319 188.55 13.4932C184.872 12.6561 180.059 12.5905 174.429 13.2796C163.172 14.6572 148.763 19.0361 133.88 26.1028C118.996 33.1696 106.495 41.5684 98.3134 49.4203C94.2204 53.3481 91.2294 57.1191 89.5532 60.4985C87.8738 63.8844 87.5514 66.7951 88.6371 69.0817Z" stroke="black"/>
<path fill-rule="evenodd" clip-rule="evenodd" d="M17.3907 103.922L17.3929 103.924L17.3995 103.931L17.4103 103.943L17.4253 103.959L17.4444 103.98L17.4674 104.005L17.4943 104.036L17.5249 104.071L17.5592 104.112L17.597 104.158L17.6382 104.209L17.6828 104.265L17.7305 104.327L17.7812 104.393L17.835 104.465L17.8915 104.543L17.9507 104.626L18.0125 104.714L18.0768 104.808L18.1433 104.907L18.212 105.012L18.2828 105.122L18.3555 105.238L18.4299 105.36L18.5061 105.486L18.5837 105.619L18.6627 105.757L18.743 105.9L18.8244 106.049L18.9068 106.203L18.99 106.363L19.074 106.528L19.1585 106.699L19.2435 106.874L19.3288 107.056L19.4144 107.242L19.4999 107.433L19.5854 107.63L19.6707 107.831L19.7557 108.038L19.8403 108.249L19.9243 108.466L20.0076 108.687L20.0901 108.912L20.1716 109.143L20.2522 109.377L20.3315 109.617L20.4096 109.86L20.4864 110.108L20.5616 110.36L20.6353 110.616L20.7073 110.875L20.7775 111.139L20.8459 111.406L20.9123 111.677L20.9766 111.951L21.0387 112.229L21.0987 112.509L21.1563 112.793L21.2115 113.08L21.2643 113.369L21.3146 113.661L21.3622 113.956L21.4072 114.252L21.4495 114.552L21.489 114.853L21.5256 115.156L21.5594 115.461L21.5903 115.767L21.6182 116.075L21.6432 116.385L21.6651 116.695L21.6839 117.007L21.6997 117.319L21.7123 117.632L21.7219 117.946L21.7283 118.26L21.7315 118.575L21.7317 118.889L21.7286 119.203L21.7225 119.517L21.7132 119.831L21.7008 120.144L21.6853 120.457L21.6667 120.769L21.645 121.079L21.6203 121.389L21.5927 121.697L21.562 122.003L21.5284 122.308L21.492 122.612L21.4527 122.913L21.4107 123.212L21.3659 123.51L21.3184 123.804L21.2684 124.096L21.2158 124.386L21.1608 124.673L21.1033 124.957L21.0436 125.238L20.9816 125.516L20.9174 125.79L20.8512 126.061L20.783 126.329L20.713 126.592L20.6411 126.852L20.5676 127.109L20.4924 127.361L20.4158 127.609L20.3378 127.853L20.2585 128.092L20.1781 128.327L20.0966 128.558L20.0141 128.784L19.9309 129.006L19.847 129.222L19.7625 129.434L19.6775 129.641L19.5922 129.843L19.5067 130.04L19.4211 130.232L19.3356 130.418L19.2503 130.6L19.1653 130.776L19.0807 130.947L18.9967 131.113L18.9134 131.273L18.8309 131.428L18.7494 131.577L18.6691 131.721L18.5899 131.859L18.5122 131.992L18.4359 132.119L18.3613 132.241L18.2885 132.357L18.2175 132.468L18.1487 132.573L18.0819 132.673L18.0175 132.767L17.9555 132.856L17.8961 132.939L17.8393 133.017L17.7854 133.09L17.7344 133.157L17.6864 133.219L17.6416 133.275L17.6001 133.327L17.562 133.373L17.5275 133.414L17.4965 133.45L17.4693 133.481L17.446 133.507L17.4266 133.528L17.4113 133.545L17.4001 133.557L17.3932 133.564L17.3907 133.566L17.3926 133.565L17.399 133.558L17.41 133.548L17.4257 133.533L17.4462 133.514L17.4715 133.492L17.5017 133.465L17.537 133.435L17.5772 133.401L17.6226 133.363L17.6732 133.322L17.7289 133.278L17.7899 133.231L17.8562 133.18L17.9279 133.127L18.005 133.07L18.0874 133.011L18.1754 132.95L18.2687 132.886L18.3676 132.819L18.472 132.751L18.5819 132.68L18.6973 132.608L18.8182 132.533L18.9446 132.457L19.0766 132.38L19.2141 132.301L19.357 132.221L19.5055 132.139L19.6594 132.057L19.8187 131.974L19.9834 131.89L20.1534 131.805L20.3288 131.72L20.5094 131.635L20.6952 131.55L20.8862 131.464L21.0824 131.379L21.2835 131.293L21.4897 131.208L21.7008 131.124L21.9167 131.04L22.1373 130.956L22.3627 130.874L22.5926 130.792L22.8271 130.711L23.0659 130.632L23.3091 130.554L23.5565 130.477L23.8081 130.401L24.0636 130.328L24.3231 130.255L24.5863 130.185L24.8532 130.117L25.1237 130.05L25.3976 129.986L25.6749 129.923L25.9553 129.863L26.2387 129.805L26.5251 129.75L26.8143 129.697L27.1062 129.646L27.4005 129.599L27.6972 129.553L27.9962 129.511L28.2973 129.471L28.6002 129.434L28.905 129.4L29.2115 129.369L29.5194 129.341L29.8286 129.316L30.1391 129.294L30.4506 129.275L30.7629 129.259L31.076 129.246L31.3897 129.236L31.7037 129.229L32.0181 129.226L32.3325 129.225L32.6468 129.228L32.961 129.234L33.2747 129.243L33.588 129.255L33.9005 129.271L34.2122 129.289L34.5229 129.31L34.8325 129.335L35.1407 129.362L35.4475 129.393L35.7527 129.426L36.0562 129.462L36.3577 129.501L36.6572 129.543L36.9544 129.588L37.2494 129.635L37.5418 129.685L37.8317 129.737L38.1187 129.792L38.4029 129.849L38.6841 129.909L38.9621 129.971L39.2368 130.034L39.5081 130.101L39.7759 130.169L40.04 130.238L40.3004 130.31L40.5569 130.384L40.8094 130.459L41.0578 130.535L41.302 130.613L41.5419 130.692L41.7774 130.773L42.0084 130.854L42.2349 130.936L42.4567 131.02L42.6737 131.103L42.886 131.188L43.0933 131.273L43.2957 131.358L43.493 131.444L43.6852 131.529L43.8723 131.615L44.0542 131.7L44.2308 131.785L44.4021 131.87L44.5681 131.954L44.7287 132.037L44.8839 132.12L45.0336 132.201L45.1779 132.282L45.3167 132.361L45.45 132.439L45.5777 132.515L45.7 132.59L45.8167 132.663L45.9279 132.734L46.0336 132.803L46.1338 132.87L46.2285 132.935L46.3177 132.997L46.4014 133.056L46.4798 133.113L46.5527 133.168L46.6203 133.219L46.6826 133.267L46.7396 133.312L46.7914 133.354L46.838 133.392L46.8795 133.427L46.9159 133.458L46.9473 133.486L46.9738 133.509L46.9955 133.529L47.0123 133.545L47.0244 133.556L47.0319 133.563L47.0349 133.566L47.0334 133.565L47.0275 133.559L47.0174 133.548L47.003 133.533L46.9846 133.513L46.9622 133.488L46.9359 133.458L46.9059 133.423L46.8722 133.383L46.8349 133.338L46.7942 133.288L46.7502 133.233L46.703 133.172L46.6527 133.106L46.5994 133.035L46.5433 132.958L46.4845 132.876L46.4231 132.789L46.3593 132.696L46.2931 132.598L46.2247 132.494L46.1543 132.384L46.0819 132.269L46.0077 132.149L45.9318 132.023L45.8544 131.891L45.7756 131.754L45.6955 131.612L45.6143 131.464L45.532 131.31L45.4489 131.151L45.3651 130.987L45.2806 130.817L45.1957 130.642L45.1104 130.462L45.0249 130.277L44.9394 130.086L44.8538 129.891L44.7685 129.69L44.6834 129.484L44.5988 129.273L44.5147 129.058L44.4313 128.838L44.3487 128.613L44.267 128.383L44.1863 128.149L44.1067 127.91L44.0284 127.667L43.9514 127.42L43.8759 127.169L43.802 126.914L43.7297 126.655L43.6592 126.392L43.5905 126.125L43.5238 125.855L43.4592 125.581L43.3967 125.304L43.3364 125.024L43.2784 124.741L43.2228 124.455L43.1696 124.166L43.1189 123.874L43.0709 123.58L43.0254 123.284L42.9827 122.985L42.9428 122.684L42.9057 122.381L42.8714 122.076L42.8401 121.77L42.8117 121.462L42.7863 121.153L42.7639 120.843L42.7445 120.531L42.7283 120.219L42.7151 119.906L42.7051 119.592L42.6982 119.278L42.6944 118.964L42.6938 118.65L42.6963 118.335L42.702 118.021L42.7108 117.707L42.7227 117.394L42.7377 117.081L42.7558 116.77L42.777 116.459L42.8012 116.149L42.8284 115.841L42.8586 115.534L42.8917 115.229L42.9277 114.925L42.9665 114.623L43.0081 114.324L43.0525 114.026L43.0995 113.731L43.1491 113.438L43.2013 113.148L43.256 112.861L43.313 112.577L43.3724 112.295L43.4341 112.017L43.4979 111.742L43.5638 111.47L43.6316 111.202L43.7014 110.938L43.773 110.677L43.8463 110.421L43.9212 110.168L43.9976 109.919L44.0754 109.674L44.1545 109.434L44.2347 109.198L44.3161 108.967L44.3983 108.74L44.4815 108.518L44.5653 108.3L44.6497 108.088L44.7346 107.88L44.8199 107.677L44.9053 107.48L44.9909 107.287L45.0764 107.099L45.1618 106.917L45.2469 106.74L45.3315 106.568L45.4157 106.402L45.4991 106.241L45.5817 106.085L45.6633 105.935L45.7439 105.79L45.8232 105.651L45.9012 105.518L45.9777 105.389L46.0526 105.267L46.1257 105.149L46.197 105.038L46.2662 104.932L46.3333 104.831L46.398 104.736L46.4604 104.646L46.5203 104.562L46.5775 104.483L46.6319 104.41L46.6834 104.342L46.7318 104.279L46.7771 104.222L46.8192 104.17L46.8578 104.123L46.8929 104.081L46.9245 104.044L46.9522 104.012L46.9762 103.985L46.9962 103.963L47.0122 103.946L47.024 103.933L47.0316 103.926L47.0349 103.922L47.0337 103.923L47.028 103.929L47.0177 103.939L47.0028 103.953L46.9831 103.971L46.9585 103.993L46.9291 104.019L46.8946 104.049L46.8552 104.082L46.8106 104.119L46.7609 104.159L46.706 104.203L46.6458 104.25L46.5803 104.3L46.5095 104.353L46.4333 104.409L46.3517 104.468L46.2647 104.529L46.1722 104.593L46.0742 104.659L45.9707 104.727L45.8617 104.797L45.7471 104.869L45.6271 104.943L45.5015 105.019L45.3704 105.096L45.2338 105.175L45.0918 105.255L44.9442 105.336L44.7912 105.418L44.6327 105.502L44.4689 105.585L44.2997 105.67L44.1252 105.755L43.9454 105.84L43.7604 105.925L43.5702 106.011L43.3749 106.096L43.1745 106.182L42.9691 106.267L42.7589 106.352L42.5437 106.436L42.3238 106.519L42.0992 106.602L41.87 106.684L41.6362 106.764L41.3981 106.844L41.1555 106.923L40.9088 107L40.6579 107.075L40.403 107.149L40.1442 107.222L39.8815 107.292L39.6152 107.361L39.3453 107.428L39.0719 107.493L38.7952 107.556L38.5153 107.616L38.2323 107.674L37.9463 107.73L37.6576 107.783L37.3661 107.834L37.0722 107.883L36.7758 107.928L36.4772 107.971L36.1765 108.011L35.8738 108.049L35.5693 108.083L35.2631 108.115L34.9554 108.143L34.6464 108.169L34.3361 108.192L34.0248 108.211L33.7125 108.228L33.3996 108.241L33.086 108.251L32.772 108.258L32.4577 108.263L32.1433 108.263L31.8289 108.261L31.5147 108.256L31.2009 108.247L30.8875 108.235L30.5749 108.221L30.263 108.203L29.9521 108.182L29.6424 108.158L29.3339 108.131L29.0269 108.101L28.7214 108.068L28.4177 108.032L28.1159 107.994L27.8161 107.952L27.5184 107.908L27.2231 107.861L26.9302 107.812L26.64 107.76L26.3525 107.706L26.0678 107.649L25.7862 107.59L25.5077 107.528L25.2324 107.464L24.9605 107.399L24.6922 107.331L24.4275 107.261L24.1665 107.19L23.9094 107.117L23.6562 107.042L23.4072 106.966L23.1623 106.888L22.9217 106.809L22.6855 106.729L22.4537 106.648L22.2265 106.565L22.004 106.482L21.7862 106.399L21.5732 106.314L21.3651 106.229L21.1619 106.144L20.9638 106.059L20.7707 105.973L20.5828 105.888L20.4001 105.802L20.2226 105.717L20.0505 105.632L19.8836 105.548L19.7222 105.465L19.5661 105.382L19.4155 105.3L19.2704 105.22L19.1307 105.14L18.9966 105.062L18.8679 104.985L18.7448 104.91L18.6272 104.837L18.5151 104.766L18.4085 104.696L18.3075 104.629L18.2119 104.564L18.1218 104.502L18.0372 104.442L17.958 104.384L17.8842 104.33L17.8157 104.278L17.7526 104.229L17.6948 104.184L17.6422 104.141L17.5947 104.102L17.5524 104.067L17.5152 104.035L17.483 104.007L17.4557 103.983L17.4333 103.962L17.4157 103.946L17.4028 103.934L17.3946 103.926L17.3909 103.922L17.3907 103.922Z" stroke="black"/>
<path fill-rule="evenodd" clip-rule="evenodd" d="M155.232 340.004L155.235 340.004L155.244 340.004L155.26 340.005L155.282 340.005L155.31 340.007L155.345 340.009L155.385 340.011L155.432 340.015L155.485 340.019L155.544 340.025L155.609 340.032L155.681 340.04L155.758 340.05L155.841 340.061L155.93 340.074L156.025 340.089L156.125 340.106L156.231 340.124L156.343 340.145L156.46 340.168L156.583 340.194L156.711 340.222L156.844 340.252L156.983 340.286L157.126 340.322L157.275 340.36L157.428 340.402L157.586 340.447L157.749 340.494L157.917 340.545L158.088 340.599L158.265 340.657L158.445 340.717L158.629 340.782L158.818 340.849L159.01 340.92L159.206 340.995L159.405 341.074L159.608 341.156L159.814 341.242L160.023 341.332L160.236 341.425L160.451 341.523L160.669 341.624L160.889 341.729L161.112 341.838L161.338 341.951L161.565 342.068L161.795 342.189L162.026 342.314L162.259 342.443L162.493 342.576L162.729 342.712L162.967 342.853L163.205 342.997L163.444 343.146L163.685 343.298L163.925 343.454L164.167 343.614L164.409 343.778L164.651 343.945L164.893 344.116L165.135 344.29L165.376 344.469L165.618 344.65L165.859 344.835L166.099 345.024L166.338 345.215L166.577 345.41L166.815 345.608L167.051 345.81L167.286 346.014L167.52 346.221L167.752 346.43L167.982 346.643L168.211 346.858L168.437 347.076L168.662 347.295L168.884 347.518L169.104 347.742L169.322 347.969L169.537 348.197L169.75 348.427L169.96 348.659L170.167 348.893L170.372 349.128L170.573 349.364L170.771 349.601L170.966 349.84L171.158 350.079L171.347 350.32L171.532 350.56L171.714 350.802L171.893 351.044L172.068 351.286L172.239 351.528L172.407 351.77L172.57 352.011L172.731 352.253L172.887 352.494L173.04 352.734L173.188 352.973L173.333 353.212L173.474 353.449L173.611 353.685L173.744 353.92L173.873 354.153L173.998 354.384L174.12 354.614L174.237 354.842L174.35 355.067L174.46 355.29L174.565 355.511L174.667 355.729L174.764 355.945L174.858 356.157L174.948 356.367L175.035 356.573L175.117 356.776L175.196 356.976L175.271 357.172L175.343 357.365L175.411 357.553L175.475 357.738L175.536 357.919L175.594 358.095L175.648 358.267L175.699 358.435L175.747 358.598L175.792 358.757L175.834 358.91L175.873 359.059L175.909 359.203L175.942 359.342L175.973 359.476L176.001 359.604L176.027 359.728L176.05 359.845L176.071 359.957L176.09 360.064L176.107 360.165L176.122 360.26L176.135 360.35L176.147 360.433L176.157 360.511L176.165 360.583L176.172 360.648L176.178 360.708L176.182 360.761L176.186 360.809L176.189 360.85L176.19 360.885L176.192 360.914L176.193 360.936L176.193 360.952L176.193 360.962L176.193 360.966L176.193 360.963L176.193 360.954L176.194 360.939L176.194 360.918L176.196 360.89L176.198 360.856L176.2 360.816L176.204 360.769L176.208 360.717L176.214 360.658L176.22 360.593L176.228 360.523L176.238 360.446L176.249 360.363L176.262 360.275L176.277 360.181L176.293 360.081L176.312 359.975L176.333 359.863L176.356 359.747L176.381 359.624L176.409 359.497L176.439 359.364L176.472 359.226L176.508 359.083L176.546 358.934L176.588 358.781L176.632 358.624L176.679 358.461L176.73 358.294L176.784 358.123L176.841 357.947L176.901 357.767L176.965 357.583L177.033 357.395L177.104 357.203L177.178 357.007L177.257 356.808L177.338 356.606L177.424 356.4L177.514 356.191L177.607 355.979L177.704 355.764L177.805 355.546L177.91 355.326L178.018 355.103L178.131 354.878L178.248 354.65L178.368 354.421L178.493 354.19L178.622 353.957L178.754 353.723L178.89 353.487L179.031 353.25L179.175 353.011L179.323 352.772L179.475 352.532L179.631 352.291L179.79 352.05L179.954 351.808L180.121 351.566L180.291 351.324L180.466 351.082L180.643 350.84L180.825 350.599L181.01 350.358L181.198 350.118L181.389 349.878L181.584 349.639L181.782 349.402L181.983 349.165L182.186 348.93L182.393 348.696L182.603 348.464L182.815 348.234L183.03 348.005L183.247 347.778L183.467 347.553L183.689 347.331L183.913 347.11L184.14 346.892L184.368 346.677L184.598 346.464L184.83 346.254L185.063 346.046L185.298 345.842L185.534 345.64L185.772 345.442L186.01 345.246L186.249 345.054L186.49 344.865L186.73 344.68L186.972 344.497L187.213 344.319L187.455 344.143L187.697 343.972L187.939 343.804L188.181 343.64L188.423 343.479L188.663 343.323L188.904 343.17L189.143 343.021L189.382 342.876L189.619 342.734L189.855 342.597L190.09 342.464L190.324 342.334L190.555 342.209L190.785 342.087L191.013 341.97L191.238 341.856L191.462 341.746L191.683 341.64L191.901 341.539L192.117 341.441L192.329 341.346L192.539 341.256L192.746 341.169L192.949 341.087L193.149 341.008L193.346 340.932L193.538 340.86L193.727 340.792L193.912 340.727L194.093 340.666L194.27 340.608L194.443 340.553L194.611 340.502L194.774 340.454L194.933 340.409L195.087 340.367L195.237 340.328L195.381 340.291L195.52 340.258L195.655 340.227L195.783 340.198L195.907 340.172L196.025 340.149L196.138 340.128L196.245 340.108L196.346 340.091L196.442 340.076L196.532 340.063L196.616 340.051L196.694 340.042L196.766 340.033L196.832 340.026L196.892 340.02L196.946 340.015L196.994 340.012L197.036 340.009L197.071 340.007L197.101 340.006L197.124 340.005L197.14 340.004L197.151 340.004L197.155 340.004L197.153 340.004L197.144 340.004L197.13 340.004L197.109 340.003L197.081 340.002L197.048 340L197.008 339.997L196.962 339.994L196.91 339.99L196.852 339.984L196.788 339.978L196.718 339.97L196.641 339.96L196.559 339.949L196.471 339.936L196.377 339.922L196.278 339.905L196.172 339.887L196.062 339.866L195.945 339.844L195.823 339.818L195.696 339.791L195.564 339.761L195.426 339.728L195.283 339.693L195.136 339.654L194.983 339.613L194.825 339.569L194.663 339.522L194.497 339.471L194.326 339.418L194.15 339.361L193.971 339.301L193.787 339.237L193.599 339.17L193.407 339.099L193.212 339.025L193.013 338.947L192.811 338.866L192.605 338.78L192.397 338.691L192.185 338.598L191.97 338.501L191.752 338.401L191.532 338.296L191.31 338.188L191.085 338.075L190.858 337.959L190.629 337.839L190.398 337.714L190.165 337.586L189.93 337.454L189.695 337.318L189.458 337.178L189.219 337.034L188.98 336.886L188.74 336.735L188.499 336.579L188.258 336.42L188.016 336.257L187.774 336.09L187.532 335.92L187.29 335.746L187.049 335.568L186.807 335.387L186.566 335.203L186.326 335.015L186.086 334.824L185.847 334.629L185.61 334.432L185.373 334.231L185.138 334.027L184.904 333.821L184.672 333.611L184.441 333.399L184.212 333.185L183.985 332.967L183.76 332.748L183.537 332.526L183.317 332.302L183.099 332.076L182.883 331.848L182.67 331.618L182.46 331.386L182.252 331.153L182.047 330.918L181.845 330.682L181.647 330.445L181.451 330.206L181.258 329.967L181.069 329.727L180.883 329.486L180.701 329.245L180.522 329.003L180.346 328.761L180.175 328.519L180.006 328.277L179.842 328.035L179.681 327.794L179.524 327.553L179.371 327.313L179.222 327.073L179.076 326.834L178.935 326.597L178.797 326.361L178.663 326.126L178.534 325.892L178.408 325.66L178.286 325.431L178.168 325.203L178.054 324.977L177.944 324.753L177.838 324.532L177.736 324.314L177.637 324.098L177.543 323.885L177.452 323.675L177.365 323.468L177.282 323.264L177.203 323.064L177.127 322.867L177.055 322.674L176.987 322.485L176.921 322.299L176.86 322.118L176.802 321.941L176.747 321.768L176.695 321.6L176.647 321.436L176.601 321.276L176.559 321.122L176.52 320.972L176.483 320.827L176.449 320.688L176.418 320.553L176.39 320.424L176.363 320.3L176.34 320.181L176.318 320.068L176.299 319.961L176.282 319.859L176.267 319.763L176.253 319.672L176.241 319.588L176.231 319.509L176.223 319.437L176.216 319.37L176.21 319.309L176.205 319.255L176.201 319.207L176.198 319.165L176.196 319.129L176.195 319.099L176.194 319.075L176.193 319.058L176.193 319.047L176.193 319.043L176.193 319.044L176.193 319.052L176.193 319.066L176.192 319.087L176.191 319.114L176.189 319.147L176.187 319.186L176.183 319.231L176.179 319.283L176.174 319.34L176.167 319.404L176.159 319.474L176.15 319.55L176.139 319.631L176.127 319.719L176.112 319.812L176.096 319.911L176.078 320.016L176.057 320.127L176.035 320.243L176.01 320.364L175.982 320.491L175.952 320.623L175.92 320.76L175.885 320.902L175.847 321.05L175.806 321.202L175.762 321.359L175.715 321.521L175.665 321.687L175.611 321.858L175.555 322.033L175.495 322.212L175.431 322.396L175.365 322.583L175.294 322.774L175.22 322.969L175.143 323.168L175.061 323.37L174.976 323.575L174.887 323.784L174.795 323.996L174.698 324.21L174.598 324.427L174.494 324.647L174.386 324.87L174.273 325.094L174.157 325.321L174.037 325.55L173.914 325.781L173.786 326.014L173.654 326.248L173.518 326.484L173.378 326.721L173.235 326.959L173.087 327.198L172.936 327.438L172.781 327.679L172.622 327.92L172.459 328.162L172.293 328.404L172.123 328.646L171.949 328.888L171.772 329.129L171.591 329.371L171.407 329.612L171.219 329.852L171.028 330.092L170.834 330.331L170.636 330.569L170.436 330.805L170.233 331.041L170.026 331.275L169.817 331.507L169.605 331.738L169.391 331.967L169.174 332.194L168.955 332.419L168.733 332.642L168.509 332.863L168.283 333.081L168.055 333.297L167.825 333.51L167.594 333.721L167.361 333.929L167.126 334.134L166.89 334.336L166.653 334.535L166.415 334.731L166.175 334.924L165.935 335.113L165.694 335.299L165.453 335.482L165.212 335.661L164.97 335.837L164.728 336.009L164.486 336.178L164.244 336.342L164.002 336.504L163.761 336.661L163.521 336.814L163.281 336.964L163.043 337.11L162.805 337.252L162.568 337.39L162.333 337.524L162.1 337.654L161.868 337.78L161.638 337.902L161.41 338.02L161.184 338.134L160.96 338.245L160.739 338.351L160.52 338.454L160.304 338.552L160.091 338.647L159.88 338.738L159.673 338.825L159.469 338.909L159.269 338.988L159.072 339.064L158.878 339.137L158.689 339.205L158.503 339.271L158.322 339.333L158.144 339.391L157.971 339.446L157.802 339.498L157.638 339.547L157.478 339.592L157.323 339.635L157.173 339.675L157.028 339.711L156.888 339.745L156.753 339.777L156.623 339.806L156.499 339.832L156.38 339.856L156.266 339.877L156.158 339.897L156.056 339.914L155.959 339.93L155.869 339.943L155.784 339.955L155.704 339.965L155.631 339.974L155.564 339.981L155.503 339.987L155.448 339.992L155.399 339.996L155.357 339.999L155.32 340.001L155.29 340.002L155.266 340.003L155.248 340.004L155.237 340.004L155.232 340.004L155.232 340.004Z" stroke="black"/>
<mask id="path-11-inside-1" fill="white">
<path fill-rule="evenodd" clip-rule="evenodd" d="M104.414 226.304V226.303V226.304ZM104.414 226.303L197.155 226.303L104.414 226.303ZM197.155 226.303L197.155 319.043L197.155 226.303ZM197.155 319.043H197.154H197.155ZM197.154 319.043C146.161 319.043 104.78 277.887 104.417 226.979L197.154 319.043ZM104.414 226.304C53.1964 226.304 11.6762 267.825 11.6762 319.043L104.308 319.043C53.1389 319.101 11.6762 360.599 11.6762 411.782H104.417L104.417 319.719C104.78 370.626 146.161 411.782 197.154 411.782H197.155L197.155 319.043L104.417 319.043L104.417 319.043L104.417 319.043V226.979"/>
</mask>
<path d="M104.414 226.303H103.914V225.803L104.414 225.803V226.303ZM197.155 226.303L197.155 225.803H197.655L197.655 226.303L197.155 226.303ZM197.155 319.043H197.655V319.543H197.155V319.043ZM197.154 319.043V319.543H196.948L196.801 319.398L197.154 319.043ZM104.417 226.979L104.065 227.334L103.918 227.188L103.917 226.981L104.417 226.979ZM103.914 226.304V226.303H104.914V226.304H103.914ZM104.414 225.803L197.155 225.803L197.155 226.803L104.414 226.803V225.803ZM197.655 226.303L197.655 319.043H196.655L196.655 226.303L197.655 226.303ZM197.155 319.543H197.154V318.543H197.155V319.543ZM196.801 319.398L104.065 227.334L104.769 226.624L197.506 318.688L196.801 319.398ZM103.917 226.981L103.914 226.305L104.914 226.302L104.917 226.978L103.917 226.981ZM104.414 226.303H103.414V225.303L104.414 225.303V226.303ZM197.155 226.303L197.155 225.303H198.155L198.155 226.303L197.155 226.303ZM197.155 319.043H198.155V320.043H197.155V319.043ZM104.417 226.979H103.417L105.417 226.972L104.417 226.979ZM11.6762 319.043V320.043H10.6762V319.043H11.6762ZM104.308 319.043V318.043L104.309 320.043L104.308 319.043ZM11.6762 411.782V412.782H10.6762V411.782H11.6762ZM104.417 411.782H105.417V412.782H104.417V411.782ZM104.417 319.719H103.417L105.417 319.711L104.417 319.719ZM197.155 411.782H198.155V412.782H197.155V411.782ZM197.155 319.043L197.155 318.043H198.155L198.155 319.043H197.155ZM104.417 319.043V320.043H103.374L103.418 319.001L104.417 319.043ZM104.417 319.043L105.409 318.919L105.419 319.001L105.416 319.084L104.417 319.043ZM104.417 319.043L103.425 319.167L103.417 319.105V319.043H104.417ZM103.414 226.304V226.303H105.414V226.304H103.414ZM104.414 225.303L197.155 225.303L197.155 227.303L104.414 227.303V225.303ZM198.155 226.303L198.155 319.043H196.155L196.155 226.303L198.155 226.303ZM197.155 320.043H197.154V318.043H197.155V320.043ZM197.154 320.043C145.611 320.043 103.784 278.443 103.417 226.986L105.417 226.972C105.776 277.33 146.71 318.043 197.154 318.043V320.043ZM104.414 227.304C53.7487 227.304 12.6762 268.377 12.6762 319.043H10.6762C10.6762 267.272 52.6441 225.304 104.414 225.304L104.414 227.304ZM11.6762 318.043L104.308 318.043V320.043L11.6762 320.043V318.043ZM104.309 320.043C53.6918 320.1 12.6762 361.151 12.6762 411.782H10.6762C10.6762 360.047 52.5859 318.102 104.307 318.043L104.309 320.043ZM11.6762 410.782H104.417V412.782H11.6762V410.782ZM103.417 411.782L103.417 319.719H105.417L105.417 411.782H103.417ZM105.417 319.711C105.776 370.07 146.71 410.782 197.154 410.782V412.782C145.611 412.782 103.784 371.182 103.417 319.726L105.417 319.711ZM197.154 410.782H197.155V412.782H197.154V410.782ZM196.155 411.782L196.155 319.043H198.155L198.155 411.782H196.155ZM197.155 320.043L104.417 320.043V318.043L197.155 318.043L197.155 320.043ZM103.418 319.001L103.418 319.001L105.416 319.084L105.416 319.085L103.418 319.001ZM103.425 319.167L103.425 319.167L105.409 318.919L105.409 318.919L103.425 319.167ZM103.417 319.043V226.979H105.417V319.043H103.417Z" fill="black" mask="url(#path-11-inside-1)"/>
<mask id="path-13-inside-2" fill="white">
<path fill-rule="evenodd" clip-rule="evenodd" d="M11.6751 133.882L11.6751 133.882C11.6751 82.6635 53.1958 41.1427 104.414 41.1427C155.633 41.1427 197.153 82.6635 197.153 133.882L197.153 133.882L104.415 133.882C155.634 133.882 197.154 175.403 197.154 226.621L104.415 226.621C155.634 226.621 197.154 268.142 197.154 319.361L11.676 319.361C11.676 268.142 53.1967 226.621 104.415 226.621L11.676 226.621C11.676 175.403 53.1967 133.882 104.415 133.882L11.6751 133.882Z"/>
</mask>
<path d="M11.6751 133.882L10.6751 133.882L11.6751 133.882ZM11.6751 133.882L11.6751 134.882L10.6751 134.882L10.6751 133.882L11.6751 133.882ZM197.153 133.882L198.153 133.882L198.153 134.882L197.153 134.882L197.153 133.882ZM197.154 226.621L198.154 226.621L198.154 227.621L197.154 227.621L197.154 226.621ZM104.415 226.621L104.415 227.621L104.415 226.621ZM197.154 319.361L198.154 319.361L198.154 320.361L197.154 320.361L197.154 319.361ZM11.676 319.361L11.676 320.361L10.676 320.361L10.676 319.361L11.676 319.361ZM11.676 226.621L11.676 227.621L10.676 227.621L10.676 226.621L11.676 226.621ZM12.6751 133.882L12.6751 133.882L10.6751 133.882L10.6751 133.882L12.6751 133.882ZM104.414 42.1427C53.7481 42.1427 12.6751 83.2157 12.6751 133.882L10.6751 133.882C10.6751 82.1112 52.6435 40.1427 104.414 40.1427L104.414 42.1427ZM196.153 133.882C196.153 83.2157 155.08 42.1427 104.414 42.1427L104.414 40.1427C156.185 40.1427 198.153 82.1112 198.153 133.882L196.153 133.882ZM196.153 133.882L196.153 133.882L198.153 133.882L198.153 133.882L196.153 133.882ZM104.415 132.882L197.153 132.882L197.153 134.882L104.415 134.882L104.415 132.882ZM104.415 132.882C156.186 132.882 198.154 174.851 198.154 226.621L196.154 226.621C196.154 175.955 155.081 134.882 104.415 134.882L104.415 132.882ZM197.154 227.621L104.415 227.621L104.415 225.621L197.154 225.621L197.154 227.621ZM104.415 225.621C156.186 225.621 198.154 267.59 198.154 319.361L196.154 319.361C196.154 268.694 155.081 227.621 104.415 227.621L104.415 225.621ZM197.154 320.361L11.676 320.361L11.676 318.361L197.154 318.361L197.154 320.361ZM10.676 319.361C10.676 267.59 52.6444 225.621 104.415 225.621L104.415 227.621C53.749 227.621 12.676 268.694 12.676 319.361L10.676 319.361ZM104.415 227.621L11.676 227.621L11.676 225.621L104.415 225.621L104.415 227.621ZM10.676 226.621C10.676 174.851 52.6444 132.882 104.415 132.882L104.415 134.882C53.749 134.882 12.676 175.955 12.676 226.621L10.676 226.621ZM11.6751 132.882L104.415 132.882L104.415 134.882L11.6751 134.882L11.6751 132.882Z" fill="black" mask="url(#path-13-inside-2)"/>
<path fill-rule="evenodd" clip-rule="evenodd" d="M253.491 226.302H253.687C253.557 224.707 253.492 223.1 253.492 221.483C253.492 172.91 312.707 133.534 385.752 133.534C388.183 133.534 390.599 133.577 392.998 133.663V133.534H336.228V133.533H196.721V226.302H196.916C196.786 224.706 196.721 223.1 196.721 221.483C196.721 191.571 219.177 165.146 253.491 149.257V226.302ZM328.834 133.534C328.883 133.534 328.932 133.534 328.981 133.534C329.03 133.534 329.079 133.534 329.128 133.534H328.834Z" fill="url(#paint2_linear)"/>
<path fill-rule="evenodd" clip-rule="evenodd" d="M325.431 411.781H325.237C325.36 410.256 325.426 408.722 325.431 407.178V411.781ZM325.431 334.737V406.745C325.256 358.272 266.108 319.012 193.171 319.012C190.74 319.012 188.323 319.056 185.924 319.142V319.012H242.693V319.011H382.2V411.78H382.005C382.134 410.185 382.2 408.578 382.2 406.961C382.2 377.049 359.744 350.625 325.431 334.737ZM250.124 319.012C250.062 319.012 250.001 319.012 249.939 319.012C249.878 319.012 249.816 319.012 249.755 319.012H250.124Z" fill="url(#paint3_linear)"/>
<path d="M273.684 417.485C274.77 415.198 277.229 413.608 280.915 412.769C284.593 411.932 289.406 411.867 295.036 412.556C306.292 413.933 320.702 418.312 335.585 425.379C350.468 432.446 362.969 440.845 371.151 448.697C375.244 452.624 378.235 456.395 379.912 459.775C381.591 463.161 381.913 466.071 380.828 468.358C379.742 470.645 377.283 472.234 373.597 473.073C369.919 473.91 365.106 473.976 359.476 473.287C348.22 471.909 333.81 467.53 318.927 460.464C304.044 453.397 291.542 444.998 283.361 437.146C279.268 433.218 276.276 429.447 274.6 426.068C272.921 422.682 272.599 419.771 273.684 417.485Z" stroke="black"/>
<path d="M273.684 429.24C274.77 426.954 277.229 425.364 280.915 424.525C284.593 423.688 289.406 423.622 295.036 424.311C306.292 425.689 320.702 430.068 335.585 437.135C350.468 444.201 362.969 452.6 371.151 460.452C375.244 464.38 378.235 468.151 379.912 471.53C381.591 474.916 381.913 477.827 380.828 480.114C379.742 482.4 377.283 483.99 373.597 484.829C369.919 485.666 365.106 485.731 359.476 485.042C348.22 483.665 333.81 479.286 318.927 472.219C304.044 465.152 291.542 456.754 283.361 448.902C279.268 444.974 276.276 441.203 274.6 437.823C272.921 434.438 272.599 431.527 273.684 429.24Z" stroke="black"/>
<path d="M273.684 440.996C274.77 438.709 277.229 437.119 280.915 436.281C284.593 435.443 289.406 435.378 295.036 436.067C306.292 437.445 320.702 441.823 335.585 448.89C350.468 455.957 362.969 464.356 371.151 472.208C375.244 476.135 378.235 479.906 379.912 483.286C381.591 486.672 381.913 489.582 380.828 491.869C379.742 494.156 377.283 495.746 373.597 496.584C369.919 497.421 365.106 497.487 359.476 496.798C348.22 495.42 333.81 491.041 318.927 483.975C304.044 476.908 291.542 468.509 283.361 460.657C279.268 456.729 276.276 452.958 274.6 449.579C272.921 446.193 272.599 443.282 273.684 440.996Z" stroke="black"/>
<path d="M273.684 452.752C274.77 450.465 277.229 448.875 280.915 448.036C284.593 447.199 289.406 447.134 295.036 447.823C306.292 449.2 320.702 453.579 335.585 460.646C350.468 467.713 362.969 476.112 371.151 483.964C375.244 487.891 378.235 491.662 379.912 495.042C381.591 498.428 381.913 501.338 380.828 503.625C379.742 505.912 377.283 507.501 373.597 508.34C369.919 509.177 365.106 509.243 359.476 508.554C348.22 507.176 333.81 502.797 318.927 495.73C304.044 488.664 291.542 480.265 283.361 472.413C279.268 468.485 276.276 464.714 274.6 461.335C272.921 457.949 272.599 455.038 273.684 452.752Z" stroke="black"/>
<path d="M273.684 464.507C274.77 462.221 277.229 460.631 280.915 459.792C284.593 458.955 289.406 458.89 295.036 459.579C306.292 460.956 320.702 465.335 335.585 472.402C350.468 479.469 362.969 487.867 371.151 495.719C375.244 499.647 378.235 503.418 379.912 506.798C381.591 510.183 381.913 513.094 380.828 515.381C379.742 517.667 377.283 519.257 373.597 520.096C369.919 520.933 365.106 520.999 359.476 520.31C348.22 518.932 333.81 514.553 318.927 507.486C304.044 500.42 291.542 492.021 283.361 484.169C279.268 480.241 276.276 476.47 274.6 473.091C272.921 469.705 272.599 466.794 273.684 464.507Z" stroke="black"/>
<path d="M273.684 476.263C274.77 473.976 277.229 472.386 280.915 471.548C284.593 470.711 289.406 470.645 295.036 471.334C306.292 472.712 320.702 477.091 335.585 484.157C350.468 491.224 362.969 499.623 371.151 507.475C375.244 511.403 378.235 515.174 379.912 518.553C381.591 521.939 381.913 524.85 380.828 527.136C379.742 529.423 377.283 531.013 373.597 531.852C369.919 532.689 365.106 532.754 359.476 532.065C348.22 530.688 333.81 526.309 318.927 519.242C304.044 512.175 291.542 503.776 283.361 495.924C279.268 491.997 276.276 488.226 274.6 484.846C272.921 481.46 272.599 478.55 273.684 476.263Z" stroke="black"/>
<path fill-rule="evenodd" clip-rule="evenodd" d="M202.437 441.423L202.439 441.42L202.445 441.414L202.456 441.402L202.471 441.386L202.49 441.365L202.513 441.34L202.54 441.309L202.571 441.273L202.605 441.233L202.643 441.187L202.684 441.136L202.729 441.08L202.776 441.018L202.827 440.951L202.881 440.879L202.937 440.802L202.997 440.719L203.058 440.631L203.123 440.537L203.189 440.438L203.258 440.333L203.329 440.222L203.401 440.107L203.476 439.985L203.552 439.858L203.63 439.726L203.709 439.588L203.789 439.445L203.87 439.296L203.953 439.141L204.036 438.982L204.12 438.817L204.204 438.646L204.289 438.47L204.375 438.289L204.46 438.103L204.546 437.912L204.631 437.715L204.717 437.513L204.802 437.307L204.886 437.095L204.97 436.879L205.053 436.658L205.136 436.432L205.218 436.202L205.298 435.967L205.377 435.728L205.456 435.485L205.532 435.237L205.608 434.985L205.681 434.729L205.753 434.469L205.823 434.206L205.892 433.939L205.958 433.668L206.022 433.394L206.085 433.116L206.145 432.836L206.202 432.552L206.257 432.265L206.31 431.976L206.36 431.684L206.408 431.389L206.453 431.092L206.495 430.793L206.535 430.492L206.572 430.189L206.605 429.884L206.636 429.577L206.664 429.269L206.689 428.96L206.711 428.649L206.73 428.338L206.746 428.025L206.758 427.712L206.768 427.399L206.774 427.084L206.777 426.77L206.778 426.456L206.775 426.141L206.768 425.827L206.759 425.514L206.747 425.2L206.731 424.888L206.713 424.576L206.691 424.266L206.666 423.956L206.639 423.648L206.608 423.341L206.574 423.036L206.538 422.733L206.499 422.432L206.457 422.132L206.412 421.835L206.364 421.54L206.314 421.248L206.262 420.959L206.207 420.672L206.149 420.388L206.089 420.107L206.027 419.829L205.963 419.555L205.897 419.284L205.829 419.016L205.759 418.752L205.687 418.492L205.613 418.236L205.538 417.984L205.462 417.736L205.384 417.492L205.304 417.252L205.224 417.017L205.142 416.787L205.06 416.561L204.977 416.339L204.893 416.122L204.808 415.911L204.723 415.704L204.638 415.502L204.553 415.305L204.467 415.113L204.382 414.926L204.296 414.745L204.211 414.569L204.127 414.398L204.043 414.232L203.959 414.072L203.877 413.917L203.795 413.768L203.715 413.624L203.636 413.486L203.558 413.353L203.482 413.226L203.407 413.104L203.334 412.987L203.263 412.877L203.195 412.771L203.128 412.672L203.063 412.577L203.001 412.489L202.942 412.405L202.885 412.327L202.831 412.255L202.78 412.188L202.732 412.126L202.688 412.069L202.646 412.018L202.608 411.972L202.573 411.931L202.542 411.895L202.515 411.864L202.492 411.838L202.473 411.816L202.457 411.8L202.446 411.788L202.439 411.781L202.437 411.778L202.438 411.78L202.445 411.786L202.456 411.797L202.472 411.812L202.492 411.83L202.517 411.853L202.548 411.88L202.583 411.91L202.623 411.944L202.669 411.981L202.719 412.022L202.775 412.067L202.836 412.114L202.902 412.165L202.974 412.218L203.051 412.274L203.133 412.333L203.221 412.395L203.315 412.459L203.413 412.525L203.518 412.594L203.628 412.665L203.743 412.737L203.864 412.812L203.991 412.888L204.123 412.965L204.26 413.044L204.403 413.124L204.551 413.205L204.705 413.288L204.865 413.371L205.029 413.455L205.199 413.539L205.375 413.624L205.555 413.71L205.741 413.795L205.932 413.881L206.128 413.966L206.329 414.052L206.536 414.137L206.747 414.221L206.963 414.305L207.183 414.389L207.409 414.471L207.639 414.553L207.873 414.633L208.112 414.713L208.355 414.791L208.602 414.868L208.854 414.943L209.11 415.017L209.369 415.089L209.632 415.16L209.899 415.228L210.17 415.295L210.444 415.359L210.721 415.421L211.001 415.482L211.285 415.539L211.571 415.595L211.86 415.648L212.152 415.698L212.446 415.746L212.743 415.791L213.042 415.834L213.343 415.874L213.646 415.91L213.951 415.944L214.257 415.976L214.565 416.004L214.875 416.029L215.185 416.051L215.496 416.07L215.809 416.086L216.122 416.099L216.436 416.109L216.75 416.115L217.064 416.119L217.378 416.119L217.693 416.117L218.007 416.111L218.321 416.102L218.634 416.09L218.946 416.074L219.258 416.056L219.569 416.034L219.878 416.01L220.187 415.983L220.493 415.952L220.799 415.919L221.102 415.883L221.404 415.844L221.703 415.802L222 415.757L222.295 415.71L222.588 415.66L222.878 415.608L223.165 415.553L223.449 415.496L223.73 415.436L224.008 415.374L224.283 415.31L224.554 415.244L224.822 415.176L225.086 415.106L225.346 415.035L225.603 414.961L225.855 414.886L226.104 414.81L226.348 414.732L226.588 414.652L226.823 414.572L227.054 414.491L227.281 414.408L227.503 414.325L227.72 414.241L227.932 414.157L228.139 414.072L228.342 413.987L228.539 413.901L228.731 413.816L228.918 413.73L229.1 413.645L229.277 413.56L229.448 413.475L229.614 413.391L229.775 413.308L229.93 413.225L230.08 413.144L230.224 413.063L230.363 412.984L230.496 412.906L230.624 412.83L230.746 412.755L230.863 412.682L230.974 412.611L231.079 412.542L231.18 412.475L231.274 412.41L231.364 412.348L231.447 412.288L231.526 412.231L231.599 412.177L231.666 412.126L231.729 412.078L231.786 412.033L231.837 411.991L231.884 411.953L231.925 411.918L231.962 411.887L231.993 411.859L232.02 411.835L232.041 411.816L232.058 411.8L232.07 411.789L232.078 411.781L232.081 411.778L232.079 411.78L232.073 411.786L232.063 411.797L232.049 411.812L232.031 411.832L232.008 411.857L231.982 411.887L231.952 411.922L231.918 411.962L231.881 412.006L231.84 412.057L231.796 412.112L231.749 412.173L231.699 412.238L231.645 412.31L231.589 412.386L231.53 412.468L231.469 412.556L231.405 412.649L231.339 412.747L231.271 412.851L231.2 412.961L231.128 413.076L231.054 413.196L230.978 413.322L230.9 413.454L230.821 413.591L230.741 413.733L230.66 413.881L230.578 414.035L230.495 414.193L230.411 414.358L230.327 414.527L230.242 414.702L230.156 414.882L230.071 415.068L229.985 415.259L229.9 415.454L229.814 415.655L229.729 415.861L229.645 416.071L229.561 416.287L229.477 416.507L229.395 416.732L229.313 416.962L229.232 417.196L229.153 417.434L229.074 417.677L228.997 417.924L228.922 418.176L228.848 418.431L228.776 418.69L228.705 418.953L228.636 419.22L228.57 419.49L228.505 419.763L228.443 420.04L228.382 420.32L228.324 420.604L228.269 420.89L228.215 421.179L228.165 421.47L228.117 421.765L228.071 422.061L228.029 422.36L227.989 422.661L227.952 422.964L227.917 423.268L227.886 423.575L227.858 423.882L227.832 424.192L227.81 424.502L227.79 424.813L227.774 425.126L227.761 425.439L227.751 425.752L227.744 426.066L227.74 426.381L227.74 426.695L227.742 427.009L227.748 427.324L227.757 427.637L227.769 427.951L227.784 428.263L227.802 428.575L227.823 428.886L227.847 429.196L227.874 429.504L227.904 429.811L227.938 430.116L227.974 430.42L228.012 430.721L228.054 431.021L228.098 431.318L228.145 431.614L228.195 431.906L228.247 432.196L228.302 432.484L228.359 432.768L228.418 433.049L228.48 433.328L228.544 433.603L228.61 433.874L228.678 434.142L228.747 434.407L228.819 434.667L228.892 434.924L228.967 435.177L229.043 435.426L229.121 435.67L229.2 435.911L229.281 436.146L229.362 436.378L229.444 436.605L229.527 436.827L229.611 437.044L229.696 437.257L229.781 437.465L229.866 437.667L229.951 437.865L230.037 438.058L230.122 438.245L230.208 438.428L230.293 438.605L230.377 438.776L230.462 438.943L230.545 439.104L230.628 439.259L230.709 439.41L230.79 439.554L230.869 439.693L230.947 439.827L231.024 439.955L231.098 440.078L231.172 440.195L231.243 440.307L231.312 440.413L231.379 440.514L231.444 440.609L231.506 440.698L231.566 440.783L231.623 440.861L231.678 440.935L231.729 441.003L231.778 441.066L231.823 441.123L231.865 441.175L231.904 441.222L231.939 441.264L231.97 441.301L231.998 441.333L232.022 441.36L232.042 441.382L232.058 441.399L232.07 441.411L232.078 441.419L232.081 441.422L232.08 441.421L232.074 441.416L232.064 441.406L232.049 441.392L232.029 441.374L232.004 441.352L231.975 441.326L231.941 441.296L231.901 441.263L231.857 441.226L231.807 441.185L231.752 441.141L231.692 441.095L231.626 441.044L231.555 440.991L231.479 440.936L231.398 440.877L231.311 440.816L231.218 440.752L231.12 440.686L231.017 440.618L230.908 440.548L230.793 440.475L230.673 440.401L230.547 440.326L230.416 440.248L230.28 440.17L230.138 440.09L229.99 440.008L229.837 439.926L229.679 439.843L229.515 439.759L229.346 439.675L229.171 439.59L228.991 439.505L228.806 439.419L228.616 439.334L228.421 439.248L228.22 439.163L228.015 439.078L227.805 438.993L227.59 438.909L227.37 438.826L227.145 438.743L226.916 438.661L226.682 438.58L226.444 438.501L226.201 438.422L225.955 438.345L225.704 438.269L225.449 438.195L225.19 438.123L224.927 438.052L224.661 437.984L224.391 437.917L224.118 437.852L223.841 437.789L223.561 437.729L223.278 437.671L222.992 437.615L222.703 437.561L222.412 437.511L222.118 437.462L221.822 437.417L221.523 437.374L221.222 437.333L220.92 437.296L220.615 437.262L220.309 437.23L220.001 437.201L219.692 437.176L219.382 437.153L219.071 437.134L218.758 437.117L218.445 437.104L218.132 437.093L217.818 437.086L217.504 437.082L217.189 437.081L216.875 437.084L216.561 437.089L216.247 437.098L215.933 437.109L215.621 437.124L215.309 437.142L214.998 437.163L214.688 437.187L214.38 437.214L214.073 437.244L213.767 437.277L213.464 437.312L213.162 437.351L212.862 437.392L212.564 437.436L212.269 437.483L211.976 437.533L211.686 437.585L211.398 437.639L211.114 437.696L210.832 437.755L210.554 437.817L210.278 437.88L210.006 437.946L209.738 438.014L209.473 438.083L209.212 438.155L208.955 438.228L208.702 438.303L208.453 438.379L208.208 438.457L207.968 438.536L207.731 438.616L207.5 438.697L207.272 438.779L207.05 438.862L206.832 438.946L206.619 439.031L206.411 439.115L206.208 439.201L206.01 439.286L205.817 439.372L205.629 439.457L205.446 439.543L205.269 439.628L205.096 439.712L204.93 439.797L204.768 439.88L204.612 439.963L204.461 440.044L204.316 440.125L204.177 440.205L204.042 440.283L203.914 440.359L203.791 440.434L203.673 440.508L203.561 440.579L203.454 440.648L203.353 440.716L203.258 440.781L203.168 440.843L203.083 440.903L203.004 440.961L202.93 441.015L202.862 441.067L202.799 441.116L202.741 441.161L202.688 441.204L202.641 441.242L202.598 441.278L202.561 441.31L202.529 441.338L202.502 441.362L202.479 441.382L202.462 441.399L202.449 441.411L202.441 441.419L202.437 441.422L202.437 441.423Z" stroke="black"/>
<path fill-rule="evenodd" clip-rule="evenodd" d="M340.277 205.341L340.28 205.341L340.29 205.34L340.306 205.34L340.327 205.339L340.356 205.338L340.39 205.336L340.431 205.333L340.478 205.33L340.531 205.325L340.59 205.32L340.655 205.313L340.726 205.305L340.803 205.295L340.886 205.284L340.975 205.271L341.07 205.256L341.171 205.239L341.277 205.22L341.389 205.199L341.506 205.176L341.629 205.151L341.757 205.123L341.89 205.092L342.028 205.059L342.172 205.023L342.321 204.984L342.474 204.943L342.632 204.898L342.795 204.851L342.962 204.8L343.134 204.746L343.31 204.688L343.491 204.627L343.675 204.563L343.863 204.496L344.055 204.424L344.251 204.349L344.451 204.271L344.654 204.189L344.86 204.103L345.069 204.013L345.281 203.919L345.497 203.822L345.715 203.721L345.935 203.616L346.158 203.507L346.383 203.394L346.611 203.277L346.84 203.156L347.071 203.031L347.305 202.902L347.539 202.769L347.775 202.632L348.012 202.492L348.251 202.347L348.49 202.199L348.73 202.047L348.971 201.891L349.212 201.731L349.454 201.567L349.696 201.4L349.938 201.229L350.18 201.054L350.422 200.876L350.663 200.694L350.904 200.509L351.145 200.321L351.384 200.129L351.623 199.934L351.86 199.736L352.097 199.535L352.332 199.331L352.565 199.124L352.797 198.914L353.028 198.702L353.256 198.487L353.483 198.269L353.707 198.049L353.93 197.827L354.15 197.603L354.368 197.376L354.583 197.148L354.796 196.917L355.006 196.686L355.213 196.452L355.417 196.217L355.619 195.981L355.817 195.743L356.012 195.505L356.204 195.265L356.393 195.025L356.578 194.784L356.76 194.543L356.938 194.301L357.113 194.059L357.285 193.817L357.452 193.575L357.616 193.333L357.776 193.092L357.933 192.851L358.085 192.611L358.234 192.372L358.379 192.133L358.52 191.896L358.657 191.66L358.79 191.425L358.919 191.192L359.044 190.96L359.165 190.731L359.283 190.503L359.396 190.278L359.505 190.054L359.611 189.834L359.712 189.616L359.81 189.4L359.904 189.188L359.994 188.978L360.08 188.772L360.163 188.568L360.242 188.369L360.317 188.173L360.388 187.98L360.456 187.792L360.521 187.607L360.582 187.426L360.639 187.25L360.694 187.078L360.745 186.91L360.793 186.747L360.838 186.588L360.88 186.434L360.918 186.285L360.955 186.141L360.988 186.003L361.019 185.869L361.047 185.74L361.073 185.617L361.096 185.499L361.117 185.387L361.136 185.281L361.153 185.18L361.168 185.084L361.181 184.995L361.192 184.911L361.202 184.834L361.211 184.762L361.218 184.696L361.223 184.637L361.228 184.583L361.231 184.536L361.234 184.495L361.236 184.46L361.237 184.431L361.238 184.409L361.239 184.393L361.239 184.383L361.239 184.379L361.239 184.382L361.239 184.391L361.239 184.406L361.24 184.427L361.241 184.455L361.243 184.489L361.246 184.529L361.249 184.575L361.254 184.628L361.259 184.687L361.266 184.751L361.274 184.822L361.284 184.899L361.295 184.981L361.308 185.07L361.322 185.164L361.339 185.264L361.358 185.37L361.378 185.481L361.401 185.598L361.427 185.72L361.454 185.848L361.485 185.981L361.518 186.119L361.553 186.262L361.592 186.41L361.633 186.563L361.678 186.721L361.725 186.884L361.776 187.051L361.83 187.222L361.887 187.398L361.947 187.578L362.011 187.762L362.078 187.95L362.149 188.142L362.224 188.337L362.302 188.536L362.384 188.739L362.47 188.945L362.559 189.154L362.652 189.366L362.75 189.581L362.85 189.799L362.955 190.019L363.064 190.242L363.177 190.467L363.294 190.694L363.414 190.924L363.539 191.155L363.667 191.388L363.8 191.622L363.936 191.858L364.076 192.095L364.221 192.333L364.369 192.573L364.521 192.813L364.676 193.054L364.836 193.295L364.999 193.537L365.166 193.779L365.337 194.021L365.511 194.263L365.689 194.504L365.87 194.746L366.055 194.987L366.243 195.227L366.435 195.467L366.629 195.705L366.827 195.943L367.028 196.18L367.232 196.415L367.439 196.648L367.648 196.881L367.861 197.111L368.076 197.34L368.293 197.567L368.513 197.791L368.735 198.014L368.959 198.234L369.185 198.452L369.414 198.668L369.644 198.881L369.875 199.091L370.109 199.298L370.344 199.503L370.58 199.704L370.817 199.903L371.056 200.098L371.295 200.291L371.535 200.48L371.776 200.665L372.017 200.847L372.259 201.026L372.501 201.201L372.743 201.373L372.985 201.541L373.227 201.705L373.468 201.865L373.709 202.022L373.949 202.175L374.189 202.324L374.427 202.469L374.665 202.61L374.901 202.748L375.136 202.881L375.369 203.01L375.601 203.136L375.831 203.258L376.058 203.375L376.284 203.489L376.507 203.599L376.728 203.704L376.947 203.806L377.162 203.904L377.375 203.998L377.585 204.089L377.792 204.175L377.995 204.258L378.195 204.337L378.391 204.413L378.584 204.484L378.773 204.553L378.958 204.617L379.139 204.679L379.316 204.737L379.488 204.791L379.656 204.843L379.82 204.891L379.979 204.936L380.133 204.978L380.282 205.017L380.427 205.054L380.566 205.087L380.7 205.118L380.829 205.146L380.953 205.172L381.071 205.196L381.183 205.217L381.29 205.236L381.392 205.253L381.488 205.268L381.577 205.282L381.662 205.293L381.74 205.303L381.812 205.312L381.878 205.319L381.938 205.325L381.992 205.329L382.04 205.333L382.082 205.336L382.117 205.338L382.146 205.339L382.169 205.34L382.186 205.34L382.196 205.341L382.2 205.341L382.198 205.341L382.19 205.341L382.175 205.341L382.154 205.342L382.127 205.343L382.093 205.345L382.054 205.347L382.008 205.351L381.956 205.355L381.898 205.361L381.834 205.367L381.763 205.375L381.687 205.385L381.605 205.396L381.517 205.408L381.423 205.423L381.323 205.439L381.218 205.458L381.107 205.478L380.991 205.501L380.869 205.526L380.742 205.554L380.609 205.584L380.472 205.617L380.329 205.652L380.181 205.69L380.029 205.732L379.871 205.776L379.709 205.823L379.542 205.873L379.371 205.927L379.196 205.984L379.016 206.044L378.832 206.108L378.645 206.175L378.453 206.245L378.258 206.32L378.059 206.398L377.857 206.479L377.651 206.565L377.442 206.654L377.23 206.747L377.016 206.843L376.798 206.944L376.578 207.049L376.355 207.157L376.13 207.269L375.903 207.386L375.674 207.506L375.443 207.63L375.21 207.759L374.976 207.891L374.74 208.027L374.503 208.167L374.265 208.311L374.026 208.458L373.786 208.61L373.545 208.766L373.304 208.925L373.062 209.088L372.82 209.255L372.578 209.425L372.336 209.599L372.094 209.777L371.853 209.958L371.612 210.142L371.371 210.33L371.132 210.521L370.893 210.716L370.655 210.913L370.419 211.114L370.183 211.317L369.95 211.524L369.717 211.733L369.487 211.945L369.258 212.16L369.031 212.377L368.806 212.597L368.583 212.819L368.363 213.043L368.144 213.269L367.929 213.497L367.716 213.727L367.505 213.959L367.298 214.192L367.093 214.427L366.891 214.663L366.692 214.9L366.496 215.138L366.304 215.378L366.115 215.618L365.929 215.859L365.746 216.1L365.567 216.342L365.392 216.584L365.22 216.826L365.052 217.068L364.888 217.309L364.727 217.551L364.57 217.792L364.417 218.032L364.267 218.272L364.122 218.51L363.98 218.748L363.843 218.984L363.709 219.219L363.579 219.453L363.453 219.684L363.331 219.914L363.214 220.142L363.1 220.368L362.99 220.591L362.883 220.813L362.781 221.031L362.683 221.247L362.588 221.46L362.498 221.67L362.411 221.877L362.328 222.081L362.249 222.281L362.173 222.478L362.101 222.671L362.032 222.86L361.967 223.045L361.906 223.227L361.847 223.404L361.792 223.577L361.741 223.745L361.692 223.909L361.647 224.068L361.605 224.223L361.565 224.372L361.529 224.517L361.495 224.657L361.464 224.792L361.435 224.921L361.409 225.045L361.385 225.163L361.364 225.276L361.345 225.384L361.327 225.486L361.312 225.582L361.299 225.672L361.287 225.757L361.277 225.835L361.268 225.908L361.261 225.975L361.255 226.035L361.251 226.09L361.247 226.138L361.244 226.18L361.242 226.216L361.24 226.246L361.24 226.269L361.239 226.287L361.239 226.298L361.239 226.302L361.239 226.301L361.239 226.293L361.238 226.278L361.238 226.258L361.237 226.231L361.235 226.198L361.232 226.159L361.229 226.114L361.225 226.062L361.219 226.004L361.213 225.941L361.205 225.871L361.196 225.795L361.185 225.713L361.172 225.626L361.158 225.532L361.142 225.433L361.123 225.329L361.103 225.218L361.08 225.102L361.055 224.981L361.028 224.854L360.998 224.722L360.966 224.585L360.93 224.442L360.892 224.295L360.851 224.143L360.807 223.986L360.76 223.824L360.71 223.658L360.657 223.487L360.6 223.312L360.54 223.132L360.477 222.949L360.41 222.762L360.34 222.57L360.266 222.375L360.188 222.177L360.107 221.975L360.022 221.769L359.933 221.561L359.84 221.349L359.744 221.135L359.644 220.917L359.539 220.697L359.431 220.475L359.319 220.25L359.203 220.023L359.083 219.794L358.959 219.563L358.831 219.331L358.699 219.097L358.564 218.861L358.424 218.624L358.28 218.386L358.133 218.147L357.982 217.907L357.826 217.666L357.668 217.425L357.505 217.183L357.338 216.941L357.168 216.699L356.995 216.457L356.817 216.215L356.636 215.974L356.452 215.733L356.265 215.492L356.074 215.253L355.879 215.014L355.682 214.776L355.482 214.539L355.278 214.304L355.072 214.07L354.863 213.837L354.651 213.607L354.437 213.378L354.22 213.151L354 212.926L353.779 212.703L353.555 212.482L353.329 212.264L353.101 212.048L352.871 211.834L352.639 211.624L352.406 211.416L352.172 211.211L351.936 211.009L351.698 210.81L351.46 210.614L351.221 210.421L350.981 210.231L350.74 210.045L350.499 209.863L350.257 209.683L350.015 209.508L349.773 209.336L349.531 209.167L349.289 209.002L349.048 208.841L348.807 208.684L348.567 208.53L348.327 208.381L348.088 208.235L347.851 208.093L347.614 207.955L347.379 207.821L347.146 207.691L346.914 207.565L346.684 207.443L346.456 207.325L346.23 207.21L346.006 207.1L345.784 206.994L345.566 206.891L345.35 206.792L345.136 206.698L344.926 206.607L344.719 206.52L344.515 206.436L344.314 206.356L344.117 206.28L343.924 206.208L343.735 206.139L343.549 206.074L343.367 206.012L343.19 205.954L343.017 205.898L342.848 205.847L342.683 205.798L342.524 205.752L342.369 205.71L342.219 205.67L342.074 205.633L341.934 205.599L341.799 205.568L341.669 205.539L341.544 205.513L341.425 205.489L341.312 205.467L341.204 205.448L341.102 205.431L341.005 205.415L340.914 205.402L340.829 205.39L340.75 205.38L340.677 205.371L340.61 205.364L340.549 205.358L340.494 205.353L340.445 205.349L340.402 205.346L340.366 205.344L340.336 205.342L340.312 205.341L340.294 205.341L340.283 205.341L340.278 205.341L340.277 205.341Z" stroke="black"/>
<mask id="path-25-inside-3" fill="white">
<path fill-rule="evenodd" clip-rule="evenodd" d="M289.46 319.041V319.041V319.041ZM289.46 319.041L382.199 319.041L289.46 319.041ZM382.199 319.041L382.199 226.302L382.199 319.041ZM382.199 226.302H382.199H382.199ZM382.199 226.302C331.162 226.302 289.754 267.529 289.461 318.497L382.199 226.302ZM289.46 319.041C238.242 319.041 196.722 277.52 196.722 226.302L289.353 226.302C238.184 226.244 196.722 184.745 196.722 133.563L289.461 133.563L289.461 225.758C289.754 174.79 331.162 133.563 382.199 133.563H382.199L382.199 226.302L289.461 226.302L289.461 226.302L289.461 226.302V318.497"/>
</mask>
<path d="M289.46 319.041H288.96V319.541L289.46 319.541V319.041ZM382.199 319.041L382.199 319.541H382.699L382.699 319.041L382.199 319.041ZM382.199 226.302H382.699V225.802H382.199V226.302ZM382.199 226.302V225.802H381.993L381.847 225.947L382.199 226.302ZM289.461 318.497L289.109 318.142L288.962 318.288L288.961 318.495L289.461 318.497ZM288.96 319.041V319.041H289.96V319.041H288.96ZM289.46 319.541L382.199 319.541L382.199 318.541L289.46 318.541V319.541ZM382.699 319.041L382.699 226.302H381.699L381.699 319.041L382.699 319.041ZM382.199 225.802H382.199V226.802H382.199V225.802ZM381.847 225.947L289.109 318.142L289.814 318.851L382.552 226.657L381.847 225.947ZM288.961 318.495L288.96 319.04L289.96 319.043L289.961 318.498L288.961 318.495ZM289.46 319.041H288.46V320.041L289.46 320.041V319.041ZM382.199 319.041L382.199 320.041H383.199L383.199 319.041L382.199 319.041ZM382.199 226.302H383.199V225.302H382.199V226.302ZM289.461 318.497H288.461L290.461 318.503L289.461 318.497ZM196.722 226.302V225.302H195.722V226.302H196.722ZM289.353 226.302V227.302L289.355 225.302L289.353 226.302ZM196.722 133.563V132.563H195.722V133.563H196.722ZM289.461 133.563H290.461V132.563H289.461V133.563ZM289.461 225.758H288.461L290.461 225.763L289.461 225.758ZM382.199 133.563H383.199V132.563H382.199V133.563ZM382.199 226.302L382.199 227.302H383.199L383.199 226.302H382.199ZM289.461 226.302V225.302H288.397L288.463 226.364L289.461 226.302ZM289.461 226.302L290.454 226.426L290.465 226.333L290.46 226.24L289.461 226.302ZM289.461 226.302L288.469 226.178L288.461 226.24V226.302H289.461ZM288.46 319.041V319.041H290.46V319.041H288.46ZM289.46 320.041L382.199 320.041L382.199 318.041L289.46 318.041V320.041ZM383.199 319.041L383.199 226.302H381.199L381.199 319.041L383.199 319.041ZM382.199 225.302H382.199V227.302H382.199V225.302ZM382.199 225.302C330.612 225.302 288.758 266.973 288.462 318.491L290.461 318.503C290.751 268.084 331.713 227.302 382.199 227.302V225.302ZM289.46 318.041C238.794 318.041 197.722 276.968 197.722 226.302H195.722C195.722 278.072 237.69 320.041 289.46 320.041L289.46 318.041ZM196.722 227.302L289.353 227.302V225.302L196.722 225.302V227.302ZM289.355 225.302C238.737 225.244 197.722 184.194 197.722 133.563H195.722C195.722 185.297 237.632 227.243 289.352 227.302L289.355 225.302ZM196.722 134.563L289.461 134.563V132.563L196.722 132.563V134.563ZM288.461 133.563L288.461 225.758H290.461L290.461 133.563H288.461ZM290.461 225.763C290.751 175.345 331.713 134.563 382.199 134.563V132.563C330.612 132.563 288.758 174.234 288.462 225.752L290.461 225.763ZM382.199 134.563H382.199V132.563H382.199V134.563ZM381.199 133.563L381.199 226.302H383.199L383.199 133.563H381.199ZM382.199 225.302L289.461 225.302V227.302L382.199 227.302L382.199 225.302ZM288.463 226.364L288.463 226.364L290.46 226.24L290.46 226.239L288.463 226.364ZM288.469 226.178L288.469 226.178L290.454 226.426L290.454 226.426L288.469 226.178ZM288.461 226.302V318.497H290.461V226.302H288.461Z" fill="black" mask="url(#path-25-inside-3)"/>
<mask id="path-27-inside-4" fill="white">
<path fill-rule="evenodd" clip-rule="evenodd" d="M196.721 411.463L196.721 411.463C196.721 462.681 238.241 504.202 289.46 504.202C340.678 504.202 382.199 462.681 382.199 411.463L382.199 411.463L289.46 411.463C340.678 411.463 382.199 369.942 382.199 318.723L289.46 318.723C340.678 318.723 382.199 277.203 382.199 225.984L196.721 225.984C196.721 277.203 238.242 318.723 289.46 318.723L196.721 318.723C196.721 369.942 238.242 411.463 289.46 411.463L196.721 411.463Z"/>
</mask>
<path d="M196.721 411.463L195.721 411.463L196.721 411.463ZM196.721 411.463L196.721 410.463L195.721 410.463L195.721 411.463L196.721 411.463ZM382.199 411.463L383.199 411.463L383.199 410.463L382.199 410.463L382.199 411.463ZM382.199 318.723L383.199 318.723L383.199 317.723L382.199 317.723L382.199 318.723ZM382.199 225.984L383.199 225.984L383.199 224.984L382.199 224.984L382.199 225.984ZM196.721 225.984L196.721 224.984L195.721 224.984L195.721 225.984L196.721 225.984ZM196.721 318.723L196.721 317.723L195.721 317.723L195.721 318.723L196.721 318.723ZM197.721 411.463L197.721 411.463L195.721 411.463L195.721 411.463L197.721 411.463ZM289.46 503.202C238.794 503.202 197.721 462.129 197.721 411.463L195.721 411.463C195.721 463.234 237.689 505.202 289.46 505.202L289.46 503.202ZM381.199 411.463C381.199 462.129 340.126 503.202 289.46 503.202L289.46 505.202C341.231 505.202 383.199 463.234 383.199 411.463L381.199 411.463ZM381.199 411.463L381.199 411.463L383.199 411.463L383.199 411.463L381.199 411.463ZM289.46 412.463L382.199 412.463L382.199 410.463L289.46 410.463L289.46 412.463ZM289.46 412.463C341.231 412.463 383.199 370.494 383.199 318.723L381.199 318.723C381.199 369.39 340.126 410.463 289.46 410.463L289.46 412.463ZM382.199 317.723L289.46 317.723L289.46 319.723L382.199 319.723L382.199 317.723ZM289.46 319.723C341.231 319.723 383.199 277.755 383.199 225.984L381.199 225.984C381.199 276.65 340.126 317.723 289.46 317.723L289.46 319.723ZM382.199 224.984L196.721 224.984L196.721 226.984L382.199 226.984L382.199 224.984ZM195.721 225.984C195.721 277.755 237.689 319.723 289.46 319.723L289.46 317.723C238.794 317.723 197.721 276.65 197.721 225.984L195.721 225.984ZM289.46 317.723L196.721 317.723L196.721 319.723L289.46 319.723L289.46 317.723ZM195.721 318.723C195.721 370.494 237.689 412.463 289.46 412.463L289.46 410.463C238.794 410.463 197.721 369.39 197.721 318.723L195.721 318.723ZM196.721 412.463L289.46 412.463L289.46 410.463L196.721 410.463L196.721 412.463Z" fill="black" mask="url(#path-27-inside-4)"/>
<defs>
<linearGradient id="paint0_linear" x1="11.675" y1="365.427" x2="207.954" y2="365.427" gradientUnits="userSpaceOnUse">
<stop stop-color="#FF7D54"/>
<stop offset="1" stop-color="#F7BD79"/>
</linearGradient>
<linearGradient id="paint1_linear" x1="197.155" y1="179.949" x2="0.878967" y2="179.949" gradientUnits="userSpaceOnUse">
<stop stop-color="#FF33C6"/>
<stop offset="1" stop-color="#F56D6D"/>
</linearGradient>
<linearGradient id="paint2_linear" x1="196.721" y1="179.918" x2="392.998" y2="179.918" gradientUnits="userSpaceOnUse">
<stop stop-color="#FF7D54"/>
<stop offset="1" stop-color="#F7BD79"/>
</linearGradient>
<linearGradient id="paint3_linear" x1="382.2" y1="365.396" x2="185.924" y2="365.396" gradientUnits="userSpaceOnUse">
<stop stop-color="#FF33C6"/>
<stop offset="1" stop-color="#F56D6D"/>
</linearGradient>
</defs>
</svg>
