<svg width="42" height="42" viewBox="0 0 42 42" fill="none" xmlns="http://www.w3.org/2000/svg">
<path fill-rule="evenodd" clip-rule="evenodd" d="M42 20.9999L41.9968 20.9999L41.9874 21.0001L41.9717 21.0005L41.9496 21.0013L41.9214 21.0025L41.8868 21.0044L41.8461 21.0071L41.7991 21.0106L41.7461 21.0152L41.6868 21.0208L41.6215 21.0277L41.5502 21.0359L41.4729 21.0457L41.3896 21.057L41.3005 21.07L41.2056 21.0848L41.1049 21.1016L40.9985 21.1204L40.8865 21.1414L40.7691 21.1646L40.6461 21.1902L40.5178 21.2182L40.3843 21.2487L40.2455 21.282L40.1017 21.3179L39.9529 21.3567L39.7993 21.3984L39.6408 21.4431L39.4777 21.4909L39.31 21.5419L39.1379 21.5961L38.9614 21.6536L38.7808 21.7145L38.5961 21.7788L38.4074 21.8466L38.2148 21.918L38.0186 21.993L37.8188 22.0716L37.6156 22.154L37.4091 22.2401L37.1994 22.33L36.9867 22.4237L36.7711 22.5213L36.5527 22.6227L36.3318 22.7281L36.1084 22.8374L35.8827 22.9506L35.6549 23.0678L35.425 23.1889L35.1933 23.314L34.9598 23.4431L34.7248 23.5761L34.4884 23.7131L34.2507 23.8539L34.0119 23.9987L33.7721 24.1474L33.5315 24.2999L33.2902 24.4563L33.0484 24.6164L32.8062 24.7804L32.5638 24.948L32.3213 25.1193L32.0789 25.2942L31.8367 25.4726L31.5949 25.6546L31.3535 25.84L31.1128 26.0287L30.8728 26.2208L30.6338 26.4161L30.3958 26.6145L30.159 26.816L29.9235 27.0205L29.6894 27.2279L29.457 27.438L29.2262 27.6509L28.9972 27.8663L28.7701 28.0843L28.5452 28.3047L28.3223 28.5273L28.1018 28.7521L27.8836 28.979L27.668 29.2078L27.4549 29.4385L27.2445 29.6709L27.0369 29.9048L26.8322 30.1402L26.6305 30.3769L26.4318 30.6148L26.2363 30.8537L26.0439 31.0936L25.8549 31.3343L25.6693 31.5756L25.487 31.8174L25.3083 32.0596L25.1331 32.302L24.9615 32.5445L24.7936 32.7869L24.6294 33.0291L24.4689 33.2709L24.3123 33.5123L24.1594 33.7529L24.0104 33.9928L23.8653 34.2317L23.7242 34.4695L23.5869 34.706L23.4536 34.9412L23.3242 35.1748L23.1988 35.4066L23.0773 35.6367L22.9598 35.8647L22.8463 36.0905L22.7367 36.3141L22.631 36.5353L22.5292 36.7538L22.4313 36.9696L22.3373 37.1826L22.2471 37.3925L22.1607 37.5993L22.0781 37.8028L21.9991 38.0028L21.9238 38.1994L21.8522 38.3922L21.7841 38.5812L21.7195 38.7662L21.6584 38.9472L21.6006 39.124L21.5461 39.2965L21.4949 39.4645L21.4469 39.628L21.4019 39.7868L21.36 39.9409L21.321 40.0901L21.2848 40.2343L21.2513 40.3734L21.2206 40.5074L21.1923 40.6361L21.1666 40.7595L21.1432 40.8774L21.122 40.9898L21.1031 41.0966L21.0861 41.1978L21.0712 41.2932L21.058 41.3828L21.0465 41.4665L21.0367 41.5443L21.0283 41.6161L21.0214 41.6819L21.0156 41.7416L21.011 41.7952L21.0074 41.8426L21.0047 41.8838L21.0027 41.9189L21.0014 41.9476L21.0006 41.9702L21.0001 41.9864L21 41.9963L21 42L20.9999 41.9973L20.9998 41.9884L20.9994 41.9732L20.9987 41.9516L20.9975 41.9239L20.9956 41.8898L20.993 41.8496L20.9896 41.8031L20.9851 41.7505L20.9796 41.6918L20.9728 41.627L20.9646 41.5561L20.955 41.4793L20.9439 41.3965L20.931 41.3078L20.9163 41.2133L20.8997 41.1131L20.881 41.0072L20.8603 40.8957L20.8372 40.7786L20.8118 40.6561L20.784 40.5283L20.7537 40.3951L20.7207 40.2568L20.6849 40.1134L20.6464 39.965L20.6049 39.8117L20.5604 39.6536L20.5129 39.4908L20.4622 39.3235L20.4082 39.1518L20.351 38.9756L20.2904 38.7953L20.2264 38.6109L20.1588 38.4225L20.0877 38.2303L20.013 38.0344L19.9347 37.8349L19.8526 37.6319L19.7668 37.4256L19.6772 37.2162L19.5838 37.0037L19.4865 36.7884L19.3854 36.5702L19.2803 36.3495L19.1714 36.1263L19.0584 35.9008L18.9416 35.6731L18.8207 35.4434L18.696 35.2118L18.5672 34.9785L18.4345 34.7436L18.2979 34.5073L18.1573 34.2696L18.0128 34.0309L17.8645 33.7912L17.7123 33.5506L17.5562 33.3094L17.3963 33.0676L17.2327 32.8255L17.0654 32.5831L16.8944 32.3406L16.7198 32.0982L16.5416 31.856L16.3599 31.6141L16.1748 31.3727L15.9863 31.1319L15.7945 30.8919L15.5995 30.6528L15.4013 30.4147L15.2 30.1778L14.9958 29.9422L14.7887 29.708L14.5787 29.4754L14.3661 29.2445L14.1508 29.0153L13.933 28.7881L13.7129 28.563L13.4904 28.34L13.2657 28.1192L13.039 27.9009L12.8103 27.685L12.5798 27.4717L12.3476 27.2611L12.1138 27.0533L11.8785 26.8484L11.6419 26.6464L11.4041 26.4475L11.1652 26.2517L10.9254 26.0591L10.6848 25.8698L10.4435 25.6839L10.2018 25.5014L9.9596 25.3224L9.71721 25.1469L9.47473 24.975L9.23231 24.8068L8.99009 24.6423L8.74822 24.4815L8.50684 24.3246L8.26612 24.1714L8.02619 24.0221L7.7872 23.8767L7.54931 23.7352L7.31267 23.5976L7.07741 23.464L6.84371 23.3343L6.61169 23.2086L6.38152 23.0868L6.15333 22.969L5.92728 22.8552L5.70352 22.7452L5.48219 22.6392L5.26343 22.5372L5.04739 22.439L4.83421 22.3446L4.62403 22.2541L4.41699 22.1674L4.21323 22.0845L4.01288 22.0052L3.81608 21.9297L3.62297 21.8577L3.43366 21.7893L3.24829 21.7245L3.06698 21.6631L2.88986 21.605L2.71704 21.5503L2.54865 21.4988L2.38479 21.4506L2.22559 21.4054L2.07114 21.3632L1.92155 21.3239L1.77694 21.2875L1.63739 21.2539L1.503 21.2229L1.37387 21.1945L1.25008 21.1685L1.13172 21.1449L1.01887 21.1236L0.911614 21.1045L0.810021 21.0874L0.714163 21.0722L0.624106 21.0589L0.539912 21.0474L0.461642 21.0374L0.389349 21.0289L0.323083 21.0218L0.262891 21.016L0.208815 21.0113L0.160892 21.0076L0.119156 21.0048L0.0836369 21.0028L0.0543586 21.0014L0.0313419 21.0006L0.0146028 21.0001L0.00415305 21L0 20.9999L0.00214654 20.9999L0.0105912 20.9998L0.025328 20.9994L0.0463466 20.9987L0.0736325 20.9975L0.107166 20.9957L0.146925 20.9932L0.19288 20.9898L0.245 20.9855L0.303248 20.98L0.367584 20.9733L0.437963 20.9653L0.514335 20.9558L0.596648 20.9448L0.684844 20.932L0.778862 20.9175L0.878636 20.901L0.984097 20.8826L1.09517 20.8619L1.21178 20.8391L1.33385 20.8139L1.46129 20.7863L1.59402 20.7561L1.73193 20.7233L1.87495 20.6878L2.02296 20.6495L2.17587 20.6082L2.33357 20.564L2.49596 20.5167L2.66292 20.4663L2.83434 20.4126L3.0101 20.3556L3.19009 20.2953L3.37418 20.2315L3.56225 20.1643L3.75417 20.0935L3.94981 20.0191L4.14904 19.941L4.35172 19.8593L4.55773 19.7737L4.76693 19.6845L4.97917 19.5913L5.19431 19.4944L5.41222 19.3935L5.63275 19.2888L5.85575 19.1801L6.08109 19.0675L6.30861 18.951L6.53817 18.8305L6.76961 18.706L7.0028 18.5776L7.23757 18.4452L7.47379 18.3089L7.7113 18.1686L7.94995 18.0244L8.1896 17.8764L8.43009 17.7245L8.67127 17.5687L8.913 17.4092L9.15512 17.2458L9.3975 17.0788L9.63998 16.9081L9.88241 16.7338L10.1247 16.5559L10.3666 16.3745L10.608 16.1896L10.8489 16.0014L11.0889 15.8098L11.3281 15.6151L11.5663 15.4171L11.8033 15.2161L12.039 15.0121L12.2733 14.8052L12.506 14.5955L12.7371 14.383L12.9664 14.168L13.1937 13.9504L13.4191 13.7304L13.6422 13.5081L13.8632 13.2837L14.0817 13.0571L14.2978 12.8286L14.5113 12.5982L14.7221 12.3661L14.9301 12.1324L15.1353 11.8972L15.3375 11.6607L15.5367 11.423L15.7327 11.1842L15.9256 10.9445L16.1151 10.7039L16.3013 10.4627L16.4841 10.221L16.6634 9.97883L16.8392 9.73645L17.0113 9.49397L17.1798 9.25153L17.3446 9.00929L17.5057 8.76739L17.663 8.52597L17.8164 8.28518L17.966 8.04518L18.1117 7.80612L18.2535 7.56813L18.3914 7.33138L18.5254 7.09601L18.6554 6.86218L18.7814 6.63002L18.9035 6.39969L19.0216 6.17134L19.1358 5.94512L19.246 5.72117L19.3523 5.49964L19.4547 5.28067L19.5532 5.0644L19.6479 4.85099L19.7387 4.64056L19.8257 4.43327L19.9089 4.22924L19.9885 4.02862L20.0643 3.83153L20.1366 3.63812L20.2052 3.4485L20.2704 3.26281L20.3321 3.08118L20.3904 2.90372L20.4453 2.73055L20.4971 2.5618L20.5456 2.39758L20.591 2.238L20.6335 2.08317L20.6729 1.93319L20.7096 1.78817L20.7434 1.64822L20.7746 1.51341L20.8033 1.38386L20.8294 1.25964L20.8532 1.14085L20.8747 1.02756L20.894 0.919852L20.9112 0.817805L20.9265 0.721487L20.9399 0.630965L20.9517 0.546302L20.9617 0.467558L20.9703 0.394787L20.9775 0.328039L20.9835 0.267361L20.9883 0.212796L20.992 0.164382L20.9949 0.122153L20.9969 0.0861374L20.9984 0.0563612L20.9992 0.0328451L20.9997 0.0156056L20.9999 0.00465465L21 0L21 0.00164489L21.0001 0.00958816L21.0004 0.0238243L21.0011 0.0443432L21.0022 0.0711307L21.004 0.104168L21.0064 0.143432L21.0097 0.188895L21.014 0.240525L21.0194 0.298287L21.026 0.36214L21.0339 0.43204L21.0432 0.507937L21.0542 0.589779L21.0668 0.677509L21.0812 0.771065L21.0975 0.870384L21.1158 0.975395L21.1362 1.08603L21.1589 1.2022L21.1839 1.32384L21.2113 1.45085L21.2412 1.58316L21.2738 1.72067L21.3091 1.86328L21.3472 2.0109L21.3882 2.16342L21.4322 2.32075L21.4793 2.48276L21.5295 2.64936L21.5829 2.82043L21.6396 2.99586L21.6996 3.17551L21.7631 3.35928L21.8301 3.54704L21.9006 3.73866L21.9747 3.934L22.0525 4.13295L22.134 4.33537L22.2192 4.54112L22.3082 4.75007L22.401 4.96207L22.4976 5.17699L22.5982 5.39468L22.7026 5.61501L22.8109 5.83782L22.9232 6.06298L23.0395 6.29033L23.1597 6.51973L23.2838 6.75103L23.4119 6.98409L23.544 7.21874L23.68 7.45485L23.82 7.69227L23.9638 7.93083L24.1116 8.17041L24.2632 8.41083L24.4186 8.65197L24.5779 8.89366L24.7409 9.13576L24.9076 9.37812L25.078 9.62059L25.2521 9.86304L25.4297 10.1053L25.6108 10.3473L25.7954 10.5887L25.9834 10.8296L26.1747 11.0698L26.3692 11.309L26.5669 11.5473L26.7676 11.7844L26.9714 12.0202L27.1781 12.2546L27.3876 12.4875L27.5998 12.7187L27.8147 12.9481L28.032 13.1757L28.2518 13.4011L28.4739 13.6245L28.6983 13.8456L28.9247 14.0643L29.153 14.2806L29.3833 14.4943L29.6152 14.7053L29.8488 14.9136L30.0838 15.119L30.3202 15.3215L30.5579 15.5209L30.7966 15.7172L31.0362 15.9103L31.2767 16.1001L31.5179 16.2866L31.7596 16.4696L32.0017 16.6492L32.2441 16.8252L32.4866 16.9977L32.729 17.1665L32.9713 17.3316L33.2132 17.4929L33.4547 17.6505L33.6955 17.8043L33.9356 17.9542L34.1747 18.1002L34.4128 18.2423L34.6497 18.3805L34.8851 18.5148L35.1191 18.6451L35.3514 18.7715L35.5819 18.8939L35.8104 19.0123L36.0368 19.1268L36.2609 19.2374L36.4827 19.344L36.7018 19.4467L36.9183 19.5455L37.132 19.6404L37.3426 19.7316L37.5502 19.8189L37.7545 19.9024L37.9554 19.9822L38.1527 20.0584L38.3464 20.1309L38.5364 20.1998L38.7224 20.2653L38.9043 20.3272L39.0821 20.3858L39.2556 20.441L39.4248 20.493L39.5893 20.5418L39.7493 20.5875L39.9045 20.6302L40.0549 20.6699L40.2003 20.7067L40.3407 20.7408L40.4759 20.7722L40.6058 20.801L40.7305 20.8274L40.8497 20.8513L40.9634 20.873L41.0716 20.8925L41.1741 20.9099L41.2709 20.9253L41.3619 20.9389L41.447 20.9507L41.5262 20.961L41.5995 20.9697L41.6667 20.977L41.7279 20.983L41.7829 20.9879L41.8318 20.9917L41.8745 20.9946L41.911 20.9968L41.9413 20.9982L41.9653 20.9992L41.9831 20.9997L41.9945 20.9999L41.9997 20.9999L42 20.9999Z" fill="#00FF00"/>
</svg>
