<svg width="32" height="32" viewBox="0 0 32 32" fill="none" xmlns="http://www.w3.org/2000/svg">
<path d="M16 32C24.8366 32 32 24.8366 32 16C32 7.16344 24.8366 0 16 0C7.16344 0 0 7.16344 0 16C0 24.8366 7.16344 32 16 32Z" fill="black"/>
<path fill-rule="evenodd" clip-rule="evenodd" d="M15.3952 23.0175H16.651C16.651 23.0175 17.0304 22.9759 17.224 22.7671C17.4023 22.5755 17.3966 22.2155 17.3966 22.2155C17.3966 22.2155 17.372 20.5305 18.1541 20.2823C18.925 20.0379 19.915 21.9109 20.9643 22.6311C21.7578 23.1761 22.3607 23.0566 22.3607 23.0566L25.1664 23.0175C25.1664 23.0175 26.6341 22.9271 25.9382 21.7732C25.8812 21.6787 25.5329 20.9195 23.8521 19.3594C22.0929 17.7265 22.3285 17.9906 24.4477 15.1661C25.7383 13.446 26.2542 12.3958 26.0931 11.9461C25.9393 11.5177 24.9901 11.6309 24.9901 11.6309L21.8311 11.6506C21.8311 11.6506 21.5969 11.6186 21.4232 11.7225C21.2535 11.8243 21.1443 12.0616 21.1443 12.0616C21.1443 12.0616 20.6443 13.3927 19.9775 14.5247C18.5708 16.9134 18.0084 17.0394 17.7785 16.8911C17.2437 16.5454 17.3772 15.5024 17.3772 14.7614C17.3772 12.4466 17.7283 11.4814 16.6935 11.2316C16.3501 11.1486 16.0974 11.0938 15.2192 11.085C14.0921 11.0733 13.138 11.0884 12.5978 11.3531C12.2385 11.5291 11.9612 11.9212 12.1301 11.9438C12.3388 11.9717 12.8117 12.0713 13.0624 12.4127C13.3862 12.853 13.3747 13.8422 13.3747 13.8422C13.3747 13.8422 13.5607 16.5671 12.9404 16.9057C12.5145 17.1378 11.9304 16.6638 10.6763 14.4967C10.0337 13.3867 9.54859 12.1597 9.54859 12.1597C9.54859 12.1597 9.45504 11.9304 9.28819 11.8077C9.08568 11.6591 8.80275 11.6118 8.80275 11.6118L5.80086 11.6315C5.80086 11.6315 5.35022 11.644 5.1848 11.84C5.03763 12.0142 5.1731 12.3747 5.1731 12.3747C5.1731 12.3747 7.52327 17.8731 10.1843 20.644C12.6243 23.1844 15.3952 23.0175 15.3952 23.0175Z" fill="white"/>
</svg>
