<svg width="48" height="48" viewBox="0 0 48 48" fill="none" xmlns="http://www.w3.org/2000/svg">
<path d="M24 48C37.2548 48 48 37.2548 48 24C48 10.7452 37.2548 0 24 0C10.7452 0 0 10.7452 0 24C0 37.2548 10.7452 48 24 48Z" fill="black"/>
<path d="M32.6038 19.8259C25.6718 19.8259 25.6628 26.7318 25.6628 26.7673C25.6628 26.7673 25.1879 33.6818 32.6038 33.6818C32.6038 33.6818 38.7884 34.0335 38.7884 28.8696H35.6127C35.6127 28.8696 35.7179 30.8137 32.7095 30.8137C32.7095 30.8137 29.5337 31.025 29.5337 27.673H38.8941C38.8941 27.673 39.9234 19.8259 32.6038 19.8259ZM29.4982 25.2537C29.4982 25.2537 29.8854 22.4737 32.6744 22.4737C35.4719 22.4737 35.4279 25.2537 35.4279 25.2537H29.4982ZM21.5638 23.4769C21.5638 23.4769 24.3173 23.2746 24.3173 20.0372C24.3173 16.8089 22.0652 15.2251 19.2061 15.2251H9.80127V33.3032H19.2052C19.2052 33.3032 24.95 33.4794 24.95 27.9635C24.9505 27.9635 25.1969 23.4769 21.5638 23.4769ZM13.9452 18.4359H19.2057C19.2057 18.4359 20.4814 18.4359 20.4814 20.3183C20.4814 22.2007 19.7336 22.4737 18.8801 22.4737H13.9452V18.4359ZM18.9421 30.0924H13.9452V25.2537H19.2057C19.2057 25.2537 21.115 25.2361 21.1061 27.7432C21.1061 29.8549 19.69 30.0748 18.9421 30.0924ZM28.7153 16.2895V18.5155H36.1757V16.2895H28.7153Z" fill="#F1F2F2"/>
</svg>
