<svg width="48" height="48" viewBox="0 0 48 48" fill="none" xmlns="http://www.w3.org/2000/svg">
<path d="M24.0008 47.9996C37.2555 47.9996 48.0005 37.2545 48.0005 23.9998C48.0005 10.7451 37.2555 0 24.0008 0C10.746 0 0.000976562 10.7451 0.000976562 23.9998C0.000976562 37.2545 10.746 47.9996 24.0008 47.9996Z" fill="#55ACEE"/>
<path d="M38.7011 17.2482C37.6727 17.7043 36.5663 18.0127 35.4061 18.1505C36.5907 17.4407 37.4998 16.3177 37.9289 14.9774C36.8204 15.6349 35.5922 16.1119 34.286 16.3691C33.2396 15.2546 31.7486 14.5581 30.0977 14.5581C26.9301 14.5581 24.3611 17.1272 24.3611 20.2947C24.3611 20.7444 24.412 21.182 24.5104 21.6021C19.7428 21.363 15.5155 19.0793 12.6859 15.6075C12.1922 16.4546 11.909 17.4407 11.909 18.4919C11.909 20.4817 12.9225 22.2383 14.4609 23.2668C13.521 23.2373 12.6358 22.9793 11.8628 22.5485C11.8623 22.5729 11.8623 22.5973 11.8623 22.6212C11.8623 25.4007 13.8406 27.7191 16.4644 28.2457C15.9835 28.3775 15.4757 28.4472 14.9533 28.4472C14.5828 28.4472 14.2239 28.4117 13.8739 28.345C14.6038 30.6236 16.7219 32.2822 19.2328 32.3288C17.2691 33.8677 14.7959 34.7845 12.1075 34.7845C11.6454 34.7845 11.1877 34.7576 10.7397 34.7041C13.2771 36.3324 16.2933 37.2817 19.5327 37.2817C30.0844 37.2817 35.8549 28.5405 35.8549 20.9591C35.8549 20.7106 35.8493 20.4629 35.8382 20.2173C36.9599 19.4087 37.9323 18.3986 38.7011 17.2482Z" fill="#F1F2F2"/>
</svg>
