<svg width="48" height="48" viewBox="0 0 48 48" fill="none" xmlns="http://www.w3.org/2000/svg">
<path d="M24 48C37.2548 48 48 37.2548 48 24C48 10.7452 37.2548 0 24 0C10.7452 0 0 10.7452 0 24C0 37.2548 10.7452 48 24 48Z" fill="#4D76A1"/>
<path fill-rule="evenodd" clip-rule="evenodd" d="M23.0933 34.526H24.977C24.977 34.526 25.546 34.4635 25.8365 34.1503C26.1039 33.8628 26.0953 33.3229 26.0953 33.3229C26.0953 33.3229 26.0585 30.7953 27.2316 30.4231C28.388 30.0565 29.873 32.866 31.447 33.9463C32.6372 34.7638 33.5416 34.5846 33.5416 34.5846L37.7501 34.526C37.7501 34.526 39.9517 34.3903 38.9078 32.6594C38.8222 32.5178 38.2998 31.3789 35.7787 29.0387C33.1399 26.5894 33.4933 26.9856 36.672 22.7488C38.6079 20.1686 39.3818 18.5934 39.1401 17.9187C38.9095 17.2761 37.4857 17.446 37.4857 17.446L32.7471 17.4755C32.7471 17.4755 32.3959 17.4276 32.1353 17.5833C31.8808 17.736 31.7169 18.092 31.7169 18.092C31.7169 18.092 30.967 20.0886 29.9667 21.7867C27.8567 25.3697 27.013 25.5588 26.6682 25.3363C25.866 24.8178 26.0662 23.2533 26.0662 22.1418C26.0662 18.6696 26.5929 17.2218 25.0408 16.847C24.5257 16.7225 24.1466 16.6404 22.8293 16.6271C21.1386 16.6096 19.7075 16.6323 18.8972 17.0293C18.3582 17.2933 17.9423 17.8815 18.1956 17.9153C18.5088 17.9572 19.2181 18.1065 19.5941 18.6186C20.0797 19.2792 20.0626 20.7629 20.0626 20.7629C20.0626 20.7629 20.3416 24.8503 19.411 25.3581C18.7723 25.7064 17.8961 24.9953 16.015 21.7447C15.0511 20.0797 14.3234 18.2392 14.3234 18.2392C14.3234 18.2392 14.183 17.8952 13.9328 17.7112C13.629 17.4883 13.2046 17.4173 13.2046 17.4173L8.70178 17.4468C8.70178 17.4468 8.02582 17.4657 7.77768 17.7596C7.55693 18.021 7.76014 18.5617 7.76014 18.5617C7.76014 18.5617 11.2854 26.8093 15.277 30.9656C18.937 34.7762 23.0933 34.526 23.0933 34.526Z" fill="white"/>
</svg>
