<svg width="48" height="48" viewBox="0 0 48 48" fill="none" xmlns="http://www.w3.org/2000/svg">
<path d="M31.1526 12.7705H16.8463C14.5629 12.7705 12.7051 14.6283 12.7051 16.9118V31.218C12.7051 33.5014 14.5629 35.3598 16.8463 35.3598H31.1526C33.436 35.3598 35.2944 33.502 35.2944 31.218V16.9118C35.2944 14.6283 33.4366 12.7705 31.1526 12.7705ZM23.9994 31.5014C19.8994 31.5014 16.5635 28.1655 16.5635 24.0649C16.5635 19.9648 19.8994 16.6289 23.9994 16.6289C28.1001 16.6289 31.436 19.9648 31.436 24.0649C31.436 28.165 28.0995 31.5014 23.9994 31.5014ZM31.675 18.1664C30.7044 18.1664 29.9151 17.377 29.9151 16.407C29.9151 15.4369 30.7044 14.6476 31.675 14.6476C32.6451 14.6476 33.4344 15.4369 33.4344 16.407C33.4344 17.377 32.6451 18.1664 31.675 18.1664Z" fill="black"/>
<path d="M23.9998 19.771C21.6329 19.771 19.7056 21.6972 19.7056 24.0641C19.7056 26.4321 21.6329 28.3589 23.9998 28.3589C26.3677 28.3589 28.2935 26.4321 28.2935 24.0641C28.2935 21.6978 26.3672 19.771 23.9998 19.771Z" fill="black"/>
<path d="M24 0C10.7457 0 0 10.7457 0 24C0 37.2543 10.7457 48 24 48C37.2543 48 48 37.2543 48 24C48 10.7457 37.2543 0 24 0ZM38.4367 31.2178C38.4367 35.2345 35.1698 38.5014 31.1531 38.5014H16.8469C12.8308 38.5014 9.56331 35.2345 9.56331 31.2178V16.9116C9.56331 12.8955 12.8308 9.62802 16.8469 9.62802H31.1531C35.1698 9.62802 38.4367 12.8955 38.4367 16.9116V31.2178Z" fill="black"/>
</svg>
