<svg width="504" height="283" viewBox="0 0 504 283" fill="none" xmlns="http://www.w3.org/2000/svg">
<rect x="0.341797" width="237.064" height="69.7246" rx="16.4058" fill="#4ABEFF"/>
<rect x="266.937" y="106.638" width="237.064" height="69.7246" rx="16.4058" fill="#FF8181"/>
<rect x="0.341797" y="213.275" width="237.064" height="69.7246" rx="16.4058" fill="#4ABEFF"/>
<path d="M385.298 92.8626C385.618 93.183 386.138 93.183 386.458 92.8626L391.678 87.6423C391.999 87.322 391.999 86.8026 391.678 86.4823C391.358 86.1619 390.839 86.1619 390.518 86.4823L385.878 91.1225L381.238 86.4823C380.918 86.1619 380.398 86.1619 380.078 86.4823C379.757 86.8026 379.757 87.322 380.078 87.6423L385.298 92.8626ZM251.351 35.2724H369.472V33.6319H251.351V35.2724ZM385.058 50.8579V92.2826H386.698V50.8579H385.058ZM369.472 35.2724C378.08 35.2724 385.058 42.2503 385.058 50.8579H386.698C386.698 41.3442 378.986 33.6319 369.472 33.6319V35.2724Z" fill="#4ABEFF"/>
<path d="M385.298 189.727C385.618 189.407 386.138 189.407 386.458 189.727L391.678 194.948C391.999 195.268 391.999 195.787 391.678 196.108C391.358 196.428 390.839 196.428 390.518 196.108L385.878 191.467L381.238 196.108C380.918 196.428 380.398 196.428 380.078 196.108C379.757 195.787 379.757 195.268 380.078 194.948L385.298 189.727ZM251.351 247.317H369.472V248.958H251.351V247.317ZM385.058 231.732V190.307H386.698V231.732H385.058ZM369.472 247.317C378.08 247.317 385.058 240.34 385.058 231.732H386.698C386.698 241.246 378.986 248.958 369.472 248.958V247.317Z" fill="#4ABEFF"/>
</svg>
