<svg width="374" height="406" viewBox="0 0 374 406" fill="none" xmlns="http://www.w3.org/2000/svg">
<rect x="314.167" width="59.2083" height="406" fill="url(#paint0_linear)"/>
<path fill-rule="evenodd" clip-rule="evenodd" d="M345.583 41.6873L345.577 41.6874L345.558 41.6877L345.527 41.6885L345.484 41.69L345.427 41.6925L345.359 41.6963L345.278 41.7016L345.185 41.7086L345.079 41.7176L344.962 41.7288L344.832 41.7425L344.691 41.7589L344.537 41.7782L344.372 41.8006L344.195 41.8265L344.006 41.8559L343.807 41.8892L343.595 41.9266L343.373 41.9682L343.14 42.0142L342.896 42.065L342.641 42.1206L342.376 42.1813L342.101 42.2472L341.815 42.3186L341.52 42.3956L341.215 42.4784L340.9 42.5672L340.576 42.6621L340.244 42.7632L339.902 42.8708L339.552 42.985L339.193 43.1058L338.826 43.2335L338.452 43.3681L338.07 43.5098L337.68 43.6586L337.283 43.8147L336.88 43.9782L336.47 44.1492L336.054 44.3276L335.631 44.5137L335.203 44.7074L334.77 44.9088L334.331 45.118L333.888 45.3349L333.44 45.5597L332.988 45.7923L332.531 46.0328L332.071 46.2811L331.608 46.5373L331.141 46.8014L330.672 47.0732L330.2 47.3529L329.726 47.6403L329.25 47.9354L328.772 48.2382L328.293 48.5486L327.813 48.8666L327.333 49.192L326.852 49.5247L326.37 49.8647L325.889 50.2119L325.408 50.5662L324.928 50.9274L324.449 51.2954L323.971 51.6702L323.495 52.0514L323.02 52.4391L322.548 52.833L322.078 53.233L321.61 53.6389L321.146 54.0505L320.684 54.4677L320.226 54.8903L319.771 55.318L319.321 55.7507L318.874 56.1881L318.432 56.6301L317.994 57.0764L317.561 57.5268L317.133 57.981L316.71 58.4389L316.292 58.9002L315.88 59.3646L315.474 59.8318L315.073 60.3017L314.679 60.774L314.291 61.2484L313.909 61.7245L313.534 62.2023L313.165 62.6813L312.803 63.1614L312.448 63.6421L312.101 64.1233L311.76 64.6047L311.427 65.0859L311.101 65.5667L310.782 66.0468L310.471 66.5258L310.168 67.0036L309.872 67.4797L309.584 67.954L309.304 68.4261L309.031 68.8956L308.767 69.3624L308.51 69.8261L308.261 70.2864L308.02 70.743L307.787 71.1956L307.561 71.644L307.344 72.0878L307.134 72.5268L306.932 72.9607L306.737 73.3891L306.551 73.8118L306.372 74.2286L306.2 74.6391L306.036 75.043L305.879 75.4402L305.73 75.8303L305.588 76.213L305.453 76.5882L305.324 76.9556L305.203 77.3148L305.088 77.6658L304.98 78.0082L304.878 78.3417L304.783 78.6663L304.694 78.9816L304.611 79.2874L304.533 79.5836L304.461 79.8699L304.395 80.1461L304.334 80.412L304.278 80.6675L304.227 80.9124L304.18 81.1465L304.138 81.3697L304.101 81.5817L304.067 81.7825L304.037 81.9718L304.011 82.1497L303.988 82.3159L303.969 82.4703L303.952 82.6129L303.938 82.7435L303.927 82.862L303.918 82.9684L303.911 83.0625L303.905 83.1444L303.901 83.2139L303.899 83.2711L303.897 83.3158L303.896 83.348L303.896 83.3678L303.896 83.375L303.896 83.3697L303.896 83.352L303.895 83.3217L303.893 83.279L303.891 83.2239L303.887 83.1563L303.882 83.0764L303.875 82.9842L303.866 82.8798L303.855 82.7632L303.842 82.6345L303.826 82.4938L303.807 82.3413L303.785 82.1769L303.759 82.0009L303.73 81.8134L303.697 81.6144L303.66 81.4042L303.619 81.1828L303.573 80.9504L303.522 80.7073L303.467 80.4534L303.407 80.1891L303.341 79.9145L303.271 79.6298L303.194 79.3352L303.112 79.0309L303.023 78.7171L302.929 78.394L302.828 78.0619L302.721 77.7209L302.608 77.3713L302.487 77.0133L302.36 76.6473L302.226 76.2733L302.085 75.8917L301.937 75.5028L301.781 75.1067L301.618 74.7038L301.448 74.2944L301.27 73.8786L301.085 73.4568L300.892 73.0293L300.691 72.5963L300.482 72.1581L300.266 71.715L300.042 71.2673L299.81 70.8154L299.57 70.3594L299.322 69.8996L299.067 69.4365L298.803 68.9702L298.532 68.501L298.253 68.0293L297.966 67.5554L297.672 67.0795L297.369 66.602L297.06 66.1231L296.742 65.6432L296.418 65.1625L296.085 64.6814L295.746 64.2L295.399 63.7187L295.046 63.2379L294.685 62.7577L294.317 62.2785L293.943 61.8005L293.562 61.3241L293.175 60.8494L292.782 60.3768L292.382 59.9065L291.977 59.4388L291.566 58.9739L291.149 58.5122L290.727 58.0537L290.3 57.5989L289.867 57.1479L289.43 56.7009L288.989 56.2582L288.543 55.82L288.093 55.3866L287.639 54.9581L287.181 54.5347L286.72 54.1166L286.256 53.7041L285.789 53.2972L285.319 52.8963L284.847 52.5014L284.373 52.1127L283.897 51.7304L283.419 51.3547L282.94 50.9856L282.46 50.6233L281.979 50.2679L281.498 49.9196L281.017 49.5784L280.536 49.2445L280.055 48.9179L279.575 48.5988L279.096 48.2872L278.618 47.9832L278.141 47.6868L277.667 47.3981L277.195 47.1172L276.725 46.8441L276.258 46.5789L275.794 46.3214L275.333 46.0718L274.877 45.8301L274.424 45.5962L273.975 45.3702L273.531 45.152L273.091 44.9416L272.657 44.7389L272.228 44.544L271.805 44.3567L271.388 44.1771L270.977 44.005L270.572 43.8403L270.175 43.683L269.784 43.533L269.401 43.3902L269.025 43.2544L268.657 43.1257L268.297 43.0037L267.945 42.8885L267.602 42.7799L267.268 42.6778L266.943 42.5819L266.627 42.4922L266.32 42.4084L266.023 42.3305L265.736 42.2582L265.459 42.1914L265.192 42.1299L264.936 42.0735L264.69 42.022L264.455 41.9752L264.231 41.9329L264.018 41.8949L263.816 41.861L263.626 41.8309L263.447 41.8045L263.28 41.7815L263.125 41.7617L262.981 41.7449L262.85 41.7308L262.73 41.7192L262.623 41.7099L262.528 41.7026L262.445 41.6971L262.375 41.6931L262.316 41.6903L262.271 41.6887L262.237 41.6878L262.217 41.6874L262.208 41.6873L262.213 41.6873L262.23 41.6871L262.259 41.6864L262.3 41.685L262.355 41.6826L262.421 41.6791L262.5 41.674L262.591 41.6673L262.695 41.6586L262.81 41.6478L262.938 41.6345L263.078 41.6186L263.23 41.5998L263.393 41.5779L263.568 41.5526L263.755 41.5237L263.953 41.491L264.162 41.4544L264.383 41.4134L264.614 41.3681L264.856 41.3181L265.109 41.2633L265.373 41.2034L265.647 41.1383L265.93 41.0678L266.224 40.9917L266.528 40.9098L266.841 40.822L267.163 40.7281L267.495 40.628L267.835 40.5214L268.184 40.4083L268.541 40.2886L268.907 40.162L269.28 40.0285L269.661 39.888L270.049 39.7402L270.445 39.5853L270.847 39.423L271.256 39.2532L271.671 39.076L272.093 38.8912L272.52 38.6987L272.952 38.4985L273.39 38.2906L273.833 38.0748L274.28 37.8513L274.732 37.6199L275.188 37.3807L275.647 37.1336L276.11 36.8787L276.576 36.6159L277.045 36.3453L277.516 36.0669L277.99 35.7807L278.466 35.4868L278.943 35.1852L279.422 34.876L279.902 34.5592L280.383 34.235L280.864 33.9035L281.345 33.5646L281.826 33.2185L282.307 32.8654L282.787 32.5053L283.267 32.1383L283.745 31.7646L284.221 31.3844L284.696 30.9978L285.169 30.6048L285.639 30.2058L286.107 29.8008L286.572 29.3901L287.034 28.9738L287.493 28.552L287.948 28.1251L288.4 27.6932L288.847 27.2565L289.29 26.8153L289.729 26.3696L290.162 25.9199L290.591 25.4662L291.015 25.0089L291.434 24.5482L291.847 24.0843L292.254 23.6174L292.655 23.148L293.051 22.6761L293.44 22.202L293.823 21.7261L294.199 21.2486L294.569 20.7697L294.931 20.2898L295.287 19.8092L295.636 19.328L295.978 18.8467L296.312 18.3654L296.64 17.8845L296.959 17.4043L297.272 16.9251L297.576 16.4471L297.873 15.9706L298.162 15.4961L298.444 15.0236L298.718 14.5537L298.984 14.0864L299.242 13.6222L299.492 13.1614L299.734 12.7042L299.969 12.2509L300.195 11.8018L300.414 11.3572L300.625 10.9174L300.828 10.4828L301.024 10.0534L301.212 9.62979L301.392 9.21207L301.565 8.80057L301.73 8.39555L301.888 7.99729L302.039 7.60605L302.182 7.2221L302.318 6.84569L302.448 6.47707L302.57 6.1165L302.686 5.76422L302.795 5.42047L302.898 5.08548L302.994 4.75948L303.084 4.44269L303.168 4.13533L303.247 3.83761L303.319 3.54974L303.387 3.27191L303.449 3.00431L303.505 2.74713L303.557 2.50054L303.605 2.26472L303.647 2.03982L303.686 1.82602L303.72 1.62344L303.75 1.43224L303.777 1.25254L303.8 1.08448L303.82 0.928158L303.837 0.783698L303.851 0.651196L303.863 0.530744L303.873 0.422426L303.88 0.326319L303.886 0.242488L303.89 0.170993L303.893 0.111884L303.895 0.0652015L303.895 0.0309789L303.896 0.00924003L303.896 0L303.896 0.0032653L303.896 0.0190336L303.897 0.047294L303.898 0.0880266L303.9 0.141203L303.904 0.206786L303.909 0.284729L303.915 0.374979L303.924 0.477472L303.935 0.592136L303.948 0.718892L303.963 0.85765L303.982 1.00832L304.004 1.17078L304.029 1.34494L304.057 1.53066L304.089 1.72782L304.126 1.93627L304.166 2.15589L304.211 2.38651L304.261 2.62797L304.315 2.88012L304.375 3.14276L304.44 3.41573L304.51 3.69883L304.585 3.99187L304.667 4.29465L304.754 4.60696L304.847 4.92858L304.947 5.2593L305.053 5.5989L305.166 5.94713L305.285 6.30377L305.411 6.66858L305.544 7.04129L305.684 7.42168L305.831 7.80947L305.985 8.2044L306.147 8.60623L306.316 9.01467L306.493 9.42945L306.677 9.8503L306.869 10.2769L307.069 10.7091L307.276 11.1465L307.491 11.5888L307.714 12.0357L307.945 12.4871L308.183 12.9424L308.43 13.4016L308.684 13.8642L308.946 14.3301L309.216 14.7988L309.494 15.2701L309.78 15.7436L310.073 16.2192L310.374 16.6965L310.682 17.1752L310.998 17.655L311.322 18.1356L311.653 18.6167L311.991 19.098L312.337 19.5793L312.689 20.0602L313.049 20.5405L313.415 21.0199L313.789 21.4981L314.168 21.9748L314.554 22.4498L314.947 22.9228L315.345 23.3934L315.75 23.8616L316.16 24.3269L316.576 24.7892L316.997 25.2482L317.424 25.7036L317.855 26.1552L318.292 26.6029L318.733 27.0462L319.178 27.4852L319.627 27.9194L320.081 28.3487L320.538 28.7729L320.998 29.1918L321.462 29.6053L321.928 30.013L322.398 30.4149L322.869 30.8108L323.343 31.2005L323.819 31.5838L324.297 31.9606L324.775 32.3308L325.255 32.6942L325.736 33.0507L326.217 33.4001L326.698 33.7424L327.179 34.0775L327.66 34.4053L328.141 34.7256L328.62 35.0384L329.098 35.3436L329.575 35.6412L330.049 35.9311L330.522 36.2132L330.992 36.4876L331.46 36.7541L331.924 37.0128L332.385 37.2636L332.843 37.5066L333.296 37.7417L333.746 37.969L334.191 38.1885L334.631 38.4001L335.066 38.604L335.496 38.8001L335.92 38.9886L336.338 39.1695L336.75 39.3428L337.156 39.5087L337.554 39.6671L337.946 39.8183L338.331 39.9622L338.708 40.0991L339.077 40.229L339.438 40.352L339.791 40.4682L340.136 40.5779L340.471 40.6811L340.798 40.7779L341.116 40.8686L341.424 40.9533L341.722 41.0321L342.011 41.1053L342.289 41.173L342.558 41.2353L342.816 41.2925L343.063 41.3448L343.3 41.3923L343.526 41.4353L343.741 41.474L343.944 41.5086L344.136 41.5392L344.317 41.5662L344.486 41.5897L344.643 41.61L344.788 41.6273L344.922 41.6418L345.043 41.6538L345.153 41.6634L345.25 41.671L345.334 41.6768L345.407 41.6811L345.467 41.684L345.515 41.6858L345.55 41.6868L345.573 41.6872L345.583 41.6873L345.583 41.6873Z" fill="url(#paint1_linear)"/>
<rect x="235.625" y="54.375" width="59.2083" height="351.625" fill="url(#paint2_linear)"/>
<rect x="157.083" y="170.375" width="59.2083" height="235.625" fill="url(#paint3_linear)"/>
<rect x="78.5415" y="97.875" width="59.2083" height="308.125" fill="url(#paint4_linear)"/>
<rect y="300.875" width="59.2083" height="105.125" fill="url(#paint5_linear)"/>
<defs>
<linearGradient id="paint0_linear" x1="344.375" y1="1.61625e-06" x2="344.375" y2="406" gradientUnits="userSpaceOnUse">
<stop stop-color="#74EBD5"/>
<stop offset="1" stop-color="#9FACE6"/>
</linearGradient>
<linearGradient id="paint1_linear" x1="262.208" y1="41.6875" x2="345.583" y2="41.6875" gradientUnits="userSpaceOnUse">
<stop stop-color="#FFD465"/>
<stop offset="1" stop-color="#FDF185"/>
</linearGradient>
<linearGradient id="paint2_linear" x1="265.833" y1="54.375" x2="265.833" y2="406" gradientUnits="userSpaceOnUse">
<stop stop-color="#74EBD5"/>
<stop offset="1" stop-color="#9FACE6"/>
</linearGradient>
<linearGradient id="paint3_linear" x1="187.292" y1="170.375" x2="187.292" y2="406" gradientUnits="userSpaceOnUse">
<stop stop-color="#74EBD5"/>
<stop offset="1" stop-color="#9FACE6"/>
</linearGradient>
<linearGradient id="paint4_linear" x1="108.75" y1="97.875" x2="108.75" y2="406" gradientUnits="userSpaceOnUse">
<stop stop-color="#74EBD5"/>
<stop offset="1" stop-color="#9FACE6"/>
</linearGradient>
<linearGradient id="paint5_linear" x1="30.2083" y1="300.875" x2="30.2083" y2="406" gradientUnits="userSpaceOnUse">
<stop stop-color="#74EBD5"/>
<stop offset="1" stop-color="#9FACE6"/>
</linearGradient>
</defs>
</svg>
